M48
METRIC,LZ,000.000
;FILE_FORMAT=3:3
;TYPE=PLATED
;Layer: Drill PTH
;EasyEDA v6.4.17, 2021-03-07T18:10:31--5:00
;e25061b296f74d69aa4e7e1dce6dd44d,c4bdc1ed97a445b28c1ad428ea0dbb50,10
;Gerber Generator version 0.2
;Holesize 1 = 0.305 mm
T01C0.305
;Holesize 2 = 0.310 mm
T02C0.310
;Holesize 3 = 0.712 mm
T03C0.712
;Holesize 4 = 0.889 mm
T04C0.889
;Holesize 5 = 0.900 mm
T05C0.900
;Holesize 6 = 0.915 mm
T06C0.915
;Holesize 7 = 1.101 mm
T07C1.101
%
G05
G90
T01
X080518Y-075057
X081280Y-077969
T02
X039243Y-084582
X053467Y-086741
X083312Y-070104
X085598Y-062962
X085598Y-066359
X087630Y-070942
X087630Y-077800
T03
X038354Y-089408
X040894Y-089408
X043434Y-089408
X045974Y-089408
X048514Y-089408
X051054Y-089408
X053594Y-089408
X053594Y-081788
X051054Y-081788
X048514Y-081788
X045974Y-081788
X043434Y-081788
X040894Y-081788
X038354Y-081788
T04
X033528Y-086995
X033528Y-095250
X011430Y-074930
X013970Y-074930
X011430Y-082677
X013970Y-082677
X030988Y-086995
X028448Y-086995
X025908Y-086995
X023368Y-086995
X020828Y-086995
X030988Y-095250
X028448Y-095250
X025908Y-095250
X023368Y-095250
X020828Y-095250
X011557Y-095250
T05
X026543Y-076327
X036703Y-076327
T06
X063500Y-095377
X066040Y-095377
X068580Y-095377
X071120Y-095377
X073660Y-095377
X076200Y-095377
X078740Y-095377
X081280Y-095377
X083820Y-095377
X086360Y-095377
X088900Y-095377
X091440Y-095377
X093980Y-095377
X096520Y-095377
X099060Y-095377
X063500Y-080137
X066040Y-080137
X068580Y-080137
X071120Y-080137
X073660Y-080137
X076200Y-080137
X078740Y-080137
X081280Y-080137
X083820Y-080137
X086360Y-080137
X088900Y-080137
X091440Y-080137
X093980Y-080137
X096520Y-080137
X099060Y-080137
T07
X099568Y-068199
X097028Y-068199
X094488Y-068199
X091948Y-068199
X089408Y-068199
X086868Y-068199
X084328Y-068199
X081788Y-068199
X079248Y-068199
X076708Y-068199
X074168Y-068199
X071628Y-068199
X069088Y-068199
X066548Y-068199
X064008Y-068199
X061468Y-068199
X058928Y-068199
X056388Y-068199
X053848Y-068199
X051308Y-068199
X048768Y-068199
X046228Y-068199
X043688Y-068199
X041148Y-068199
X038608Y-068199
X036068Y-068199
X033528Y-068199
X030988Y-068199
X028448Y-068199
X025908Y-068199
X023368Y-068199
X020828Y-068199
X018288Y-068199
X015748Y-068199
X099568Y-060960
X097028Y-060960
X094488Y-060960
X091948Y-060960
X089408Y-060960
X086868Y-060960
X084328Y-060960
X081788Y-060960
X079248Y-060960
X076708Y-060960
X074168Y-060960
X071628Y-060960
X069088Y-060960
X066548Y-060960
X064008Y-060960
X061468Y-060960
X058928Y-060960
X056388Y-060960
X053848Y-060960
X051308Y-060960
X048768Y-060960
X046228Y-060960
X043688Y-060960
X041148Y-060960
X038608Y-060960
X036068Y-060960
X033528Y-060960
X030988Y-060960
X028448Y-060960
X025908Y-060960
X023368Y-060960
X020828Y-060960
X018288Y-060960
X015748Y-060960
M30
