G04 Layer: BottomLayer*
G04 EasyEDA v6.4.17, 2021-03-07T18:10:31--5:00*
G04 e25061b296f74d69aa4e7e1dce6dd44d,c4bdc1ed97a445b28c1ad428ea0dbb50,10*
G04 Gerber Generator version 0.2*
G04 Scale: 100 percent, Rotated: No, Reflected: No *
G04 Dimensions in millimeters *
G04 leading zeros omitted , absolute positions ,4 integer and 5 decimal *
%FSLAX45Y45*%
%MOMM*%

%ADD11C,0.2600*%
%ADD12C,0.7500*%
%ADD13C,0.5000*%
%ADD14C,0.6100*%
%ADD15C,0.7000*%
%ADD16C,1.5748*%
%ADD17R,1.5748X1.5748*%
%ADD18R,1.7000X1.5240*%
%ADD19C,1.7000*%
%ADD21C,1.7780*%
%ADD23C,1.3970*%
%ADD24C,1.8796*%

%LPD*%
G36*
X774141Y-9804704D02*
G01*
X769670Y-9804603D01*
X765708Y-9802622D01*
X762965Y-9799066D01*
X762000Y-9794748D01*
X762000Y-5928360D01*
X762762Y-5924448D01*
X764997Y-5921197D01*
X768248Y-5918962D01*
X772160Y-5918200D01*
X5483402Y-5918200D01*
X5487314Y-5918962D01*
X5490616Y-5921197D01*
X5492800Y-5924448D01*
X5493562Y-5928360D01*
X5492800Y-5932271D01*
X5490616Y-5935522D01*
X5435549Y-5990590D01*
X5432145Y-5992825D01*
X5428183Y-5993587D01*
X5409438Y-5988151D01*
X5395417Y-5985865D01*
X5381244Y-5985408D01*
X5367121Y-5986780D01*
X5353304Y-5989929D01*
X5339994Y-5994857D01*
X5327446Y-6001410D01*
X5315813Y-6009487D01*
X5305348Y-6019038D01*
X5296154Y-6029807D01*
X5288381Y-6041694D01*
X5282234Y-6054496D01*
X5277764Y-6067958D01*
X5275072Y-6081877D01*
X5274157Y-6096000D01*
X5275072Y-6110122D01*
X5277764Y-6124041D01*
X5282234Y-6137503D01*
X5288381Y-6150305D01*
X5296154Y-6162192D01*
X5305348Y-6172962D01*
X5315813Y-6182512D01*
X5327446Y-6190589D01*
X5339994Y-6197142D01*
X5353304Y-6202070D01*
X5367121Y-6205220D01*
X5381244Y-6206591D01*
X5395417Y-6206134D01*
X5409438Y-6203848D01*
X5423001Y-6199835D01*
X5435955Y-6194094D01*
X5448096Y-6186728D01*
X5459171Y-6177889D01*
X5469026Y-6167729D01*
X5477510Y-6156350D01*
X5484469Y-6144006D01*
X5489803Y-6130848D01*
X5493410Y-6117132D01*
X5495188Y-6103112D01*
X5495188Y-6088888D01*
X5493410Y-6074867D01*
X5489803Y-6061151D01*
X5487873Y-6056376D01*
X5487111Y-6052515D01*
X5487924Y-6048654D01*
X5490108Y-6045352D01*
X5575655Y-5959805D01*
X5578906Y-5957620D01*
X5582818Y-5956858D01*
X8405469Y-5956858D01*
X8409381Y-5957620D01*
X8412632Y-5959805D01*
X8422233Y-5969406D01*
X8424367Y-5972556D01*
X8425180Y-5976264D01*
X8424621Y-5980023D01*
X8422690Y-5983274D01*
X8419693Y-5985611D01*
X8401304Y-5989929D01*
X8387994Y-5994857D01*
X8375446Y-6001410D01*
X8363813Y-6009487D01*
X8353348Y-6019038D01*
X8344153Y-6029807D01*
X8336381Y-6041694D01*
X8330234Y-6054496D01*
X8325764Y-6067958D01*
X8323072Y-6081877D01*
X8322157Y-6096000D01*
X8323072Y-6110122D01*
X8325764Y-6124041D01*
X8330234Y-6137503D01*
X8336381Y-6150305D01*
X8344153Y-6162192D01*
X8353348Y-6172962D01*
X8363813Y-6182512D01*
X8375446Y-6190589D01*
X8387994Y-6197142D01*
X8401304Y-6202070D01*
X8415121Y-6205220D01*
X8429244Y-6206591D01*
X8443417Y-6206134D01*
X8457438Y-6203848D01*
X8471001Y-6199835D01*
X8483955Y-6194094D01*
X8496096Y-6186728D01*
X8504631Y-6179921D01*
X8507984Y-6178143D01*
X8511743Y-6177737D01*
X8515400Y-6178702D01*
X8518448Y-6180937D01*
X8520430Y-6184138D01*
X8521141Y-6187846D01*
X8521141Y-6245047D01*
X8520430Y-6248704D01*
X8518448Y-6251905D01*
X8511946Y-6258966D01*
X8506510Y-6267348D01*
X8502446Y-6276543D01*
X8500008Y-6286246D01*
X8499195Y-6296202D01*
X8500008Y-6306210D01*
X8502446Y-6315913D01*
X8506510Y-6325057D01*
X8511946Y-6333439D01*
X8518753Y-6340805D01*
X8526627Y-6346952D01*
X8535466Y-6351727D01*
X8544915Y-6354978D01*
X8554770Y-6356604D01*
X8564829Y-6356604D01*
X8574684Y-6354978D01*
X8584133Y-6351727D01*
X8592972Y-6346952D01*
X8600846Y-6340805D01*
X8607653Y-6333439D01*
X8613089Y-6325057D01*
X8617153Y-6315913D01*
X8619591Y-6306210D01*
X8620404Y-6296202D01*
X8619591Y-6286246D01*
X8617153Y-6276543D01*
X8613089Y-6267348D01*
X8607653Y-6258966D01*
X8601151Y-6251905D01*
X8599170Y-6248704D01*
X8598458Y-6245047D01*
X8598458Y-6187846D01*
X8599220Y-6184036D01*
X8601303Y-6180785D01*
X8604504Y-6178550D01*
X8608263Y-6177686D01*
X8612124Y-6178346D01*
X8615426Y-6180328D01*
X8617813Y-6182512D01*
X8629446Y-6190589D01*
X8641994Y-6197142D01*
X8655304Y-6202070D01*
X8669121Y-6205220D01*
X8683244Y-6206591D01*
X8697417Y-6206134D01*
X8711438Y-6203848D01*
X8725001Y-6199835D01*
X8737955Y-6194094D01*
X8750096Y-6186728D01*
X8761171Y-6177889D01*
X8771026Y-6167729D01*
X8779510Y-6156350D01*
X8786469Y-6144006D01*
X8791803Y-6130848D01*
X8795410Y-6117132D01*
X8797188Y-6103112D01*
X8797188Y-6088888D01*
X8795410Y-6074867D01*
X8791803Y-6061151D01*
X8786469Y-6047994D01*
X8779510Y-6035649D01*
X8771026Y-6024270D01*
X8761171Y-6014110D01*
X8750096Y-6005271D01*
X8737955Y-5997905D01*
X8725001Y-5992164D01*
X8711438Y-5988151D01*
X8697417Y-5985865D01*
X8683244Y-5985408D01*
X8669121Y-5986780D01*
X8655304Y-5989929D01*
X8641994Y-5994857D01*
X8629446Y-6001410D01*
X8617813Y-6009487D01*
X8607348Y-6019038D01*
X8602421Y-6024829D01*
X8598865Y-6027470D01*
X8594598Y-6028385D01*
X8590280Y-6027369D01*
X8586774Y-6024626D01*
X8497671Y-5935522D01*
X8495487Y-5932271D01*
X8494725Y-5928360D01*
X8495487Y-5924448D01*
X8497671Y-5921197D01*
X8500973Y-5918962D01*
X8504885Y-5918200D01*
X10594340Y-5918200D01*
X10598251Y-5918962D01*
X10601502Y-5921197D01*
X10603738Y-5924448D01*
X10604500Y-5928360D01*
X10604500Y-9787483D01*
X10603738Y-9791395D01*
X10601502Y-9794697D01*
X10594797Y-9801402D01*
X10591495Y-9803638D01*
X10587583Y-9804400D01*
X775716Y-9804400D01*
G37*

%LPC*%
G36*
X6261658Y-9652254D02*
G01*
X6438341Y-9652254D01*
X6444589Y-9651542D01*
X6450025Y-9649663D01*
X6454851Y-9646615D01*
X6458915Y-9642551D01*
X6461963Y-9637725D01*
X6463842Y-9632289D01*
X6464554Y-9626041D01*
X6464554Y-9449358D01*
X6463842Y-9443110D01*
X6461963Y-9437674D01*
X6458915Y-9432848D01*
X6454851Y-9428784D01*
X6450025Y-9425736D01*
X6444589Y-9423857D01*
X6438341Y-9423146D01*
X6261658Y-9423146D01*
X6255410Y-9423857D01*
X6249974Y-9425736D01*
X6245148Y-9428784D01*
X6241084Y-9432848D01*
X6238036Y-9437674D01*
X6236157Y-9443110D01*
X6235446Y-9449358D01*
X6235446Y-9626041D01*
X6236157Y-9632289D01*
X6238036Y-9637725D01*
X6241084Y-9642551D01*
X6245148Y-9646615D01*
X6249974Y-9649663D01*
X6255410Y-9651542D01*
G37*
G36*
X7612786Y-9652000D02*
G01*
X7627213Y-9652000D01*
X7641437Y-9650222D01*
X7655407Y-9646615D01*
X7668768Y-9641332D01*
X7681366Y-9634423D01*
X7692999Y-9625939D01*
X7703515Y-9616084D01*
X7712659Y-9605010D01*
X7720380Y-9592868D01*
X7726476Y-9579864D01*
X7730947Y-9566198D01*
X7733639Y-9552076D01*
X7734553Y-9537700D01*
X7733639Y-9523323D01*
X7730947Y-9509201D01*
X7726476Y-9495536D01*
X7720380Y-9482531D01*
X7712659Y-9470390D01*
X7703515Y-9459315D01*
X7692999Y-9449460D01*
X7681366Y-9440976D01*
X7668768Y-9434068D01*
X7655407Y-9428784D01*
X7641437Y-9425178D01*
X7627213Y-9423400D01*
X7612786Y-9423400D01*
X7598562Y-9425178D01*
X7584592Y-9428784D01*
X7571231Y-9434068D01*
X7558633Y-9440976D01*
X7547000Y-9449460D01*
X7536484Y-9459315D01*
X7527340Y-9470390D01*
X7519619Y-9482531D01*
X7513523Y-9495536D01*
X7509052Y-9509201D01*
X7506360Y-9523323D01*
X7505446Y-9537700D01*
X7506360Y-9552076D01*
X7509052Y-9566198D01*
X7513523Y-9579864D01*
X7519619Y-9592868D01*
X7527340Y-9605010D01*
X7536484Y-9616084D01*
X7547000Y-9625939D01*
X7558633Y-9634423D01*
X7571231Y-9641332D01*
X7584592Y-9646615D01*
X7598562Y-9650222D01*
G37*
G36*
X6850786Y-9652000D02*
G01*
X6865213Y-9652000D01*
X6879437Y-9650222D01*
X6893407Y-9646615D01*
X6906768Y-9641332D01*
X6919366Y-9634423D01*
X6930999Y-9625939D01*
X6941515Y-9616084D01*
X6950659Y-9605010D01*
X6958380Y-9592868D01*
X6964476Y-9579864D01*
X6968947Y-9566198D01*
X6971639Y-9552076D01*
X6972553Y-9537700D01*
X6971639Y-9523323D01*
X6968947Y-9509201D01*
X6964476Y-9495536D01*
X6958380Y-9482531D01*
X6950659Y-9470390D01*
X6941515Y-9459315D01*
X6930999Y-9449460D01*
X6919366Y-9440976D01*
X6906768Y-9434068D01*
X6893407Y-9428784D01*
X6879437Y-9425178D01*
X6865213Y-9423400D01*
X6850786Y-9423400D01*
X6836562Y-9425178D01*
X6822592Y-9428784D01*
X6809231Y-9434068D01*
X6796633Y-9440976D01*
X6785000Y-9449460D01*
X6774484Y-9459315D01*
X6765340Y-9470390D01*
X6757619Y-9482531D01*
X6751523Y-9495536D01*
X6747052Y-9509201D01*
X6744360Y-9523323D01*
X6743446Y-9537700D01*
X6744360Y-9552076D01*
X6747052Y-9566198D01*
X6751523Y-9579864D01*
X6757619Y-9592868D01*
X6765340Y-9605010D01*
X6774484Y-9616084D01*
X6785000Y-9625939D01*
X6796633Y-9634423D01*
X6809231Y-9641332D01*
X6822592Y-9646615D01*
X6836562Y-9650222D01*
G37*
G36*
X7104786Y-9652000D02*
G01*
X7119213Y-9652000D01*
X7133437Y-9650222D01*
X7147407Y-9646615D01*
X7160768Y-9641332D01*
X7173366Y-9634423D01*
X7184999Y-9625939D01*
X7195515Y-9616084D01*
X7204659Y-9605010D01*
X7212380Y-9592868D01*
X7218476Y-9579864D01*
X7222947Y-9566198D01*
X7225639Y-9552076D01*
X7226553Y-9537700D01*
X7225639Y-9523323D01*
X7222947Y-9509201D01*
X7218476Y-9495536D01*
X7212380Y-9482531D01*
X7204659Y-9470390D01*
X7195515Y-9459315D01*
X7184999Y-9449460D01*
X7173366Y-9440976D01*
X7160768Y-9434068D01*
X7147407Y-9428784D01*
X7133437Y-9425178D01*
X7119213Y-9423400D01*
X7104786Y-9423400D01*
X7090562Y-9425178D01*
X7076592Y-9428784D01*
X7063231Y-9434068D01*
X7050633Y-9440976D01*
X7039000Y-9449460D01*
X7028484Y-9459315D01*
X7019340Y-9470390D01*
X7011619Y-9482531D01*
X7005523Y-9495536D01*
X7001052Y-9509201D01*
X6998360Y-9523323D01*
X6997446Y-9537700D01*
X6998360Y-9552076D01*
X7001052Y-9566198D01*
X7005523Y-9579864D01*
X7011619Y-9592868D01*
X7019340Y-9605010D01*
X7028484Y-9616084D01*
X7039000Y-9625939D01*
X7050633Y-9634423D01*
X7063231Y-9641332D01*
X7076592Y-9646615D01*
X7090562Y-9650222D01*
G37*
G36*
X6596786Y-9652000D02*
G01*
X6611213Y-9652000D01*
X6625437Y-9650222D01*
X6639407Y-9646615D01*
X6652768Y-9641332D01*
X6665366Y-9634423D01*
X6676999Y-9625939D01*
X6687515Y-9616084D01*
X6696659Y-9605010D01*
X6704380Y-9592868D01*
X6710476Y-9579864D01*
X6714947Y-9566198D01*
X6717639Y-9552076D01*
X6718553Y-9537700D01*
X6717639Y-9523323D01*
X6714947Y-9509201D01*
X6710476Y-9495536D01*
X6704380Y-9482531D01*
X6696659Y-9470390D01*
X6687515Y-9459315D01*
X6676999Y-9449460D01*
X6665366Y-9440976D01*
X6652768Y-9434068D01*
X6639407Y-9428784D01*
X6625437Y-9425178D01*
X6611213Y-9423400D01*
X6596786Y-9423400D01*
X6582562Y-9425178D01*
X6568592Y-9428784D01*
X6555231Y-9434068D01*
X6542633Y-9440976D01*
X6531000Y-9449460D01*
X6520484Y-9459315D01*
X6511340Y-9470390D01*
X6503619Y-9482531D01*
X6497523Y-9495536D01*
X6493052Y-9509201D01*
X6490360Y-9523323D01*
X6489446Y-9537700D01*
X6490360Y-9552076D01*
X6493052Y-9566198D01*
X6497523Y-9579864D01*
X6503619Y-9592868D01*
X6511340Y-9605010D01*
X6520484Y-9616084D01*
X6531000Y-9625939D01*
X6542633Y-9634423D01*
X6555231Y-9641332D01*
X6568592Y-9646615D01*
X6582562Y-9650222D01*
G37*
G36*
X7866786Y-9652000D02*
G01*
X7881213Y-9652000D01*
X7895437Y-9650222D01*
X7909407Y-9646615D01*
X7922768Y-9641332D01*
X7935366Y-9634423D01*
X7946999Y-9625939D01*
X7957515Y-9616084D01*
X7966659Y-9605010D01*
X7974380Y-9592868D01*
X7980476Y-9579864D01*
X7984947Y-9566198D01*
X7987639Y-9552076D01*
X7988553Y-9537700D01*
X7987639Y-9523323D01*
X7984947Y-9509201D01*
X7980476Y-9495536D01*
X7974380Y-9482531D01*
X7966659Y-9470390D01*
X7957515Y-9459315D01*
X7946999Y-9449460D01*
X7935366Y-9440976D01*
X7922768Y-9434068D01*
X7909407Y-9428784D01*
X7895437Y-9425178D01*
X7881213Y-9423400D01*
X7866786Y-9423400D01*
X7852562Y-9425178D01*
X7838592Y-9428784D01*
X7825231Y-9434068D01*
X7812633Y-9440976D01*
X7801000Y-9449460D01*
X7790484Y-9459315D01*
X7781340Y-9470390D01*
X7773619Y-9482531D01*
X7767523Y-9495536D01*
X7763052Y-9509201D01*
X7760360Y-9523323D01*
X7759446Y-9537700D01*
X7760360Y-9552076D01*
X7763052Y-9566198D01*
X7767523Y-9579864D01*
X7773619Y-9592868D01*
X7781340Y-9605010D01*
X7790484Y-9616084D01*
X7801000Y-9625939D01*
X7812633Y-9634423D01*
X7825231Y-9641332D01*
X7838592Y-9646615D01*
X7852562Y-9650222D01*
G37*
G36*
X7358786Y-9652000D02*
G01*
X7373213Y-9652000D01*
X7387437Y-9650222D01*
X7401407Y-9646615D01*
X7414768Y-9641332D01*
X7427366Y-9634423D01*
X7438999Y-9625939D01*
X7449515Y-9616084D01*
X7458659Y-9605010D01*
X7466380Y-9592868D01*
X7472476Y-9579864D01*
X7476947Y-9566198D01*
X7479639Y-9552076D01*
X7480553Y-9537700D01*
X7479639Y-9523323D01*
X7476947Y-9509201D01*
X7472476Y-9495536D01*
X7466380Y-9482531D01*
X7458659Y-9470390D01*
X7449515Y-9459315D01*
X7438999Y-9449460D01*
X7427366Y-9440976D01*
X7414768Y-9434068D01*
X7401407Y-9428784D01*
X7387437Y-9425178D01*
X7373213Y-9423400D01*
X7358786Y-9423400D01*
X7344562Y-9425178D01*
X7330592Y-9428784D01*
X7317231Y-9434068D01*
X7304633Y-9440976D01*
X7293000Y-9449460D01*
X7282484Y-9459315D01*
X7273340Y-9470390D01*
X7265619Y-9482531D01*
X7259523Y-9495536D01*
X7255052Y-9509201D01*
X7252360Y-9523323D01*
X7251446Y-9537700D01*
X7252360Y-9552076D01*
X7255052Y-9566198D01*
X7259523Y-9579864D01*
X7265619Y-9592868D01*
X7273340Y-9605010D01*
X7282484Y-9616084D01*
X7293000Y-9625939D01*
X7304633Y-9634423D01*
X7317231Y-9641332D01*
X7330592Y-9646615D01*
X7344562Y-9650222D01*
G37*
G36*
X8120786Y-9652000D02*
G01*
X8135213Y-9652000D01*
X8149437Y-9650222D01*
X8163407Y-9646615D01*
X8176768Y-9641332D01*
X8189366Y-9634423D01*
X8200999Y-9625939D01*
X8211515Y-9616084D01*
X8220659Y-9605010D01*
X8228380Y-9592868D01*
X8234476Y-9579864D01*
X8238947Y-9566198D01*
X8241639Y-9552076D01*
X8242553Y-9537700D01*
X8241639Y-9523323D01*
X8238947Y-9509201D01*
X8234425Y-9495434D01*
X8233460Y-9491421D01*
X8234172Y-9487357D01*
X8236458Y-9483902D01*
X8273338Y-9447022D01*
X8278469Y-9440773D01*
X8282025Y-9434118D01*
X8284209Y-9426854D01*
X8285022Y-9418828D01*
X8285022Y-8102904D01*
X8285784Y-8099094D01*
X8287918Y-8095792D01*
X8291118Y-8093608D01*
X8294979Y-8092744D01*
X8298840Y-8093405D01*
X8302142Y-8095488D01*
X8309000Y-8101939D01*
X8320633Y-8110423D01*
X8333231Y-8117331D01*
X8346592Y-8122615D01*
X8360562Y-8126222D01*
X8374786Y-8128000D01*
X8389213Y-8128000D01*
X8403437Y-8126222D01*
X8417407Y-8122615D01*
X8430768Y-8117331D01*
X8443366Y-8110423D01*
X8448649Y-8106562D01*
X8452713Y-8104835D01*
X8457133Y-8104987D01*
X8461095Y-8106968D01*
X8463788Y-8110474D01*
X8464753Y-8114792D01*
X8464753Y-9396069D01*
X8463991Y-9399981D01*
X8461806Y-9403232D01*
X8435644Y-9429394D01*
X8432393Y-9431578D01*
X8428532Y-9432391D01*
X8424722Y-9431680D01*
X8417407Y-9428784D01*
X8403437Y-9425178D01*
X8389213Y-9423400D01*
X8374786Y-9423400D01*
X8360562Y-9425178D01*
X8346592Y-9428784D01*
X8333231Y-9434068D01*
X8320633Y-9440976D01*
X8309000Y-9449460D01*
X8298484Y-9459315D01*
X8289340Y-9470390D01*
X8281619Y-9482531D01*
X8275523Y-9495536D01*
X8271052Y-9509201D01*
X8268360Y-9523323D01*
X8267446Y-9537700D01*
X8268360Y-9552076D01*
X8271052Y-9566198D01*
X8275523Y-9579864D01*
X8281619Y-9592868D01*
X8289340Y-9605010D01*
X8298484Y-9616084D01*
X8309000Y-9625939D01*
X8320633Y-9634423D01*
X8333231Y-9641332D01*
X8346592Y-9646615D01*
X8360562Y-9650222D01*
X8374786Y-9652000D01*
X8389213Y-9652000D01*
X8403437Y-9650222D01*
X8417407Y-9646615D01*
X8430768Y-9641332D01*
X8443366Y-9634423D01*
X8454999Y-9625939D01*
X8465515Y-9616084D01*
X8474659Y-9605010D01*
X8482380Y-9592868D01*
X8488476Y-9579864D01*
X8492947Y-9566198D01*
X8495639Y-9552076D01*
X8496554Y-9537700D01*
X8495639Y-9523323D01*
X8492947Y-9509201D01*
X8488426Y-9495434D01*
X8487460Y-9491421D01*
X8488172Y-9487357D01*
X8490458Y-9483902D01*
X8530386Y-9443974D01*
X8535517Y-9437725D01*
X8539073Y-9431070D01*
X8541258Y-9423806D01*
X8542070Y-9415780D01*
X8542070Y-8105800D01*
X8542832Y-8101939D01*
X8544966Y-8098688D01*
X8548166Y-8096453D01*
X8552027Y-8095640D01*
X8555888Y-8096300D01*
X8559190Y-8098383D01*
X8563000Y-8101939D01*
X8574633Y-8110423D01*
X8587232Y-8117331D01*
X8600592Y-8122615D01*
X8614562Y-8126222D01*
X8628786Y-8128000D01*
X8643213Y-8128000D01*
X8657437Y-8126222D01*
X8671407Y-8122615D01*
X8684768Y-8117331D01*
X8697366Y-8110423D01*
X8708237Y-8102549D01*
X8712301Y-8100771D01*
X8716721Y-8100923D01*
X8720683Y-8102904D01*
X8723376Y-8106409D01*
X8724341Y-8110728D01*
X8724341Y-9390481D01*
X8723579Y-9394393D01*
X8721394Y-9397644D01*
X8689644Y-9429394D01*
X8686393Y-9431578D01*
X8682532Y-9432391D01*
X8678722Y-9431680D01*
X8671407Y-9428784D01*
X8657437Y-9425178D01*
X8643213Y-9423400D01*
X8628786Y-9423400D01*
X8614562Y-9425178D01*
X8600592Y-9428784D01*
X8587232Y-9434068D01*
X8574633Y-9440976D01*
X8563000Y-9449460D01*
X8552484Y-9459315D01*
X8543340Y-9470390D01*
X8535619Y-9482531D01*
X8529523Y-9495536D01*
X8525052Y-9509201D01*
X8522360Y-9523323D01*
X8521446Y-9537700D01*
X8522360Y-9552076D01*
X8525052Y-9566198D01*
X8529523Y-9579864D01*
X8535619Y-9592868D01*
X8543340Y-9605010D01*
X8552484Y-9616084D01*
X8563000Y-9625939D01*
X8574633Y-9634423D01*
X8587232Y-9641332D01*
X8600592Y-9646615D01*
X8614562Y-9650222D01*
X8628786Y-9652000D01*
X8643213Y-9652000D01*
X8657437Y-9650222D01*
X8671407Y-9646615D01*
X8684768Y-9641332D01*
X8697366Y-9634423D01*
X8708999Y-9625939D01*
X8719515Y-9616084D01*
X8728659Y-9605010D01*
X8736380Y-9592868D01*
X8742476Y-9579864D01*
X8746947Y-9566198D01*
X8749639Y-9552076D01*
X8750554Y-9537700D01*
X8749639Y-9523323D01*
X8746947Y-9509201D01*
X8742426Y-9495434D01*
X8741460Y-9491421D01*
X8742172Y-9487357D01*
X8744458Y-9483902D01*
X8789974Y-9438386D01*
X8795105Y-9432137D01*
X8798661Y-9425482D01*
X8800846Y-9418218D01*
X8801658Y-9410192D01*
X8801658Y-8110728D01*
X8802624Y-8106409D01*
X8805316Y-8102904D01*
X8809278Y-8100923D01*
X8813698Y-8100771D01*
X8817762Y-8102549D01*
X8828633Y-8110423D01*
X8841232Y-8117331D01*
X8854592Y-8122615D01*
X8868562Y-8126222D01*
X8882786Y-8128000D01*
X8897213Y-8128000D01*
X8911437Y-8126222D01*
X8925407Y-8122615D01*
X8938768Y-8117331D01*
X8951366Y-8110423D01*
X8956649Y-8106562D01*
X8960713Y-8104835D01*
X8965133Y-8104987D01*
X8969095Y-8106968D01*
X8971788Y-8110474D01*
X8972753Y-8114792D01*
X8972753Y-9396069D01*
X8971991Y-9399981D01*
X8969806Y-9403232D01*
X8943644Y-9429394D01*
X8940393Y-9431578D01*
X8936532Y-9432391D01*
X8932722Y-9431680D01*
X8925407Y-9428784D01*
X8911437Y-9425178D01*
X8897213Y-9423400D01*
X8882786Y-9423400D01*
X8868562Y-9425178D01*
X8854592Y-9428784D01*
X8841232Y-9434068D01*
X8828633Y-9440976D01*
X8817000Y-9449460D01*
X8806484Y-9459315D01*
X8797340Y-9470390D01*
X8789619Y-9482531D01*
X8783523Y-9495536D01*
X8779052Y-9509201D01*
X8776360Y-9523323D01*
X8775446Y-9537700D01*
X8776360Y-9552076D01*
X8779052Y-9566198D01*
X8783523Y-9579864D01*
X8789619Y-9592868D01*
X8797340Y-9605010D01*
X8806484Y-9616084D01*
X8817000Y-9625939D01*
X8828633Y-9634423D01*
X8841232Y-9641332D01*
X8854592Y-9646615D01*
X8868562Y-9650222D01*
X8882786Y-9652000D01*
X8897213Y-9652000D01*
X8911437Y-9650222D01*
X8925407Y-9646615D01*
X8938768Y-9641332D01*
X8951366Y-9634423D01*
X8962999Y-9625939D01*
X8973515Y-9616084D01*
X8982659Y-9605010D01*
X8990380Y-9592868D01*
X8996476Y-9579864D01*
X9000947Y-9566198D01*
X9003639Y-9552076D01*
X9004554Y-9537700D01*
X9003639Y-9523323D01*
X9000947Y-9509201D01*
X8996426Y-9495434D01*
X8995460Y-9491421D01*
X8996172Y-9487357D01*
X8998458Y-9483902D01*
X9038386Y-9443974D01*
X9043517Y-9437725D01*
X9047073Y-9431070D01*
X9049258Y-9423806D01*
X9050070Y-9415780D01*
X9050070Y-8105800D01*
X9050832Y-8101939D01*
X9052966Y-8098688D01*
X9056166Y-8096453D01*
X9060027Y-8095640D01*
X9063888Y-8096300D01*
X9067190Y-8098383D01*
X9071000Y-8101939D01*
X9082633Y-8110423D01*
X9095232Y-8117331D01*
X9108592Y-8122615D01*
X9122562Y-8126222D01*
X9136786Y-8128000D01*
X9151213Y-8128000D01*
X9165437Y-8126222D01*
X9179407Y-8122615D01*
X9192768Y-8117331D01*
X9205366Y-8110423D01*
X9216237Y-8102549D01*
X9220301Y-8100771D01*
X9224721Y-8100923D01*
X9228683Y-8102904D01*
X9231376Y-8106409D01*
X9232341Y-8110728D01*
X9232341Y-9390481D01*
X9231579Y-9394393D01*
X9229394Y-9397644D01*
X9197644Y-9429394D01*
X9194393Y-9431578D01*
X9190532Y-9432391D01*
X9186722Y-9431680D01*
X9179407Y-9428784D01*
X9165437Y-9425178D01*
X9151213Y-9423400D01*
X9136786Y-9423400D01*
X9122562Y-9425178D01*
X9108592Y-9428784D01*
X9095232Y-9434068D01*
X9082633Y-9440976D01*
X9071000Y-9449460D01*
X9060484Y-9459315D01*
X9051340Y-9470390D01*
X9043619Y-9482531D01*
X9037523Y-9495536D01*
X9033052Y-9509201D01*
X9030360Y-9523323D01*
X9029446Y-9537700D01*
X9030360Y-9552076D01*
X9033052Y-9566198D01*
X9037523Y-9579864D01*
X9043619Y-9592868D01*
X9051340Y-9605010D01*
X9060484Y-9616084D01*
X9071000Y-9625939D01*
X9082633Y-9634423D01*
X9095232Y-9641332D01*
X9108592Y-9646615D01*
X9122562Y-9650222D01*
X9136786Y-9652000D01*
X9151213Y-9652000D01*
X9165437Y-9650222D01*
X9179407Y-9646615D01*
X9192768Y-9641332D01*
X9205366Y-9634423D01*
X9216999Y-9625939D01*
X9227515Y-9616084D01*
X9236659Y-9605010D01*
X9244380Y-9592868D01*
X9250476Y-9579864D01*
X9254947Y-9566198D01*
X9257639Y-9552076D01*
X9258554Y-9537700D01*
X9257639Y-9523323D01*
X9254947Y-9509201D01*
X9250426Y-9495434D01*
X9249460Y-9491421D01*
X9250172Y-9487357D01*
X9252458Y-9483902D01*
X9297974Y-9438386D01*
X9303105Y-9432137D01*
X9306661Y-9425482D01*
X9308846Y-9418218D01*
X9309658Y-9410192D01*
X9309658Y-8110728D01*
X9310624Y-8106409D01*
X9313316Y-8102904D01*
X9317278Y-8100923D01*
X9321698Y-8100771D01*
X9325762Y-8102549D01*
X9336633Y-8110423D01*
X9349232Y-8117331D01*
X9362592Y-8122615D01*
X9376562Y-8126222D01*
X9390786Y-8128000D01*
X9405213Y-8128000D01*
X9419437Y-8126222D01*
X9433407Y-8122615D01*
X9446768Y-8117331D01*
X9459366Y-8110423D01*
X9470237Y-8102549D01*
X9474301Y-8100771D01*
X9478721Y-8100923D01*
X9482683Y-8102904D01*
X9485376Y-8106409D01*
X9486341Y-8110728D01*
X9486341Y-9390481D01*
X9485579Y-9394393D01*
X9483394Y-9397644D01*
X9451644Y-9429394D01*
X9448393Y-9431578D01*
X9444532Y-9432391D01*
X9440722Y-9431680D01*
X9433407Y-9428784D01*
X9419437Y-9425178D01*
X9405213Y-9423400D01*
X9390786Y-9423400D01*
X9376562Y-9425178D01*
X9362592Y-9428784D01*
X9349232Y-9434068D01*
X9336633Y-9440976D01*
X9325000Y-9449460D01*
X9314484Y-9459315D01*
X9305340Y-9470390D01*
X9297619Y-9482531D01*
X9291523Y-9495536D01*
X9287052Y-9509201D01*
X9284360Y-9523323D01*
X9283446Y-9537700D01*
X9284360Y-9552076D01*
X9287052Y-9566198D01*
X9291523Y-9579864D01*
X9297619Y-9592868D01*
X9305340Y-9605010D01*
X9314484Y-9616084D01*
X9325000Y-9625939D01*
X9336633Y-9634423D01*
X9349232Y-9641332D01*
X9362592Y-9646615D01*
X9376562Y-9650222D01*
X9390786Y-9652000D01*
X9405213Y-9652000D01*
X9419437Y-9650222D01*
X9433407Y-9646615D01*
X9446768Y-9641332D01*
X9459366Y-9634423D01*
X9470999Y-9625939D01*
X9481515Y-9616084D01*
X9490659Y-9605010D01*
X9498380Y-9592868D01*
X9504476Y-9579864D01*
X9508947Y-9566198D01*
X9511639Y-9552076D01*
X9512554Y-9537700D01*
X9511639Y-9523323D01*
X9508947Y-9509201D01*
X9504426Y-9495434D01*
X9503460Y-9491421D01*
X9504172Y-9487357D01*
X9506458Y-9483902D01*
X9551974Y-9438386D01*
X9557105Y-9432137D01*
X9560661Y-9425482D01*
X9562846Y-9418218D01*
X9563658Y-9410192D01*
X9563658Y-8110728D01*
X9564624Y-8106409D01*
X9567316Y-8102904D01*
X9571278Y-8100923D01*
X9575698Y-8100771D01*
X9579762Y-8102549D01*
X9590633Y-8110423D01*
X9603232Y-8117331D01*
X9616592Y-8122615D01*
X9630562Y-8126222D01*
X9644786Y-8128000D01*
X9659213Y-8128000D01*
X9673437Y-8126222D01*
X9687407Y-8122615D01*
X9700768Y-8117331D01*
X9713366Y-8110423D01*
X9724237Y-8102549D01*
X9728301Y-8100771D01*
X9732721Y-8100923D01*
X9736683Y-8102904D01*
X9739376Y-8106409D01*
X9740341Y-8110728D01*
X9740341Y-9390481D01*
X9739579Y-9394393D01*
X9737394Y-9397644D01*
X9705644Y-9429394D01*
X9702393Y-9431578D01*
X9698532Y-9432391D01*
X9694722Y-9431680D01*
X9687407Y-9428784D01*
X9673437Y-9425178D01*
X9659213Y-9423400D01*
X9644786Y-9423400D01*
X9630562Y-9425178D01*
X9616592Y-9428784D01*
X9603232Y-9434068D01*
X9590633Y-9440976D01*
X9579000Y-9449460D01*
X9568484Y-9459315D01*
X9559340Y-9470390D01*
X9551619Y-9482531D01*
X9545523Y-9495536D01*
X9541052Y-9509201D01*
X9538360Y-9523323D01*
X9537446Y-9537700D01*
X9538360Y-9552076D01*
X9541052Y-9566198D01*
X9545523Y-9579864D01*
X9551619Y-9592868D01*
X9559340Y-9605010D01*
X9568484Y-9616084D01*
X9579000Y-9625939D01*
X9590633Y-9634423D01*
X9603232Y-9641332D01*
X9616592Y-9646615D01*
X9630562Y-9650222D01*
X9644786Y-9652000D01*
X9659213Y-9652000D01*
X9673437Y-9650222D01*
X9687407Y-9646615D01*
X9700768Y-9641332D01*
X9713366Y-9634423D01*
X9724999Y-9625939D01*
X9735515Y-9616084D01*
X9744659Y-9605010D01*
X9752380Y-9592868D01*
X9758476Y-9579864D01*
X9762947Y-9566198D01*
X9765639Y-9552076D01*
X9766554Y-9537700D01*
X9765639Y-9523323D01*
X9762947Y-9509201D01*
X9758426Y-9495434D01*
X9757460Y-9491421D01*
X9758172Y-9487357D01*
X9760458Y-9483902D01*
X9805974Y-9438386D01*
X9811105Y-9432137D01*
X9814661Y-9425482D01*
X9816846Y-9418218D01*
X9817658Y-9410192D01*
X9817658Y-8110728D01*
X9818624Y-8106409D01*
X9821316Y-8102904D01*
X9825278Y-8100923D01*
X9829698Y-8100771D01*
X9833762Y-8102549D01*
X9844633Y-8110423D01*
X9857232Y-8117331D01*
X9870592Y-8122615D01*
X9884562Y-8126222D01*
X9898786Y-8128000D01*
X9913213Y-8128000D01*
X9927437Y-8126222D01*
X9941407Y-8122615D01*
X9954768Y-8117331D01*
X9967366Y-8110423D01*
X9972903Y-8106409D01*
X9976967Y-8104631D01*
X9981387Y-8104784D01*
X9985349Y-8106816D01*
X9988042Y-8110270D01*
X9989007Y-8114639D01*
X9989007Y-9396018D01*
X9988245Y-9399930D01*
X9986010Y-9403232D01*
X9959746Y-9429445D01*
X9956495Y-9431629D01*
X9952685Y-9432442D01*
X9948824Y-9431731D01*
X9941407Y-9428784D01*
X9927437Y-9425178D01*
X9913213Y-9423400D01*
X9898786Y-9423400D01*
X9884562Y-9425178D01*
X9870592Y-9428784D01*
X9857232Y-9434068D01*
X9844633Y-9440976D01*
X9833000Y-9449460D01*
X9822484Y-9459315D01*
X9813340Y-9470390D01*
X9805619Y-9482531D01*
X9799523Y-9495536D01*
X9795052Y-9509201D01*
X9792360Y-9523323D01*
X9791446Y-9537700D01*
X9792360Y-9552076D01*
X9795052Y-9566198D01*
X9799523Y-9579864D01*
X9805619Y-9592868D01*
X9813340Y-9605010D01*
X9822484Y-9616084D01*
X9833000Y-9625939D01*
X9844633Y-9634423D01*
X9857232Y-9641332D01*
X9870592Y-9646615D01*
X9884562Y-9650222D01*
X9898786Y-9652000D01*
X9913213Y-9652000D01*
X9927437Y-9650222D01*
X9941407Y-9646615D01*
X9954768Y-9641332D01*
X9967366Y-9634423D01*
X9978999Y-9625939D01*
X9989515Y-9616084D01*
X9998659Y-9605010D01*
X10006380Y-9592868D01*
X10012476Y-9579864D01*
X10016947Y-9566198D01*
X10019639Y-9552076D01*
X10020554Y-9537700D01*
X10019639Y-9523323D01*
X10016947Y-9509252D01*
X10012019Y-9494418D01*
X10011562Y-9490710D01*
X10012426Y-9487103D01*
X10014508Y-9484004D01*
X10054640Y-9444024D01*
X10059720Y-9437776D01*
X10063327Y-9431121D01*
X10065512Y-9423857D01*
X10066324Y-9415780D01*
X10066324Y-6996684D01*
X10065512Y-6988657D01*
X10063327Y-6981393D01*
X10059771Y-6974738D01*
X10054640Y-6968490D01*
X10025227Y-6939076D01*
X10023043Y-6935825D01*
X10022281Y-6931914D01*
X10023043Y-6928002D01*
X10025227Y-6924751D01*
X10028529Y-6922516D01*
X10032441Y-6921753D01*
X10041229Y-6921753D01*
X10047478Y-6921042D01*
X10052913Y-6919163D01*
X10057739Y-6916115D01*
X10061803Y-6912051D01*
X10064851Y-6907225D01*
X10066731Y-6901789D01*
X10067442Y-6895541D01*
X10067442Y-6744258D01*
X10066731Y-6738010D01*
X10064851Y-6732574D01*
X10061803Y-6727748D01*
X10057739Y-6723684D01*
X10052913Y-6720636D01*
X10047478Y-6718757D01*
X10041229Y-6718046D01*
X9872370Y-6718046D01*
X9866122Y-6718757D01*
X9860686Y-6720636D01*
X9855860Y-6723684D01*
X9851796Y-6727748D01*
X9848748Y-6732574D01*
X9846868Y-6738010D01*
X9846157Y-6744258D01*
X9846157Y-6895541D01*
X9846868Y-6901789D01*
X9848748Y-6907225D01*
X9851796Y-6912051D01*
X9855860Y-6916115D01*
X9860686Y-6919163D01*
X9866122Y-6921042D01*
X9872370Y-6921753D01*
X9908641Y-6921753D01*
X9912299Y-6922414D01*
X9915448Y-6924395D01*
X9917734Y-6927342D01*
X9918750Y-6930898D01*
X9918954Y-6932828D01*
X9921138Y-6940092D01*
X9924694Y-6946747D01*
X9929825Y-6952996D01*
X9986060Y-7009231D01*
X9988245Y-7012482D01*
X9989007Y-7016394D01*
X9989007Y-7912760D01*
X9988042Y-7917129D01*
X9985349Y-7920583D01*
X9981387Y-7922615D01*
X9976967Y-7922768D01*
X9972903Y-7920990D01*
X9967366Y-7916976D01*
X9954768Y-7910068D01*
X9941407Y-7904784D01*
X9927437Y-7901178D01*
X9913213Y-7899400D01*
X9898786Y-7899400D01*
X9884562Y-7901178D01*
X9870592Y-7904784D01*
X9857232Y-7910068D01*
X9844633Y-7916976D01*
X9833762Y-7924850D01*
X9829698Y-7926628D01*
X9825278Y-7926476D01*
X9821316Y-7924495D01*
X9818624Y-7920990D01*
X9817658Y-7916672D01*
X9817658Y-6896608D01*
X9816846Y-6888581D01*
X9814661Y-6881317D01*
X9811105Y-6874662D01*
X9807346Y-6870039D01*
X9805568Y-6866890D01*
X9805009Y-6863334D01*
X9805771Y-6859778D01*
X9807803Y-6854748D01*
X9811410Y-6841032D01*
X9813188Y-6827012D01*
X9813188Y-6812788D01*
X9811410Y-6798767D01*
X9807803Y-6785051D01*
X9802469Y-6771894D01*
X9795510Y-6759549D01*
X9787026Y-6748170D01*
X9777171Y-6738010D01*
X9766096Y-6729171D01*
X9753955Y-6721805D01*
X9741001Y-6716064D01*
X9727438Y-6712051D01*
X9713417Y-6709765D01*
X9699244Y-6709308D01*
X9685121Y-6710680D01*
X9671304Y-6713829D01*
X9657994Y-6718757D01*
X9645446Y-6725310D01*
X9633813Y-6733387D01*
X9623348Y-6742938D01*
X9614154Y-6753707D01*
X9606381Y-6765594D01*
X9600234Y-6778396D01*
X9595764Y-6791858D01*
X9593072Y-6805777D01*
X9592157Y-6819900D01*
X9593072Y-6834022D01*
X9595764Y-6847941D01*
X9600234Y-6861403D01*
X9606381Y-6874205D01*
X9614154Y-6886092D01*
X9623348Y-6896862D01*
X9633813Y-6906412D01*
X9645446Y-6914489D01*
X9657994Y-6921042D01*
X9671304Y-6925970D01*
X9685121Y-6929120D01*
X9699244Y-6930491D01*
X9713417Y-6930034D01*
X9728504Y-6927494D01*
X9732873Y-6927748D01*
X9736734Y-6929780D01*
X9739426Y-6933285D01*
X9740341Y-6937552D01*
X9740341Y-7916672D01*
X9739376Y-7920990D01*
X9736683Y-7924495D01*
X9732721Y-7926476D01*
X9728301Y-7926628D01*
X9724237Y-7924850D01*
X9713366Y-7916976D01*
X9700768Y-7910068D01*
X9687407Y-7904784D01*
X9673437Y-7901178D01*
X9659213Y-7899400D01*
X9644786Y-7899400D01*
X9630562Y-7901178D01*
X9616592Y-7904784D01*
X9603232Y-7910068D01*
X9590633Y-7916976D01*
X9579762Y-7924850D01*
X9575698Y-7926628D01*
X9571278Y-7926476D01*
X9567316Y-7924495D01*
X9564624Y-7920990D01*
X9563658Y-7916672D01*
X9563658Y-6896608D01*
X9562846Y-6888581D01*
X9560661Y-6881317D01*
X9557105Y-6874662D01*
X9553346Y-6870039D01*
X9551568Y-6866890D01*
X9551009Y-6863334D01*
X9551771Y-6859778D01*
X9553803Y-6854748D01*
X9557410Y-6841032D01*
X9559188Y-6827012D01*
X9559188Y-6812788D01*
X9557410Y-6798767D01*
X9553803Y-6785051D01*
X9548469Y-6771894D01*
X9541510Y-6759549D01*
X9533026Y-6748170D01*
X9523171Y-6738010D01*
X9512096Y-6729171D01*
X9499955Y-6721805D01*
X9487001Y-6716064D01*
X9473438Y-6712051D01*
X9459417Y-6709765D01*
X9445244Y-6709308D01*
X9431121Y-6710680D01*
X9417304Y-6713829D01*
X9403994Y-6718757D01*
X9391446Y-6725310D01*
X9379813Y-6733387D01*
X9369348Y-6742938D01*
X9360154Y-6753707D01*
X9352381Y-6765594D01*
X9346234Y-6778396D01*
X9341764Y-6791858D01*
X9339072Y-6805777D01*
X9338157Y-6819900D01*
X9339072Y-6834022D01*
X9341764Y-6847941D01*
X9346234Y-6861403D01*
X9352381Y-6874205D01*
X9360154Y-6886092D01*
X9369348Y-6896862D01*
X9379813Y-6906412D01*
X9391446Y-6914489D01*
X9403994Y-6921042D01*
X9417304Y-6925970D01*
X9431121Y-6929120D01*
X9445244Y-6930491D01*
X9459417Y-6930034D01*
X9474504Y-6927494D01*
X9478873Y-6927748D01*
X9482734Y-6929780D01*
X9485426Y-6933285D01*
X9486341Y-6937552D01*
X9486341Y-7916672D01*
X9485376Y-7920990D01*
X9482683Y-7924495D01*
X9478721Y-7926476D01*
X9474301Y-7926628D01*
X9470237Y-7924850D01*
X9459366Y-7916976D01*
X9446768Y-7910068D01*
X9433407Y-7904784D01*
X9419437Y-7901178D01*
X9405213Y-7899400D01*
X9390786Y-7899400D01*
X9376562Y-7901178D01*
X9362592Y-7904784D01*
X9349232Y-7910068D01*
X9336633Y-7916976D01*
X9325762Y-7924850D01*
X9321698Y-7926628D01*
X9317278Y-7926476D01*
X9313316Y-7924495D01*
X9310624Y-7920990D01*
X9309658Y-7916672D01*
X9309658Y-6896608D01*
X9308846Y-6888581D01*
X9306661Y-6881317D01*
X9303105Y-6874662D01*
X9299346Y-6870039D01*
X9297568Y-6866890D01*
X9297009Y-6863334D01*
X9297771Y-6859778D01*
X9299803Y-6854748D01*
X9303410Y-6841032D01*
X9305188Y-6827012D01*
X9305188Y-6812788D01*
X9303410Y-6798767D01*
X9299803Y-6785051D01*
X9294469Y-6771894D01*
X9287510Y-6759549D01*
X9279026Y-6748170D01*
X9269171Y-6738010D01*
X9258096Y-6729171D01*
X9245955Y-6721805D01*
X9233001Y-6716064D01*
X9219438Y-6712051D01*
X9205417Y-6709765D01*
X9191244Y-6709308D01*
X9177121Y-6710680D01*
X9163304Y-6713829D01*
X9149994Y-6718757D01*
X9137446Y-6725310D01*
X9125813Y-6733387D01*
X9115348Y-6742938D01*
X9106154Y-6753707D01*
X9098381Y-6765594D01*
X9092234Y-6778396D01*
X9087764Y-6791858D01*
X9085072Y-6805777D01*
X9084157Y-6819900D01*
X9085072Y-6834022D01*
X9087764Y-6847941D01*
X9092234Y-6861403D01*
X9098381Y-6874205D01*
X9106154Y-6886092D01*
X9115348Y-6896862D01*
X9125813Y-6906412D01*
X9137446Y-6914489D01*
X9149994Y-6921042D01*
X9163304Y-6925970D01*
X9177121Y-6929120D01*
X9191244Y-6930491D01*
X9205417Y-6930034D01*
X9220504Y-6927494D01*
X9224873Y-6927748D01*
X9228734Y-6929780D01*
X9231426Y-6933285D01*
X9232341Y-6937552D01*
X9232341Y-7916672D01*
X9231376Y-7920990D01*
X9228683Y-7924495D01*
X9224721Y-7926476D01*
X9220301Y-7926628D01*
X9216237Y-7924850D01*
X9205366Y-7916976D01*
X9192768Y-7910068D01*
X9179407Y-7904784D01*
X9165437Y-7901178D01*
X9151213Y-7899400D01*
X9136786Y-7899400D01*
X9122562Y-7901178D01*
X9108592Y-7904784D01*
X9095232Y-7910068D01*
X9082633Y-7916976D01*
X9071000Y-7925460D01*
X9067190Y-7929016D01*
X9063888Y-7931099D01*
X9060027Y-7931759D01*
X9056166Y-7930946D01*
X9052966Y-7928711D01*
X9050832Y-7925460D01*
X9050070Y-7921599D01*
X9050070Y-6891020D01*
X9049258Y-6882993D01*
X9047073Y-6875729D01*
X9043771Y-6869531D01*
X9042552Y-6865264D01*
X9043314Y-6860946D01*
X9045803Y-6854748D01*
X9049410Y-6841032D01*
X9051188Y-6827012D01*
X9051188Y-6812788D01*
X9049410Y-6798767D01*
X9045803Y-6785051D01*
X9040469Y-6771894D01*
X9033510Y-6759549D01*
X9025026Y-6748170D01*
X9015171Y-6738010D01*
X9004096Y-6729171D01*
X8991955Y-6721805D01*
X8979001Y-6716064D01*
X8965438Y-6712051D01*
X8951417Y-6709765D01*
X8937244Y-6709308D01*
X8923121Y-6710680D01*
X8909304Y-6713829D01*
X8895994Y-6718757D01*
X8883446Y-6725310D01*
X8871813Y-6733387D01*
X8861348Y-6742938D01*
X8852154Y-6753707D01*
X8844381Y-6765594D01*
X8838234Y-6778396D01*
X8833764Y-6791858D01*
X8831072Y-6805777D01*
X8830157Y-6819900D01*
X8831072Y-6834022D01*
X8833764Y-6847941D01*
X8838234Y-6861403D01*
X8844381Y-6874205D01*
X8852154Y-6886092D01*
X8861348Y-6896862D01*
X8871813Y-6906412D01*
X8883446Y-6914489D01*
X8895994Y-6921042D01*
X8909304Y-6925970D01*
X8923121Y-6929120D01*
X8937244Y-6930491D01*
X8951417Y-6930034D01*
X8960967Y-6928459D01*
X8965336Y-6928713D01*
X8969197Y-6930745D01*
X8971838Y-6934250D01*
X8972753Y-6938518D01*
X8972753Y-7912608D01*
X8971788Y-7916925D01*
X8969095Y-7920431D01*
X8965133Y-7922412D01*
X8960713Y-7922564D01*
X8956649Y-7920837D01*
X8951366Y-7916976D01*
X8938768Y-7910068D01*
X8925407Y-7904784D01*
X8911437Y-7901178D01*
X8897213Y-7899400D01*
X8882786Y-7899400D01*
X8868562Y-7901178D01*
X8854592Y-7904784D01*
X8841232Y-7910068D01*
X8828633Y-7916976D01*
X8817762Y-7924850D01*
X8813698Y-7926628D01*
X8809278Y-7926476D01*
X8805316Y-7924495D01*
X8802624Y-7920990D01*
X8801658Y-7916672D01*
X8801658Y-7834579D01*
X8802116Y-7831531D01*
X8803487Y-7828788D01*
X8812834Y-7818780D01*
X8818524Y-7810042D01*
X8822690Y-7800492D01*
X8825280Y-7790383D01*
X8826144Y-7780020D01*
X8825280Y-7769606D01*
X8822690Y-7759496D01*
X8818524Y-7749946D01*
X8812834Y-7741208D01*
X8805773Y-7733538D01*
X8797544Y-7727137D01*
X8788349Y-7722209D01*
X8778494Y-7718806D01*
X8768232Y-7717078D01*
X8757767Y-7717078D01*
X8747506Y-7718806D01*
X8737650Y-7722209D01*
X8728456Y-7727137D01*
X8720226Y-7733538D01*
X8713165Y-7741208D01*
X8707475Y-7749946D01*
X8703310Y-7759496D01*
X8700719Y-7769606D01*
X8699855Y-7780020D01*
X8700719Y-7790383D01*
X8703310Y-7800492D01*
X8707475Y-7810042D01*
X8713165Y-7818780D01*
X8722512Y-7828788D01*
X8723884Y-7831531D01*
X8724341Y-7834579D01*
X8724341Y-7916672D01*
X8723376Y-7920990D01*
X8720683Y-7924495D01*
X8716721Y-7926476D01*
X8712301Y-7926628D01*
X8708237Y-7924850D01*
X8697366Y-7916976D01*
X8684768Y-7910068D01*
X8671407Y-7904784D01*
X8657437Y-7901178D01*
X8643213Y-7899400D01*
X8628786Y-7899400D01*
X8614562Y-7901178D01*
X8611158Y-7902092D01*
X8607450Y-7902346D01*
X8603945Y-7901228D01*
X8601049Y-7898993D01*
X8599119Y-7895844D01*
X8598458Y-7892237D01*
X8598458Y-6911746D01*
X8599220Y-6907936D01*
X8601303Y-6904685D01*
X8604504Y-6902450D01*
X8608263Y-6901586D01*
X8612124Y-6902246D01*
X8615426Y-6904228D01*
X8617813Y-6906412D01*
X8629446Y-6914489D01*
X8641994Y-6921042D01*
X8655304Y-6925970D01*
X8669121Y-6929120D01*
X8683244Y-6930491D01*
X8697417Y-6930034D01*
X8712504Y-6927494D01*
X8716873Y-6927748D01*
X8720734Y-6929780D01*
X8723426Y-6933285D01*
X8724341Y-6937552D01*
X8724341Y-7039609D01*
X8723884Y-7042658D01*
X8722512Y-7045401D01*
X8713165Y-7055408D01*
X8707475Y-7064146D01*
X8703310Y-7073696D01*
X8700719Y-7083806D01*
X8699855Y-7094220D01*
X8700719Y-7104583D01*
X8703310Y-7114692D01*
X8707475Y-7124242D01*
X8713165Y-7132980D01*
X8720226Y-7140651D01*
X8728456Y-7147052D01*
X8737650Y-7151979D01*
X8747506Y-7155383D01*
X8757767Y-7157110D01*
X8768232Y-7157110D01*
X8778494Y-7155383D01*
X8788349Y-7151979D01*
X8797544Y-7147052D01*
X8805773Y-7140651D01*
X8812834Y-7132980D01*
X8818524Y-7124242D01*
X8822690Y-7114692D01*
X8825280Y-7104583D01*
X8826144Y-7094220D01*
X8825280Y-7083806D01*
X8822690Y-7073696D01*
X8818524Y-7064146D01*
X8812834Y-7055408D01*
X8803487Y-7045401D01*
X8802116Y-7042658D01*
X8801658Y-7039609D01*
X8801658Y-6896608D01*
X8800846Y-6888581D01*
X8798661Y-6881317D01*
X8795105Y-6874662D01*
X8791346Y-6870039D01*
X8789568Y-6866890D01*
X8789009Y-6863334D01*
X8789771Y-6859778D01*
X8791803Y-6854748D01*
X8795410Y-6841032D01*
X8797188Y-6827012D01*
X8797188Y-6812788D01*
X8795410Y-6798767D01*
X8791803Y-6785051D01*
X8786469Y-6771894D01*
X8779510Y-6759549D01*
X8771026Y-6748170D01*
X8761171Y-6738010D01*
X8750096Y-6729171D01*
X8737955Y-6721805D01*
X8725001Y-6716064D01*
X8711438Y-6712051D01*
X8697417Y-6709765D01*
X8683244Y-6709308D01*
X8669121Y-6710680D01*
X8655304Y-6713829D01*
X8641994Y-6718757D01*
X8629446Y-6725310D01*
X8617813Y-6733387D01*
X8615426Y-6735572D01*
X8612124Y-6737553D01*
X8608263Y-6738213D01*
X8604504Y-6737350D01*
X8601303Y-6735114D01*
X8599220Y-6731863D01*
X8598458Y-6728053D01*
X8598458Y-6687108D01*
X8599170Y-6683400D01*
X8601151Y-6680250D01*
X8607653Y-6673189D01*
X8613089Y-6664807D01*
X8617153Y-6655612D01*
X8619591Y-6645909D01*
X8620404Y-6635953D01*
X8619591Y-6625945D01*
X8617153Y-6616242D01*
X8613089Y-6607098D01*
X8607653Y-6598716D01*
X8600846Y-6591350D01*
X8592972Y-6585203D01*
X8584133Y-6580428D01*
X8574684Y-6577177D01*
X8564829Y-6575501D01*
X8554770Y-6575501D01*
X8544915Y-6577177D01*
X8535466Y-6580428D01*
X8526627Y-6585203D01*
X8518753Y-6591350D01*
X8511946Y-6598716D01*
X8506510Y-6607098D01*
X8502446Y-6616242D01*
X8500008Y-6625945D01*
X8499195Y-6635953D01*
X8500008Y-6645909D01*
X8502446Y-6655612D01*
X8506510Y-6664807D01*
X8511946Y-6673189D01*
X8518448Y-6680250D01*
X8520430Y-6683400D01*
X8521141Y-6687108D01*
X8521141Y-6728053D01*
X8520430Y-6731762D01*
X8518448Y-6734962D01*
X8515400Y-6737197D01*
X8511743Y-6738162D01*
X8507984Y-6737756D01*
X8504631Y-6735978D01*
X8496096Y-6729171D01*
X8483955Y-6721805D01*
X8471001Y-6716064D01*
X8457438Y-6712051D01*
X8443417Y-6709765D01*
X8429244Y-6709308D01*
X8415121Y-6710680D01*
X8401304Y-6713829D01*
X8387994Y-6718757D01*
X8375446Y-6725310D01*
X8363813Y-6733387D01*
X8353348Y-6742938D01*
X8344153Y-6753707D01*
X8336381Y-6765594D01*
X8330234Y-6778396D01*
X8325764Y-6791858D01*
X8323072Y-6805777D01*
X8322157Y-6819900D01*
X8323072Y-6834022D01*
X8325764Y-6847941D01*
X8330234Y-6861403D01*
X8336381Y-6874205D01*
X8344153Y-6886092D01*
X8353348Y-6896862D01*
X8363813Y-6906412D01*
X8375446Y-6914489D01*
X8387994Y-6921042D01*
X8401304Y-6925970D01*
X8415121Y-6929120D01*
X8429244Y-6930491D01*
X8443417Y-6930034D01*
X8452967Y-6928459D01*
X8457336Y-6928713D01*
X8461197Y-6930745D01*
X8463838Y-6934250D01*
X8464753Y-6938518D01*
X8464753Y-7912608D01*
X8463788Y-7916925D01*
X8461095Y-7920431D01*
X8457133Y-7922412D01*
X8452713Y-7922564D01*
X8448649Y-7920837D01*
X8443366Y-7916976D01*
X8430768Y-7910068D01*
X8427059Y-7908594D01*
X8423706Y-7906410D01*
X8421471Y-7903108D01*
X8420658Y-7899146D01*
X8420658Y-7061708D01*
X8419846Y-7053681D01*
X8417661Y-7046417D01*
X8414105Y-7039762D01*
X8408974Y-7033514D01*
X8390077Y-7014616D01*
X8388045Y-7011720D01*
X8387130Y-7008317D01*
X8386470Y-7000646D01*
X8383930Y-6991197D01*
X8379815Y-6982358D01*
X8374176Y-6974331D01*
X8367268Y-6967423D01*
X8359241Y-6961784D01*
X8350402Y-6957669D01*
X8340953Y-6955129D01*
X8331200Y-6954266D01*
X8321446Y-6955129D01*
X8311997Y-6957669D01*
X8303158Y-6961784D01*
X8295131Y-6967423D01*
X8288223Y-6974331D01*
X8282584Y-6982358D01*
X8278469Y-6991197D01*
X8275929Y-7000646D01*
X8275066Y-7010400D01*
X8275929Y-7020153D01*
X8278469Y-7029602D01*
X8282584Y-7038441D01*
X8288223Y-7046468D01*
X8295131Y-7053376D01*
X8303158Y-7059015D01*
X8311997Y-7063130D01*
X8321446Y-7065670D01*
X8329117Y-7066330D01*
X8332520Y-7067245D01*
X8335416Y-7069277D01*
X8340394Y-7074255D01*
X8342579Y-7077506D01*
X8343341Y-7081418D01*
X8343341Y-7899146D01*
X8342528Y-7903108D01*
X8340293Y-7906410D01*
X8336940Y-7908594D01*
X8333231Y-7910068D01*
X8320633Y-7916976D01*
X8309000Y-7925460D01*
X8302142Y-7931912D01*
X8298840Y-7933994D01*
X8294979Y-7934655D01*
X8291118Y-7933791D01*
X8287918Y-7931607D01*
X8285784Y-7928305D01*
X8285022Y-7924495D01*
X8285022Y-7186930D01*
X8284209Y-7178903D01*
X8282025Y-7171639D01*
X8278469Y-7164984D01*
X8273338Y-7158736D01*
X8220405Y-7105802D01*
X8218220Y-7102551D01*
X8217458Y-7098639D01*
X8217458Y-6930136D01*
X8218220Y-6926325D01*
X8220303Y-6923074D01*
X8223503Y-6920839D01*
X8229955Y-6917994D01*
X8242096Y-6910628D01*
X8253171Y-6901789D01*
X8263026Y-6891629D01*
X8271509Y-6880250D01*
X8278469Y-6867906D01*
X8283803Y-6854748D01*
X8287410Y-6841032D01*
X8289188Y-6827012D01*
X8289188Y-6812788D01*
X8287410Y-6798767D01*
X8283803Y-6785051D01*
X8278469Y-6771894D01*
X8271509Y-6759549D01*
X8263026Y-6748170D01*
X8253171Y-6738010D01*
X8242096Y-6729171D01*
X8229955Y-6721805D01*
X8217001Y-6716064D01*
X8203438Y-6712051D01*
X8189417Y-6709765D01*
X8175244Y-6709308D01*
X8161121Y-6710680D01*
X8147303Y-6713829D01*
X8133994Y-6718757D01*
X8121446Y-6725310D01*
X8109813Y-6733387D01*
X8107425Y-6735572D01*
X8104124Y-6737553D01*
X8100263Y-6738213D01*
X8096503Y-6737350D01*
X8093303Y-6735114D01*
X8091220Y-6731863D01*
X8090458Y-6728053D01*
X8090458Y-6566408D01*
X8089646Y-6558381D01*
X8087461Y-6551117D01*
X8083905Y-6544462D01*
X8079079Y-6538620D01*
X8073237Y-6533794D01*
X8066582Y-6530238D01*
X8059318Y-6528054D01*
X8051292Y-6527241D01*
X6401308Y-6527241D01*
X6393281Y-6528054D01*
X6386017Y-6530238D01*
X6379362Y-6533794D01*
X6373520Y-6538620D01*
X6368694Y-6544462D01*
X6365138Y-6551117D01*
X6362954Y-6558381D01*
X6362141Y-6566408D01*
X6362141Y-6709409D01*
X6361480Y-6713016D01*
X6359601Y-6716166D01*
X6356654Y-6718401D01*
X6343446Y-6725310D01*
X6331813Y-6733387D01*
X6329426Y-6735572D01*
X6326124Y-6737553D01*
X6322263Y-6738213D01*
X6318504Y-6737350D01*
X6315303Y-6735114D01*
X6313220Y-6731863D01*
X6312458Y-6728053D01*
X6312458Y-6449618D01*
X6313220Y-6445707D01*
X6315405Y-6442405D01*
X6318707Y-6440220D01*
X6322618Y-6439458D01*
X6908292Y-6439458D01*
X6916318Y-6438646D01*
X6923582Y-6436461D01*
X6930237Y-6432905D01*
X6936079Y-6428079D01*
X6940905Y-6422237D01*
X6944461Y-6415582D01*
X6946646Y-6408318D01*
X6947458Y-6400292D01*
X6947458Y-6206236D01*
X6948220Y-6202426D01*
X6950303Y-6199174D01*
X6953503Y-6196939D01*
X6959955Y-6194094D01*
X6972096Y-6186728D01*
X6983171Y-6177889D01*
X6993026Y-6167729D01*
X7001509Y-6156350D01*
X7008469Y-6144006D01*
X7013803Y-6130848D01*
X7017410Y-6117132D01*
X7019188Y-6103112D01*
X7019188Y-6088888D01*
X7017410Y-6074867D01*
X7013803Y-6061151D01*
X7008469Y-6047994D01*
X7001509Y-6035649D01*
X6993026Y-6024270D01*
X6983171Y-6014110D01*
X6972096Y-6005271D01*
X6959955Y-5997905D01*
X6947001Y-5992164D01*
X6933438Y-5988151D01*
X6919417Y-5985865D01*
X6905244Y-5985408D01*
X6891121Y-5986780D01*
X6877303Y-5989929D01*
X6863994Y-5994857D01*
X6851446Y-6001410D01*
X6839813Y-6009487D01*
X6829348Y-6019038D01*
X6820153Y-6029807D01*
X6812381Y-6041694D01*
X6806234Y-6054496D01*
X6801764Y-6067958D01*
X6799072Y-6081877D01*
X6798157Y-6096000D01*
X6799072Y-6110122D01*
X6801764Y-6124041D01*
X6806234Y-6137503D01*
X6812381Y-6150305D01*
X6820153Y-6162192D01*
X6829348Y-6172962D01*
X6839813Y-6182512D01*
X6851446Y-6190589D01*
X6864654Y-6197498D01*
X6867601Y-6199733D01*
X6869480Y-6202883D01*
X6870141Y-6206490D01*
X6870141Y-6351981D01*
X6869379Y-6355892D01*
X6867194Y-6359194D01*
X6863892Y-6361379D01*
X6859981Y-6362141D01*
X6274308Y-6362141D01*
X6266281Y-6362954D01*
X6259017Y-6365138D01*
X6252362Y-6368694D01*
X6246520Y-6373520D01*
X6241694Y-6379362D01*
X6238138Y-6386017D01*
X6235954Y-6393281D01*
X6235141Y-6401308D01*
X6235141Y-6728053D01*
X6234430Y-6731762D01*
X6232448Y-6734962D01*
X6229400Y-6737197D01*
X6225743Y-6738162D01*
X6221984Y-6737756D01*
X6218631Y-6735978D01*
X6210096Y-6729171D01*
X6197955Y-6721805D01*
X6185001Y-6716064D01*
X6171438Y-6712051D01*
X6157417Y-6709765D01*
X6143244Y-6709308D01*
X6129121Y-6710680D01*
X6115304Y-6713829D01*
X6101994Y-6718757D01*
X6089446Y-6725310D01*
X6077813Y-6733387D01*
X6067348Y-6742938D01*
X6058154Y-6753707D01*
X6050381Y-6765594D01*
X6044234Y-6778396D01*
X6039764Y-6791858D01*
X6037072Y-6805777D01*
X6036157Y-6819900D01*
X6037072Y-6834022D01*
X6039764Y-6847941D01*
X6044234Y-6861403D01*
X6050381Y-6874205D01*
X6058154Y-6886092D01*
X6067348Y-6896862D01*
X6077813Y-6906412D01*
X6089446Y-6914489D01*
X6101994Y-6921042D01*
X6115304Y-6925970D01*
X6129121Y-6929120D01*
X6143244Y-6930491D01*
X6157417Y-6930034D01*
X6171438Y-6927748D01*
X6185001Y-6923735D01*
X6197955Y-6917994D01*
X6210096Y-6910628D01*
X6218631Y-6903821D01*
X6221984Y-6902043D01*
X6225743Y-6901637D01*
X6229400Y-6902602D01*
X6232448Y-6904837D01*
X6234430Y-6908038D01*
X6235141Y-6911746D01*
X6235141Y-7380681D01*
X6234379Y-7384592D01*
X6232194Y-7387894D01*
X6228892Y-7390079D01*
X6224981Y-7390841D01*
X5359908Y-7390841D01*
X5351881Y-7391653D01*
X5344617Y-7393838D01*
X5337962Y-7397394D01*
X5332120Y-7402220D01*
X5327294Y-7408062D01*
X5323738Y-7414717D01*
X5321554Y-7421981D01*
X5320741Y-7430008D01*
X5320741Y-8085124D01*
X5320182Y-8088528D01*
X5318455Y-8091525D01*
X5315864Y-8093760D01*
X5304332Y-8100771D01*
X5294223Y-8109000D01*
X5288635Y-8114995D01*
X5285384Y-8117331D01*
X5281422Y-8118246D01*
X5277510Y-8117535D01*
X5274106Y-8115350D01*
X5271871Y-8111998D01*
X5271058Y-8108086D01*
X5271058Y-7684008D01*
X5270246Y-7675981D01*
X5268061Y-7668717D01*
X5264505Y-7662062D01*
X5259374Y-7655814D01*
X4474108Y-6870547D01*
X4471924Y-6867245D01*
X4471111Y-6863384D01*
X4471873Y-6859524D01*
X4473803Y-6854748D01*
X4477410Y-6841032D01*
X4479188Y-6827012D01*
X4479188Y-6812788D01*
X4477410Y-6798767D01*
X4473803Y-6785051D01*
X4468469Y-6771894D01*
X4461510Y-6759549D01*
X4453026Y-6748170D01*
X4443171Y-6738010D01*
X4432096Y-6729171D01*
X4419955Y-6721805D01*
X4407001Y-6716064D01*
X4393438Y-6712051D01*
X4379417Y-6709765D01*
X4365244Y-6709308D01*
X4351121Y-6710680D01*
X4337304Y-6713829D01*
X4323994Y-6718757D01*
X4311446Y-6725310D01*
X4299813Y-6733387D01*
X4289348Y-6742938D01*
X4280154Y-6753707D01*
X4272381Y-6765594D01*
X4266234Y-6778396D01*
X4261764Y-6791858D01*
X4259072Y-6805777D01*
X4258157Y-6819900D01*
X4259072Y-6834022D01*
X4261764Y-6847941D01*
X4266234Y-6861403D01*
X4272381Y-6874205D01*
X4280154Y-6886092D01*
X4289348Y-6896862D01*
X4299813Y-6906412D01*
X4311446Y-6914489D01*
X4323994Y-6921042D01*
X4337304Y-6925970D01*
X4351121Y-6929120D01*
X4365244Y-6930491D01*
X4379417Y-6930034D01*
X4393438Y-6927748D01*
X4412183Y-6922312D01*
X4416145Y-6923074D01*
X4419549Y-6925309D01*
X5190794Y-7696555D01*
X5192979Y-7699806D01*
X5193741Y-7703718D01*
X5193741Y-8108086D01*
X5192928Y-8111998D01*
X5190693Y-8115350D01*
X5187289Y-8117535D01*
X5183378Y-8118246D01*
X5179415Y-8117331D01*
X5176164Y-8114995D01*
X5170576Y-8109000D01*
X5160467Y-8100771D01*
X5149342Y-8094014D01*
X5146700Y-8092897D01*
X5146700Y-8137550D01*
X5183581Y-8137550D01*
X5187492Y-8138312D01*
X5190794Y-8140496D01*
X5192979Y-8143798D01*
X5193741Y-8147710D01*
X5193741Y-8209940D01*
X5192979Y-8213801D01*
X5190794Y-8217103D01*
X5187492Y-8219287D01*
X5183581Y-8220100D01*
X5146700Y-8220100D01*
X5146700Y-8264702D01*
X5149342Y-8263585D01*
X5160467Y-8256828D01*
X5170576Y-8248599D01*
X5176164Y-8242604D01*
X5179415Y-8240268D01*
X5183378Y-8239353D01*
X5187289Y-8240064D01*
X5190693Y-8242249D01*
X5192928Y-8245602D01*
X5193741Y-8249513D01*
X5193741Y-8559292D01*
X5194554Y-8567318D01*
X5196738Y-8574582D01*
X5200294Y-8581237D01*
X5205425Y-8587486D01*
X5287822Y-8669883D01*
X5289854Y-8672779D01*
X5290769Y-8676182D01*
X5291429Y-8683853D01*
X5293969Y-8693302D01*
X5298084Y-8702141D01*
X5303723Y-8710168D01*
X5310632Y-8717076D01*
X5318658Y-8722715D01*
X5327497Y-8726830D01*
X5336946Y-8729370D01*
X5346700Y-8730234D01*
X5356453Y-8729370D01*
X5365902Y-8726830D01*
X5374741Y-8722715D01*
X5382768Y-8717076D01*
X5389676Y-8710168D01*
X5395315Y-8702141D01*
X5399430Y-8693302D01*
X5401970Y-8683853D01*
X5402834Y-8674100D01*
X5401970Y-8664346D01*
X5399430Y-8654897D01*
X5395315Y-8646058D01*
X5389676Y-8638032D01*
X5382768Y-8631123D01*
X5374741Y-8625484D01*
X5365902Y-8621369D01*
X5356453Y-8618829D01*
X5348782Y-8618169D01*
X5345379Y-8617254D01*
X5342483Y-8615222D01*
X5274005Y-8546744D01*
X5271820Y-8543493D01*
X5271058Y-8539581D01*
X5271058Y-8249513D01*
X5271871Y-8245602D01*
X5274106Y-8242249D01*
X5277510Y-8240064D01*
X5281422Y-8239353D01*
X5285384Y-8240268D01*
X5288635Y-8242604D01*
X5294223Y-8248599D01*
X5304332Y-8256828D01*
X5315458Y-8263585D01*
X5327446Y-8268766D01*
X5339994Y-8272272D01*
X5352897Y-8274050D01*
X5365902Y-8274050D01*
X5378805Y-8272272D01*
X5391353Y-8268766D01*
X5403342Y-8263585D01*
X5414467Y-8256828D01*
X5424576Y-8248599D01*
X5433466Y-8239048D01*
X5440984Y-8228431D01*
X5446979Y-8216849D01*
X5451348Y-8204555D01*
X5453989Y-8191804D01*
X5454904Y-8178800D01*
X5453989Y-8165795D01*
X5451348Y-8153044D01*
X5446979Y-8140750D01*
X5440984Y-8129168D01*
X5433466Y-8118551D01*
X5424576Y-8109000D01*
X5414467Y-8100771D01*
X5402935Y-8093760D01*
X5400344Y-8091525D01*
X5398617Y-8088528D01*
X5398058Y-8085124D01*
X5398058Y-7478318D01*
X5398820Y-7474407D01*
X5401005Y-7471105D01*
X5404307Y-7468920D01*
X5408218Y-7468158D01*
X6273292Y-7468158D01*
X6281318Y-7467346D01*
X6288582Y-7465161D01*
X6295237Y-7461605D01*
X6301079Y-7456779D01*
X6305905Y-7450937D01*
X6309461Y-7444282D01*
X6311646Y-7437018D01*
X6312458Y-7428992D01*
X6312458Y-6911746D01*
X6313220Y-6907936D01*
X6315303Y-6904685D01*
X6318504Y-6902450D01*
X6322263Y-6901586D01*
X6326124Y-6902246D01*
X6329426Y-6904228D01*
X6331813Y-6906412D01*
X6343446Y-6914489D01*
X6355994Y-6921042D01*
X6369304Y-6925970D01*
X6383121Y-6929120D01*
X6397244Y-6930491D01*
X6411417Y-6930034D01*
X6425438Y-6927748D01*
X6439001Y-6923735D01*
X6451955Y-6917994D01*
X6464096Y-6910628D01*
X6475171Y-6901789D01*
X6485026Y-6891629D01*
X6493510Y-6880250D01*
X6500469Y-6867906D01*
X6505803Y-6854748D01*
X6509410Y-6841032D01*
X6511188Y-6827012D01*
X6511188Y-6812788D01*
X6509410Y-6798767D01*
X6505803Y-6785051D01*
X6500469Y-6771894D01*
X6493510Y-6759549D01*
X6485026Y-6748170D01*
X6475171Y-6738010D01*
X6464096Y-6729171D01*
X6451955Y-6721805D01*
X6445504Y-6718960D01*
X6442303Y-6716725D01*
X6440220Y-6713474D01*
X6439458Y-6709664D01*
X6439458Y-6614718D01*
X6440220Y-6610807D01*
X6442405Y-6607505D01*
X6445707Y-6605320D01*
X6449618Y-6604558D01*
X8002981Y-6604558D01*
X8006892Y-6605320D01*
X8010194Y-6607505D01*
X8012379Y-6610807D01*
X8013141Y-6614718D01*
X8013141Y-6728053D01*
X8012430Y-6731762D01*
X8010448Y-6734962D01*
X8007400Y-6737197D01*
X8003743Y-6738162D01*
X7999984Y-6737756D01*
X7996631Y-6735978D01*
X7988096Y-6729171D01*
X7975955Y-6721805D01*
X7963001Y-6716064D01*
X7949438Y-6712051D01*
X7935417Y-6709765D01*
X7921244Y-6709308D01*
X7907121Y-6710680D01*
X7893303Y-6713829D01*
X7879994Y-6718757D01*
X7867446Y-6725310D01*
X7855813Y-6733387D01*
X7845348Y-6742938D01*
X7836153Y-6753707D01*
X7828381Y-6765594D01*
X7822234Y-6778396D01*
X7817764Y-6791858D01*
X7815072Y-6805777D01*
X7814157Y-6819900D01*
X7815072Y-6834022D01*
X7817764Y-6847941D01*
X7822234Y-6861403D01*
X7828381Y-6874205D01*
X7836153Y-6886092D01*
X7845348Y-6896862D01*
X7855813Y-6906412D01*
X7867446Y-6914489D01*
X7879994Y-6921042D01*
X7893303Y-6925970D01*
X7907121Y-6929120D01*
X7921244Y-6930491D01*
X7935417Y-6930034D01*
X7949438Y-6927748D01*
X7963001Y-6923735D01*
X7975955Y-6917994D01*
X7988096Y-6910628D01*
X7996631Y-6903821D01*
X7999984Y-6902043D01*
X8003743Y-6901637D01*
X8007400Y-6902602D01*
X8010448Y-6904837D01*
X8012430Y-6908038D01*
X8013141Y-6911746D01*
X8013141Y-7451090D01*
X8012684Y-7454138D01*
X8011312Y-7456881D01*
X8001965Y-7466939D01*
X7996275Y-7475677D01*
X7992109Y-7485227D01*
X7989519Y-7495286D01*
X7988655Y-7505700D01*
X7989519Y-7516114D01*
X7992109Y-7526172D01*
X7996275Y-7535722D01*
X8001965Y-7544460D01*
X8009026Y-7552131D01*
X8017256Y-7558531D01*
X8026450Y-7563510D01*
X8036306Y-7566863D01*
X8046567Y-7568590D01*
X8057032Y-7568590D01*
X8067294Y-7566863D01*
X8077149Y-7563510D01*
X8086344Y-7558531D01*
X8094573Y-7552131D01*
X8101634Y-7544460D01*
X8107324Y-7535722D01*
X8111490Y-7526172D01*
X8114080Y-7516114D01*
X8114944Y-7505700D01*
X8114080Y-7495286D01*
X8111490Y-7485227D01*
X8107324Y-7475677D01*
X8101634Y-7466939D01*
X8092287Y-7456881D01*
X8090916Y-7454138D01*
X8090458Y-7451090D01*
X8090458Y-6911746D01*
X8091220Y-6907936D01*
X8093303Y-6904685D01*
X8096503Y-6902450D01*
X8100263Y-6901586D01*
X8104124Y-6902246D01*
X8107425Y-6904228D01*
X8109813Y-6906412D01*
X8121446Y-6914489D01*
X8134654Y-6921398D01*
X8137601Y-6923633D01*
X8139480Y-6926783D01*
X8140141Y-6930390D01*
X8140141Y-7118350D01*
X8140953Y-7126376D01*
X8143138Y-7133640D01*
X8146694Y-7140295D01*
X8151825Y-7146544D01*
X8204758Y-7199477D01*
X8206943Y-7202728D01*
X8207705Y-7206640D01*
X8207705Y-7773924D01*
X8206841Y-7778038D01*
X8204453Y-7781442D01*
X8200847Y-7783575D01*
X8196732Y-7784084D01*
X8192719Y-7782864D01*
X8189518Y-7780172D01*
X8183524Y-7766862D01*
X8177834Y-7758175D01*
X8170773Y-7750505D01*
X8162544Y-7744104D01*
X8153349Y-7739125D01*
X8143494Y-7735722D01*
X8133232Y-7734046D01*
X8122767Y-7734046D01*
X8112506Y-7735722D01*
X8102650Y-7739125D01*
X8093456Y-7744104D01*
X8085226Y-7750505D01*
X8078165Y-7758175D01*
X8072475Y-7766862D01*
X8068309Y-7776413D01*
X8065719Y-7786522D01*
X8064855Y-7796936D01*
X8065719Y-7807299D01*
X8068309Y-7817408D01*
X8072475Y-7826959D01*
X8078165Y-7835696D01*
X8087512Y-7845755D01*
X8088884Y-7848498D01*
X8089341Y-7851546D01*
X8089341Y-7899146D01*
X8088528Y-7903108D01*
X8086293Y-7906410D01*
X8082940Y-7908594D01*
X8079231Y-7910068D01*
X8066633Y-7916976D01*
X8055000Y-7925460D01*
X8044484Y-7935315D01*
X8035340Y-7946390D01*
X8027619Y-7958531D01*
X8021523Y-7971536D01*
X8017052Y-7985201D01*
X8014360Y-7999323D01*
X8013446Y-8013700D01*
X8014360Y-8028076D01*
X8017052Y-8042198D01*
X8021523Y-8055864D01*
X8027619Y-8068868D01*
X8035340Y-8081009D01*
X8044484Y-8092084D01*
X8055000Y-8101939D01*
X8066633Y-8110423D01*
X8079231Y-8117331D01*
X8092592Y-8122615D01*
X8106562Y-8126222D01*
X8120786Y-8128000D01*
X8135213Y-8128000D01*
X8149437Y-8126222D01*
X8163407Y-8122615D01*
X8176768Y-8117331D01*
X8189366Y-8110423D01*
X8191601Y-8108797D01*
X8195665Y-8107019D01*
X8200085Y-8107172D01*
X8204047Y-8109203D01*
X8206740Y-8112709D01*
X8207705Y-8117027D01*
X8207705Y-9399117D01*
X8206943Y-9403029D01*
X8204758Y-9406280D01*
X8181644Y-9429394D01*
X8178393Y-9431578D01*
X8174532Y-9432391D01*
X8170722Y-9431680D01*
X8163407Y-9428784D01*
X8149437Y-9425178D01*
X8135213Y-9423400D01*
X8120786Y-9423400D01*
X8106562Y-9425178D01*
X8092592Y-9428784D01*
X8079231Y-9434068D01*
X8066633Y-9440976D01*
X8055000Y-9449460D01*
X8044484Y-9459315D01*
X8035340Y-9470390D01*
X8027619Y-9482531D01*
X8021523Y-9495536D01*
X8017052Y-9509201D01*
X8014360Y-9523323D01*
X8013446Y-9537700D01*
X8014360Y-9552076D01*
X8017052Y-9566198D01*
X8021523Y-9579864D01*
X8027619Y-9592868D01*
X8035340Y-9605010D01*
X8044484Y-9616084D01*
X8055000Y-9625939D01*
X8066633Y-9634423D01*
X8079231Y-9641332D01*
X8092592Y-9646615D01*
X8106562Y-9650222D01*
G37*
G36*
X2004618Y-9629394D02*
G01*
X2037080Y-9629394D01*
X2037080Y-9570720D01*
X1978406Y-9570720D01*
X1978406Y-9603181D01*
X1979117Y-9609429D01*
X1980996Y-9614865D01*
X1984044Y-9619691D01*
X1988108Y-9623755D01*
X1992934Y-9626803D01*
X1998370Y-9628682D01*
G37*
G36*
X2128520Y-9629394D02*
G01*
X2160981Y-9629394D01*
X2167229Y-9628682D01*
X2172665Y-9626803D01*
X2177491Y-9623755D01*
X2181555Y-9619691D01*
X2184603Y-9614865D01*
X2186482Y-9609429D01*
X2187194Y-9603181D01*
X2187194Y-9570720D01*
X2128520Y-9570720D01*
G37*
G36*
X2336800Y-9629394D02*
G01*
X2350414Y-9628479D01*
X2363825Y-9625838D01*
X2376728Y-9621418D01*
X2388971Y-9615373D01*
X2400350Y-9607804D01*
X2410612Y-9598812D01*
X2419604Y-9588550D01*
X2427173Y-9577171D01*
X2433218Y-9564928D01*
X2437638Y-9552025D01*
X2440279Y-9538614D01*
X2441194Y-9525000D01*
X2440279Y-9511385D01*
X2437638Y-9497974D01*
X2433218Y-9485071D01*
X2427173Y-9472828D01*
X2419604Y-9461449D01*
X2410612Y-9451187D01*
X2400350Y-9442196D01*
X2388971Y-9434626D01*
X2376728Y-9428581D01*
X2363825Y-9424162D01*
X2350414Y-9421520D01*
X2336800Y-9420606D01*
X2323185Y-9421520D01*
X2309774Y-9424162D01*
X2296871Y-9428581D01*
X2284628Y-9434626D01*
X2273249Y-9442196D01*
X2262987Y-9451187D01*
X2253996Y-9461449D01*
X2246426Y-9472828D01*
X2240381Y-9485071D01*
X2235962Y-9497974D01*
X2233320Y-9511385D01*
X2232406Y-9525000D01*
X2233320Y-9538614D01*
X2235962Y-9552025D01*
X2240381Y-9564928D01*
X2246426Y-9577171D01*
X2253996Y-9588550D01*
X2262987Y-9598812D01*
X2273249Y-9607804D01*
X2284628Y-9615373D01*
X2296871Y-9621418D01*
X2309774Y-9625838D01*
X2323185Y-9628479D01*
G37*
G36*
X3098800Y-9629394D02*
G01*
X3112414Y-9628479D01*
X3125825Y-9625838D01*
X3138728Y-9621418D01*
X3150971Y-9615373D01*
X3162350Y-9607804D01*
X3172612Y-9598812D01*
X3181604Y-9588550D01*
X3189173Y-9577171D01*
X3195218Y-9564928D01*
X3199638Y-9552025D01*
X3202279Y-9538614D01*
X3203194Y-9525000D01*
X3202279Y-9511385D01*
X3199638Y-9497974D01*
X3195218Y-9485071D01*
X3189173Y-9472828D01*
X3181604Y-9461449D01*
X3172612Y-9451187D01*
X3162350Y-9442196D01*
X3150971Y-9434626D01*
X3138728Y-9428581D01*
X3125825Y-9424162D01*
X3112414Y-9421520D01*
X3098800Y-9420606D01*
X3085185Y-9421520D01*
X3071774Y-9424162D01*
X3058871Y-9428581D01*
X3046628Y-9434626D01*
X3035249Y-9442196D01*
X3024987Y-9451187D01*
X3015996Y-9461449D01*
X3008426Y-9472828D01*
X3002381Y-9485071D01*
X2997962Y-9497974D01*
X2995320Y-9511385D01*
X2994406Y-9525000D01*
X2995320Y-9538614D01*
X2997962Y-9552025D01*
X3002381Y-9564928D01*
X3008426Y-9577171D01*
X3015996Y-9588550D01*
X3024987Y-9598812D01*
X3035249Y-9607804D01*
X3046628Y-9615373D01*
X3058871Y-9621418D01*
X3071774Y-9625838D01*
X3085185Y-9628479D01*
G37*
G36*
X3352800Y-9629394D02*
G01*
X3366414Y-9628479D01*
X3379825Y-9625838D01*
X3392728Y-9621418D01*
X3404971Y-9615373D01*
X3416350Y-9607804D01*
X3426612Y-9598812D01*
X3435604Y-9588550D01*
X3443173Y-9577171D01*
X3449218Y-9564928D01*
X3453637Y-9552025D01*
X3456279Y-9538614D01*
X3457194Y-9525000D01*
X3456279Y-9511385D01*
X3453637Y-9497974D01*
X3449218Y-9485071D01*
X3443173Y-9472828D01*
X3435604Y-9461449D01*
X3426612Y-9451187D01*
X3416350Y-9442196D01*
X3404971Y-9434626D01*
X3392728Y-9428581D01*
X3379825Y-9424162D01*
X3366414Y-9421520D01*
X3352800Y-9420606D01*
X3339185Y-9421520D01*
X3325774Y-9424162D01*
X3312871Y-9428581D01*
X3300628Y-9434626D01*
X3289249Y-9442196D01*
X3278987Y-9451187D01*
X3269996Y-9461449D01*
X3262426Y-9472828D01*
X3256381Y-9485071D01*
X3251962Y-9497974D01*
X3249320Y-9511385D01*
X3248406Y-9525000D01*
X3249320Y-9538614D01*
X3251962Y-9552025D01*
X3256381Y-9564928D01*
X3262426Y-9577171D01*
X3269996Y-9588550D01*
X3278987Y-9598812D01*
X3289249Y-9607804D01*
X3300628Y-9615373D01*
X3312871Y-9621418D01*
X3325774Y-9625838D01*
X3339185Y-9628479D01*
G37*
G36*
X2844800Y-9629394D02*
G01*
X2858414Y-9628479D01*
X2871825Y-9625838D01*
X2884728Y-9621418D01*
X2896971Y-9615373D01*
X2908350Y-9607804D01*
X2918612Y-9598812D01*
X2927604Y-9588550D01*
X2935173Y-9577171D01*
X2941218Y-9564928D01*
X2945638Y-9552025D01*
X2948279Y-9538614D01*
X2949194Y-9525000D01*
X2948279Y-9511385D01*
X2945638Y-9497974D01*
X2941218Y-9485071D01*
X2935173Y-9472828D01*
X2927604Y-9461449D01*
X2918612Y-9451187D01*
X2908350Y-9442196D01*
X2896971Y-9434626D01*
X2889097Y-9430715D01*
X2886100Y-9428480D01*
X2884170Y-9425279D01*
X2883458Y-9421622D01*
X2883458Y-8802878D01*
X2884170Y-8799220D01*
X2886100Y-8796020D01*
X2889097Y-8793784D01*
X2896971Y-8789873D01*
X2908350Y-8782304D01*
X2918612Y-8773312D01*
X2927604Y-8763050D01*
X2935173Y-8751671D01*
X2941218Y-8739428D01*
X2945638Y-8726525D01*
X2948279Y-8713114D01*
X2949194Y-8699500D01*
X2948279Y-8685885D01*
X2945638Y-8672474D01*
X2941218Y-8659571D01*
X2935173Y-8647328D01*
X2927604Y-8635949D01*
X2918612Y-8625687D01*
X2908350Y-8616696D01*
X2896971Y-8609126D01*
X2884728Y-8603081D01*
X2871825Y-8598662D01*
X2858414Y-8596020D01*
X2844800Y-8595106D01*
X2831185Y-8596020D01*
X2817774Y-8598662D01*
X2804871Y-8603081D01*
X2792628Y-8609126D01*
X2781249Y-8616696D01*
X2770987Y-8625687D01*
X2761996Y-8635949D01*
X2754426Y-8647328D01*
X2748381Y-8659571D01*
X2743962Y-8672474D01*
X2741320Y-8685885D01*
X2740406Y-8699500D01*
X2741320Y-8713114D01*
X2743962Y-8726525D01*
X2748381Y-8739428D01*
X2754426Y-8751671D01*
X2761996Y-8763050D01*
X2770987Y-8773312D01*
X2781249Y-8782304D01*
X2792628Y-8789873D01*
X2800502Y-8793784D01*
X2803499Y-8796020D01*
X2805480Y-8799220D01*
X2806141Y-8802878D01*
X2806141Y-9421622D01*
X2805480Y-9425279D01*
X2803499Y-9428480D01*
X2800502Y-9430715D01*
X2792628Y-9434626D01*
X2781249Y-9442196D01*
X2770987Y-9451187D01*
X2761996Y-9461449D01*
X2754426Y-9472828D01*
X2748381Y-9485071D01*
X2743962Y-9497974D01*
X2741320Y-9511385D01*
X2740406Y-9525000D01*
X2741320Y-9538614D01*
X2743962Y-9552025D01*
X2748381Y-9564928D01*
X2754426Y-9577171D01*
X2761996Y-9588550D01*
X2770987Y-9598812D01*
X2781249Y-9607804D01*
X2792628Y-9615373D01*
X2804871Y-9621418D01*
X2817774Y-9625838D01*
X2831185Y-9628479D01*
G37*
G36*
X1077518Y-9629394D02*
G01*
X1233881Y-9629394D01*
X1240129Y-9628682D01*
X1245565Y-9626803D01*
X1250391Y-9623755D01*
X1254455Y-9619691D01*
X1257503Y-9614865D01*
X1259382Y-9609429D01*
X1260094Y-9603181D01*
X1260094Y-9446818D01*
X1259382Y-9440570D01*
X1257503Y-9435134D01*
X1254455Y-9430308D01*
X1250391Y-9426244D01*
X1245565Y-9423196D01*
X1240129Y-9421317D01*
X1233881Y-9420606D01*
X1133246Y-9420606D01*
X1130096Y-9420098D01*
X1127252Y-9418675D01*
X1125016Y-9416389D01*
X916889Y-9127845D01*
X915466Y-9125000D01*
X914958Y-9121902D01*
X914958Y-7106818D01*
X915720Y-7102906D01*
X917905Y-7099655D01*
X1156055Y-6861505D01*
X1159306Y-6859320D01*
X1163218Y-6858558D01*
X1464513Y-6858558D01*
X1468221Y-6859270D01*
X1471422Y-6861251D01*
X1473657Y-6864299D01*
X1478381Y-6874205D01*
X1486154Y-6886092D01*
X1495348Y-6896862D01*
X1505813Y-6906412D01*
X1517446Y-6914489D01*
X1529994Y-6921042D01*
X1543304Y-6925970D01*
X1557121Y-6929120D01*
X1571244Y-6930491D01*
X1585417Y-6930034D01*
X1599438Y-6927748D01*
X1613001Y-6923735D01*
X1625955Y-6917994D01*
X1638096Y-6910628D01*
X1649171Y-6901789D01*
X1659026Y-6891629D01*
X1667510Y-6880250D01*
X1674469Y-6867906D01*
X1679803Y-6854748D01*
X1683410Y-6841032D01*
X1685188Y-6827012D01*
X1685188Y-6812788D01*
X1683410Y-6798767D01*
X1679803Y-6785051D01*
X1674469Y-6771894D01*
X1667510Y-6759549D01*
X1659026Y-6748170D01*
X1649171Y-6738010D01*
X1638096Y-6729171D01*
X1625955Y-6721805D01*
X1613001Y-6716064D01*
X1599438Y-6712051D01*
X1585417Y-6709765D01*
X1571244Y-6709308D01*
X1557121Y-6710680D01*
X1543304Y-6713829D01*
X1529994Y-6718757D01*
X1517446Y-6725310D01*
X1505813Y-6733387D01*
X1495348Y-6742938D01*
X1486154Y-6753707D01*
X1478381Y-6765594D01*
X1473657Y-6775500D01*
X1471422Y-6778548D01*
X1468221Y-6780530D01*
X1464513Y-6781241D01*
X1143508Y-6781241D01*
X1135481Y-6782053D01*
X1128217Y-6784238D01*
X1121562Y-6787794D01*
X1115314Y-6792925D01*
X849325Y-7058914D01*
X844194Y-7065162D01*
X840638Y-7071817D01*
X838453Y-7079081D01*
X837641Y-7087108D01*
X837641Y-9137548D01*
X838708Y-9146540D01*
X841197Y-9153702D01*
X845261Y-9160662D01*
X1049375Y-9443669D01*
X1050798Y-9446514D01*
X1051306Y-9449612D01*
X1051306Y-9603181D01*
X1052017Y-9609429D01*
X1053896Y-9614865D01*
X1056944Y-9619691D01*
X1061008Y-9623755D01*
X1065834Y-9626803D01*
X1071270Y-9628682D01*
G37*
G36*
X2590800Y-9629394D02*
G01*
X2604414Y-9628479D01*
X2617825Y-9625838D01*
X2630728Y-9621418D01*
X2642971Y-9615373D01*
X2654350Y-9607804D01*
X2664612Y-9598812D01*
X2673604Y-9588550D01*
X2681173Y-9577171D01*
X2687218Y-9564928D01*
X2691638Y-9552025D01*
X2694279Y-9538614D01*
X2695194Y-9525000D01*
X2694279Y-9511385D01*
X2691638Y-9497974D01*
X2687218Y-9485071D01*
X2681173Y-9472828D01*
X2673604Y-9461449D01*
X2664612Y-9451187D01*
X2657398Y-9444888D01*
X2654858Y-9441434D01*
X2653944Y-9437268D01*
X2653944Y-8787231D01*
X2654858Y-8783066D01*
X2657398Y-8779611D01*
X2664612Y-8773312D01*
X2673604Y-8763050D01*
X2681173Y-8751671D01*
X2687218Y-8739428D01*
X2691638Y-8726525D01*
X2694279Y-8713114D01*
X2695194Y-8699500D01*
X2694279Y-8685885D01*
X2691638Y-8672474D01*
X2687218Y-8659571D01*
X2681173Y-8647328D01*
X2673604Y-8635949D01*
X2664612Y-8625687D01*
X2654350Y-8616696D01*
X2642971Y-8609126D01*
X2630728Y-8603081D01*
X2617825Y-8598662D01*
X2604414Y-8596020D01*
X2590800Y-8595106D01*
X2581249Y-8595766D01*
X2577033Y-8595106D01*
X2573426Y-8592820D01*
X2517241Y-8536635D01*
X2515006Y-8533333D01*
X2514244Y-8529421D01*
X2514244Y-7485278D01*
X2515006Y-7481366D01*
X2517241Y-7478064D01*
X2620060Y-7375245D01*
X2623362Y-7373010D01*
X2627274Y-7372248D01*
X2772765Y-7372248D01*
X2776677Y-7373010D01*
X2779979Y-7375245D01*
X3081883Y-7677150D01*
X3088132Y-7682687D01*
X3089859Y-7683957D01*
X3098800Y-7689342D01*
X3106420Y-7692491D01*
X3108502Y-7693152D01*
X3116529Y-7695031D01*
X3118713Y-7695336D01*
X3127044Y-7695844D01*
X3563467Y-7695844D01*
X3566668Y-7696352D01*
X3569512Y-7697825D01*
X3571748Y-7700162D01*
X3577132Y-7707680D01*
X3587038Y-7718552D01*
X3598214Y-7728153D01*
X3610508Y-7736281D01*
X3623665Y-7742834D01*
X3637584Y-7747762D01*
X3651961Y-7750911D01*
X3666591Y-7752283D01*
X3681323Y-7751825D01*
X3692499Y-7750098D01*
X3695649Y-7750098D01*
X3698646Y-7751064D01*
X3701237Y-7752943D01*
X3769258Y-7820964D01*
X3771493Y-7824266D01*
X3772255Y-7828178D01*
X3772255Y-8102853D01*
X3771544Y-8106562D01*
X3769512Y-8109813D01*
X3761333Y-8118551D01*
X3753815Y-8129168D01*
X3747820Y-8140750D01*
X3743451Y-8153044D01*
X3740810Y-8165795D01*
X3739896Y-8178800D01*
X3740810Y-8191804D01*
X3743451Y-8204555D01*
X3747820Y-8216849D01*
X3753815Y-8228431D01*
X3761333Y-8239048D01*
X3770223Y-8248599D01*
X3780332Y-8256828D01*
X3791458Y-8263585D01*
X3803446Y-8268766D01*
X3815994Y-8272272D01*
X3828897Y-8274050D01*
X3841902Y-8274050D01*
X3854805Y-8272272D01*
X3867353Y-8268766D01*
X3884422Y-8261553D01*
X3888638Y-8261908D01*
X3892397Y-8263991D01*
X3894886Y-8267446D01*
X3895801Y-8271611D01*
X3895801Y-8404606D01*
X3895293Y-8407806D01*
X3893769Y-8410702D01*
X3891483Y-8412937D01*
X3888232Y-8415223D01*
X3881323Y-8422132D01*
X3875684Y-8430158D01*
X3871569Y-8438997D01*
X3869029Y-8448446D01*
X3868165Y-8458200D01*
X3869029Y-8467953D01*
X3871569Y-8477402D01*
X3875684Y-8486241D01*
X3881323Y-8494268D01*
X3888232Y-8501176D01*
X3896258Y-8506815D01*
X3905097Y-8510930D01*
X3914546Y-8513470D01*
X3924300Y-8514334D01*
X3934053Y-8513470D01*
X3935984Y-8512962D01*
X3939641Y-8512657D01*
X3943197Y-8513673D01*
X3946093Y-8515959D01*
X3948074Y-8519058D01*
X3948734Y-8522716D01*
X3949141Y-8584946D01*
X3949954Y-8592718D01*
X3952138Y-8599982D01*
X3955694Y-8606637D01*
X3960825Y-8612886D01*
X4249928Y-8901988D01*
X4252061Y-8905138D01*
X4252925Y-8908846D01*
X4252315Y-8912606D01*
X4251452Y-8915044D01*
X4248810Y-8927795D01*
X4247896Y-8940800D01*
X4248810Y-8953804D01*
X4251452Y-8966555D01*
X4255820Y-8978849D01*
X4261815Y-8990431D01*
X4269333Y-9001048D01*
X4278223Y-9010599D01*
X4288332Y-9018828D01*
X4299458Y-9025585D01*
X4311446Y-9030766D01*
X4323994Y-9034272D01*
X4336897Y-9036050D01*
X4349902Y-9036050D01*
X4362805Y-9034272D01*
X4375353Y-9030766D01*
X4387342Y-9025585D01*
X4398467Y-9018828D01*
X4408576Y-9010599D01*
X4417466Y-9001048D01*
X4424984Y-8990431D01*
X4430979Y-8978849D01*
X4435348Y-8966555D01*
X4437989Y-8953804D01*
X4438904Y-8940800D01*
X4437989Y-8927795D01*
X4435348Y-8915044D01*
X4430979Y-8902750D01*
X4424984Y-8891168D01*
X4417466Y-8880551D01*
X4408576Y-8871000D01*
X4398467Y-8862771D01*
X4387342Y-8856014D01*
X4375353Y-8850833D01*
X4362805Y-8847328D01*
X4349902Y-8845550D01*
X4336897Y-8845550D01*
X4323994Y-8847328D01*
X4314545Y-8849969D01*
X4310989Y-8850325D01*
X4307535Y-8849410D01*
X4304639Y-8847378D01*
X4029303Y-8572042D01*
X4027119Y-8568791D01*
X4026306Y-8564930D01*
X4024477Y-8268919D01*
X4025341Y-8264753D01*
X4027881Y-8261299D01*
X4031589Y-8259165D01*
X4035856Y-8258809D01*
X4039920Y-8260181D01*
X4045458Y-8263585D01*
X4057446Y-8268766D01*
X4069994Y-8272272D01*
X4082897Y-8274050D01*
X4092549Y-8274050D01*
X4095800Y-8274608D01*
X4098747Y-8276183D01*
X4100982Y-8278571D01*
X4509668Y-8891625D01*
X4511141Y-8894927D01*
X4511294Y-8898483D01*
X4505452Y-8915044D01*
X4502810Y-8927795D01*
X4501896Y-8940800D01*
X4502810Y-8953804D01*
X4505452Y-8966555D01*
X4509820Y-8978849D01*
X4515815Y-8990431D01*
X4523333Y-9001048D01*
X4532223Y-9010599D01*
X4542332Y-9018828D01*
X4553864Y-9025839D01*
X4556455Y-9028074D01*
X4558182Y-9031071D01*
X4558741Y-9034475D01*
X4558741Y-9082481D01*
X4557979Y-9086392D01*
X4555794Y-9089694D01*
X4552492Y-9091879D01*
X4548581Y-9092641D01*
X3884218Y-9092641D01*
X3880307Y-9091879D01*
X3877005Y-9089694D01*
X3874820Y-9086392D01*
X3874058Y-9082481D01*
X3874058Y-9046464D01*
X3874820Y-9042552D01*
X3877005Y-9039301D01*
X3880307Y-9037066D01*
X3884218Y-9036304D01*
X3904691Y-9036304D01*
X3910939Y-9035592D01*
X3916375Y-9033713D01*
X3921201Y-9030665D01*
X3925265Y-9026601D01*
X3928313Y-9021775D01*
X3930192Y-9016339D01*
X3930904Y-9010091D01*
X3930904Y-8871508D01*
X3930192Y-8865260D01*
X3928313Y-8859824D01*
X3925265Y-8854998D01*
X3921201Y-8850934D01*
X3916375Y-8847886D01*
X3910939Y-8846007D01*
X3904691Y-8845296D01*
X3766108Y-8845296D01*
X3759860Y-8846007D01*
X3754424Y-8847886D01*
X3749598Y-8850934D01*
X3745534Y-8854998D01*
X3742486Y-8859824D01*
X3740607Y-8865260D01*
X3739896Y-8871508D01*
X3739896Y-8891981D01*
X3739134Y-8895892D01*
X3736898Y-8899194D01*
X3733647Y-8901379D01*
X3729736Y-8902141D01*
X3541318Y-8902141D01*
X3537407Y-8901379D01*
X3534105Y-8899194D01*
X3531920Y-8895892D01*
X3531158Y-8891981D01*
X3531158Y-8598204D01*
X3530447Y-8590483D01*
X3528263Y-8583218D01*
X3524707Y-8576564D01*
X3521456Y-8572296D01*
X2762250Y-7698028D01*
X2760319Y-7694675D01*
X2759760Y-7690866D01*
X2760675Y-7687106D01*
X2765856Y-7675930D01*
X2770327Y-7661859D01*
X2773019Y-7647381D01*
X2773934Y-7632700D01*
X2773019Y-7618018D01*
X2770327Y-7603540D01*
X2765856Y-7589469D01*
X2759659Y-7576108D01*
X2751937Y-7563612D01*
X2742692Y-7552131D01*
X2732125Y-7541869D01*
X2720390Y-7532979D01*
X2707640Y-7525613D01*
X2694076Y-7519873D01*
X2679903Y-7515859D01*
X2665323Y-7513574D01*
X2650591Y-7513116D01*
X2635961Y-7514488D01*
X2621584Y-7517638D01*
X2607665Y-7522565D01*
X2594508Y-7529118D01*
X2582214Y-7537246D01*
X2571038Y-7546848D01*
X2561132Y-7557719D01*
X2552598Y-7569708D01*
X2545638Y-7582712D01*
X2540304Y-7596428D01*
X2536698Y-7610703D01*
X2534920Y-7625334D01*
X2534920Y-7640066D01*
X2536698Y-7654696D01*
X2540304Y-7668971D01*
X2545638Y-7682687D01*
X2552598Y-7695692D01*
X2561132Y-7707680D01*
X2571038Y-7718552D01*
X2582214Y-7728153D01*
X2594508Y-7736281D01*
X2607665Y-7742834D01*
X2621584Y-7747762D01*
X2635961Y-7750911D01*
X2650591Y-7752283D01*
X2665323Y-7751825D01*
X2679903Y-7749540D01*
X2693466Y-7745679D01*
X2697276Y-7745323D01*
X2700934Y-7746441D01*
X2703931Y-7748778D01*
X3451351Y-8609482D01*
X3453180Y-8612581D01*
X3453841Y-8616137D01*
X3453841Y-8629751D01*
X3453028Y-8633764D01*
X3450691Y-8637117D01*
X3447237Y-8639251D01*
X3443224Y-8639911D01*
X3439312Y-8638946D01*
X3436061Y-8636457D01*
X3426612Y-8625687D01*
X3416350Y-8616696D01*
X3404971Y-8609126D01*
X3392728Y-8603081D01*
X3379825Y-8598662D01*
X3366414Y-8596020D01*
X3352800Y-8595106D01*
X3339185Y-8596020D01*
X3325774Y-8598662D01*
X3312871Y-8603081D01*
X3300628Y-8609126D01*
X3289249Y-8616696D01*
X3278987Y-8625687D01*
X3269996Y-8635949D01*
X3262426Y-8647328D01*
X3256381Y-8659571D01*
X3251962Y-8672474D01*
X3249320Y-8685885D01*
X3248406Y-8699500D01*
X3249320Y-8713114D01*
X3251962Y-8726525D01*
X3256381Y-8739428D01*
X3262426Y-8751671D01*
X3269996Y-8763050D01*
X3278987Y-8773312D01*
X3289249Y-8782304D01*
X3300628Y-8789873D01*
X3312871Y-8795918D01*
X3325774Y-8800338D01*
X3339185Y-8802979D01*
X3352800Y-8803894D01*
X3366414Y-8802979D01*
X3379825Y-8800338D01*
X3392728Y-8795918D01*
X3404971Y-8789873D01*
X3416350Y-8782304D01*
X3426612Y-8773312D01*
X3436061Y-8762542D01*
X3439312Y-8760053D01*
X3443224Y-8759088D01*
X3447287Y-8759698D01*
X3450691Y-8761882D01*
X3453028Y-8765235D01*
X3453841Y-8769248D01*
X3453841Y-8940292D01*
X3454654Y-8948318D01*
X3456838Y-8955582D01*
X3460394Y-8962237D01*
X3465220Y-8968079D01*
X3471062Y-8972905D01*
X3477717Y-8976461D01*
X3484981Y-8978646D01*
X3493008Y-8979458D01*
X3729736Y-8979458D01*
X3733647Y-8980220D01*
X3736898Y-8982405D01*
X3739134Y-8985707D01*
X3739896Y-8989618D01*
X3739896Y-9010091D01*
X3740607Y-9016339D01*
X3742486Y-9021775D01*
X3745534Y-9026601D01*
X3749598Y-9030665D01*
X3754424Y-9033713D01*
X3759860Y-9035592D01*
X3766108Y-9036304D01*
X3786581Y-9036304D01*
X3790492Y-9037066D01*
X3793794Y-9039301D01*
X3795979Y-9042552D01*
X3796741Y-9046464D01*
X3796741Y-9130792D01*
X3797554Y-9138818D01*
X3799738Y-9146082D01*
X3803294Y-9152737D01*
X3808120Y-9158579D01*
X3813962Y-9163405D01*
X3820617Y-9166961D01*
X3827881Y-9169146D01*
X3835908Y-9169958D01*
X4596892Y-9169958D01*
X4604918Y-9169146D01*
X4612182Y-9166961D01*
X4618837Y-9163405D01*
X4624679Y-9158579D01*
X4629505Y-9152737D01*
X4633061Y-9146082D01*
X4635246Y-9138818D01*
X4636058Y-9130792D01*
X4636058Y-9034475D01*
X4636617Y-9031071D01*
X4638344Y-9028074D01*
X4640935Y-9025839D01*
X4652467Y-9018828D01*
X4662576Y-9010599D01*
X4671466Y-9001048D01*
X4678984Y-8990431D01*
X4684979Y-8978849D01*
X4689348Y-8966555D01*
X4691989Y-8953804D01*
X4692904Y-8940800D01*
X4691989Y-8927795D01*
X4689348Y-8915044D01*
X4684979Y-8902750D01*
X4678984Y-8891168D01*
X4671466Y-8880551D01*
X4662576Y-8871000D01*
X4652467Y-8862771D01*
X4641342Y-8856014D01*
X4629353Y-8850833D01*
X4616805Y-8847328D01*
X4603902Y-8845550D01*
X4590897Y-8845550D01*
X4579772Y-8847074D01*
X4576013Y-8846870D01*
X4572609Y-8845346D01*
X4569968Y-8842654D01*
X4169460Y-8241893D01*
X4167886Y-8238134D01*
X4167987Y-8234070D01*
X4169613Y-8230362D01*
X4170984Y-8228431D01*
X4176979Y-8216849D01*
X4181348Y-8204555D01*
X4183989Y-8191804D01*
X4184904Y-8178800D01*
X4183989Y-8165795D01*
X4181348Y-8153044D01*
X4176979Y-8140750D01*
X4170984Y-8129168D01*
X4163466Y-8118551D01*
X4154576Y-8109000D01*
X4144467Y-8100771D01*
X4133342Y-8094014D01*
X4121353Y-8088833D01*
X4108805Y-8085328D01*
X4095902Y-8083550D01*
X4082897Y-8083550D01*
X4069994Y-8085328D01*
X4057446Y-8088833D01*
X4045458Y-8094014D01*
X4038752Y-8098078D01*
X4034739Y-8099501D01*
X4030522Y-8099145D01*
X4026814Y-8097062D01*
X4024274Y-8093659D01*
X4023360Y-8089493D01*
X4015841Y-6901688D01*
X4016654Y-6897674D01*
X4018991Y-6894271D01*
X4022496Y-6892086D01*
X4026560Y-6891477D01*
X4030522Y-6892493D01*
X4033774Y-6895033D01*
X4035348Y-6896862D01*
X4045813Y-6906412D01*
X4057446Y-6914489D01*
X4070654Y-6921398D01*
X4073601Y-6923633D01*
X4075480Y-6926783D01*
X4076141Y-6930390D01*
X4076141Y-7695692D01*
X4076954Y-7703718D01*
X4079138Y-7710982D01*
X4082694Y-7717637D01*
X4087825Y-7723886D01*
X4503928Y-8139988D01*
X4506061Y-8143138D01*
X4506925Y-8146846D01*
X4506315Y-8150606D01*
X4505452Y-8153044D01*
X4502810Y-8165795D01*
X4501896Y-8178800D01*
X4502810Y-8191804D01*
X4505452Y-8204555D01*
X4509820Y-8216849D01*
X4515815Y-8228431D01*
X4523333Y-8239048D01*
X4532223Y-8248599D01*
X4542332Y-8256828D01*
X4553458Y-8263585D01*
X4565446Y-8268766D01*
X4577994Y-8272272D01*
X4590897Y-8274050D01*
X4603902Y-8274050D01*
X4616805Y-8272272D01*
X4629353Y-8268766D01*
X4641342Y-8263585D01*
X4652467Y-8256828D01*
X4662576Y-8248599D01*
X4671466Y-8239048D01*
X4678984Y-8228431D01*
X4684979Y-8216849D01*
X4689348Y-8204555D01*
X4691989Y-8191804D01*
X4692904Y-8178800D01*
X4691989Y-8165795D01*
X4689348Y-8153044D01*
X4684979Y-8140750D01*
X4678984Y-8129168D01*
X4671466Y-8118551D01*
X4662576Y-8109000D01*
X4652467Y-8100771D01*
X4641342Y-8094014D01*
X4629353Y-8088833D01*
X4616805Y-8085328D01*
X4603902Y-8083550D01*
X4590897Y-8083550D01*
X4577994Y-8085328D01*
X4568545Y-8087969D01*
X4564989Y-8088325D01*
X4561535Y-8087410D01*
X4558639Y-8085378D01*
X4156405Y-7683144D01*
X4154220Y-7679893D01*
X4153458Y-7675981D01*
X4153458Y-6930136D01*
X4154220Y-6926325D01*
X4156303Y-6923074D01*
X4159504Y-6920839D01*
X4165955Y-6917994D01*
X4178096Y-6910628D01*
X4189171Y-6901789D01*
X4199026Y-6891629D01*
X4207510Y-6880250D01*
X4214469Y-6867906D01*
X4219803Y-6854748D01*
X4223410Y-6841032D01*
X4225188Y-6827012D01*
X4225188Y-6812788D01*
X4223410Y-6798767D01*
X4219803Y-6785051D01*
X4214469Y-6771894D01*
X4207510Y-6759549D01*
X4199026Y-6748170D01*
X4189171Y-6738010D01*
X4178096Y-6729171D01*
X4165955Y-6721805D01*
X4153001Y-6716064D01*
X4139437Y-6712051D01*
X4125417Y-6709765D01*
X4111244Y-6709308D01*
X4097121Y-6710680D01*
X4083304Y-6713829D01*
X4069994Y-6718757D01*
X4057446Y-6725310D01*
X4045813Y-6733387D01*
X4035348Y-6742938D01*
X4032758Y-6745986D01*
X4029506Y-6748475D01*
X4025544Y-6749542D01*
X4021531Y-6748932D01*
X4018026Y-6746798D01*
X4015689Y-6743446D01*
X4014825Y-6739432D01*
X4014063Y-6614668D01*
X4014825Y-6610756D01*
X4017010Y-6607454D01*
X4020312Y-6605219D01*
X4024172Y-6604406D01*
X5843981Y-6599580D01*
X5847842Y-6600393D01*
X5851144Y-6602577D01*
X5853379Y-6605879D01*
X5854141Y-6609740D01*
X5854141Y-6709409D01*
X5853480Y-6713016D01*
X5851601Y-6716166D01*
X5848654Y-6718401D01*
X5835446Y-6725310D01*
X5823813Y-6733387D01*
X5813348Y-6742938D01*
X5804154Y-6753707D01*
X5796381Y-6765594D01*
X5790234Y-6778396D01*
X5785764Y-6791858D01*
X5783072Y-6805777D01*
X5782157Y-6819900D01*
X5783072Y-6834022D01*
X5785764Y-6847941D01*
X5790234Y-6861403D01*
X5796381Y-6874205D01*
X5804154Y-6886092D01*
X5813348Y-6896862D01*
X5823813Y-6906412D01*
X5835446Y-6914489D01*
X5847994Y-6921042D01*
X5861304Y-6925970D01*
X5875121Y-6929120D01*
X5889244Y-6930491D01*
X5903417Y-6930034D01*
X5917438Y-6927748D01*
X5931001Y-6923735D01*
X5943955Y-6917994D01*
X5956096Y-6910628D01*
X5967171Y-6901789D01*
X5977026Y-6891629D01*
X5985510Y-6880250D01*
X5992469Y-6867906D01*
X5997803Y-6854748D01*
X6001410Y-6841032D01*
X6003188Y-6827012D01*
X6003188Y-6812788D01*
X6001410Y-6798767D01*
X5997803Y-6785051D01*
X5992469Y-6771894D01*
X5985510Y-6759549D01*
X5977026Y-6748170D01*
X5967171Y-6738010D01*
X5956096Y-6729171D01*
X5943955Y-6721805D01*
X5937504Y-6718960D01*
X5934303Y-6716725D01*
X5932220Y-6713474D01*
X5931458Y-6709664D01*
X5931458Y-6561328D01*
X5930646Y-6553301D01*
X5928461Y-6546037D01*
X5924905Y-6539382D01*
X5920079Y-6533540D01*
X5914237Y-6528714D01*
X5907582Y-6525158D01*
X5900318Y-6522974D01*
X5892190Y-6522161D01*
X3975506Y-6527241D01*
X3967479Y-6528054D01*
X3960215Y-6530289D01*
X3953560Y-6533845D01*
X3947718Y-6538671D01*
X3942943Y-6544513D01*
X3939387Y-6551218D01*
X3937203Y-6558483D01*
X3936441Y-6566662D01*
X3937406Y-6719112D01*
X3936542Y-6723329D01*
X3934002Y-6726783D01*
X3930294Y-6728866D01*
X3926027Y-6729272D01*
X3921963Y-6727901D01*
X3911955Y-6721805D01*
X3899001Y-6716064D01*
X3885437Y-6712051D01*
X3871417Y-6709765D01*
X3857244Y-6709308D01*
X3843121Y-6710680D01*
X3829304Y-6713829D01*
X3815994Y-6718757D01*
X3803446Y-6725310D01*
X3791813Y-6733387D01*
X3781348Y-6742938D01*
X3772154Y-6753707D01*
X3764381Y-6765594D01*
X3758234Y-6778396D01*
X3753764Y-6791858D01*
X3751072Y-6805777D01*
X3750157Y-6819900D01*
X3751072Y-6834022D01*
X3753764Y-6847941D01*
X3758234Y-6861403D01*
X3764381Y-6874205D01*
X3772154Y-6886092D01*
X3781348Y-6896862D01*
X3791813Y-6906412D01*
X3803446Y-6914489D01*
X3815994Y-6921042D01*
X3829304Y-6925970D01*
X3843121Y-6929120D01*
X3857244Y-6930491D01*
X3871417Y-6930034D01*
X3885437Y-6927748D01*
X3899001Y-6923735D01*
X3911955Y-6917994D01*
X3923233Y-6911136D01*
X3927246Y-6909765D01*
X3931513Y-6910120D01*
X3935222Y-6912203D01*
X3937762Y-6915607D01*
X3938676Y-6919772D01*
X3941267Y-7329068D01*
X3940505Y-7332980D01*
X3938320Y-7336281D01*
X3935018Y-7338517D01*
X3931107Y-7339330D01*
X3927195Y-7338568D01*
X3923893Y-7336332D01*
X3458108Y-6870547D01*
X3455924Y-6867245D01*
X3455111Y-6863384D01*
X3455873Y-6859524D01*
X3457803Y-6854748D01*
X3461410Y-6841032D01*
X3463188Y-6827012D01*
X3463188Y-6812788D01*
X3461410Y-6798767D01*
X3457803Y-6785051D01*
X3452469Y-6771894D01*
X3445510Y-6759549D01*
X3437026Y-6748170D01*
X3427171Y-6738010D01*
X3416096Y-6729171D01*
X3403955Y-6721805D01*
X3391001Y-6716064D01*
X3377437Y-6712051D01*
X3363417Y-6709765D01*
X3349244Y-6709308D01*
X3335121Y-6710680D01*
X3321304Y-6713829D01*
X3307994Y-6718757D01*
X3295446Y-6725310D01*
X3283813Y-6733387D01*
X3273348Y-6742938D01*
X3264153Y-6753707D01*
X3256381Y-6765594D01*
X3250234Y-6778396D01*
X3245764Y-6791858D01*
X3243072Y-6805777D01*
X3242157Y-6819900D01*
X3243072Y-6834022D01*
X3245764Y-6847941D01*
X3250234Y-6861403D01*
X3256381Y-6874205D01*
X3264153Y-6886092D01*
X3273348Y-6896862D01*
X3283813Y-6906412D01*
X3295446Y-6914489D01*
X3307994Y-6921042D01*
X3321304Y-6925970D01*
X3335121Y-6929120D01*
X3349244Y-6930491D01*
X3363417Y-6930034D01*
X3377437Y-6927748D01*
X3396183Y-6922312D01*
X3400145Y-6923074D01*
X3403549Y-6925309D01*
X3892804Y-7414615D01*
X3895039Y-7417866D01*
X3895801Y-7421778D01*
X3895801Y-7744358D01*
X3895039Y-7748270D01*
X3892804Y-7751521D01*
X3889552Y-7753756D01*
X3885641Y-7754518D01*
X3881780Y-7753756D01*
X3878478Y-7751521D01*
X3790492Y-7663586D01*
X3788562Y-7660894D01*
X3787597Y-7657795D01*
X3787698Y-7654493D01*
X3789019Y-7647381D01*
X3789934Y-7632700D01*
X3789019Y-7618018D01*
X3786327Y-7603540D01*
X3781856Y-7589469D01*
X3775659Y-7576108D01*
X3767937Y-7563612D01*
X3758692Y-7552131D01*
X3748125Y-7541869D01*
X3736390Y-7532979D01*
X3723640Y-7525613D01*
X3710076Y-7519873D01*
X3695903Y-7515859D01*
X3681323Y-7513574D01*
X3666591Y-7513116D01*
X3651961Y-7514488D01*
X3637584Y-7517638D01*
X3623665Y-7522565D01*
X3610508Y-7529118D01*
X3598214Y-7537246D01*
X3587038Y-7546848D01*
X3577132Y-7557719D01*
X3571748Y-7565237D01*
X3569512Y-7567574D01*
X3566668Y-7569047D01*
X3563467Y-7569555D01*
X3157118Y-7569555D01*
X3153206Y-7568793D01*
X3149904Y-7566558D01*
X2848000Y-7264653D01*
X2840024Y-7257846D01*
X2831084Y-7252462D01*
X2823464Y-7249312D01*
X2821381Y-7248652D01*
X2813354Y-7246772D01*
X2811170Y-7246467D01*
X2802839Y-7245959D01*
X2664104Y-7245959D01*
X2660243Y-7245197D01*
X2656941Y-7242962D01*
X2654706Y-7239660D01*
X2653944Y-7235799D01*
X2653944Y-6915658D01*
X2654401Y-6912660D01*
X2655722Y-6909917D01*
X2657754Y-6907682D01*
X2665171Y-6901789D01*
X2675026Y-6891629D01*
X2683510Y-6880250D01*
X2690469Y-6867906D01*
X2695803Y-6854748D01*
X2699410Y-6841032D01*
X2701188Y-6827012D01*
X2701188Y-6812788D01*
X2699410Y-6798767D01*
X2695803Y-6785051D01*
X2690469Y-6771894D01*
X2683510Y-6759549D01*
X2675026Y-6748170D01*
X2665171Y-6738010D01*
X2657754Y-6732117D01*
X2655722Y-6729882D01*
X2654401Y-6727139D01*
X2653944Y-6724142D01*
X2653944Y-6191758D01*
X2654401Y-6188760D01*
X2655722Y-6186017D01*
X2657754Y-6183782D01*
X2665171Y-6177889D01*
X2675026Y-6167729D01*
X2683510Y-6156350D01*
X2690469Y-6144006D01*
X2695803Y-6130848D01*
X2699410Y-6117132D01*
X2701188Y-6103112D01*
X2701188Y-6088888D01*
X2699410Y-6074867D01*
X2695803Y-6061151D01*
X2690469Y-6047994D01*
X2683510Y-6035649D01*
X2675026Y-6024270D01*
X2665171Y-6014110D01*
X2654096Y-6005271D01*
X2641955Y-5997905D01*
X2629001Y-5992164D01*
X2615438Y-5988151D01*
X2601417Y-5985865D01*
X2587244Y-5985408D01*
X2573121Y-5986780D01*
X2559304Y-5989929D01*
X2545994Y-5994857D01*
X2533446Y-6001410D01*
X2521813Y-6009487D01*
X2511348Y-6019038D01*
X2502154Y-6029807D01*
X2494381Y-6041694D01*
X2488234Y-6054496D01*
X2483764Y-6067958D01*
X2481072Y-6081877D01*
X2480157Y-6096000D01*
X2481072Y-6110122D01*
X2483764Y-6124041D01*
X2488234Y-6137503D01*
X2494381Y-6150305D01*
X2502154Y-6162192D01*
X2511348Y-6172962D01*
X2525623Y-6185763D01*
X2527147Y-6188659D01*
X2527655Y-6191859D01*
X2527655Y-6724040D01*
X2527147Y-6727240D01*
X2525623Y-6730136D01*
X2511348Y-6742938D01*
X2502154Y-6753707D01*
X2494381Y-6765594D01*
X2488234Y-6778396D01*
X2483764Y-6791858D01*
X2481072Y-6805777D01*
X2480157Y-6819900D01*
X2481072Y-6834022D01*
X2483764Y-6847941D01*
X2488234Y-6861403D01*
X2494381Y-6874205D01*
X2502154Y-6886092D01*
X2511348Y-6896862D01*
X2525623Y-6909663D01*
X2527147Y-6912559D01*
X2527655Y-6915759D01*
X2527655Y-7284821D01*
X2526893Y-7288733D01*
X2524658Y-7292035D01*
X2406650Y-7410043D01*
X2399842Y-7418019D01*
X2394458Y-7426959D01*
X2391308Y-7434580D01*
X2390648Y-7436662D01*
X2388768Y-7444689D01*
X2388463Y-7446873D01*
X2387955Y-7455204D01*
X2387955Y-8559495D01*
X2388463Y-8567826D01*
X2388768Y-8570010D01*
X2390648Y-8578037D01*
X2391308Y-8580120D01*
X2394356Y-8587536D01*
X2397201Y-8592413D01*
X2398471Y-8596528D01*
X2397963Y-8600795D01*
X2395728Y-8604453D01*
X2392222Y-8606840D01*
X2388006Y-8607602D01*
X2383840Y-8606586D01*
X2376728Y-8603081D01*
X2363825Y-8598662D01*
X2350414Y-8596020D01*
X2336800Y-8595106D01*
X2323185Y-8596020D01*
X2309774Y-8598662D01*
X2296871Y-8603081D01*
X2284628Y-8609126D01*
X2273249Y-8616696D01*
X2262987Y-8625687D01*
X2253996Y-8635949D01*
X2246426Y-8647328D01*
X2240381Y-8659571D01*
X2235962Y-8672474D01*
X2233320Y-8685885D01*
X2232406Y-8699500D01*
X2233320Y-8713114D01*
X2235962Y-8726525D01*
X2240381Y-8739428D01*
X2246426Y-8751671D01*
X2253996Y-8763050D01*
X2262987Y-8773312D01*
X2273249Y-8782304D01*
X2284628Y-8789873D01*
X2296871Y-8795918D01*
X2309774Y-8800338D01*
X2323185Y-8802979D01*
X2336800Y-8803894D01*
X2350414Y-8802979D01*
X2363825Y-8800338D01*
X2376728Y-8795918D01*
X2388971Y-8789873D01*
X2400350Y-8782304D01*
X2410612Y-8773312D01*
X2419604Y-8763050D01*
X2427173Y-8751671D01*
X2433218Y-8739428D01*
X2437638Y-8726525D01*
X2440279Y-8713114D01*
X2441194Y-8699500D01*
X2440279Y-8685885D01*
X2437638Y-8672474D01*
X2433218Y-8659571D01*
X2431846Y-8654948D01*
X2432456Y-8650935D01*
X2434539Y-8647480D01*
X2437841Y-8645093D01*
X2441803Y-8644229D01*
X2445816Y-8644940D01*
X2449169Y-8647226D01*
X2484120Y-8682126D01*
X2486406Y-8685733D01*
X2487066Y-8689949D01*
X2486406Y-8699500D01*
X2487320Y-8713114D01*
X2489962Y-8726525D01*
X2494381Y-8739428D01*
X2500426Y-8751671D01*
X2507996Y-8763050D01*
X2516987Y-8773312D01*
X2524201Y-8779611D01*
X2526741Y-8783066D01*
X2527655Y-8787231D01*
X2527655Y-9437268D01*
X2526741Y-9441434D01*
X2524201Y-9444888D01*
X2516987Y-9451187D01*
X2507996Y-9461449D01*
X2500426Y-9472828D01*
X2494381Y-9485071D01*
X2489962Y-9497974D01*
X2487320Y-9511385D01*
X2486406Y-9525000D01*
X2487320Y-9538614D01*
X2489962Y-9552025D01*
X2494381Y-9564928D01*
X2500426Y-9577171D01*
X2507996Y-9588550D01*
X2516987Y-9598812D01*
X2527249Y-9607804D01*
X2538628Y-9615373D01*
X2550871Y-9621418D01*
X2563774Y-9625838D01*
X2577185Y-9628479D01*
G37*
G36*
X1978406Y-9479280D02*
G01*
X2037080Y-9479280D01*
X2037080Y-9420606D01*
X2004618Y-9420606D01*
X1998370Y-9421317D01*
X1992934Y-9423196D01*
X1988108Y-9426244D01*
X1984044Y-9430308D01*
X1980996Y-9435134D01*
X1979117Y-9440570D01*
X1978406Y-9446818D01*
G37*
G36*
X2128520Y-9479280D02*
G01*
X2187194Y-9479280D01*
X2187194Y-9446818D01*
X2186482Y-9440570D01*
X2184603Y-9435134D01*
X2181555Y-9430308D01*
X2177491Y-9426244D01*
X2172665Y-9423196D01*
X2167229Y-9421317D01*
X2160981Y-9420606D01*
X2128520Y-9420606D01*
G37*
G36*
X5212588Y-9086138D02*
G01*
X6246876Y-9086138D01*
X6254902Y-9085326D01*
X6262166Y-9083141D01*
X6268821Y-9079585D01*
X6275070Y-9074454D01*
X7263130Y-8086140D01*
X7266635Y-8083854D01*
X7270800Y-8083194D01*
X7274864Y-8084210D01*
X7278166Y-8086852D01*
X7282484Y-8092084D01*
X7293000Y-8101939D01*
X7304633Y-8110423D01*
X7317231Y-8117331D01*
X7330592Y-8122615D01*
X7344562Y-8126222D01*
X7358786Y-8128000D01*
X7373213Y-8128000D01*
X7387437Y-8126222D01*
X7401407Y-8122615D01*
X7414768Y-8117331D01*
X7427366Y-8110423D01*
X7438999Y-8101939D01*
X7449515Y-8092084D01*
X7458659Y-8081009D01*
X7466380Y-8068868D01*
X7472476Y-8055864D01*
X7476947Y-8042198D01*
X7479639Y-8028076D01*
X7480553Y-8013700D01*
X7479639Y-7999323D01*
X7476947Y-7985201D01*
X7472476Y-7971536D01*
X7466380Y-7958531D01*
X7458659Y-7946390D01*
X7449515Y-7935315D01*
X7438999Y-7925460D01*
X7427366Y-7916976D01*
X7414768Y-7910068D01*
X7401407Y-7904784D01*
X7387437Y-7901178D01*
X7373213Y-7899400D01*
X7358786Y-7899400D01*
X7344562Y-7901178D01*
X7330592Y-7904784D01*
X7317231Y-7910068D01*
X7304633Y-7916976D01*
X7301128Y-7919516D01*
X7297064Y-7921294D01*
X7292644Y-7921142D01*
X7288682Y-7919110D01*
X7285990Y-7915605D01*
X7285024Y-7911287D01*
X7285024Y-7569352D01*
X7285786Y-7565440D01*
X7287971Y-7562189D01*
X7697774Y-7152386D01*
X7702905Y-7146137D01*
X7706461Y-7139482D01*
X7708646Y-7132218D01*
X7709458Y-7124192D01*
X7709458Y-6930136D01*
X7710220Y-6926325D01*
X7712303Y-6923074D01*
X7715503Y-6920839D01*
X7721955Y-6917994D01*
X7734096Y-6910628D01*
X7745171Y-6901789D01*
X7755026Y-6891629D01*
X7763509Y-6880250D01*
X7770469Y-6867906D01*
X7775803Y-6854748D01*
X7779410Y-6841032D01*
X7781188Y-6827012D01*
X7781188Y-6812788D01*
X7779410Y-6798767D01*
X7775803Y-6785051D01*
X7770469Y-6771894D01*
X7763509Y-6759549D01*
X7755026Y-6748170D01*
X7745171Y-6738010D01*
X7734096Y-6729171D01*
X7721955Y-6721805D01*
X7709001Y-6716064D01*
X7695438Y-6712051D01*
X7681417Y-6709765D01*
X7667244Y-6709308D01*
X7653121Y-6710680D01*
X7639303Y-6713829D01*
X7625994Y-6718757D01*
X7613446Y-6725310D01*
X7601813Y-6733387D01*
X7591348Y-6742938D01*
X7582153Y-6753707D01*
X7574381Y-6765594D01*
X7568234Y-6778396D01*
X7563764Y-6791858D01*
X7561072Y-6805777D01*
X7560157Y-6819900D01*
X7561072Y-6834022D01*
X7563764Y-6847941D01*
X7568234Y-6861403D01*
X7574381Y-6874205D01*
X7582153Y-6886092D01*
X7591348Y-6896862D01*
X7601813Y-6906412D01*
X7613446Y-6914489D01*
X7626654Y-6921398D01*
X7629601Y-6923633D01*
X7631480Y-6926783D01*
X7632141Y-6930390D01*
X7632141Y-7104481D01*
X7631379Y-7108393D01*
X7629194Y-7111644D01*
X7219391Y-7521448D01*
X7214260Y-7527696D01*
X7210704Y-7534351D01*
X7208520Y-7541615D01*
X7207707Y-7549642D01*
X7207707Y-7923275D01*
X7206945Y-7927136D01*
X7204811Y-7930388D01*
X7201611Y-7932623D01*
X7197750Y-7933436D01*
X7193889Y-7932775D01*
X7190587Y-7930692D01*
X7184999Y-7925460D01*
X7173366Y-7916976D01*
X7160768Y-7910068D01*
X7147407Y-7904784D01*
X7133437Y-7901178D01*
X7119213Y-7899400D01*
X7104786Y-7899400D01*
X7090562Y-7901178D01*
X7076592Y-7904784D01*
X7063231Y-7910068D01*
X7050633Y-7916976D01*
X7039000Y-7925460D01*
X7028484Y-7935315D01*
X7019340Y-7946390D01*
X7011619Y-7958531D01*
X7005523Y-7971536D01*
X7001052Y-7985201D01*
X6998360Y-7999323D01*
X6997446Y-8013700D01*
X6998360Y-8028076D01*
X7001052Y-8042198D01*
X7005523Y-8055864D01*
X7011619Y-8068868D01*
X7019340Y-8081009D01*
X7028484Y-8092084D01*
X7039000Y-8101939D01*
X7050633Y-8110423D01*
X7063231Y-8117331D01*
X7076592Y-8122615D01*
X7090613Y-8126222D01*
X7094829Y-8127746D01*
X7097979Y-8130946D01*
X7099401Y-8135213D01*
X7098893Y-8139684D01*
X7096506Y-8143494D01*
X6234328Y-9005874D01*
X6231026Y-9008059D01*
X6227165Y-9008821D01*
X5447588Y-9008821D01*
X5443270Y-9007856D01*
X5439816Y-9005163D01*
X5437784Y-9001252D01*
X5437581Y-8996883D01*
X5439308Y-8992819D01*
X5440984Y-8990431D01*
X5445302Y-8982100D01*
X5400700Y-8982100D01*
X5400700Y-8998661D01*
X5399887Y-9002572D01*
X5397703Y-9005874D01*
X5394401Y-9008059D01*
X5390540Y-9008821D01*
X5328310Y-9008821D01*
X5324398Y-9008059D01*
X5321096Y-9005874D01*
X5318912Y-9002572D01*
X5318150Y-8998661D01*
X5318150Y-8982100D01*
X5273497Y-8982100D01*
X5277815Y-8990431D01*
X5279491Y-8992819D01*
X5281218Y-8996883D01*
X5281015Y-9001252D01*
X5278983Y-9005163D01*
X5275529Y-9007856D01*
X5271211Y-9008821D01*
X5232298Y-9008821D01*
X5228386Y-9008059D01*
X5225135Y-9005874D01*
X5198872Y-8979611D01*
X5196738Y-8976461D01*
X5195874Y-8972753D01*
X5196484Y-8968994D01*
X5197348Y-8966555D01*
X5199989Y-8953804D01*
X5200904Y-8940800D01*
X5199989Y-8927795D01*
X5197348Y-8915044D01*
X5192979Y-8902750D01*
X5186984Y-8891168D01*
X5179466Y-8880551D01*
X5170576Y-8871000D01*
X5160467Y-8862771D01*
X5149342Y-8856014D01*
X5137353Y-8850833D01*
X5124805Y-8847328D01*
X5111902Y-8845550D01*
X5098897Y-8845550D01*
X5085994Y-8847328D01*
X5073446Y-8850833D01*
X5061458Y-8856014D01*
X5050332Y-8862771D01*
X5040223Y-8871000D01*
X5031333Y-8880551D01*
X5023815Y-8891168D01*
X5017820Y-8902750D01*
X5013452Y-8915044D01*
X5010810Y-8927795D01*
X5009896Y-8940800D01*
X5010810Y-8953804D01*
X5013452Y-8966555D01*
X5017820Y-8978849D01*
X5023815Y-8990431D01*
X5031333Y-9001048D01*
X5040223Y-9010599D01*
X5050332Y-9018828D01*
X5061458Y-9025585D01*
X5073446Y-9030766D01*
X5085994Y-9034272D01*
X5098897Y-9036050D01*
X5111902Y-9036050D01*
X5124805Y-9034272D01*
X5134254Y-9031630D01*
X5137810Y-9031274D01*
X5141264Y-9032189D01*
X5144160Y-9034221D01*
X5184394Y-9074454D01*
X5190642Y-9079585D01*
X5197297Y-9083141D01*
X5204561Y-9085326D01*
G37*
G36*
X4082897Y-9036050D02*
G01*
X4095902Y-9036050D01*
X4108805Y-9034272D01*
X4121353Y-9030766D01*
X4133342Y-9025585D01*
X4144467Y-9018828D01*
X4154576Y-9010599D01*
X4163466Y-9001048D01*
X4170984Y-8990431D01*
X4176979Y-8978849D01*
X4181348Y-8966555D01*
X4183989Y-8953804D01*
X4184904Y-8940800D01*
X4183989Y-8927795D01*
X4181348Y-8915044D01*
X4176979Y-8902750D01*
X4170984Y-8891168D01*
X4163466Y-8880551D01*
X4154576Y-8871000D01*
X4144467Y-8862771D01*
X4133342Y-8856014D01*
X4121353Y-8850833D01*
X4108805Y-8847328D01*
X4095902Y-8845550D01*
X4082897Y-8845550D01*
X4069994Y-8847328D01*
X4057446Y-8850833D01*
X4045458Y-8856014D01*
X4034332Y-8862771D01*
X4024223Y-8871000D01*
X4015333Y-8880551D01*
X4007815Y-8891168D01*
X4001820Y-8902750D01*
X3997451Y-8915044D01*
X3994810Y-8927795D01*
X3993896Y-8940800D01*
X3994810Y-8953804D01*
X3997451Y-8966555D01*
X4001820Y-8978849D01*
X4007815Y-8990431D01*
X4015333Y-9001048D01*
X4024223Y-9010599D01*
X4034332Y-9018828D01*
X4045458Y-9025585D01*
X4057446Y-9030766D01*
X4069994Y-9034272D01*
G37*
G36*
X4810150Y-9026702D02*
G01*
X4810150Y-8982100D01*
X4765497Y-8982100D01*
X4769815Y-8990431D01*
X4777333Y-9001048D01*
X4786223Y-9010599D01*
X4796332Y-9018828D01*
X4807458Y-9025585D01*
G37*
G36*
X4892700Y-9026702D02*
G01*
X4895342Y-9025585D01*
X4906467Y-9018828D01*
X4916576Y-9010599D01*
X4925466Y-9001048D01*
X4932984Y-8990431D01*
X4937302Y-8982100D01*
X4892700Y-8982100D01*
G37*
G36*
X4765497Y-8899550D02*
G01*
X4810150Y-8899550D01*
X4810150Y-8854897D01*
X4807458Y-8856014D01*
X4796332Y-8862771D01*
X4786223Y-8871000D01*
X4777333Y-8880551D01*
X4769815Y-8891168D01*
G37*
G36*
X4892700Y-8899550D02*
G01*
X4937302Y-8899550D01*
X4932984Y-8891168D01*
X4925466Y-8880551D01*
X4916576Y-8871000D01*
X4906467Y-8862771D01*
X4895342Y-8856014D01*
X4892700Y-8854897D01*
G37*
G36*
X5273497Y-8899550D02*
G01*
X5318150Y-8899550D01*
X5318150Y-8854897D01*
X5315458Y-8856014D01*
X5304332Y-8862771D01*
X5294223Y-8871000D01*
X5285333Y-8880551D01*
X5277815Y-8891168D01*
G37*
G36*
X5400700Y-8899550D02*
G01*
X5445302Y-8899550D01*
X5440984Y-8891168D01*
X5433466Y-8880551D01*
X5424576Y-8871000D01*
X5414467Y-8862771D01*
X5403342Y-8856014D01*
X5400700Y-8854897D01*
G37*
G36*
X2004618Y-8803894D02*
G01*
X2037080Y-8803894D01*
X2037080Y-8745220D01*
X1978406Y-8745220D01*
X1978406Y-8777681D01*
X1979117Y-8783929D01*
X1980996Y-8789365D01*
X1984044Y-8794191D01*
X1988108Y-8798255D01*
X1992934Y-8801303D01*
X1998370Y-8803182D01*
G37*
G36*
X2128520Y-8803894D02*
G01*
X2160981Y-8803894D01*
X2167229Y-8803182D01*
X2172665Y-8801303D01*
X2177491Y-8798255D01*
X2181555Y-8794191D01*
X2184603Y-8789365D01*
X2186482Y-8783929D01*
X2187194Y-8777681D01*
X2187194Y-8745220D01*
X2128520Y-8745220D01*
G37*
G36*
X3098800Y-8803894D02*
G01*
X3112414Y-8802979D01*
X3125825Y-8800338D01*
X3138728Y-8795918D01*
X3150971Y-8789873D01*
X3162350Y-8782304D01*
X3172612Y-8773312D01*
X3181604Y-8763050D01*
X3189173Y-8751671D01*
X3195218Y-8739428D01*
X3199638Y-8726525D01*
X3202279Y-8713114D01*
X3203194Y-8699500D01*
X3202279Y-8685885D01*
X3199638Y-8672474D01*
X3195218Y-8659571D01*
X3189173Y-8647328D01*
X3181604Y-8635949D01*
X3172612Y-8625687D01*
X3162350Y-8616696D01*
X3150971Y-8609126D01*
X3138728Y-8603081D01*
X3125825Y-8598662D01*
X3112414Y-8596020D01*
X3098800Y-8595106D01*
X3085185Y-8596020D01*
X3071774Y-8598662D01*
X3058871Y-8603081D01*
X3046628Y-8609126D01*
X3035249Y-8616696D01*
X3024987Y-8625687D01*
X3015996Y-8635949D01*
X3008426Y-8647328D01*
X3002381Y-8659571D01*
X2997962Y-8672474D01*
X2995320Y-8685885D01*
X2994406Y-8699500D01*
X2995320Y-8713114D01*
X2997962Y-8726525D01*
X3002381Y-8739428D01*
X3008426Y-8751671D01*
X3015996Y-8763050D01*
X3024987Y-8773312D01*
X3035249Y-8782304D01*
X3046628Y-8789873D01*
X3058871Y-8795918D01*
X3071774Y-8800338D01*
X3085185Y-8802979D01*
G37*
G36*
X1978406Y-8653780D02*
G01*
X2037080Y-8653780D01*
X2037080Y-8595106D01*
X2004618Y-8595106D01*
X1998370Y-8595817D01*
X1992934Y-8597696D01*
X1988108Y-8600744D01*
X1984044Y-8604808D01*
X1980996Y-8609634D01*
X1979117Y-8615070D01*
X1978406Y-8621318D01*
G37*
G36*
X2128520Y-8653780D02*
G01*
X2187194Y-8653780D01*
X2187194Y-8621318D01*
X2186482Y-8615070D01*
X2184603Y-8609634D01*
X2181555Y-8604808D01*
X2177491Y-8600744D01*
X2172665Y-8597696D01*
X2167229Y-8595817D01*
X2160981Y-8595106D01*
X2128520Y-8595106D01*
G37*
G36*
X1397000Y-8372094D02*
G01*
X1410614Y-8371179D01*
X1424025Y-8368538D01*
X1436928Y-8364118D01*
X1449171Y-8358073D01*
X1460550Y-8350503D01*
X1470812Y-8341512D01*
X1479804Y-8331250D01*
X1487373Y-8319871D01*
X1493418Y-8307628D01*
X1497838Y-8294725D01*
X1500479Y-8281314D01*
X1501394Y-8267700D01*
X1500479Y-8254085D01*
X1497838Y-8240674D01*
X1493418Y-8227771D01*
X1487373Y-8215528D01*
X1479804Y-8204149D01*
X1470812Y-8193887D01*
X1460550Y-8184896D01*
X1449171Y-8177326D01*
X1436928Y-8171281D01*
X1424025Y-8166862D01*
X1410614Y-8164220D01*
X1397000Y-8163306D01*
X1383385Y-8164220D01*
X1369974Y-8166862D01*
X1357071Y-8171281D01*
X1344828Y-8177326D01*
X1333449Y-8184896D01*
X1323187Y-8193887D01*
X1314196Y-8204149D01*
X1306626Y-8215528D01*
X1300581Y-8227771D01*
X1296162Y-8240674D01*
X1293520Y-8254085D01*
X1292606Y-8267700D01*
X1293520Y-8281314D01*
X1296162Y-8294725D01*
X1300581Y-8307628D01*
X1306626Y-8319871D01*
X1314196Y-8331250D01*
X1323187Y-8341512D01*
X1333449Y-8350503D01*
X1344828Y-8358073D01*
X1357071Y-8364118D01*
X1369974Y-8368538D01*
X1383385Y-8371179D01*
G37*
G36*
X1064818Y-8372094D02*
G01*
X1221181Y-8372094D01*
X1227429Y-8371382D01*
X1232865Y-8369503D01*
X1237691Y-8366455D01*
X1241755Y-8362391D01*
X1244803Y-8357565D01*
X1246682Y-8352129D01*
X1247394Y-8345881D01*
X1247394Y-8189518D01*
X1246682Y-8183270D01*
X1244803Y-8177834D01*
X1241755Y-8173008D01*
X1237691Y-8168944D01*
X1232865Y-8165896D01*
X1227429Y-8164017D01*
X1221181Y-8163306D01*
X1064818Y-8163306D01*
X1058570Y-8164017D01*
X1053134Y-8165896D01*
X1048308Y-8168944D01*
X1044244Y-8173008D01*
X1041196Y-8177834D01*
X1039317Y-8183270D01*
X1038606Y-8189518D01*
X1038606Y-8345881D01*
X1039317Y-8352129D01*
X1041196Y-8357565D01*
X1044244Y-8362391D01*
X1048308Y-8366455D01*
X1053134Y-8369503D01*
X1058570Y-8371382D01*
G37*
G36*
X4844897Y-8274050D02*
G01*
X4857902Y-8274050D01*
X4870805Y-8272272D01*
X4883353Y-8268766D01*
X4895342Y-8263585D01*
X4906467Y-8256828D01*
X4916576Y-8248599D01*
X4925466Y-8239048D01*
X4932984Y-8228431D01*
X4938979Y-8216849D01*
X4943348Y-8204555D01*
X4945989Y-8191804D01*
X4946904Y-8178800D01*
X4945989Y-8165795D01*
X4943348Y-8153044D01*
X4938979Y-8140750D01*
X4932984Y-8129168D01*
X4925466Y-8118551D01*
X4916576Y-8109000D01*
X4906467Y-8100771D01*
X4895342Y-8094014D01*
X4883353Y-8088833D01*
X4870805Y-8085328D01*
X4857902Y-8083550D01*
X4844897Y-8083550D01*
X4831994Y-8085328D01*
X4819446Y-8088833D01*
X4807458Y-8094014D01*
X4796332Y-8100771D01*
X4786223Y-8109000D01*
X4777333Y-8118551D01*
X4769815Y-8129168D01*
X4763820Y-8140750D01*
X4759452Y-8153044D01*
X4756810Y-8165795D01*
X4755896Y-8178800D01*
X4756810Y-8191804D01*
X4759452Y-8204555D01*
X4763820Y-8216849D01*
X4769815Y-8228431D01*
X4777333Y-8239048D01*
X4786223Y-8248599D01*
X4796332Y-8256828D01*
X4807458Y-8263585D01*
X4819446Y-8268766D01*
X4831994Y-8272272D01*
G37*
G36*
X4302150Y-8264702D02*
G01*
X4302150Y-8220100D01*
X4257497Y-8220100D01*
X4261815Y-8228431D01*
X4269333Y-8239048D01*
X4278223Y-8248599D01*
X4288332Y-8256828D01*
X4299458Y-8263585D01*
G37*
G36*
X4384700Y-8264702D02*
G01*
X4387342Y-8263585D01*
X4398467Y-8256828D01*
X4408576Y-8248599D01*
X4417466Y-8239048D01*
X4424984Y-8228431D01*
X4429302Y-8220100D01*
X4384700Y-8220100D01*
G37*
G36*
X5064150Y-8264702D02*
G01*
X5064150Y-8220100D01*
X5019497Y-8220100D01*
X5023815Y-8228431D01*
X5031333Y-8239048D01*
X5040223Y-8248599D01*
X5050332Y-8256828D01*
X5061458Y-8263585D01*
G37*
G36*
X4384700Y-8137550D02*
G01*
X4429302Y-8137550D01*
X4424984Y-8129168D01*
X4417466Y-8118551D01*
X4408576Y-8109000D01*
X4398467Y-8100771D01*
X4387342Y-8094014D01*
X4384700Y-8092897D01*
G37*
G36*
X5019497Y-8137550D02*
G01*
X5064150Y-8137550D01*
X5064150Y-8092897D01*
X5061458Y-8094014D01*
X5050332Y-8100771D01*
X5040223Y-8109000D01*
X5031333Y-8118551D01*
X5023815Y-8129168D01*
G37*
G36*
X4257497Y-8137550D02*
G01*
X4302150Y-8137550D01*
X4302150Y-8092897D01*
X4299458Y-8094014D01*
X4288332Y-8100771D01*
X4278223Y-8109000D01*
X4269333Y-8118551D01*
X4261815Y-8129168D01*
G37*
G36*
X7612786Y-8128000D02*
G01*
X7627213Y-8128000D01*
X7641437Y-8126222D01*
X7655407Y-8122615D01*
X7668768Y-8117331D01*
X7681366Y-8110423D01*
X7692999Y-8101939D01*
X7703515Y-8092084D01*
X7712659Y-8081009D01*
X7720380Y-8068868D01*
X7726476Y-8055864D01*
X7730947Y-8042198D01*
X7733639Y-8028076D01*
X7734553Y-8013700D01*
X7733639Y-7999323D01*
X7730947Y-7985201D01*
X7726476Y-7971536D01*
X7720380Y-7958531D01*
X7712659Y-7946390D01*
X7703515Y-7935315D01*
X7692999Y-7925460D01*
X7681366Y-7916976D01*
X7668768Y-7910068D01*
X7655407Y-7904784D01*
X7641437Y-7901178D01*
X7627213Y-7899400D01*
X7612786Y-7899400D01*
X7598562Y-7901178D01*
X7584592Y-7904784D01*
X7571231Y-7910068D01*
X7558633Y-7916976D01*
X7547000Y-7925460D01*
X7536484Y-7935315D01*
X7527340Y-7946390D01*
X7519619Y-7958531D01*
X7513523Y-7971536D01*
X7509052Y-7985201D01*
X7506360Y-7999323D01*
X7505446Y-8013700D01*
X7506360Y-8028076D01*
X7509052Y-8042198D01*
X7513523Y-8055864D01*
X7519619Y-8068868D01*
X7527340Y-8081009D01*
X7536484Y-8092084D01*
X7547000Y-8101939D01*
X7558633Y-8110423D01*
X7571231Y-8117331D01*
X7584592Y-8122615D01*
X7598562Y-8126222D01*
G37*
G36*
X6342786Y-8128000D02*
G01*
X6357213Y-8128000D01*
X6371437Y-8126222D01*
X6385407Y-8122615D01*
X6398768Y-8117331D01*
X6411366Y-8110423D01*
X6422999Y-8101939D01*
X6433515Y-8092084D01*
X6442659Y-8081009D01*
X6450380Y-8068868D01*
X6456476Y-8055864D01*
X6460947Y-8042198D01*
X6463639Y-8028076D01*
X6464554Y-8013700D01*
X6463639Y-7999323D01*
X6460947Y-7985201D01*
X6456476Y-7971536D01*
X6450380Y-7958531D01*
X6442659Y-7946390D01*
X6433515Y-7935315D01*
X6422999Y-7925460D01*
X6411366Y-7916976D01*
X6398768Y-7910068D01*
X6385407Y-7904784D01*
X6371437Y-7901178D01*
X6357213Y-7899400D01*
X6342786Y-7899400D01*
X6328562Y-7901178D01*
X6314592Y-7904784D01*
X6301232Y-7910068D01*
X6288633Y-7916976D01*
X6277000Y-7925460D01*
X6266484Y-7935315D01*
X6257340Y-7946390D01*
X6249619Y-7958531D01*
X6243523Y-7971536D01*
X6239052Y-7985201D01*
X6236360Y-7999323D01*
X6235446Y-8013700D01*
X6236360Y-8028076D01*
X6239052Y-8042198D01*
X6243523Y-8055864D01*
X6249619Y-8068868D01*
X6257340Y-8081009D01*
X6266484Y-8092084D01*
X6277000Y-8101939D01*
X6288633Y-8110423D01*
X6301232Y-8117331D01*
X6314592Y-8122615D01*
X6328562Y-8126222D01*
G37*
G36*
X6850786Y-8128000D02*
G01*
X6865213Y-8128000D01*
X6879437Y-8126222D01*
X6893407Y-8122615D01*
X6906768Y-8117331D01*
X6919366Y-8110423D01*
X6930999Y-8101939D01*
X6941515Y-8092084D01*
X6950659Y-8081009D01*
X6958380Y-8068868D01*
X6964476Y-8055864D01*
X6968947Y-8042198D01*
X6971639Y-8028076D01*
X6972553Y-8013700D01*
X6971639Y-7999323D01*
X6968947Y-7985201D01*
X6964476Y-7971536D01*
X6958380Y-7958531D01*
X6950659Y-7946390D01*
X6941515Y-7935315D01*
X6930999Y-7925460D01*
X6919366Y-7916976D01*
X6906768Y-7910068D01*
X6893407Y-7904784D01*
X6879437Y-7901178D01*
X6865213Y-7899400D01*
X6850786Y-7899400D01*
X6836562Y-7901178D01*
X6822592Y-7904784D01*
X6809231Y-7910068D01*
X6796633Y-7916976D01*
X6785000Y-7925460D01*
X6774484Y-7935315D01*
X6765340Y-7946390D01*
X6757619Y-7958531D01*
X6751523Y-7971536D01*
X6747052Y-7985201D01*
X6744360Y-7999323D01*
X6743446Y-8013700D01*
X6744360Y-8028076D01*
X6747052Y-8042198D01*
X6751523Y-8055864D01*
X6757619Y-8068868D01*
X6765340Y-8081009D01*
X6774484Y-8092084D01*
X6785000Y-8101939D01*
X6796633Y-8110423D01*
X6809231Y-8117331D01*
X6822592Y-8122615D01*
X6836562Y-8126222D01*
G37*
G36*
X7866786Y-8128000D02*
G01*
X7881213Y-8128000D01*
X7895437Y-8126222D01*
X7909407Y-8122615D01*
X7922768Y-8117331D01*
X7935366Y-8110423D01*
X7946999Y-8101939D01*
X7957515Y-8092084D01*
X7966659Y-8081009D01*
X7974380Y-8068868D01*
X7980476Y-8055864D01*
X7984947Y-8042198D01*
X7987639Y-8028076D01*
X7988553Y-8013700D01*
X7987639Y-7999323D01*
X7984947Y-7985201D01*
X7980476Y-7971536D01*
X7974380Y-7958531D01*
X7966659Y-7946390D01*
X7957515Y-7935315D01*
X7946999Y-7925460D01*
X7935366Y-7916976D01*
X7922768Y-7910068D01*
X7909407Y-7904784D01*
X7895437Y-7901178D01*
X7881213Y-7899400D01*
X7866786Y-7899400D01*
X7852562Y-7901178D01*
X7838592Y-7904784D01*
X7825231Y-7910068D01*
X7812633Y-7916976D01*
X7801000Y-7925460D01*
X7790484Y-7935315D01*
X7781340Y-7946390D01*
X7773619Y-7958531D01*
X7767523Y-7971536D01*
X7763052Y-7985201D01*
X7760360Y-7999323D01*
X7759446Y-8013700D01*
X7760360Y-8028076D01*
X7763052Y-8042198D01*
X7767523Y-8055864D01*
X7773619Y-8068868D01*
X7781340Y-8081009D01*
X7790484Y-8092084D01*
X7801000Y-8101939D01*
X7812633Y-8110423D01*
X7825231Y-8117331D01*
X7838592Y-8122615D01*
X7852562Y-8126222D01*
G37*
G36*
X6654800Y-8116214D02*
G01*
X6665366Y-8110423D01*
X6676999Y-8101939D01*
X6687515Y-8092084D01*
X6696659Y-8081009D01*
X6704380Y-8068868D01*
X6706412Y-8064500D01*
X6654800Y-8064500D01*
G37*
G36*
X6553200Y-8116214D02*
G01*
X6553200Y-8064500D01*
X6501587Y-8064500D01*
X6503619Y-8068868D01*
X6511340Y-8081009D01*
X6520484Y-8092084D01*
X6531000Y-8101939D01*
X6542633Y-8110423D01*
G37*
G36*
X6501587Y-7962900D02*
G01*
X6553200Y-7962900D01*
X6553200Y-7911185D01*
X6542633Y-7916976D01*
X6531000Y-7925460D01*
X6520484Y-7935315D01*
X6511340Y-7946390D01*
X6503619Y-7958531D01*
G37*
G36*
X6654800Y-7962900D02*
G01*
X6706412Y-7962900D01*
X6704380Y-7958531D01*
X6696659Y-7946390D01*
X6687515Y-7935315D01*
X6676999Y-7925460D01*
X6665366Y-7916976D01*
X6654800Y-7911185D01*
G37*
G36*
X1064818Y-7597394D02*
G01*
X1221181Y-7597394D01*
X1227429Y-7596682D01*
X1232865Y-7594803D01*
X1237691Y-7591755D01*
X1241755Y-7587691D01*
X1244803Y-7582865D01*
X1246682Y-7577429D01*
X1247394Y-7571181D01*
X1247394Y-7414818D01*
X1246682Y-7408570D01*
X1244803Y-7403134D01*
X1241755Y-7398308D01*
X1237691Y-7394244D01*
X1232865Y-7391196D01*
X1227429Y-7389317D01*
X1221181Y-7388606D01*
X1064818Y-7388606D01*
X1058570Y-7389317D01*
X1053134Y-7391196D01*
X1048308Y-7394244D01*
X1044244Y-7398308D01*
X1041196Y-7403134D01*
X1039317Y-7408570D01*
X1038606Y-7414818D01*
X1038606Y-7571181D01*
X1039317Y-7577429D01*
X1041196Y-7582865D01*
X1044244Y-7587691D01*
X1048308Y-7591755D01*
X1053134Y-7594803D01*
X1058570Y-7596682D01*
G37*
G36*
X1351280Y-7586573D02*
G01*
X1351280Y-7538720D01*
X1303426Y-7538720D01*
X1306626Y-7545171D01*
X1314196Y-7556550D01*
X1323187Y-7566812D01*
X1333449Y-7575803D01*
X1344828Y-7583373D01*
G37*
G36*
X1442720Y-7586573D02*
G01*
X1449171Y-7583373D01*
X1460550Y-7575803D01*
X1470812Y-7566812D01*
X1479804Y-7556550D01*
X1487373Y-7545171D01*
X1490573Y-7538720D01*
X1442720Y-7538720D01*
G37*
G36*
X1303426Y-7447280D02*
G01*
X1351280Y-7447280D01*
X1351280Y-7399426D01*
X1344828Y-7402626D01*
X1333449Y-7410196D01*
X1323187Y-7419187D01*
X1314196Y-7429449D01*
X1306626Y-7440828D01*
G37*
G36*
X1442720Y-7447280D02*
G01*
X1490573Y-7447280D01*
X1487373Y-7440828D01*
X1479804Y-7429449D01*
X1470812Y-7419187D01*
X1460550Y-7410196D01*
X1449171Y-7402626D01*
X1442720Y-7399426D01*
G37*
G36*
X1825243Y-6930491D02*
G01*
X1839417Y-6930034D01*
X1853438Y-6927748D01*
X1867001Y-6923735D01*
X1879955Y-6917994D01*
X1892096Y-6910628D01*
X1903171Y-6901789D01*
X1913026Y-6891629D01*
X1921510Y-6880250D01*
X1928469Y-6867906D01*
X1933803Y-6854748D01*
X1937410Y-6841032D01*
X1939188Y-6827012D01*
X1939188Y-6812788D01*
X1937410Y-6798767D01*
X1933803Y-6785051D01*
X1928469Y-6771894D01*
X1921510Y-6759549D01*
X1913026Y-6748170D01*
X1903171Y-6738010D01*
X1892096Y-6729171D01*
X1879955Y-6721805D01*
X1867001Y-6716064D01*
X1853438Y-6712051D01*
X1839417Y-6709765D01*
X1825243Y-6709308D01*
X1811121Y-6710680D01*
X1797304Y-6713829D01*
X1783994Y-6718757D01*
X1771446Y-6725310D01*
X1759813Y-6733387D01*
X1749348Y-6742938D01*
X1740154Y-6753707D01*
X1732381Y-6765594D01*
X1726234Y-6778396D01*
X1721764Y-6791858D01*
X1719072Y-6805777D01*
X1718157Y-6819900D01*
X1719072Y-6834022D01*
X1721764Y-6847941D01*
X1726234Y-6861403D01*
X1732381Y-6874205D01*
X1740154Y-6886092D01*
X1749348Y-6896862D01*
X1759813Y-6906412D01*
X1771446Y-6914489D01*
X1783994Y-6921042D01*
X1797304Y-6925970D01*
X1811121Y-6929120D01*
G37*
G36*
X7159244Y-6930491D02*
G01*
X7173417Y-6930034D01*
X7187438Y-6927748D01*
X7201001Y-6923735D01*
X7213955Y-6917994D01*
X7226096Y-6910628D01*
X7237171Y-6901789D01*
X7247026Y-6891629D01*
X7255509Y-6880250D01*
X7262469Y-6867906D01*
X7267803Y-6854748D01*
X7271410Y-6841032D01*
X7273188Y-6827012D01*
X7273188Y-6812788D01*
X7271410Y-6798767D01*
X7267803Y-6785051D01*
X7262469Y-6771894D01*
X7255509Y-6759549D01*
X7247026Y-6748170D01*
X7237171Y-6738010D01*
X7226096Y-6729171D01*
X7213955Y-6721805D01*
X7201001Y-6716064D01*
X7187438Y-6712051D01*
X7173417Y-6709765D01*
X7159244Y-6709308D01*
X7145121Y-6710680D01*
X7131303Y-6713829D01*
X7117994Y-6718757D01*
X7105446Y-6725310D01*
X7093813Y-6733387D01*
X7083348Y-6742938D01*
X7074153Y-6753707D01*
X7066381Y-6765594D01*
X7060234Y-6778396D01*
X7055764Y-6791858D01*
X7053072Y-6805777D01*
X7052157Y-6819900D01*
X7053072Y-6834022D01*
X7055764Y-6847941D01*
X7060234Y-6861403D01*
X7066381Y-6874205D01*
X7074153Y-6886092D01*
X7083348Y-6896862D01*
X7093813Y-6906412D01*
X7105446Y-6914489D01*
X7117994Y-6921042D01*
X7131303Y-6925970D01*
X7145121Y-6929120D01*
G37*
G36*
X5127244Y-6930491D02*
G01*
X5141417Y-6930034D01*
X5155438Y-6927748D01*
X5169001Y-6923735D01*
X5181955Y-6917994D01*
X5194096Y-6910628D01*
X5205171Y-6901789D01*
X5215026Y-6891629D01*
X5223510Y-6880250D01*
X5230469Y-6867906D01*
X5235803Y-6854748D01*
X5239410Y-6841032D01*
X5241188Y-6827012D01*
X5241188Y-6812788D01*
X5239410Y-6798767D01*
X5235803Y-6785051D01*
X5230469Y-6771894D01*
X5223510Y-6759549D01*
X5215026Y-6748170D01*
X5205171Y-6738010D01*
X5194096Y-6729171D01*
X5181955Y-6721805D01*
X5169001Y-6716064D01*
X5155438Y-6712051D01*
X5141417Y-6709765D01*
X5127244Y-6709308D01*
X5113121Y-6710680D01*
X5099304Y-6713829D01*
X5085994Y-6718757D01*
X5073446Y-6725310D01*
X5061813Y-6733387D01*
X5051348Y-6742938D01*
X5042154Y-6753707D01*
X5034381Y-6765594D01*
X5028234Y-6778396D01*
X5023764Y-6791858D01*
X5021072Y-6805777D01*
X5020157Y-6819900D01*
X5021072Y-6834022D01*
X5023764Y-6847941D01*
X5028234Y-6861403D01*
X5034381Y-6874205D01*
X5042154Y-6886092D01*
X5051348Y-6896862D01*
X5061813Y-6906412D01*
X5073446Y-6914489D01*
X5085994Y-6921042D01*
X5099304Y-6925970D01*
X5113121Y-6929120D01*
G37*
G36*
X6905244Y-6930491D02*
G01*
X6919417Y-6930034D01*
X6933438Y-6927748D01*
X6947001Y-6923735D01*
X6959955Y-6917994D01*
X6972096Y-6910628D01*
X6983171Y-6901789D01*
X6993026Y-6891629D01*
X7001509Y-6880250D01*
X7008469Y-6867906D01*
X7013803Y-6854748D01*
X7017410Y-6841032D01*
X7019188Y-6827012D01*
X7019188Y-6812788D01*
X7017410Y-6798767D01*
X7013803Y-6785051D01*
X7008469Y-6771894D01*
X7001509Y-6759549D01*
X6993026Y-6748170D01*
X6983171Y-6738010D01*
X6972096Y-6729171D01*
X6959955Y-6721805D01*
X6947001Y-6716064D01*
X6933438Y-6712051D01*
X6919417Y-6709765D01*
X6905244Y-6709308D01*
X6891121Y-6710680D01*
X6877303Y-6713829D01*
X6863994Y-6718757D01*
X6851446Y-6725310D01*
X6839813Y-6733387D01*
X6829348Y-6742938D01*
X6820153Y-6753707D01*
X6812381Y-6765594D01*
X6806234Y-6778396D01*
X6801764Y-6791858D01*
X6799072Y-6805777D01*
X6798157Y-6819900D01*
X6799072Y-6834022D01*
X6801764Y-6847941D01*
X6806234Y-6861403D01*
X6812381Y-6874205D01*
X6820153Y-6886092D01*
X6829348Y-6896862D01*
X6839813Y-6906412D01*
X6851446Y-6914489D01*
X6863994Y-6921042D01*
X6877303Y-6925970D01*
X6891121Y-6929120D01*
G37*
G36*
X7413244Y-6930491D02*
G01*
X7427417Y-6930034D01*
X7441438Y-6927748D01*
X7455001Y-6923735D01*
X7467955Y-6917994D01*
X7480096Y-6910628D01*
X7491171Y-6901789D01*
X7501026Y-6891629D01*
X7509509Y-6880250D01*
X7516469Y-6867906D01*
X7521803Y-6854748D01*
X7525410Y-6841032D01*
X7527188Y-6827012D01*
X7527188Y-6812788D01*
X7525410Y-6798767D01*
X7521803Y-6785051D01*
X7516469Y-6771894D01*
X7509509Y-6759549D01*
X7501026Y-6748170D01*
X7491171Y-6738010D01*
X7480096Y-6729171D01*
X7467955Y-6721805D01*
X7455001Y-6716064D01*
X7441438Y-6712051D01*
X7427417Y-6709765D01*
X7413244Y-6709308D01*
X7399121Y-6710680D01*
X7385303Y-6713829D01*
X7371994Y-6718757D01*
X7359446Y-6725310D01*
X7347813Y-6733387D01*
X7337348Y-6742938D01*
X7328153Y-6753707D01*
X7320381Y-6765594D01*
X7314234Y-6778396D01*
X7309764Y-6791858D01*
X7307072Y-6805777D01*
X7306157Y-6819900D01*
X7307072Y-6834022D01*
X7309764Y-6847941D01*
X7314234Y-6861403D01*
X7320381Y-6874205D01*
X7328153Y-6886092D01*
X7337348Y-6896862D01*
X7347813Y-6906412D01*
X7359446Y-6914489D01*
X7371994Y-6921042D01*
X7385303Y-6925970D01*
X7399121Y-6929120D01*
G37*
G36*
X5381244Y-6930491D02*
G01*
X5395417Y-6930034D01*
X5409438Y-6927748D01*
X5423001Y-6923735D01*
X5435955Y-6917994D01*
X5448096Y-6910628D01*
X5459171Y-6901789D01*
X5469026Y-6891629D01*
X5477510Y-6880250D01*
X5484469Y-6867906D01*
X5489803Y-6854748D01*
X5493410Y-6841032D01*
X5495188Y-6827012D01*
X5495188Y-6812788D01*
X5493410Y-6798767D01*
X5489803Y-6785051D01*
X5484469Y-6771894D01*
X5477510Y-6759549D01*
X5469026Y-6748170D01*
X5459171Y-6738010D01*
X5448096Y-6729171D01*
X5435955Y-6721805D01*
X5423001Y-6716064D01*
X5409438Y-6712051D01*
X5395417Y-6709765D01*
X5381244Y-6709308D01*
X5367121Y-6710680D01*
X5353304Y-6713829D01*
X5339994Y-6718757D01*
X5327446Y-6725310D01*
X5315813Y-6733387D01*
X5305348Y-6742938D01*
X5296154Y-6753707D01*
X5288381Y-6765594D01*
X5282234Y-6778396D01*
X5277764Y-6791858D01*
X5275072Y-6805777D01*
X5274157Y-6819900D01*
X5275072Y-6834022D01*
X5277764Y-6847941D01*
X5282234Y-6861403D01*
X5288381Y-6874205D01*
X5296154Y-6886092D01*
X5305348Y-6896862D01*
X5315813Y-6906412D01*
X5327446Y-6914489D01*
X5339994Y-6921042D01*
X5353304Y-6925970D01*
X5367121Y-6929120D01*
G37*
G36*
X6651244Y-6930491D02*
G01*
X6665417Y-6930034D01*
X6679438Y-6927748D01*
X6693001Y-6923735D01*
X6705955Y-6917994D01*
X6718096Y-6910628D01*
X6729171Y-6901789D01*
X6739026Y-6891629D01*
X6747509Y-6880250D01*
X6754469Y-6867906D01*
X6759803Y-6854748D01*
X6763410Y-6841032D01*
X6765188Y-6827012D01*
X6765188Y-6812788D01*
X6763410Y-6798767D01*
X6759803Y-6785051D01*
X6754469Y-6771894D01*
X6747509Y-6759549D01*
X6739026Y-6748170D01*
X6729171Y-6738010D01*
X6718096Y-6729171D01*
X6705955Y-6721805D01*
X6693001Y-6716064D01*
X6679438Y-6712051D01*
X6665417Y-6709765D01*
X6651244Y-6709308D01*
X6637121Y-6710680D01*
X6623303Y-6713829D01*
X6609994Y-6718757D01*
X6597446Y-6725310D01*
X6585813Y-6733387D01*
X6575348Y-6742938D01*
X6566153Y-6753707D01*
X6558381Y-6765594D01*
X6552234Y-6778396D01*
X6547764Y-6791858D01*
X6545072Y-6805777D01*
X6544157Y-6819900D01*
X6545072Y-6834022D01*
X6547764Y-6847941D01*
X6552234Y-6861403D01*
X6558381Y-6874205D01*
X6566153Y-6886092D01*
X6575348Y-6896862D01*
X6585813Y-6906412D01*
X6597446Y-6914489D01*
X6609994Y-6921042D01*
X6623303Y-6925970D01*
X6637121Y-6929120D01*
G37*
G36*
X5635244Y-6930491D02*
G01*
X5649417Y-6930034D01*
X5663438Y-6927748D01*
X5677001Y-6923735D01*
X5689955Y-6917994D01*
X5702096Y-6910628D01*
X5713171Y-6901789D01*
X5723026Y-6891629D01*
X5731510Y-6880250D01*
X5738469Y-6867906D01*
X5743803Y-6854748D01*
X5747410Y-6841032D01*
X5749188Y-6827012D01*
X5749188Y-6812788D01*
X5747410Y-6798767D01*
X5743803Y-6785051D01*
X5738469Y-6771894D01*
X5731510Y-6759549D01*
X5723026Y-6748170D01*
X5713171Y-6738010D01*
X5702096Y-6729171D01*
X5689955Y-6721805D01*
X5677001Y-6716064D01*
X5663438Y-6712051D01*
X5649417Y-6709765D01*
X5635244Y-6709308D01*
X5621121Y-6710680D01*
X5607304Y-6713829D01*
X5593994Y-6718757D01*
X5581446Y-6725310D01*
X5569813Y-6733387D01*
X5559348Y-6742938D01*
X5550154Y-6753707D01*
X5542381Y-6765594D01*
X5536234Y-6778396D01*
X5531764Y-6791858D01*
X5529072Y-6805777D01*
X5528157Y-6819900D01*
X5529072Y-6834022D01*
X5531764Y-6847941D01*
X5536234Y-6861403D01*
X5542381Y-6874205D01*
X5550154Y-6886092D01*
X5559348Y-6896862D01*
X5569813Y-6906412D01*
X5581446Y-6914489D01*
X5593994Y-6921042D01*
X5607304Y-6925970D01*
X5621121Y-6929120D01*
G37*
G36*
X4873244Y-6930491D02*
G01*
X4887417Y-6930034D01*
X4901438Y-6927748D01*
X4915001Y-6923735D01*
X4927955Y-6917994D01*
X4940096Y-6910628D01*
X4951171Y-6901789D01*
X4961026Y-6891629D01*
X4969510Y-6880250D01*
X4976469Y-6867906D01*
X4981803Y-6854748D01*
X4985410Y-6841032D01*
X4987188Y-6827012D01*
X4987188Y-6812788D01*
X4985410Y-6798767D01*
X4981803Y-6785051D01*
X4976469Y-6771894D01*
X4969510Y-6759549D01*
X4961026Y-6748170D01*
X4951171Y-6738010D01*
X4940096Y-6729171D01*
X4927955Y-6721805D01*
X4915001Y-6716064D01*
X4901438Y-6712051D01*
X4887417Y-6709765D01*
X4873244Y-6709308D01*
X4859121Y-6710680D01*
X4845304Y-6713829D01*
X4831994Y-6718757D01*
X4819446Y-6725310D01*
X4807813Y-6733387D01*
X4797348Y-6742938D01*
X4788154Y-6753707D01*
X4780381Y-6765594D01*
X4774234Y-6778396D01*
X4769764Y-6791858D01*
X4767072Y-6805777D01*
X4766157Y-6819900D01*
X4767072Y-6834022D01*
X4769764Y-6847941D01*
X4774234Y-6861403D01*
X4780381Y-6874205D01*
X4788154Y-6886092D01*
X4797348Y-6896862D01*
X4807813Y-6906412D01*
X4819446Y-6914489D01*
X4831994Y-6921042D01*
X4845304Y-6925970D01*
X4859121Y-6929120D01*
G37*
G36*
X2079243Y-6930491D02*
G01*
X2093417Y-6930034D01*
X2107438Y-6927748D01*
X2121001Y-6923735D01*
X2133955Y-6917994D01*
X2146096Y-6910628D01*
X2157171Y-6901789D01*
X2167026Y-6891629D01*
X2175510Y-6880250D01*
X2182469Y-6867906D01*
X2187803Y-6854748D01*
X2191410Y-6841032D01*
X2193188Y-6827012D01*
X2193188Y-6812788D01*
X2191410Y-6798767D01*
X2187803Y-6785051D01*
X2182469Y-6771894D01*
X2175510Y-6759549D01*
X2167026Y-6748170D01*
X2157171Y-6738010D01*
X2146096Y-6729171D01*
X2133955Y-6721805D01*
X2121001Y-6716064D01*
X2107438Y-6712051D01*
X2093417Y-6709765D01*
X2079243Y-6709308D01*
X2065121Y-6710680D01*
X2051304Y-6713829D01*
X2037994Y-6718757D01*
X2025446Y-6725310D01*
X2013813Y-6733387D01*
X2003348Y-6742938D01*
X1994154Y-6753707D01*
X1986381Y-6765594D01*
X1980234Y-6778396D01*
X1975764Y-6791858D01*
X1973072Y-6805777D01*
X1972157Y-6819900D01*
X1973072Y-6834022D01*
X1975764Y-6847941D01*
X1980234Y-6861403D01*
X1986381Y-6874205D01*
X1994154Y-6886092D01*
X2003348Y-6896862D01*
X2013813Y-6906412D01*
X2025446Y-6914489D01*
X2037994Y-6921042D01*
X2051304Y-6925970D01*
X2065121Y-6929120D01*
G37*
G36*
X2841244Y-6930491D02*
G01*
X2855417Y-6930034D01*
X2869438Y-6927748D01*
X2883001Y-6923735D01*
X2895955Y-6917994D01*
X2908096Y-6910628D01*
X2919171Y-6901789D01*
X2929026Y-6891629D01*
X2937510Y-6880250D01*
X2944469Y-6867906D01*
X2949803Y-6854748D01*
X2953410Y-6841032D01*
X2955188Y-6827012D01*
X2955188Y-6812788D01*
X2953410Y-6798767D01*
X2949803Y-6785051D01*
X2944469Y-6771894D01*
X2937510Y-6759549D01*
X2929026Y-6748170D01*
X2919171Y-6738010D01*
X2908096Y-6729171D01*
X2895955Y-6721805D01*
X2883001Y-6716064D01*
X2869438Y-6712051D01*
X2855417Y-6709765D01*
X2841244Y-6709308D01*
X2827121Y-6710680D01*
X2813304Y-6713829D01*
X2799994Y-6718757D01*
X2787446Y-6725310D01*
X2775813Y-6733387D01*
X2765348Y-6742938D01*
X2756154Y-6753707D01*
X2748381Y-6765594D01*
X2742234Y-6778396D01*
X2737764Y-6791858D01*
X2735072Y-6805777D01*
X2734157Y-6819900D01*
X2735072Y-6834022D01*
X2737764Y-6847941D01*
X2742234Y-6861403D01*
X2748381Y-6874205D01*
X2756154Y-6886092D01*
X2765348Y-6896862D01*
X2775813Y-6906412D01*
X2787446Y-6914489D01*
X2799994Y-6921042D01*
X2813304Y-6925970D01*
X2827121Y-6929120D01*
G37*
G36*
X4619244Y-6930491D02*
G01*
X4633417Y-6930034D01*
X4647438Y-6927748D01*
X4661001Y-6923735D01*
X4673955Y-6917994D01*
X4686096Y-6910628D01*
X4697171Y-6901789D01*
X4707026Y-6891629D01*
X4715510Y-6880250D01*
X4722469Y-6867906D01*
X4727803Y-6854748D01*
X4731410Y-6841032D01*
X4733188Y-6827012D01*
X4733188Y-6812788D01*
X4731410Y-6798767D01*
X4727803Y-6785051D01*
X4722469Y-6771894D01*
X4715510Y-6759549D01*
X4707026Y-6748170D01*
X4697171Y-6738010D01*
X4686096Y-6729171D01*
X4673955Y-6721805D01*
X4661001Y-6716064D01*
X4647438Y-6712051D01*
X4633417Y-6709765D01*
X4619244Y-6709308D01*
X4605121Y-6710680D01*
X4591304Y-6713829D01*
X4577994Y-6718757D01*
X4565446Y-6725310D01*
X4553813Y-6733387D01*
X4543348Y-6742938D01*
X4534154Y-6753707D01*
X4526381Y-6765594D01*
X4520234Y-6778396D01*
X4515764Y-6791858D01*
X4513072Y-6805777D01*
X4512157Y-6819900D01*
X4513072Y-6834022D01*
X4515764Y-6847941D01*
X4520234Y-6861403D01*
X4526381Y-6874205D01*
X4534154Y-6886092D01*
X4543348Y-6896862D01*
X4553813Y-6906412D01*
X4565446Y-6914489D01*
X4577994Y-6921042D01*
X4591304Y-6925970D01*
X4605121Y-6929120D01*
G37*
G36*
X3095244Y-6930491D02*
G01*
X3109417Y-6930034D01*
X3123438Y-6927748D01*
X3137001Y-6923735D01*
X3149955Y-6917994D01*
X3162096Y-6910628D01*
X3173171Y-6901789D01*
X3183026Y-6891629D01*
X3191510Y-6880250D01*
X3198469Y-6867906D01*
X3203803Y-6854748D01*
X3207410Y-6841032D01*
X3209188Y-6827012D01*
X3209188Y-6812788D01*
X3207410Y-6798767D01*
X3203803Y-6785051D01*
X3198469Y-6771894D01*
X3191510Y-6759549D01*
X3183026Y-6748170D01*
X3173171Y-6738010D01*
X3162096Y-6729171D01*
X3149955Y-6721805D01*
X3137001Y-6716064D01*
X3123438Y-6712051D01*
X3109417Y-6709765D01*
X3095244Y-6709308D01*
X3081121Y-6710680D01*
X3067304Y-6713829D01*
X3053994Y-6718757D01*
X3041446Y-6725310D01*
X3029813Y-6733387D01*
X3019348Y-6742938D01*
X3010154Y-6753707D01*
X3002381Y-6765594D01*
X2996234Y-6778396D01*
X2991764Y-6791858D01*
X2989072Y-6805777D01*
X2988157Y-6819900D01*
X2989072Y-6834022D01*
X2991764Y-6847941D01*
X2996234Y-6861403D01*
X3002381Y-6874205D01*
X3010154Y-6886092D01*
X3019348Y-6896862D01*
X3029813Y-6906412D01*
X3041446Y-6914489D01*
X3053994Y-6921042D01*
X3067304Y-6925970D01*
X3081121Y-6929120D01*
G37*
G36*
X3603244Y-6930491D02*
G01*
X3617417Y-6930034D01*
X3631437Y-6927748D01*
X3645001Y-6923735D01*
X3657955Y-6917994D01*
X3670096Y-6910628D01*
X3681171Y-6901789D01*
X3691026Y-6891629D01*
X3699510Y-6880250D01*
X3706469Y-6867906D01*
X3711803Y-6854748D01*
X3715410Y-6841032D01*
X3717188Y-6827012D01*
X3717188Y-6812788D01*
X3715410Y-6798767D01*
X3711803Y-6785051D01*
X3706469Y-6771894D01*
X3699510Y-6759549D01*
X3691026Y-6748170D01*
X3681171Y-6738010D01*
X3670096Y-6729171D01*
X3657955Y-6721805D01*
X3645001Y-6716064D01*
X3631437Y-6712051D01*
X3617417Y-6709765D01*
X3603244Y-6709308D01*
X3589121Y-6710680D01*
X3575304Y-6713829D01*
X3561994Y-6718757D01*
X3549446Y-6725310D01*
X3537813Y-6733387D01*
X3527348Y-6742938D01*
X3518154Y-6753707D01*
X3510381Y-6765594D01*
X3504234Y-6778396D01*
X3499764Y-6791858D01*
X3497072Y-6805777D01*
X3496157Y-6819900D01*
X3497072Y-6834022D01*
X3499764Y-6847941D01*
X3504234Y-6861403D01*
X3510381Y-6874205D01*
X3518154Y-6886092D01*
X3527348Y-6896862D01*
X3537813Y-6906412D01*
X3549446Y-6914489D01*
X3561994Y-6921042D01*
X3575304Y-6925970D01*
X3589121Y-6929120D01*
G37*
G36*
X2385669Y-6919010D02*
G01*
X2387955Y-6917994D01*
X2400096Y-6910628D01*
X2411171Y-6901789D01*
X2421026Y-6891629D01*
X2429510Y-6880250D01*
X2436012Y-6868769D01*
X2385669Y-6868769D01*
G37*
G36*
X2287930Y-6918959D02*
G01*
X2287930Y-6868769D01*
X2237790Y-6868769D01*
X2240381Y-6874205D01*
X2248154Y-6886092D01*
X2257348Y-6896862D01*
X2267813Y-6906412D01*
X2279446Y-6914489D01*
G37*
G36*
X2237790Y-6771030D02*
G01*
X2287930Y-6771030D01*
X2287930Y-6720840D01*
X2279446Y-6725310D01*
X2267813Y-6733387D01*
X2257348Y-6742938D01*
X2248154Y-6753707D01*
X2240381Y-6765594D01*
G37*
G36*
X2385669Y-6771030D02*
G01*
X2436012Y-6771030D01*
X2429510Y-6759549D01*
X2421026Y-6748170D01*
X2411171Y-6738010D01*
X2400096Y-6729171D01*
X2387955Y-6721805D01*
X2385669Y-6720789D01*
G37*
G36*
X1571244Y-6206591D02*
G01*
X1585417Y-6206134D01*
X1599438Y-6203848D01*
X1613001Y-6199835D01*
X1625955Y-6194094D01*
X1638096Y-6186728D01*
X1649171Y-6177889D01*
X1659026Y-6167729D01*
X1667510Y-6156350D01*
X1674469Y-6144006D01*
X1679803Y-6130848D01*
X1683410Y-6117132D01*
X1685188Y-6103112D01*
X1685188Y-6088888D01*
X1683410Y-6074867D01*
X1679803Y-6061151D01*
X1674469Y-6047994D01*
X1667510Y-6035649D01*
X1659026Y-6024270D01*
X1649171Y-6014110D01*
X1638096Y-6005271D01*
X1625955Y-5997905D01*
X1613001Y-5992164D01*
X1599438Y-5988151D01*
X1585417Y-5985865D01*
X1571244Y-5985408D01*
X1557121Y-5986780D01*
X1543304Y-5989929D01*
X1529994Y-5994857D01*
X1517446Y-6001410D01*
X1505813Y-6009487D01*
X1495348Y-6019038D01*
X1486154Y-6029807D01*
X1478381Y-6041694D01*
X1472234Y-6054496D01*
X1467764Y-6067958D01*
X1465072Y-6081877D01*
X1464157Y-6096000D01*
X1465072Y-6110122D01*
X1467764Y-6124041D01*
X1472234Y-6137503D01*
X1478381Y-6150305D01*
X1486154Y-6162192D01*
X1495348Y-6172962D01*
X1505813Y-6182512D01*
X1517446Y-6190589D01*
X1529994Y-6197142D01*
X1543304Y-6202070D01*
X1557121Y-6205220D01*
G37*
G36*
X1825243Y-6206591D02*
G01*
X1839417Y-6206134D01*
X1853438Y-6203848D01*
X1867001Y-6199835D01*
X1879955Y-6194094D01*
X1892096Y-6186728D01*
X1903171Y-6177889D01*
X1913026Y-6167729D01*
X1921510Y-6156350D01*
X1928469Y-6144006D01*
X1933803Y-6130848D01*
X1937410Y-6117132D01*
X1939188Y-6103112D01*
X1939188Y-6088888D01*
X1937410Y-6074867D01*
X1933803Y-6061151D01*
X1928469Y-6047994D01*
X1921510Y-6035649D01*
X1913026Y-6024270D01*
X1903171Y-6014110D01*
X1892096Y-6005271D01*
X1879955Y-5997905D01*
X1867001Y-5992164D01*
X1853438Y-5988151D01*
X1839417Y-5985865D01*
X1825243Y-5985408D01*
X1811121Y-5986780D01*
X1797304Y-5989929D01*
X1783994Y-5994857D01*
X1771446Y-6001410D01*
X1759813Y-6009487D01*
X1749348Y-6019038D01*
X1740154Y-6029807D01*
X1732381Y-6041694D01*
X1726234Y-6054496D01*
X1721764Y-6067958D01*
X1719072Y-6081877D01*
X1718157Y-6096000D01*
X1719072Y-6110122D01*
X1721764Y-6124041D01*
X1726234Y-6137503D01*
X1732381Y-6150305D01*
X1740154Y-6162192D01*
X1749348Y-6172962D01*
X1759813Y-6182512D01*
X1771446Y-6190589D01*
X1783994Y-6197142D01*
X1797304Y-6202070D01*
X1811121Y-6205220D01*
G37*
G36*
X4619244Y-6206591D02*
G01*
X4633417Y-6206134D01*
X4647438Y-6203848D01*
X4661001Y-6199835D01*
X4673955Y-6194094D01*
X4686096Y-6186728D01*
X4697171Y-6177889D01*
X4707026Y-6167729D01*
X4715510Y-6156350D01*
X4722469Y-6144006D01*
X4727803Y-6130848D01*
X4731410Y-6117132D01*
X4733188Y-6103112D01*
X4733188Y-6088888D01*
X4731410Y-6074867D01*
X4727803Y-6061151D01*
X4722469Y-6047994D01*
X4715510Y-6035649D01*
X4707026Y-6024270D01*
X4697171Y-6014110D01*
X4686096Y-6005271D01*
X4673955Y-5997905D01*
X4661001Y-5992164D01*
X4647438Y-5988151D01*
X4633417Y-5985865D01*
X4619244Y-5985408D01*
X4605121Y-5986780D01*
X4591304Y-5989929D01*
X4577994Y-5994857D01*
X4565446Y-6001410D01*
X4553813Y-6009487D01*
X4543348Y-6019038D01*
X4534154Y-6029807D01*
X4526381Y-6041694D01*
X4520234Y-6054496D01*
X4515764Y-6067958D01*
X4513072Y-6081877D01*
X4512157Y-6096000D01*
X4513072Y-6110122D01*
X4515764Y-6124041D01*
X4520234Y-6137503D01*
X4526381Y-6150305D01*
X4534154Y-6162192D01*
X4543348Y-6172962D01*
X4553813Y-6182512D01*
X4565446Y-6190589D01*
X4577994Y-6197142D01*
X4591304Y-6202070D01*
X4605121Y-6205220D01*
G37*
G36*
X6143244Y-6206591D02*
G01*
X6157417Y-6206134D01*
X6171438Y-6203848D01*
X6185001Y-6199835D01*
X6197955Y-6194094D01*
X6210096Y-6186728D01*
X6221171Y-6177889D01*
X6231026Y-6167729D01*
X6239510Y-6156350D01*
X6246469Y-6144006D01*
X6251803Y-6130848D01*
X6255410Y-6117132D01*
X6257188Y-6103112D01*
X6257188Y-6088888D01*
X6255410Y-6074867D01*
X6251803Y-6061151D01*
X6246469Y-6047994D01*
X6239510Y-6035649D01*
X6231026Y-6024270D01*
X6221171Y-6014110D01*
X6210096Y-6005271D01*
X6197955Y-5997905D01*
X6185001Y-5992164D01*
X6171438Y-5988151D01*
X6157417Y-5985865D01*
X6143244Y-5985408D01*
X6129121Y-5986780D01*
X6115304Y-5989929D01*
X6101994Y-5994857D01*
X6089446Y-6001410D01*
X6077813Y-6009487D01*
X6067348Y-6019038D01*
X6058154Y-6029807D01*
X6050381Y-6041694D01*
X6044234Y-6054496D01*
X6039764Y-6067958D01*
X6037072Y-6081877D01*
X6036157Y-6096000D01*
X6037072Y-6110122D01*
X6039764Y-6124041D01*
X6044234Y-6137503D01*
X6050381Y-6150305D01*
X6058154Y-6162192D01*
X6067348Y-6172962D01*
X6077813Y-6182512D01*
X6089446Y-6190589D01*
X6101994Y-6197142D01*
X6115304Y-6202070D01*
X6129121Y-6205220D01*
G37*
G36*
X7667244Y-6206591D02*
G01*
X7681417Y-6206134D01*
X7695438Y-6203848D01*
X7709001Y-6199835D01*
X7721955Y-6194094D01*
X7734096Y-6186728D01*
X7745171Y-6177889D01*
X7755026Y-6167729D01*
X7763509Y-6156350D01*
X7770469Y-6144006D01*
X7775803Y-6130848D01*
X7779410Y-6117132D01*
X7781188Y-6103112D01*
X7781188Y-6088888D01*
X7779410Y-6074867D01*
X7775803Y-6061151D01*
X7770469Y-6047994D01*
X7763509Y-6035649D01*
X7755026Y-6024270D01*
X7745171Y-6014110D01*
X7734096Y-6005271D01*
X7721955Y-5997905D01*
X7709001Y-5992164D01*
X7695438Y-5988151D01*
X7681417Y-5985865D01*
X7667244Y-5985408D01*
X7653121Y-5986780D01*
X7639303Y-5989929D01*
X7625994Y-5994857D01*
X7613446Y-6001410D01*
X7601813Y-6009487D01*
X7591348Y-6019038D01*
X7582153Y-6029807D01*
X7574381Y-6041694D01*
X7568234Y-6054496D01*
X7563764Y-6067958D01*
X7561072Y-6081877D01*
X7560157Y-6096000D01*
X7561072Y-6110122D01*
X7563764Y-6124041D01*
X7568234Y-6137503D01*
X7574381Y-6150305D01*
X7582153Y-6162192D01*
X7591348Y-6172962D01*
X7601813Y-6182512D01*
X7613446Y-6190589D01*
X7625994Y-6197142D01*
X7639303Y-6202070D01*
X7653121Y-6205220D01*
G37*
G36*
X3349244Y-6206591D02*
G01*
X3363417Y-6206134D01*
X3377437Y-6203848D01*
X3391001Y-6199835D01*
X3403955Y-6194094D01*
X3416096Y-6186728D01*
X3427171Y-6177889D01*
X3437026Y-6167729D01*
X3445510Y-6156350D01*
X3452469Y-6144006D01*
X3457803Y-6130848D01*
X3461410Y-6117132D01*
X3463188Y-6103112D01*
X3463188Y-6088888D01*
X3461410Y-6074867D01*
X3457803Y-6061151D01*
X3452469Y-6047994D01*
X3445510Y-6035649D01*
X3437026Y-6024270D01*
X3427171Y-6014110D01*
X3416096Y-6005271D01*
X3403955Y-5997905D01*
X3391001Y-5992164D01*
X3377437Y-5988151D01*
X3363417Y-5985865D01*
X3349244Y-5985408D01*
X3335121Y-5986780D01*
X3321304Y-5989929D01*
X3307994Y-5994857D01*
X3295446Y-6001410D01*
X3283813Y-6009487D01*
X3273348Y-6019038D01*
X3264153Y-6029807D01*
X3256381Y-6041694D01*
X3250234Y-6054496D01*
X3245764Y-6067958D01*
X3243072Y-6081877D01*
X3242157Y-6096000D01*
X3243072Y-6110122D01*
X3245764Y-6124041D01*
X3250234Y-6137503D01*
X3256381Y-6150305D01*
X3264153Y-6162192D01*
X3273348Y-6172962D01*
X3283813Y-6182512D01*
X3295446Y-6190589D01*
X3307994Y-6197142D01*
X3321304Y-6202070D01*
X3335121Y-6205220D01*
G37*
G36*
X3095244Y-6206591D02*
G01*
X3109417Y-6206134D01*
X3123438Y-6203848D01*
X3137001Y-6199835D01*
X3149955Y-6194094D01*
X3162096Y-6186728D01*
X3173171Y-6177889D01*
X3183026Y-6167729D01*
X3191510Y-6156350D01*
X3198469Y-6144006D01*
X3203803Y-6130848D01*
X3207410Y-6117132D01*
X3209188Y-6103112D01*
X3209188Y-6088888D01*
X3207410Y-6074867D01*
X3203803Y-6061151D01*
X3198469Y-6047994D01*
X3191510Y-6035649D01*
X3183026Y-6024270D01*
X3173171Y-6014110D01*
X3162096Y-6005271D01*
X3149955Y-5997905D01*
X3137001Y-5992164D01*
X3123438Y-5988151D01*
X3109417Y-5985865D01*
X3095244Y-5985408D01*
X3081121Y-5986780D01*
X3067304Y-5989929D01*
X3053994Y-5994857D01*
X3041446Y-6001410D01*
X3029813Y-6009487D01*
X3019348Y-6019038D01*
X3010154Y-6029807D01*
X3002381Y-6041694D01*
X2996234Y-6054496D01*
X2991764Y-6067958D01*
X2989072Y-6081877D01*
X2988157Y-6096000D01*
X2989072Y-6110122D01*
X2991764Y-6124041D01*
X2996234Y-6137503D01*
X3002381Y-6150305D01*
X3010154Y-6162192D01*
X3019348Y-6172962D01*
X3029813Y-6182512D01*
X3041446Y-6190589D01*
X3053994Y-6197142D01*
X3067304Y-6202070D01*
X3081121Y-6205220D01*
G37*
G36*
X9191244Y-6206591D02*
G01*
X9205417Y-6206134D01*
X9219438Y-6203848D01*
X9233001Y-6199835D01*
X9245955Y-6194094D01*
X9258096Y-6186728D01*
X9269171Y-6177889D01*
X9279026Y-6167729D01*
X9287510Y-6156350D01*
X9294469Y-6144006D01*
X9299803Y-6130848D01*
X9303410Y-6117132D01*
X9305188Y-6103112D01*
X9305188Y-6088888D01*
X9303410Y-6074867D01*
X9299803Y-6061151D01*
X9294469Y-6047994D01*
X9287510Y-6035649D01*
X9279026Y-6024270D01*
X9269171Y-6014110D01*
X9258096Y-6005271D01*
X9245955Y-5997905D01*
X9233001Y-5992164D01*
X9219438Y-5988151D01*
X9205417Y-5985865D01*
X9191244Y-5985408D01*
X9177121Y-5986780D01*
X9163304Y-5989929D01*
X9149994Y-5994857D01*
X9137446Y-6001410D01*
X9125813Y-6009487D01*
X9115348Y-6019038D01*
X9106154Y-6029807D01*
X9098381Y-6041694D01*
X9092234Y-6054496D01*
X9087764Y-6067958D01*
X9085072Y-6081877D01*
X9084157Y-6096000D01*
X9085072Y-6110122D01*
X9087764Y-6124041D01*
X9092234Y-6137503D01*
X9098381Y-6150305D01*
X9106154Y-6162192D01*
X9115348Y-6172962D01*
X9125813Y-6182512D01*
X9137446Y-6190589D01*
X9149994Y-6197142D01*
X9163304Y-6202070D01*
X9177121Y-6205220D01*
G37*
G36*
X7159244Y-6206591D02*
G01*
X7173417Y-6206134D01*
X7187438Y-6203848D01*
X7201001Y-6199835D01*
X7213955Y-6194094D01*
X7226096Y-6186728D01*
X7237171Y-6177889D01*
X7247026Y-6167729D01*
X7255509Y-6156350D01*
X7262469Y-6144006D01*
X7267803Y-6130848D01*
X7271410Y-6117132D01*
X7273188Y-6103112D01*
X7273188Y-6088888D01*
X7271410Y-6074867D01*
X7267803Y-6061151D01*
X7262469Y-6047994D01*
X7255509Y-6035649D01*
X7247026Y-6024270D01*
X7237171Y-6014110D01*
X7226096Y-6005271D01*
X7213955Y-5997905D01*
X7201001Y-5992164D01*
X7187438Y-5988151D01*
X7173417Y-5985865D01*
X7159244Y-5985408D01*
X7145121Y-5986780D01*
X7131303Y-5989929D01*
X7117994Y-5994857D01*
X7105446Y-6001410D01*
X7093813Y-6009487D01*
X7083348Y-6019038D01*
X7074153Y-6029807D01*
X7066381Y-6041694D01*
X7060234Y-6054496D01*
X7055764Y-6067958D01*
X7053072Y-6081877D01*
X7052157Y-6096000D01*
X7053072Y-6110122D01*
X7055764Y-6124041D01*
X7060234Y-6137503D01*
X7066381Y-6150305D01*
X7074153Y-6162192D01*
X7083348Y-6172962D01*
X7093813Y-6182512D01*
X7105446Y-6190589D01*
X7117994Y-6197142D01*
X7131303Y-6202070D01*
X7145121Y-6205220D01*
G37*
G36*
X4873244Y-6206591D02*
G01*
X4887417Y-6206134D01*
X4901438Y-6203848D01*
X4915001Y-6199835D01*
X4927955Y-6194094D01*
X4940096Y-6186728D01*
X4951171Y-6177889D01*
X4961026Y-6167729D01*
X4969510Y-6156350D01*
X4976469Y-6144006D01*
X4981803Y-6130848D01*
X4985410Y-6117132D01*
X4987188Y-6103112D01*
X4987188Y-6088888D01*
X4985410Y-6074867D01*
X4981803Y-6061151D01*
X4976469Y-6047994D01*
X4969510Y-6035649D01*
X4961026Y-6024270D01*
X4951171Y-6014110D01*
X4940096Y-6005271D01*
X4927955Y-5997905D01*
X4915001Y-5992164D01*
X4901438Y-5988151D01*
X4887417Y-5985865D01*
X4873244Y-5985408D01*
X4859121Y-5986780D01*
X4845304Y-5989929D01*
X4831994Y-5994857D01*
X4819446Y-6001410D01*
X4807813Y-6009487D01*
X4797348Y-6019038D01*
X4788154Y-6029807D01*
X4780381Y-6041694D01*
X4774234Y-6054496D01*
X4769764Y-6067958D01*
X4767072Y-6081877D01*
X4766157Y-6096000D01*
X4767072Y-6110122D01*
X4769764Y-6124041D01*
X4774234Y-6137503D01*
X4780381Y-6150305D01*
X4788154Y-6162192D01*
X4797348Y-6172962D01*
X4807813Y-6182512D01*
X4819446Y-6190589D01*
X4831994Y-6197142D01*
X4845304Y-6202070D01*
X4859121Y-6205220D01*
G37*
G36*
X5635244Y-6206591D02*
G01*
X5649417Y-6206134D01*
X5663438Y-6203848D01*
X5677001Y-6199835D01*
X5689955Y-6194094D01*
X5702096Y-6186728D01*
X5713171Y-6177889D01*
X5723026Y-6167729D01*
X5731510Y-6156350D01*
X5738469Y-6144006D01*
X5743803Y-6130848D01*
X5747410Y-6117132D01*
X5749188Y-6103112D01*
X5749188Y-6088888D01*
X5747410Y-6074867D01*
X5743803Y-6061151D01*
X5738469Y-6047994D01*
X5731510Y-6035649D01*
X5723026Y-6024270D01*
X5713171Y-6014110D01*
X5702096Y-6005271D01*
X5689955Y-5997905D01*
X5677001Y-5992164D01*
X5663438Y-5988151D01*
X5649417Y-5985865D01*
X5635244Y-5985408D01*
X5621121Y-5986780D01*
X5607304Y-5989929D01*
X5593994Y-5994857D01*
X5581446Y-6001410D01*
X5569813Y-6009487D01*
X5559348Y-6019038D01*
X5550154Y-6029807D01*
X5542381Y-6041694D01*
X5536234Y-6054496D01*
X5531764Y-6067958D01*
X5529072Y-6081877D01*
X5528157Y-6096000D01*
X5529072Y-6110122D01*
X5531764Y-6124041D01*
X5536234Y-6137503D01*
X5542381Y-6150305D01*
X5550154Y-6162192D01*
X5559348Y-6172962D01*
X5569813Y-6182512D01*
X5581446Y-6190589D01*
X5593994Y-6197142D01*
X5607304Y-6202070D01*
X5621121Y-6205220D01*
G37*
G36*
X4365244Y-6206591D02*
G01*
X4379417Y-6206134D01*
X4393438Y-6203848D01*
X4407001Y-6199835D01*
X4419955Y-6194094D01*
X4432096Y-6186728D01*
X4443171Y-6177889D01*
X4453026Y-6167729D01*
X4461510Y-6156350D01*
X4468469Y-6144006D01*
X4473803Y-6130848D01*
X4477410Y-6117132D01*
X4479188Y-6103112D01*
X4479188Y-6088888D01*
X4477410Y-6074867D01*
X4473803Y-6061151D01*
X4468469Y-6047994D01*
X4461510Y-6035649D01*
X4453026Y-6024270D01*
X4443171Y-6014110D01*
X4432096Y-6005271D01*
X4419955Y-5997905D01*
X4407001Y-5992164D01*
X4393438Y-5988151D01*
X4379417Y-5985865D01*
X4365244Y-5985408D01*
X4351121Y-5986780D01*
X4337304Y-5989929D01*
X4323994Y-5994857D01*
X4311446Y-6001410D01*
X4299813Y-6009487D01*
X4289348Y-6019038D01*
X4280154Y-6029807D01*
X4272381Y-6041694D01*
X4266234Y-6054496D01*
X4261764Y-6067958D01*
X4259072Y-6081877D01*
X4258157Y-6096000D01*
X4259072Y-6110122D01*
X4261764Y-6124041D01*
X4266234Y-6137503D01*
X4272381Y-6150305D01*
X4280154Y-6162192D01*
X4289348Y-6172962D01*
X4299813Y-6182512D01*
X4311446Y-6190589D01*
X4323994Y-6197142D01*
X4337304Y-6202070D01*
X4351121Y-6205220D01*
G37*
G36*
X5889244Y-6206591D02*
G01*
X5903417Y-6206134D01*
X5917438Y-6203848D01*
X5931001Y-6199835D01*
X5943955Y-6194094D01*
X5956096Y-6186728D01*
X5967171Y-6177889D01*
X5977026Y-6167729D01*
X5985510Y-6156350D01*
X5992469Y-6144006D01*
X5997803Y-6130848D01*
X6001410Y-6117132D01*
X6003188Y-6103112D01*
X6003188Y-6088888D01*
X6001410Y-6074867D01*
X5997803Y-6061151D01*
X5992469Y-6047994D01*
X5985510Y-6035649D01*
X5977026Y-6024270D01*
X5967171Y-6014110D01*
X5956096Y-6005271D01*
X5943955Y-5997905D01*
X5931001Y-5992164D01*
X5917438Y-5988151D01*
X5903417Y-5985865D01*
X5889244Y-5985408D01*
X5875121Y-5986780D01*
X5861304Y-5989929D01*
X5847994Y-5994857D01*
X5835446Y-6001410D01*
X5823813Y-6009487D01*
X5813348Y-6019038D01*
X5804154Y-6029807D01*
X5796381Y-6041694D01*
X5790234Y-6054496D01*
X5785764Y-6067958D01*
X5783072Y-6081877D01*
X5782157Y-6096000D01*
X5783072Y-6110122D01*
X5785764Y-6124041D01*
X5790234Y-6137503D01*
X5796381Y-6150305D01*
X5804154Y-6162192D01*
X5813348Y-6172962D01*
X5823813Y-6182512D01*
X5835446Y-6190589D01*
X5847994Y-6197142D01*
X5861304Y-6202070D01*
X5875121Y-6205220D01*
G37*
G36*
X9699244Y-6206591D02*
G01*
X9713417Y-6206134D01*
X9727438Y-6203848D01*
X9741001Y-6199835D01*
X9753955Y-6194094D01*
X9766096Y-6186728D01*
X9777171Y-6177889D01*
X9787026Y-6167729D01*
X9795510Y-6156350D01*
X9802469Y-6144006D01*
X9807803Y-6130848D01*
X9811410Y-6117132D01*
X9813188Y-6103112D01*
X9813188Y-6088888D01*
X9811410Y-6074867D01*
X9807803Y-6061151D01*
X9802469Y-6047994D01*
X9795510Y-6035649D01*
X9787026Y-6024270D01*
X9777171Y-6014110D01*
X9766096Y-6005271D01*
X9753955Y-5997905D01*
X9741001Y-5992164D01*
X9727438Y-5988151D01*
X9713417Y-5985865D01*
X9699244Y-5985408D01*
X9685121Y-5986780D01*
X9671304Y-5989929D01*
X9657994Y-5994857D01*
X9645446Y-6001410D01*
X9633813Y-6009487D01*
X9623348Y-6019038D01*
X9614154Y-6029807D01*
X9606381Y-6041694D01*
X9600234Y-6054496D01*
X9595764Y-6067958D01*
X9593072Y-6081877D01*
X9592157Y-6096000D01*
X9593072Y-6110122D01*
X9595764Y-6124041D01*
X9600234Y-6137503D01*
X9606381Y-6150305D01*
X9614154Y-6162192D01*
X9623348Y-6172962D01*
X9633813Y-6182512D01*
X9645446Y-6190589D01*
X9657994Y-6197142D01*
X9671304Y-6202070D01*
X9685121Y-6205220D01*
G37*
G36*
X3603244Y-6206591D02*
G01*
X3617417Y-6206134D01*
X3631437Y-6203848D01*
X3645001Y-6199835D01*
X3657955Y-6194094D01*
X3670096Y-6186728D01*
X3681171Y-6177889D01*
X3691026Y-6167729D01*
X3699510Y-6156350D01*
X3706469Y-6144006D01*
X3711803Y-6130848D01*
X3715410Y-6117132D01*
X3717188Y-6103112D01*
X3717188Y-6088888D01*
X3715410Y-6074867D01*
X3711803Y-6061151D01*
X3706469Y-6047994D01*
X3699510Y-6035649D01*
X3691026Y-6024270D01*
X3681171Y-6014110D01*
X3670096Y-6005271D01*
X3657955Y-5997905D01*
X3645001Y-5992164D01*
X3631437Y-5988151D01*
X3617417Y-5985865D01*
X3603244Y-5985408D01*
X3589121Y-5986780D01*
X3575304Y-5989929D01*
X3561994Y-5994857D01*
X3549446Y-6001410D01*
X3537813Y-6009487D01*
X3527348Y-6019038D01*
X3518154Y-6029807D01*
X3510381Y-6041694D01*
X3504234Y-6054496D01*
X3499764Y-6067958D01*
X3497072Y-6081877D01*
X3496157Y-6096000D01*
X3497072Y-6110122D01*
X3499764Y-6124041D01*
X3504234Y-6137503D01*
X3510381Y-6150305D01*
X3518154Y-6162192D01*
X3527348Y-6172962D01*
X3537813Y-6182512D01*
X3549446Y-6190589D01*
X3561994Y-6197142D01*
X3575304Y-6202070D01*
X3589121Y-6205220D01*
G37*
G36*
X8175244Y-6206591D02*
G01*
X8189417Y-6206134D01*
X8203438Y-6203848D01*
X8217001Y-6199835D01*
X8229955Y-6194094D01*
X8242096Y-6186728D01*
X8253171Y-6177889D01*
X8263026Y-6167729D01*
X8271509Y-6156350D01*
X8278469Y-6144006D01*
X8283803Y-6130848D01*
X8287410Y-6117132D01*
X8289188Y-6103112D01*
X8289188Y-6088888D01*
X8287410Y-6074867D01*
X8283803Y-6061151D01*
X8278469Y-6047994D01*
X8271509Y-6035649D01*
X8263026Y-6024270D01*
X8253171Y-6014110D01*
X8242096Y-6005271D01*
X8229955Y-5997905D01*
X8217001Y-5992164D01*
X8203438Y-5988151D01*
X8189417Y-5985865D01*
X8175244Y-5985408D01*
X8161121Y-5986780D01*
X8147303Y-5989929D01*
X8133994Y-5994857D01*
X8121446Y-6001410D01*
X8109813Y-6009487D01*
X8099348Y-6019038D01*
X8090153Y-6029807D01*
X8082381Y-6041694D01*
X8076234Y-6054496D01*
X8071764Y-6067958D01*
X8069072Y-6081877D01*
X8068157Y-6096000D01*
X8069072Y-6110122D01*
X8071764Y-6124041D01*
X8076234Y-6137503D01*
X8082381Y-6150305D01*
X8090153Y-6162192D01*
X8099348Y-6172962D01*
X8109813Y-6182512D01*
X8121446Y-6190589D01*
X8133994Y-6197142D01*
X8147303Y-6202070D01*
X8161121Y-6205220D01*
G37*
G36*
X4111244Y-6206591D02*
G01*
X4125417Y-6206134D01*
X4139437Y-6203848D01*
X4153001Y-6199835D01*
X4165955Y-6194094D01*
X4178096Y-6186728D01*
X4189171Y-6177889D01*
X4199026Y-6167729D01*
X4207510Y-6156350D01*
X4214469Y-6144006D01*
X4219803Y-6130848D01*
X4223410Y-6117132D01*
X4225188Y-6103112D01*
X4225188Y-6088888D01*
X4223410Y-6074867D01*
X4219803Y-6061151D01*
X4214469Y-6047994D01*
X4207510Y-6035649D01*
X4199026Y-6024270D01*
X4189171Y-6014110D01*
X4178096Y-6005271D01*
X4165955Y-5997905D01*
X4153001Y-5992164D01*
X4139437Y-5988151D01*
X4125417Y-5985865D01*
X4111244Y-5985408D01*
X4097121Y-5986780D01*
X4083304Y-5989929D01*
X4069994Y-5994857D01*
X4057446Y-6001410D01*
X4045813Y-6009487D01*
X4035348Y-6019038D01*
X4026154Y-6029807D01*
X4018381Y-6041694D01*
X4012234Y-6054496D01*
X4007764Y-6067958D01*
X4005072Y-6081877D01*
X4004157Y-6096000D01*
X4005072Y-6110122D01*
X4007764Y-6124041D01*
X4012234Y-6137503D01*
X4018381Y-6150305D01*
X4026154Y-6162192D01*
X4035348Y-6172962D01*
X4045813Y-6182512D01*
X4057446Y-6190589D01*
X4069994Y-6197142D01*
X4083304Y-6202070D01*
X4097121Y-6205220D01*
G37*
G36*
X7921244Y-6206591D02*
G01*
X7935417Y-6206134D01*
X7949438Y-6203848D01*
X7963001Y-6199835D01*
X7975955Y-6194094D01*
X7988096Y-6186728D01*
X7999171Y-6177889D01*
X8009026Y-6167729D01*
X8017509Y-6156350D01*
X8024469Y-6144006D01*
X8029803Y-6130848D01*
X8033410Y-6117132D01*
X8035188Y-6103112D01*
X8035188Y-6088888D01*
X8033410Y-6074867D01*
X8029803Y-6061151D01*
X8024469Y-6047994D01*
X8017509Y-6035649D01*
X8009026Y-6024270D01*
X7999171Y-6014110D01*
X7988096Y-6005271D01*
X7975955Y-5997905D01*
X7963001Y-5992164D01*
X7949438Y-5988151D01*
X7935417Y-5985865D01*
X7921244Y-5985408D01*
X7907121Y-5986780D01*
X7893303Y-5989929D01*
X7879994Y-5994857D01*
X7867446Y-6001410D01*
X7855813Y-6009487D01*
X7845348Y-6019038D01*
X7836153Y-6029807D01*
X7828381Y-6041694D01*
X7822234Y-6054496D01*
X7817764Y-6067958D01*
X7815072Y-6081877D01*
X7814157Y-6096000D01*
X7815072Y-6110122D01*
X7817764Y-6124041D01*
X7822234Y-6137503D01*
X7828381Y-6150305D01*
X7836153Y-6162192D01*
X7845348Y-6172962D01*
X7855813Y-6182512D01*
X7867446Y-6190589D01*
X7879994Y-6197142D01*
X7893303Y-6202070D01*
X7907121Y-6205220D01*
G37*
G36*
X5127244Y-6206591D02*
G01*
X5141417Y-6206134D01*
X5155438Y-6203848D01*
X5169001Y-6199835D01*
X5181955Y-6194094D01*
X5194096Y-6186728D01*
X5205171Y-6177889D01*
X5215026Y-6167729D01*
X5223510Y-6156350D01*
X5230469Y-6144006D01*
X5235803Y-6130848D01*
X5239410Y-6117132D01*
X5241188Y-6103112D01*
X5241188Y-6088888D01*
X5239410Y-6074867D01*
X5235803Y-6061151D01*
X5230469Y-6047994D01*
X5223510Y-6035649D01*
X5215026Y-6024270D01*
X5205171Y-6014110D01*
X5194096Y-6005271D01*
X5181955Y-5997905D01*
X5169001Y-5992164D01*
X5155438Y-5988151D01*
X5141417Y-5985865D01*
X5127244Y-5985408D01*
X5113121Y-5986780D01*
X5099304Y-5989929D01*
X5085994Y-5994857D01*
X5073446Y-6001410D01*
X5061813Y-6009487D01*
X5051348Y-6019038D01*
X5042154Y-6029807D01*
X5034381Y-6041694D01*
X5028234Y-6054496D01*
X5023764Y-6067958D01*
X5021072Y-6081877D01*
X5020157Y-6096000D01*
X5021072Y-6110122D01*
X5023764Y-6124041D01*
X5028234Y-6137503D01*
X5034381Y-6150305D01*
X5042154Y-6162192D01*
X5051348Y-6172962D01*
X5061813Y-6182512D01*
X5073446Y-6190589D01*
X5085994Y-6197142D01*
X5099304Y-6202070D01*
X5113121Y-6205220D01*
G37*
G36*
X3857244Y-6206591D02*
G01*
X3871417Y-6206134D01*
X3885437Y-6203848D01*
X3899001Y-6199835D01*
X3911955Y-6194094D01*
X3924096Y-6186728D01*
X3935171Y-6177889D01*
X3945026Y-6167729D01*
X3953510Y-6156350D01*
X3960469Y-6144006D01*
X3965803Y-6130848D01*
X3969410Y-6117132D01*
X3971188Y-6103112D01*
X3971188Y-6088888D01*
X3969410Y-6074867D01*
X3965803Y-6061151D01*
X3960469Y-6047994D01*
X3953510Y-6035649D01*
X3945026Y-6024270D01*
X3935171Y-6014110D01*
X3924096Y-6005271D01*
X3911955Y-5997905D01*
X3899001Y-5992164D01*
X3885437Y-5988151D01*
X3871417Y-5985865D01*
X3857244Y-5985408D01*
X3843121Y-5986780D01*
X3829304Y-5989929D01*
X3815994Y-5994857D01*
X3803446Y-6001410D01*
X3791813Y-6009487D01*
X3781348Y-6019038D01*
X3772154Y-6029807D01*
X3764381Y-6041694D01*
X3758234Y-6054496D01*
X3753764Y-6067958D01*
X3751072Y-6081877D01*
X3750157Y-6096000D01*
X3751072Y-6110122D01*
X3753764Y-6124041D01*
X3758234Y-6137503D01*
X3764381Y-6150305D01*
X3772154Y-6162192D01*
X3781348Y-6172962D01*
X3791813Y-6182512D01*
X3803446Y-6190589D01*
X3815994Y-6197142D01*
X3829304Y-6202070D01*
X3843121Y-6205220D01*
G37*
G36*
X9445244Y-6206591D02*
G01*
X9459417Y-6206134D01*
X9473438Y-6203848D01*
X9487001Y-6199835D01*
X9499955Y-6194094D01*
X9512096Y-6186728D01*
X9523171Y-6177889D01*
X9533026Y-6167729D01*
X9541510Y-6156350D01*
X9548469Y-6144006D01*
X9553803Y-6130848D01*
X9557410Y-6117132D01*
X9559188Y-6103112D01*
X9559188Y-6088888D01*
X9557410Y-6074867D01*
X9553803Y-6061151D01*
X9548469Y-6047994D01*
X9541510Y-6035649D01*
X9533026Y-6024270D01*
X9523171Y-6014110D01*
X9512096Y-6005271D01*
X9499955Y-5997905D01*
X9487001Y-5992164D01*
X9473438Y-5988151D01*
X9459417Y-5985865D01*
X9445244Y-5985408D01*
X9431121Y-5986780D01*
X9417304Y-5989929D01*
X9403994Y-5994857D01*
X9391446Y-6001410D01*
X9379813Y-6009487D01*
X9369348Y-6019038D01*
X9360154Y-6029807D01*
X9352381Y-6041694D01*
X9346234Y-6054496D01*
X9341764Y-6067958D01*
X9339072Y-6081877D01*
X9338157Y-6096000D01*
X9339072Y-6110122D01*
X9341764Y-6124041D01*
X9346234Y-6137503D01*
X9352381Y-6150305D01*
X9360154Y-6162192D01*
X9369348Y-6172962D01*
X9379813Y-6182512D01*
X9391446Y-6190589D01*
X9403994Y-6197142D01*
X9417304Y-6202070D01*
X9431121Y-6205220D01*
G37*
G36*
X6397244Y-6206591D02*
G01*
X6411417Y-6206134D01*
X6425438Y-6203848D01*
X6439001Y-6199835D01*
X6451955Y-6194094D01*
X6464096Y-6186728D01*
X6475171Y-6177889D01*
X6485026Y-6167729D01*
X6493510Y-6156350D01*
X6500469Y-6144006D01*
X6505803Y-6130848D01*
X6509410Y-6117132D01*
X6511188Y-6103112D01*
X6511188Y-6088888D01*
X6509410Y-6074867D01*
X6505803Y-6061151D01*
X6500469Y-6047994D01*
X6493510Y-6035649D01*
X6485026Y-6024270D01*
X6475171Y-6014110D01*
X6464096Y-6005271D01*
X6451955Y-5997905D01*
X6439001Y-5992164D01*
X6425438Y-5988151D01*
X6411417Y-5985865D01*
X6397244Y-5985408D01*
X6383121Y-5986780D01*
X6369304Y-5989929D01*
X6355994Y-5994857D01*
X6343446Y-6001410D01*
X6331813Y-6009487D01*
X6321348Y-6019038D01*
X6312154Y-6029807D01*
X6304381Y-6041694D01*
X6298234Y-6054496D01*
X6293764Y-6067958D01*
X6291072Y-6081877D01*
X6290157Y-6096000D01*
X6291072Y-6110122D01*
X6293764Y-6124041D01*
X6298234Y-6137503D01*
X6304381Y-6150305D01*
X6312154Y-6162192D01*
X6321348Y-6172962D01*
X6331813Y-6182512D01*
X6343446Y-6190589D01*
X6355994Y-6197142D01*
X6369304Y-6202070D01*
X6383121Y-6205220D01*
G37*
G36*
X2841244Y-6206591D02*
G01*
X2855417Y-6206134D01*
X2869438Y-6203848D01*
X2883001Y-6199835D01*
X2895955Y-6194094D01*
X2908096Y-6186728D01*
X2919171Y-6177889D01*
X2929026Y-6167729D01*
X2937510Y-6156350D01*
X2944469Y-6144006D01*
X2949803Y-6130848D01*
X2953410Y-6117132D01*
X2955188Y-6103112D01*
X2955188Y-6088888D01*
X2953410Y-6074867D01*
X2949803Y-6061151D01*
X2944469Y-6047994D01*
X2937510Y-6035649D01*
X2929026Y-6024270D01*
X2919171Y-6014110D01*
X2908096Y-6005271D01*
X2895955Y-5997905D01*
X2883001Y-5992164D01*
X2869438Y-5988151D01*
X2855417Y-5985865D01*
X2841244Y-5985408D01*
X2827121Y-5986780D01*
X2813304Y-5989929D01*
X2799994Y-5994857D01*
X2787446Y-6001410D01*
X2775813Y-6009487D01*
X2765348Y-6019038D01*
X2756154Y-6029807D01*
X2748381Y-6041694D01*
X2742234Y-6054496D01*
X2737764Y-6067958D01*
X2735072Y-6081877D01*
X2734157Y-6096000D01*
X2735072Y-6110122D01*
X2737764Y-6124041D01*
X2742234Y-6137503D01*
X2748381Y-6150305D01*
X2756154Y-6162192D01*
X2765348Y-6172962D01*
X2775813Y-6182512D01*
X2787446Y-6190589D01*
X2799994Y-6197142D01*
X2813304Y-6202070D01*
X2827121Y-6205220D01*
G37*
G36*
X8937244Y-6206591D02*
G01*
X8951417Y-6206134D01*
X8965438Y-6203848D01*
X8979001Y-6199835D01*
X8991955Y-6194094D01*
X9004096Y-6186728D01*
X9015171Y-6177889D01*
X9025026Y-6167729D01*
X9033510Y-6156350D01*
X9040469Y-6144006D01*
X9045803Y-6130848D01*
X9049410Y-6117132D01*
X9051188Y-6103112D01*
X9051188Y-6088888D01*
X9049410Y-6074867D01*
X9045803Y-6061151D01*
X9040469Y-6047994D01*
X9033510Y-6035649D01*
X9025026Y-6024270D01*
X9015171Y-6014110D01*
X9004096Y-6005271D01*
X8991955Y-5997905D01*
X8979001Y-5992164D01*
X8965438Y-5988151D01*
X8951417Y-5985865D01*
X8937244Y-5985408D01*
X8923121Y-5986780D01*
X8909304Y-5989929D01*
X8895994Y-5994857D01*
X8883446Y-6001410D01*
X8871813Y-6009487D01*
X8861348Y-6019038D01*
X8852154Y-6029807D01*
X8844381Y-6041694D01*
X8838234Y-6054496D01*
X8833764Y-6067958D01*
X8831072Y-6081877D01*
X8830157Y-6096000D01*
X8831072Y-6110122D01*
X8833764Y-6124041D01*
X8838234Y-6137503D01*
X8844381Y-6150305D01*
X8852154Y-6162192D01*
X8861348Y-6172962D01*
X8871813Y-6182512D01*
X8883446Y-6190589D01*
X8895994Y-6197142D01*
X8909304Y-6202070D01*
X8923121Y-6205220D01*
G37*
G36*
X7413244Y-6206591D02*
G01*
X7427417Y-6206134D01*
X7441438Y-6203848D01*
X7455001Y-6199835D01*
X7467955Y-6194094D01*
X7480096Y-6186728D01*
X7491171Y-6177889D01*
X7501026Y-6167729D01*
X7509509Y-6156350D01*
X7516469Y-6144006D01*
X7521803Y-6130848D01*
X7525410Y-6117132D01*
X7527188Y-6103112D01*
X7527188Y-6088888D01*
X7525410Y-6074867D01*
X7521803Y-6061151D01*
X7516469Y-6047994D01*
X7509509Y-6035649D01*
X7501026Y-6024270D01*
X7491171Y-6014110D01*
X7480096Y-6005271D01*
X7467955Y-5997905D01*
X7455001Y-5992164D01*
X7441438Y-5988151D01*
X7427417Y-5985865D01*
X7413244Y-5985408D01*
X7399121Y-5986780D01*
X7385303Y-5989929D01*
X7371994Y-5994857D01*
X7359446Y-6001410D01*
X7347813Y-6009487D01*
X7337348Y-6019038D01*
X7328153Y-6029807D01*
X7320381Y-6041694D01*
X7314234Y-6054496D01*
X7309764Y-6067958D01*
X7307072Y-6081877D01*
X7306157Y-6096000D01*
X7307072Y-6110122D01*
X7309764Y-6124041D01*
X7314234Y-6137503D01*
X7320381Y-6150305D01*
X7328153Y-6162192D01*
X7337348Y-6172962D01*
X7347813Y-6182512D01*
X7359446Y-6190589D01*
X7371994Y-6197142D01*
X7385303Y-6202070D01*
X7399121Y-6205220D01*
G37*
G36*
X2079243Y-6206591D02*
G01*
X2093417Y-6206134D01*
X2107438Y-6203848D01*
X2121001Y-6199835D01*
X2133955Y-6194094D01*
X2146096Y-6186728D01*
X2157171Y-6177889D01*
X2167026Y-6167729D01*
X2175510Y-6156350D01*
X2182469Y-6144006D01*
X2187803Y-6130848D01*
X2191410Y-6117132D01*
X2193188Y-6103112D01*
X2193188Y-6088888D01*
X2191410Y-6074867D01*
X2187803Y-6061151D01*
X2182469Y-6047994D01*
X2175510Y-6035649D01*
X2167026Y-6024270D01*
X2157171Y-6014110D01*
X2146096Y-6005271D01*
X2133955Y-5997905D01*
X2121001Y-5992164D01*
X2107438Y-5988151D01*
X2093417Y-5985865D01*
X2079243Y-5985408D01*
X2065121Y-5986780D01*
X2051304Y-5989929D01*
X2037994Y-5994857D01*
X2025446Y-6001410D01*
X2013813Y-6009487D01*
X2003348Y-6019038D01*
X1994154Y-6029807D01*
X1986381Y-6041694D01*
X1980234Y-6054496D01*
X1975764Y-6067958D01*
X1973072Y-6081877D01*
X1972157Y-6096000D01*
X1973072Y-6110122D01*
X1975764Y-6124041D01*
X1980234Y-6137503D01*
X1986381Y-6150305D01*
X1994154Y-6162192D01*
X2003348Y-6172962D01*
X2013813Y-6182512D01*
X2025446Y-6190589D01*
X2037994Y-6197142D01*
X2051304Y-6202070D01*
X2065121Y-6205220D01*
G37*
G36*
X6651244Y-6206591D02*
G01*
X6665417Y-6206134D01*
X6679438Y-6203848D01*
X6693001Y-6199835D01*
X6705955Y-6194094D01*
X6718096Y-6186728D01*
X6729171Y-6177889D01*
X6739026Y-6167729D01*
X6747509Y-6156350D01*
X6754469Y-6144006D01*
X6759803Y-6130848D01*
X6763410Y-6117132D01*
X6765188Y-6103112D01*
X6765188Y-6088888D01*
X6763410Y-6074867D01*
X6759803Y-6061151D01*
X6754469Y-6047994D01*
X6747509Y-6035649D01*
X6739026Y-6024270D01*
X6729171Y-6014110D01*
X6718096Y-6005271D01*
X6705955Y-5997905D01*
X6693001Y-5992164D01*
X6679438Y-5988151D01*
X6665417Y-5985865D01*
X6651244Y-5985408D01*
X6637121Y-5986780D01*
X6623303Y-5989929D01*
X6609994Y-5994857D01*
X6597446Y-6001410D01*
X6585813Y-6009487D01*
X6575348Y-6019038D01*
X6566153Y-6029807D01*
X6558381Y-6041694D01*
X6552234Y-6054496D01*
X6547764Y-6067958D01*
X6545072Y-6081877D01*
X6544157Y-6096000D01*
X6545072Y-6110122D01*
X6547764Y-6124041D01*
X6552234Y-6137503D01*
X6558381Y-6150305D01*
X6566153Y-6162192D01*
X6575348Y-6172962D01*
X6585813Y-6182512D01*
X6597446Y-6190589D01*
X6609994Y-6197142D01*
X6623303Y-6202070D01*
X6637121Y-6205220D01*
G37*
G36*
X9872370Y-6197854D02*
G01*
X10041229Y-6197854D01*
X10047478Y-6197142D01*
X10052913Y-6195263D01*
X10057739Y-6192215D01*
X10061803Y-6188151D01*
X10064851Y-6183325D01*
X10066731Y-6177889D01*
X10067442Y-6171641D01*
X10067442Y-6020358D01*
X10066731Y-6014110D01*
X10064851Y-6008674D01*
X10061803Y-6003848D01*
X10057739Y-5999784D01*
X10052913Y-5996736D01*
X10047478Y-5994857D01*
X10041229Y-5994146D01*
X9872370Y-5994146D01*
X9866122Y-5994857D01*
X9860686Y-5996736D01*
X9855860Y-5999784D01*
X9851796Y-6003848D01*
X9848748Y-6008674D01*
X9846868Y-6014110D01*
X9846157Y-6020358D01*
X9846157Y-6171641D01*
X9846868Y-6177889D01*
X9848748Y-6183325D01*
X9851796Y-6188151D01*
X9855860Y-6192215D01*
X9860686Y-6195263D01*
X9866122Y-6197142D01*
G37*
G36*
X2385669Y-6195110D02*
G01*
X2387955Y-6194094D01*
X2400096Y-6186728D01*
X2411171Y-6177889D01*
X2421026Y-6167729D01*
X2429510Y-6156350D01*
X2436012Y-6144869D01*
X2385669Y-6144869D01*
G37*
G36*
X2287930Y-6195060D02*
G01*
X2287930Y-6144869D01*
X2237790Y-6144869D01*
X2240381Y-6150305D01*
X2248154Y-6162192D01*
X2257348Y-6172962D01*
X2267813Y-6182512D01*
X2279446Y-6190589D01*
G37*
G36*
X2237790Y-6047130D02*
G01*
X2287930Y-6047130D01*
X2287930Y-5996940D01*
X2279446Y-6001410D01*
X2267813Y-6009487D01*
X2257348Y-6019038D01*
X2248154Y-6029807D01*
X2240381Y-6041694D01*
G37*
G36*
X2385669Y-6047130D02*
G01*
X2436012Y-6047130D01*
X2429510Y-6035649D01*
X2421026Y-6024270D01*
X2411171Y-6014110D01*
X2400096Y-6005271D01*
X2387955Y-5997905D01*
X2385669Y-5996889D01*
G37*

%LPD*%
D11*
X3492500Y-8940800D02*
G01*
X3492500Y-8597900D01*
X2654300Y-7632700D01*
X6908800Y-6096000D02*
G01*
X6908800Y-6400800D01*
X6273800Y-6400800D01*
X6273800Y-7429500D01*
X5359400Y-7429500D01*
X5359400Y-8178800D01*
X6400800Y-6819900D02*
G01*
X6400800Y-6565900D01*
X8051800Y-6565900D01*
X8051800Y-7505700D01*
X8128000Y-7796928D02*
G01*
X8128000Y-8013700D01*
X5384800Y-6096000D02*
G01*
X5562600Y-5918200D01*
X8425688Y-5918200D01*
X8559800Y-6052312D01*
X8559800Y-6296210D01*
X8559800Y-6635935D02*
G01*
X8559800Y-7937500D01*
X8636000Y-8013700D01*
X4343400Y-8940800D02*
G01*
X3987800Y-8585200D01*
X3975100Y-6565900D01*
X5892800Y-6560820D01*
X5892800Y-6819900D01*
X8382000Y-8013700D02*
G01*
X8382000Y-7061200D01*
X8331200Y-7010400D01*
X8382000Y-9537700D02*
G01*
X8503411Y-9416287D01*
X8503411Y-6890512D01*
X8432800Y-6819900D01*
X3835400Y-8940800D02*
G01*
X3492500Y-8940800D01*
D12*
X2803143Y-7309104D02*
G01*
X2590800Y-7309104D01*
X2590800Y-6819900D01*
D11*
X1155700Y-9525000D02*
G01*
X876300Y-9137650D01*
X876300Y-7086600D01*
X1143000Y-6819900D01*
X1574800Y-6819900D01*
D12*
X2336800Y-6096000D02*
G01*
X2336800Y-6819900D01*
X2590800Y-6096000D02*
G01*
X2590800Y-6819900D01*
X3670300Y-7632700D02*
G01*
X3126740Y-7632700D01*
X2803143Y-7309104D01*
D11*
X5105400Y-8940800D02*
G01*
X5212079Y-9047479D01*
X6247384Y-9047479D01*
X7246365Y-8048244D01*
X7246365Y-7549134D01*
X7670800Y-7124700D01*
X7670800Y-6819900D01*
D13*
X2336800Y-6819900D02*
G01*
X2336800Y-7239000D01*
X2082800Y-7493000D01*
D12*
X2590800Y-9525000D02*
G01*
X2590800Y-8699500D01*
X2803143Y-7309104D02*
G01*
X2596895Y-7309104D01*
X2451100Y-7454900D01*
X2451100Y-8559800D01*
X2590800Y-8699500D01*
D13*
X2082800Y-9525000D02*
G01*
X2082800Y-8699500D01*
X2082800Y-7493000D02*
G01*
X2082800Y-8699500D01*
D12*
X3835400Y-8178800D02*
G01*
X3835400Y-7797800D01*
X3670300Y-7632700D01*
D13*
X5359400Y-8940800D02*
G01*
X4965700Y-8559800D01*
X4851400Y-8559800D01*
D11*
X4089400Y-8191500D02*
G01*
X4597400Y-8953500D01*
D13*
X4343400Y-8178800D02*
G01*
X4724400Y-8559800D01*
X5105400Y-8178800D02*
G01*
X4965700Y-8432800D01*
X4965700Y-8432800D02*
G01*
X4965700Y-8559800D01*
X4724400Y-8559800D02*
G01*
X4851400Y-8559800D01*
X4851400Y-8940800D01*
D11*
X5346700Y-8674100D02*
G01*
X5232400Y-8559800D01*
X5232400Y-7683500D01*
X4368800Y-6819900D01*
X3352800Y-6819900D02*
G01*
X3934457Y-7401557D01*
X3934457Y-8448042D01*
X3924300Y-8458200D01*
X2082800Y-7493000D02*
G01*
X1397000Y-7493000D01*
X2844800Y-9525000D02*
G01*
X2844800Y-8699500D01*
X9956800Y-6819900D02*
G01*
X9956800Y-6925310D01*
X9906000Y-9537700D02*
G01*
X10027665Y-9416287D01*
X10027665Y-6996176D01*
X9956800Y-6925310D01*
X9652000Y-9537700D02*
G01*
X9779000Y-9410700D01*
X9779000Y-6896100D01*
X9702800Y-6819900D01*
X9398000Y-9537700D02*
G01*
X9525000Y-9410700D01*
X9525000Y-6896100D01*
X9448800Y-6819900D01*
X9144000Y-9537700D02*
G01*
X9271000Y-9410700D01*
X9271000Y-6896100D01*
X9194800Y-6819900D01*
X8890000Y-9537700D02*
G01*
X9011411Y-9416287D01*
X9011411Y-6890512D01*
X8940800Y-6819900D01*
X8636000Y-9537700D02*
G01*
X8763000Y-9410700D01*
X8763000Y-7779994D01*
X8763000Y-7094194D02*
G01*
X8763000Y-6896100D01*
X8686800Y-6819900D01*
X8128000Y-9537700D02*
G01*
X8246363Y-9419336D01*
X8246363Y-7186421D01*
X8178800Y-7118858D01*
X8178800Y-6819900D01*
X4597400Y-8178800D02*
G01*
X4114800Y-7696200D01*
X4114800Y-6819900D01*
X4597400Y-8940800D02*
G01*
X4597400Y-9131300D01*
X4330700Y-9131300D01*
X3835400Y-9131300D01*
X3835400Y-8940800D01*
D16*
G01*
X3352800Y-8699500D03*
G01*
X3352800Y-9525000D03*
D17*
G01*
X1143000Y-7493000D03*
D16*
G01*
X1397000Y-7493000D03*
D17*
G01*
X1143000Y-8267700D03*
D16*
G01*
X1397000Y-8267700D03*
G01*
X3098800Y-8699500D03*
G01*
X2844800Y-8699500D03*
G01*
X2590800Y-8699500D03*
G01*
X2336800Y-8699500D03*
G36*
X2004059Y-8620760D02*
G01*
X2161540Y-8620760D01*
X2161540Y-8778239D01*
X2004059Y-8778239D01*
G37*
G01*
X3098800Y-9525000D03*
G01*
X2844800Y-9525000D03*
G01*
X2590800Y-9525000D03*
G01*
X2336800Y-9525000D03*
G36*
X2004059Y-9446260D02*
G01*
X2161540Y-9446260D01*
X2161540Y-9603739D01*
X2004059Y-9603739D01*
G37*
D18*
G01*
X9956800Y-6819900D03*
D19*
G01*
X9702800Y-6819900D03*
G01*
X9448800Y-6819900D03*
G01*
X9194800Y-6819900D03*
G01*
X8940800Y-6819900D03*
G01*
X8686800Y-6819900D03*
G01*
X8432800Y-6819900D03*
G01*
X8178800Y-6819900D03*
G01*
X7924800Y-6819900D03*
G01*
X7670800Y-6819900D03*
G01*
X7416800Y-6819900D03*
G01*
X7162800Y-6819900D03*
G01*
X6908800Y-6819900D03*
G01*
X6654800Y-6819900D03*
G01*
X6400800Y-6819900D03*
G01*
X6146800Y-6819900D03*
G01*
X5892800Y-6819900D03*
G01*
X5638800Y-6819900D03*
G01*
X5384800Y-6819900D03*
G01*
X5130800Y-6819900D03*
G01*
X4876800Y-6819900D03*
G01*
X4622800Y-6819900D03*
G01*
X4368800Y-6819900D03*
G01*
X4114800Y-6819900D03*
G01*
X3860800Y-6819900D03*
G01*
X3606800Y-6819900D03*
G01*
X3352800Y-6819900D03*
G01*
X3098800Y-6819900D03*
G01*
X2844800Y-6819900D03*
G01*
X2590800Y-6819900D03*
G01*
X2336800Y-6819900D03*
G01*
X2082800Y-6819900D03*
G01*
X1828800Y-6819900D03*
G01*
X1574800Y-6819900D03*
D18*
G01*
X9956800Y-6096000D03*
D19*
G01*
X9702800Y-6096000D03*
G01*
X9448800Y-6096000D03*
G01*
X9194800Y-6096000D03*
G01*
X8940800Y-6096000D03*
G01*
X8686800Y-6096000D03*
G01*
X8432800Y-6096000D03*
G01*
X8178800Y-6096000D03*
G01*
X7924800Y-6096000D03*
G01*
X7670800Y-6096000D03*
G01*
X7416800Y-6096000D03*
G01*
X7162800Y-6096000D03*
G01*
X6908800Y-6096000D03*
G01*
X6654800Y-6096000D03*
G01*
X6400800Y-6096000D03*
G01*
X6146800Y-6096000D03*
G01*
X5892800Y-6096000D03*
G01*
X5638800Y-6096000D03*
G01*
X5384800Y-6096000D03*
G01*
X5130800Y-6096000D03*
G01*
X4876800Y-6096000D03*
G01*
X4622800Y-6096000D03*
G01*
X4368800Y-6096000D03*
G01*
X4114800Y-6096000D03*
G01*
X3860800Y-6096000D03*
G01*
X3606800Y-6096000D03*
G01*
X3352800Y-6096000D03*
G01*
X3098800Y-6096000D03*
G01*
X2844800Y-6096000D03*
G01*
X2590800Y-6096000D03*
G01*
X2336800Y-6096000D03*
G01*
X2082800Y-6096000D03*
G01*
X1828800Y-6096000D03*
G01*
X1574800Y-6096000D03*
G36*
X6261100Y-9448800D02*
G01*
X6438900Y-9448800D01*
X6438900Y-9626600D01*
X6261100Y-9626600D01*
G37*
D21*
G01*
X6604000Y-9537700D03*
G01*
X6858000Y-9537700D03*
G01*
X7112000Y-9537700D03*
G01*
X7366000Y-9537700D03*
G01*
X7620000Y-9537700D03*
G01*
X7874000Y-9537700D03*
G01*
X8128000Y-9537700D03*
G01*
X8382000Y-9537700D03*
G01*
X8636000Y-9537700D03*
G01*
X8890000Y-9537700D03*
G01*
X9144000Y-9537700D03*
G01*
X9398000Y-9537700D03*
G01*
X9652000Y-9537700D03*
G01*
X9906000Y-9537700D03*
G01*
X6350000Y-8013700D03*
G01*
X6604000Y-8013700D03*
G01*
X6858000Y-8013700D03*
G01*
X7112000Y-8013700D03*
G01*
X7366000Y-8013700D03*
G01*
X7620000Y-8013700D03*
G01*
X7874000Y-8013700D03*
G01*
X8128000Y-8013700D03*
G01*
X8382000Y-8013700D03*
G01*
X8636000Y-8013700D03*
G01*
X8890000Y-8013700D03*
G01*
X9144000Y-8013700D03*
G01*
X9398000Y-8013700D03*
G01*
X9652000Y-8013700D03*
G01*
X9906000Y-8013700D03*
D17*
G01*
X1155700Y-9525000D03*
G36*
X3765550Y-8870950D02*
G01*
X3905250Y-8870950D01*
X3905250Y-9010650D01*
X3765550Y-9010650D01*
G37*
D23*
G01*
X4089400Y-8940800D03*
G01*
X4343400Y-8940800D03*
G01*
X4597400Y-8940800D03*
G01*
X4851400Y-8940800D03*
G01*
X5105400Y-8940800D03*
G01*
X5359400Y-8940800D03*
G01*
X5359400Y-8178800D03*
G01*
X5105400Y-8178800D03*
G01*
X4851400Y-8178800D03*
G01*
X4597400Y-8178800D03*
G01*
X4343400Y-8178800D03*
G01*
X4089400Y-8178800D03*
G01*
X3835400Y-8178800D03*
D24*
G01*
X2654300Y-7632700D03*
G01*
X3670300Y-7632700D03*
D14*
G01*
X3924300Y-8458200D03*
G01*
X5346700Y-8674100D03*
G01*
X8331200Y-7010400D03*
D15*
G01*
X8559800Y-6296202D03*
G01*
X8559800Y-6635927D03*
D12*
G01*
X8051800Y-7505700D03*
G01*
X8128000Y-7796936D03*
G01*
X8763000Y-7094194D03*
G01*
X8763000Y-7779994D03*
M02*
