%TF.GenerationSoftware,KiCad,Pcbnew,(5.1.6)-1*%
%TF.CreationDate,2021-03-12T09:15:54-05:00*%
%TF.ProjectId,BallySternArduino,42616c6c-7953-4746-9572-6e4172647569,rev?*%
%TF.SameCoordinates,Original*%
%TF.FileFunction,Soldermask,Top*%
%TF.FilePolarity,Negative*%
%FSLAX46Y46*%
G04 Gerber Fmt 4.6, Leading zero omitted, Abs format (unit mm)*
G04 Created by KiCad (PCBNEW (5.1.6)-1) date 2021-03-12 09:15:54*
%MOMM*%
%LPD*%
G01*
G04 APERTURE LIST*
%ADD10R,1.800000X1.800000*%
%ADD11C,1.700000*%
%ADD12O,1.800000X1.800000*%
%ADD13O,1.700000X1.700000*%
%ADD14R,1.700000X1.700000*%
%ADD15O,2.500000X2.500000*%
%ADD16C,2.500000*%
G04 APERTURE END LIST*
D10*
%TO.C,INTR1*%
X37592000Y-107188000D03*
%TD*%
%TO.C,C3*%
G36*
G01*
X27286000Y-71784738D02*
X27286000Y-72741262D01*
G75*
G02*
X27014262Y-73013000I-271738J0D01*
G01*
X26307738Y-73013000D01*
G75*
G02*
X26036000Y-72741262I0J271738D01*
G01*
X26036000Y-71784738D01*
G75*
G02*
X26307738Y-71513000I271738J0D01*
G01*
X27014262Y-71513000D01*
G75*
G02*
X27286000Y-71784738I0J-271738D01*
G01*
G37*
G36*
G01*
X29336000Y-71784738D02*
X29336000Y-72741262D01*
G75*
G02*
X29064262Y-73013000I-271738J0D01*
G01*
X28357738Y-73013000D01*
G75*
G02*
X28086000Y-72741262I0J271738D01*
G01*
X28086000Y-71784738D01*
G75*
G02*
X28357738Y-71513000I271738J0D01*
G01*
X29064262Y-71513000D01*
G75*
G02*
X29336000Y-71784738I0J-271738D01*
G01*
G37*
%TD*%
D11*
%TO.C,C2*%
X35179000Y-79335000D03*
X35179000Y-76835000D03*
%TD*%
%TO.C,C1*%
G36*
G01*
X27286000Y-67593738D02*
X27286000Y-68550262D01*
G75*
G02*
X27014262Y-68822000I-271738J0D01*
G01*
X26307738Y-68822000D01*
G75*
G02*
X26036000Y-68550262I0J271738D01*
G01*
X26036000Y-67593738D01*
G75*
G02*
X26307738Y-67322000I271738J0D01*
G01*
X27014262Y-67322000D01*
G75*
G02*
X27286000Y-67593738I0J-271738D01*
G01*
G37*
G36*
G01*
X29336000Y-67593738D02*
X29336000Y-68550262D01*
G75*
G02*
X29064262Y-68822000I-271738J0D01*
G01*
X28357738Y-68822000D01*
G75*
G02*
X28086000Y-68550262I0J271738D01*
G01*
X28086000Y-67593738D01*
G75*
G02*
X28357738Y-67322000I271738J0D01*
G01*
X29064262Y-67322000D01*
G75*
G02*
X29336000Y-67593738I0J-271738D01*
G01*
G37*
%TD*%
D12*
%TO.C,WaveTrigger1*%
X36830000Y-112395000D03*
X34290000Y-112395000D03*
X31750000Y-112395000D03*
X29210000Y-112395000D03*
X26670000Y-112395000D03*
D10*
X24130000Y-112395000D03*
%TD*%
D13*
%TO.C,U1*%
X31750000Y-76835000D03*
X24130000Y-92075000D03*
X31750000Y-79375000D03*
X24130000Y-89535000D03*
X31750000Y-81915000D03*
X24130000Y-86995000D03*
X31750000Y-84455000D03*
X24130000Y-84455000D03*
X31750000Y-86995000D03*
X24130000Y-81915000D03*
X31750000Y-89535000D03*
X24130000Y-79375000D03*
X31750000Y-92075000D03*
D14*
X24130000Y-76835000D03*
%TD*%
D15*
%TO.C,R1*%
X37973000Y-80899000D03*
D16*
X37973000Y-96139000D03*
%TD*%
D12*
%TO.C,MPU_SEL1*%
X24130000Y-102870000D03*
D10*
X24130000Y-100330000D03*
%TD*%
D12*
%TO.C,J2*%
X43815000Y-112395000D03*
X43815000Y-109855000D03*
X43815000Y-107315000D03*
X43815000Y-104775000D03*
X43815000Y-102235000D03*
X43815000Y-99695000D03*
X43815000Y-97155000D03*
X43815000Y-94615000D03*
X43815000Y-92075000D03*
X43815000Y-89535000D03*
X43815000Y-86995000D03*
X43815000Y-84455000D03*
X43815000Y-81915000D03*
X43815000Y-79375000D03*
X43815000Y-76835000D03*
X43815000Y-74295000D03*
X43815000Y-71755000D03*
X43815000Y-69215000D03*
X43815000Y-66675000D03*
X43815000Y-64135000D03*
X43815000Y-61595000D03*
X43815000Y-59055000D03*
X43815000Y-56515000D03*
X43815000Y-53975000D03*
X43815000Y-51435000D03*
X43815000Y-48895000D03*
X43815000Y-46355000D03*
X43815000Y-43815000D03*
X43815000Y-41275000D03*
X43815000Y-38735000D03*
X43815000Y-36195000D03*
X43815000Y-33655000D03*
X43815000Y-31115000D03*
D10*
X43815000Y-28575000D03*
%TD*%
D12*
%TO.C,J1*%
X47625000Y-112395000D03*
X47625000Y-109855000D03*
X47625000Y-107315000D03*
X47625000Y-104775000D03*
X47625000Y-102235000D03*
X47625000Y-99695000D03*
X47625000Y-97155000D03*
X47625000Y-94615000D03*
X47625000Y-92075000D03*
X47625000Y-89535000D03*
X47625000Y-86995000D03*
X47625000Y-84455000D03*
X47625000Y-81915000D03*
X47625000Y-79375000D03*
X47625000Y-76835000D03*
X47625000Y-74295000D03*
X47625000Y-71755000D03*
X47625000Y-69215000D03*
X47625000Y-66675000D03*
X47625000Y-64135000D03*
X47625000Y-61595000D03*
X47625000Y-59055000D03*
X47625000Y-56515000D03*
X47625000Y-53975000D03*
X47625000Y-51435000D03*
X47625000Y-48895000D03*
X47625000Y-46355000D03*
X47625000Y-43815000D03*
X47625000Y-41275000D03*
X47625000Y-38735000D03*
X47625000Y-36195000D03*
X47625000Y-33655000D03*
X47625000Y-31115000D03*
D10*
X47625000Y-28575000D03*
%TD*%
D13*
%TO.C,ArduinoNanoV3*%
X23495000Y-33020000D03*
X38735000Y-33020000D03*
X23495000Y-68580000D03*
X38735000Y-35560000D03*
X23495000Y-66040000D03*
X38735000Y-38100000D03*
X23495000Y-63500000D03*
X38735000Y-40640000D03*
X23495000Y-60960000D03*
X38735000Y-43180000D03*
X23495000Y-58420000D03*
X38735000Y-45720000D03*
X23495000Y-55880000D03*
X38735000Y-48260000D03*
X23495000Y-53340000D03*
X38735000Y-50800000D03*
X23495000Y-50800000D03*
X38735000Y-53340000D03*
X23495000Y-48260000D03*
X38735000Y-55880000D03*
X23495000Y-45720000D03*
X38735000Y-58420000D03*
X23495000Y-43180000D03*
X38735000Y-60960000D03*
X23495000Y-40640000D03*
X38735000Y-63500000D03*
X23495000Y-38100000D03*
X38735000Y-66040000D03*
X23495000Y-35560000D03*
D14*
X38735000Y-68580000D03*
%TD*%
M02*
