%TF.GenerationSoftware,KiCad,Pcbnew,(5.1.6)-1*%
%TF.CreationDate,2021-03-12T09:15:54-05:00*%
%TF.ProjectId,BallySternArduino,42616c6c-7953-4746-9572-6e4172647569,rev?*%
%TF.SameCoordinates,Original*%
%TF.FileFunction,Legend,Bot*%
%TF.FilePolarity,Positive*%
%FSLAX46Y46*%
G04 Gerber Fmt 4.6, Leading zero omitted, Abs format (unit mm)*
G04 Created by KiCad (PCBNEW (5.1.6)-1) date 2021-03-12 09:15:54*
%MOMM*%
%LPD*%
G01*
G04 APERTURE LIST*
%ADD10C,0.300000*%
%ADD11C,0.120000*%
%ADD12C,0.150000*%
G04 APERTURE END LIST*
D10*
X27309857Y-41462714D02*
X27381285Y-41677000D01*
X27452714Y-41748428D01*
X27595571Y-41819857D01*
X27809857Y-41819857D01*
X27952714Y-41748428D01*
X28024142Y-41677000D01*
X28095571Y-41534142D01*
X28095571Y-40962714D01*
X26595571Y-40962714D01*
X26595571Y-41462714D01*
X26667000Y-41605571D01*
X26738428Y-41677000D01*
X26881285Y-41748428D01*
X27024142Y-41748428D01*
X27167000Y-41677000D01*
X27238428Y-41605571D01*
X27309857Y-41462714D01*
X27309857Y-40962714D01*
X28095571Y-43105571D02*
X27309857Y-43105571D01*
X27167000Y-43034142D01*
X27095571Y-42891285D01*
X27095571Y-42605571D01*
X27167000Y-42462714D01*
X28024142Y-43105571D02*
X28095571Y-42962714D01*
X28095571Y-42605571D01*
X28024142Y-42462714D01*
X27881285Y-42391285D01*
X27738428Y-42391285D01*
X27595571Y-42462714D01*
X27524142Y-42605571D01*
X27524142Y-42962714D01*
X27452714Y-43105571D01*
X28095571Y-44034142D02*
X28024142Y-43891285D01*
X27881285Y-43819857D01*
X26595571Y-43819857D01*
X28095571Y-44819857D02*
X28024142Y-44677000D01*
X27881285Y-44605571D01*
X26595571Y-44605571D01*
X27095571Y-45248428D02*
X28095571Y-45605571D01*
X27095571Y-45962714D02*
X28095571Y-45605571D01*
X28452714Y-45462714D01*
X28524142Y-45391285D01*
X28595571Y-45248428D01*
X28095571Y-47677000D02*
X26595571Y-47677000D01*
X27667000Y-48177000D01*
X26595571Y-48677000D01*
X28095571Y-48677000D01*
X28095571Y-49391285D02*
X26595571Y-49391285D01*
X26595571Y-49962714D01*
X26667000Y-50105571D01*
X26738428Y-50177000D01*
X26881285Y-50248428D01*
X27095571Y-50248428D01*
X27238428Y-50177000D01*
X27309857Y-50105571D01*
X27381285Y-49962714D01*
X27381285Y-49391285D01*
X26595571Y-50891285D02*
X27809857Y-50891285D01*
X27952714Y-50962714D01*
X28024142Y-51034142D01*
X28095571Y-51177000D01*
X28095571Y-51462714D01*
X28024142Y-51605571D01*
X27952714Y-51677000D01*
X27809857Y-51748428D01*
X26595571Y-51748428D01*
X27524142Y-52462714D02*
X27524142Y-53605571D01*
X28095571Y-55105571D02*
X28095571Y-54248428D01*
X28095571Y-54677000D02*
X26595571Y-54677000D01*
X26809857Y-54534142D01*
X26952714Y-54391285D01*
X27024142Y-54248428D01*
X26595571Y-55605571D02*
X26595571Y-56605571D01*
X28095571Y-55962714D01*
X26524142Y-58248428D02*
X28452714Y-56962714D01*
X26595571Y-58605571D02*
X26595571Y-59534142D01*
X27167000Y-59034142D01*
X27167000Y-59248428D01*
X27238428Y-59391285D01*
X27309857Y-59462714D01*
X27452714Y-59534142D01*
X27809857Y-59534142D01*
X27952714Y-59462714D01*
X28024142Y-59391285D01*
X28095571Y-59248428D01*
X28095571Y-58819857D01*
X28024142Y-58677000D01*
X27952714Y-58605571D01*
X26595571Y-60891285D02*
X26595571Y-60177000D01*
X27309857Y-60105571D01*
X27238428Y-60177000D01*
X27167000Y-60319857D01*
X27167000Y-60677000D01*
X27238428Y-60819857D01*
X27309857Y-60891285D01*
X27452714Y-60962714D01*
X27809857Y-60962714D01*
X27952714Y-60891285D01*
X28024142Y-60819857D01*
X28095571Y-60677000D01*
X28095571Y-60319857D01*
X28024142Y-60177000D01*
X27952714Y-60105571D01*
X30574142Y-39319857D02*
X30645571Y-39534142D01*
X30645571Y-39891285D01*
X30574142Y-40034142D01*
X30502714Y-40105571D01*
X30359857Y-40177000D01*
X30217000Y-40177000D01*
X30074142Y-40105571D01*
X30002714Y-40034142D01*
X29931285Y-39891285D01*
X29859857Y-39605571D01*
X29788428Y-39462714D01*
X29717000Y-39391285D01*
X29574142Y-39319857D01*
X29431285Y-39319857D01*
X29288428Y-39391285D01*
X29217000Y-39462714D01*
X29145571Y-39605571D01*
X29145571Y-39962714D01*
X29217000Y-40177000D01*
X29645571Y-40605571D02*
X29645571Y-41177000D01*
X29145571Y-40819857D02*
X30431285Y-40819857D01*
X30574142Y-40891285D01*
X30645571Y-41034142D01*
X30645571Y-41177000D01*
X30574142Y-42248428D02*
X30645571Y-42105571D01*
X30645571Y-41819857D01*
X30574142Y-41677000D01*
X30431285Y-41605571D01*
X29859857Y-41605571D01*
X29717000Y-41677000D01*
X29645571Y-41819857D01*
X29645571Y-42105571D01*
X29717000Y-42248428D01*
X29859857Y-42319857D01*
X30002714Y-42319857D01*
X30145571Y-41605571D01*
X30645571Y-42962714D02*
X29645571Y-42962714D01*
X29931285Y-42962714D02*
X29788428Y-43034142D01*
X29717000Y-43105571D01*
X29645571Y-43248428D01*
X29645571Y-43391285D01*
X29645571Y-43891285D02*
X30645571Y-43891285D01*
X29788428Y-43891285D02*
X29717000Y-43962714D01*
X29645571Y-44105571D01*
X29645571Y-44319857D01*
X29717000Y-44462714D01*
X29859857Y-44534142D01*
X30645571Y-44534142D01*
X30645571Y-46391285D02*
X29145571Y-46391285D01*
X30217000Y-46891285D01*
X29145571Y-47391285D01*
X30645571Y-47391285D01*
X30645571Y-48105571D02*
X29145571Y-48105571D01*
X29145571Y-48677000D01*
X29217000Y-48819857D01*
X29288428Y-48891285D01*
X29431285Y-48962714D01*
X29645571Y-48962714D01*
X29788428Y-48891285D01*
X29859857Y-48819857D01*
X29931285Y-48677000D01*
X29931285Y-48105571D01*
X29145571Y-49605571D02*
X30359857Y-49605571D01*
X30502714Y-49677000D01*
X30574142Y-49748428D01*
X30645571Y-49891285D01*
X30645571Y-50177000D01*
X30574142Y-50319857D01*
X30502714Y-50391285D01*
X30359857Y-50462714D01*
X29145571Y-50462714D01*
X30074142Y-51177000D02*
X30074142Y-52319857D01*
X30645571Y-53819857D02*
X30645571Y-52962714D01*
X30645571Y-53391285D02*
X29145571Y-53391285D01*
X29359857Y-53248428D01*
X29502714Y-53105571D01*
X29574142Y-52962714D01*
X29145571Y-54748428D02*
X29145571Y-54891285D01*
X29217000Y-55034142D01*
X29288428Y-55105571D01*
X29431285Y-55177000D01*
X29717000Y-55248428D01*
X30074142Y-55248428D01*
X30359857Y-55177000D01*
X30502714Y-55105571D01*
X30574142Y-55034142D01*
X30645571Y-54891285D01*
X30645571Y-54748428D01*
X30574142Y-54605571D01*
X30502714Y-54534142D01*
X30359857Y-54462714D01*
X30074142Y-54391285D01*
X29717000Y-54391285D01*
X29431285Y-54462714D01*
X29288428Y-54534142D01*
X29217000Y-54605571D01*
X29145571Y-54748428D01*
X29145571Y-56177000D02*
X29145571Y-56319857D01*
X29217000Y-56462714D01*
X29288428Y-56534142D01*
X29431285Y-56605571D01*
X29717000Y-56677000D01*
X30074142Y-56677000D01*
X30359857Y-56605571D01*
X30502714Y-56534142D01*
X30574142Y-56462714D01*
X30645571Y-56319857D01*
X30645571Y-56177000D01*
X30574142Y-56034142D01*
X30502714Y-55962714D01*
X30359857Y-55891285D01*
X30074142Y-55819857D01*
X29717000Y-55819857D01*
X29431285Y-55891285D01*
X29288428Y-55962714D01*
X29217000Y-56034142D01*
X29145571Y-56177000D01*
X29074142Y-58391285D02*
X31002714Y-57105571D01*
X29288428Y-58819857D02*
X29217000Y-58891285D01*
X29145571Y-59034142D01*
X29145571Y-59391285D01*
X29217000Y-59534142D01*
X29288428Y-59605571D01*
X29431285Y-59677000D01*
X29574142Y-59677000D01*
X29788428Y-59605571D01*
X30645571Y-58748428D01*
X30645571Y-59677000D01*
X29145571Y-60605571D02*
X29145571Y-60748428D01*
X29217000Y-60891285D01*
X29288428Y-60962714D01*
X29431285Y-61034142D01*
X29717000Y-61105571D01*
X30074142Y-61105571D01*
X30359857Y-61034142D01*
X30502714Y-60962714D01*
X30574142Y-60891285D01*
X30645571Y-60748428D01*
X30645571Y-60605571D01*
X30574142Y-60462714D01*
X30502714Y-60391285D01*
X30359857Y-60319857D01*
X30074142Y-60248428D01*
X29717000Y-60248428D01*
X29431285Y-60319857D01*
X29288428Y-60391285D01*
X29217000Y-60462714D01*
X29145571Y-60605571D01*
X29145571Y-62034142D02*
X29145571Y-62177000D01*
X29217000Y-62319857D01*
X29288428Y-62391285D01*
X29431285Y-62462714D01*
X29717000Y-62534142D01*
X30074142Y-62534142D01*
X30359857Y-62462714D01*
X30502714Y-62391285D01*
X30574142Y-62319857D01*
X30645571Y-62177000D01*
X30645571Y-62034142D01*
X30574142Y-61891285D01*
X30502714Y-61819857D01*
X30359857Y-61748428D01*
X30074142Y-61677000D01*
X29717000Y-61677000D01*
X29431285Y-61748428D01*
X29288428Y-61819857D01*
X29217000Y-61891285D01*
X29145571Y-62034142D01*
X32767000Y-40891285D02*
X32767000Y-41605571D01*
X33195571Y-40748428D02*
X31695571Y-41248428D01*
X33195571Y-41748428D01*
X33195571Y-42248428D02*
X32195571Y-42248428D01*
X32481285Y-42248428D02*
X32338428Y-42319857D01*
X32267000Y-42391285D01*
X32195571Y-42534142D01*
X32195571Y-42677000D01*
X33195571Y-43819857D02*
X31695571Y-43819857D01*
X33124142Y-43819857D02*
X33195571Y-43677000D01*
X33195571Y-43391285D01*
X33124142Y-43248428D01*
X33052714Y-43177000D01*
X32909857Y-43105571D01*
X32481285Y-43105571D01*
X32338428Y-43177000D01*
X32267000Y-43248428D01*
X32195571Y-43391285D01*
X32195571Y-43677000D01*
X32267000Y-43819857D01*
X32195571Y-45177000D02*
X33195571Y-45177000D01*
X32195571Y-44534142D02*
X32981285Y-44534142D01*
X33124142Y-44605571D01*
X33195571Y-44748428D01*
X33195571Y-44962714D01*
X33124142Y-45105571D01*
X33052714Y-45177000D01*
X33195571Y-45891285D02*
X32195571Y-45891285D01*
X31695571Y-45891285D02*
X31767000Y-45819857D01*
X31838428Y-45891285D01*
X31767000Y-45962714D01*
X31695571Y-45891285D01*
X31838428Y-45891285D01*
X32195571Y-46605571D02*
X33195571Y-46605571D01*
X32338428Y-46605571D02*
X32267000Y-46677000D01*
X32195571Y-46819857D01*
X32195571Y-47034142D01*
X32267000Y-47177000D01*
X32409857Y-47248428D01*
X33195571Y-47248428D01*
X33195571Y-48177000D02*
X33124142Y-48034142D01*
X33052714Y-47962714D01*
X32909857Y-47891285D01*
X32481285Y-47891285D01*
X32338428Y-47962714D01*
X32267000Y-48034142D01*
X32195571Y-48177000D01*
X32195571Y-48391285D01*
X32267000Y-48534142D01*
X32338428Y-48605571D01*
X32481285Y-48677000D01*
X32909857Y-48677000D01*
X33052714Y-48605571D01*
X33124142Y-48534142D01*
X33195571Y-48391285D01*
X33195571Y-48177000D01*
X33052714Y-51319857D02*
X33124142Y-51248428D01*
X33195571Y-51034142D01*
X33195571Y-50891285D01*
X33124142Y-50677000D01*
X32981285Y-50534142D01*
X32838428Y-50462714D01*
X32552714Y-50391285D01*
X32338428Y-50391285D01*
X32052714Y-50462714D01*
X31909857Y-50534142D01*
X31767000Y-50677000D01*
X31695571Y-50891285D01*
X31695571Y-51034142D01*
X31767000Y-51248428D01*
X31838428Y-51319857D01*
X33195571Y-52177000D02*
X33124142Y-52034142D01*
X33052714Y-51962714D01*
X32909857Y-51891285D01*
X32481285Y-51891285D01*
X32338428Y-51962714D01*
X32267000Y-52034142D01*
X32195571Y-52177000D01*
X32195571Y-52391285D01*
X32267000Y-52534142D01*
X32338428Y-52605571D01*
X32481285Y-52677000D01*
X32909857Y-52677000D01*
X33052714Y-52605571D01*
X33124142Y-52534142D01*
X33195571Y-52391285D01*
X33195571Y-52177000D01*
X32195571Y-53319857D02*
X33195571Y-53319857D01*
X32338428Y-53319857D02*
X32267000Y-53391285D01*
X32195571Y-53534142D01*
X32195571Y-53748428D01*
X32267000Y-53891285D01*
X32409857Y-53962714D01*
X33195571Y-53962714D01*
X32195571Y-54462714D02*
X32195571Y-55034142D01*
X31695571Y-54677000D02*
X32981285Y-54677000D01*
X33124142Y-54748428D01*
X33195571Y-54891285D01*
X33195571Y-55034142D01*
X33195571Y-55534142D02*
X32195571Y-55534142D01*
X32481285Y-55534142D02*
X32338428Y-55605571D01*
X32267000Y-55677000D01*
X32195571Y-55819857D01*
X32195571Y-55962714D01*
X33195571Y-56677000D02*
X33124142Y-56534142D01*
X33052714Y-56462714D01*
X32909857Y-56391285D01*
X32481285Y-56391285D01*
X32338428Y-56462714D01*
X32267000Y-56534142D01*
X32195571Y-56677000D01*
X32195571Y-56891285D01*
X32267000Y-57034142D01*
X32338428Y-57105571D01*
X32481285Y-57177000D01*
X32909857Y-57177000D01*
X33052714Y-57105571D01*
X33124142Y-57034142D01*
X33195571Y-56891285D01*
X33195571Y-56677000D01*
X33195571Y-58034142D02*
X33124142Y-57891285D01*
X32981285Y-57819857D01*
X31695571Y-57819857D01*
X33195571Y-58819857D02*
X33124142Y-58677000D01*
X32981285Y-58605571D01*
X31695571Y-58605571D01*
X33124142Y-59962714D02*
X33195571Y-59819857D01*
X33195571Y-59534142D01*
X33124142Y-59391285D01*
X32981285Y-59319857D01*
X32409857Y-59319857D01*
X32267000Y-59391285D01*
X32195571Y-59534142D01*
X32195571Y-59819857D01*
X32267000Y-59962714D01*
X32409857Y-60034142D01*
X32552714Y-60034142D01*
X32695571Y-59319857D01*
X33195571Y-60677000D02*
X32195571Y-60677000D01*
X32481285Y-60677000D02*
X32338428Y-60748428D01*
X32267000Y-60819857D01*
X32195571Y-60962714D01*
X32195571Y-61105571D01*
X34245571Y-37855571D02*
X35317000Y-37855571D01*
X35531285Y-37784142D01*
X35674142Y-37641285D01*
X35745571Y-37427000D01*
X35745571Y-37284142D01*
X35745571Y-38569857D02*
X34245571Y-38569857D01*
X34245571Y-39141285D01*
X34317000Y-39284142D01*
X34388428Y-39355571D01*
X34531285Y-39427000D01*
X34745571Y-39427000D01*
X34888428Y-39355571D01*
X34959857Y-39284142D01*
X35031285Y-39141285D01*
X35031285Y-38569857D01*
X35745571Y-40069857D02*
X34245571Y-40069857D01*
X34245571Y-40427000D01*
X34317000Y-40641285D01*
X34459857Y-40784142D01*
X34602714Y-40855571D01*
X34888428Y-40927000D01*
X35102714Y-40927000D01*
X35388428Y-40855571D01*
X35531285Y-40784142D01*
X35674142Y-40641285D01*
X35745571Y-40427000D01*
X35745571Y-40069857D01*
X35745571Y-43427000D02*
X35745571Y-42712714D01*
X34245571Y-42712714D01*
X35745571Y-44569857D02*
X34959857Y-44569857D01*
X34817000Y-44498428D01*
X34745571Y-44355571D01*
X34745571Y-44069857D01*
X34817000Y-43927000D01*
X35674142Y-44569857D02*
X35745571Y-44427000D01*
X35745571Y-44069857D01*
X35674142Y-43927000D01*
X35531285Y-43855571D01*
X35388428Y-43855571D01*
X35245571Y-43927000D01*
X35174142Y-44069857D01*
X35174142Y-44427000D01*
X35102714Y-44569857D01*
X35745571Y-45284142D02*
X34245571Y-45284142D01*
X34817000Y-45284142D02*
X34745571Y-45427000D01*
X34745571Y-45712714D01*
X34817000Y-45855571D01*
X34888428Y-45927000D01*
X35031285Y-45998428D01*
X35459857Y-45998428D01*
X35602714Y-45927000D01*
X35674142Y-45855571D01*
X35745571Y-45712714D01*
X35745571Y-45427000D01*
X35674142Y-45284142D01*
X35674142Y-46569857D02*
X35745571Y-46712714D01*
X35745571Y-46998428D01*
X35674142Y-47141285D01*
X35531285Y-47212714D01*
X35459857Y-47212714D01*
X35317000Y-47141285D01*
X35245571Y-46998428D01*
X35245571Y-46784142D01*
X35174142Y-46641285D01*
X35031285Y-46569857D01*
X34959857Y-46569857D01*
X34817000Y-46641285D01*
X34745571Y-46784142D01*
X34745571Y-46998428D01*
X34817000Y-47141285D01*
X35174142Y-48998428D02*
X35174142Y-50141285D01*
X34245571Y-51855571D02*
X34245571Y-52784142D01*
X34817000Y-52284142D01*
X34817000Y-52498428D01*
X34888428Y-52641285D01*
X34959857Y-52712714D01*
X35102714Y-52784142D01*
X35459857Y-52784142D01*
X35602714Y-52712714D01*
X35674142Y-52641285D01*
X35745571Y-52498428D01*
X35745571Y-52069857D01*
X35674142Y-51926999D01*
X35602714Y-51855571D01*
X34174142Y-54498428D02*
X36102714Y-53212714D01*
X35745571Y-55784142D02*
X35745571Y-54926999D01*
X35745571Y-55355571D02*
X34245571Y-55355571D01*
X34459857Y-55212714D01*
X34602714Y-55069857D01*
X34674142Y-54926999D01*
X35745571Y-57212714D02*
X35745571Y-56355571D01*
X35745571Y-56784142D02*
X34245571Y-56784142D01*
X34459857Y-56641285D01*
X34602714Y-56498428D01*
X34674142Y-56355571D01*
X34174142Y-58926999D02*
X36102714Y-57641285D01*
X34388428Y-59355571D02*
X34317000Y-59426999D01*
X34245571Y-59569857D01*
X34245571Y-59926999D01*
X34317000Y-60069857D01*
X34388428Y-60141285D01*
X34531285Y-60212714D01*
X34674142Y-60212714D01*
X34888428Y-60141285D01*
X35745571Y-59284142D01*
X35745571Y-60212714D01*
X34245571Y-61141285D02*
X34245571Y-61284142D01*
X34317000Y-61426999D01*
X34388428Y-61498428D01*
X34531285Y-61569857D01*
X34817000Y-61641285D01*
X35174142Y-61641285D01*
X35459857Y-61569857D01*
X35602714Y-61498428D01*
X35674142Y-61426999D01*
X35745571Y-61284142D01*
X35745571Y-61141285D01*
X35674142Y-60998428D01*
X35602714Y-60926999D01*
X35459857Y-60855571D01*
X35174142Y-60784142D01*
X34817000Y-60784142D01*
X34531285Y-60855571D01*
X34388428Y-60926999D01*
X34317000Y-60998428D01*
X34245571Y-61141285D01*
X34388428Y-62212714D02*
X34317000Y-62284142D01*
X34245571Y-62426999D01*
X34245571Y-62784142D01*
X34317000Y-62926999D01*
X34388428Y-62998428D01*
X34531285Y-63069857D01*
X34674142Y-63069857D01*
X34888428Y-62998428D01*
X35745571Y-62141285D01*
X35745571Y-63069857D01*
X35745571Y-64498428D02*
X35745571Y-63641285D01*
X35745571Y-64069857D02*
X34245571Y-64069857D01*
X34459857Y-63926999D01*
X34602714Y-63784142D01*
X34674142Y-63641285D01*
X34968571Y-82646714D02*
X33468571Y-82646714D01*
X34040000Y-82646714D02*
X33968571Y-82789571D01*
X33968571Y-83075285D01*
X34040000Y-83218142D01*
X34111428Y-83289571D01*
X34254285Y-83361000D01*
X34682857Y-83361000D01*
X34825714Y-83289571D01*
X34897142Y-83218142D01*
X34968571Y-83075285D01*
X34968571Y-82789571D01*
X34897142Y-82646714D01*
X34968571Y-84646714D02*
X34182857Y-84646714D01*
X34040000Y-84575285D01*
X33968571Y-84432428D01*
X33968571Y-84146714D01*
X34040000Y-84003857D01*
X34897142Y-84646714D02*
X34968571Y-84503857D01*
X34968571Y-84146714D01*
X34897142Y-84003857D01*
X34754285Y-83932428D01*
X34611428Y-83932428D01*
X34468571Y-84003857D01*
X34397142Y-84146714D01*
X34397142Y-84503857D01*
X34325714Y-84646714D01*
X34968571Y-85575285D02*
X34897142Y-85432428D01*
X34754285Y-85361000D01*
X33468571Y-85361000D01*
X34968571Y-86361000D02*
X34897142Y-86218142D01*
X34754285Y-86146714D01*
X33468571Y-86146714D01*
X33968571Y-86789571D02*
X34968571Y-87146714D01*
X33968571Y-87503857D02*
X34968571Y-87146714D01*
X35325714Y-87003857D01*
X35397142Y-86932428D01*
X35468571Y-86789571D01*
X34897142Y-88003857D02*
X34968571Y-88146714D01*
X34968571Y-88432428D01*
X34897142Y-88575285D01*
X34754285Y-88646714D01*
X34682857Y-88646714D01*
X34540000Y-88575285D01*
X34468571Y-88432428D01*
X34468571Y-88218142D01*
X34397142Y-88075285D01*
X34254285Y-88003857D01*
X34182857Y-88003857D01*
X34040000Y-88075285D01*
X33968571Y-88218142D01*
X33968571Y-88432428D01*
X34040000Y-88575285D01*
X33968571Y-89075285D02*
X33968571Y-89646714D01*
X33468571Y-89289571D02*
X34754285Y-89289571D01*
X34897142Y-89361000D01*
X34968571Y-89503857D01*
X34968571Y-89646714D01*
X34897142Y-90718142D02*
X34968571Y-90575285D01*
X34968571Y-90289571D01*
X34897142Y-90146714D01*
X34754285Y-90075285D01*
X34182857Y-90075285D01*
X34040000Y-90146714D01*
X33968571Y-90289571D01*
X33968571Y-90575285D01*
X34040000Y-90718142D01*
X34182857Y-90789571D01*
X34325714Y-90789571D01*
X34468571Y-90075285D01*
X34968571Y-91432428D02*
X33968571Y-91432428D01*
X34254285Y-91432428D02*
X34111428Y-91503857D01*
X34040000Y-91575285D01*
X33968571Y-91718142D01*
X33968571Y-91861000D01*
X33968571Y-92361000D02*
X34968571Y-92361000D01*
X34111428Y-92361000D02*
X34040000Y-92432428D01*
X33968571Y-92575285D01*
X33968571Y-92789571D01*
X34040000Y-92932428D01*
X34182857Y-93003857D01*
X34968571Y-93003857D01*
X34968571Y-93932428D02*
X34897142Y-93789571D01*
X34825714Y-93718142D01*
X34682857Y-93646714D01*
X34254285Y-93646714D01*
X34111428Y-93718142D01*
X34040000Y-93789571D01*
X33968571Y-93932428D01*
X33968571Y-94146714D01*
X34040000Y-94289571D01*
X34111428Y-94361000D01*
X34254285Y-94432428D01*
X34682857Y-94432428D01*
X34825714Y-94361000D01*
X34897142Y-94289571D01*
X34968571Y-94146714D01*
X34968571Y-93932428D01*
X34897142Y-95003857D02*
X34968571Y-95146714D01*
X34968571Y-95432428D01*
X34897142Y-95575285D01*
X34754285Y-95646714D01*
X34682857Y-95646714D01*
X34540000Y-95575285D01*
X34468571Y-95432428D01*
X34468571Y-95218142D01*
X34397142Y-95075285D01*
X34254285Y-95003857D01*
X34182857Y-95003857D01*
X34040000Y-95075285D01*
X33968571Y-95218142D01*
X33968571Y-95432428D01*
X34040000Y-95575285D01*
X34825714Y-96289571D02*
X34897142Y-96361000D01*
X34968571Y-96289571D01*
X34897142Y-96218142D01*
X34825714Y-96289571D01*
X34968571Y-96289571D01*
X33968571Y-97646714D02*
X35182857Y-97646714D01*
X35325714Y-97575285D01*
X35397142Y-97503857D01*
X35468571Y-97361000D01*
X35468571Y-97146714D01*
X35397142Y-97003857D01*
X34897142Y-97646714D02*
X34968571Y-97503857D01*
X34968571Y-97218142D01*
X34897142Y-97075285D01*
X34825714Y-97003857D01*
X34682857Y-96932428D01*
X34254285Y-96932428D01*
X34111428Y-97003857D01*
X34040000Y-97075285D01*
X33968571Y-97218142D01*
X33968571Y-97503857D01*
X34040000Y-97646714D01*
X34968571Y-98361000D02*
X33968571Y-98361000D01*
X33468571Y-98361000D02*
X33540000Y-98289571D01*
X33611428Y-98361000D01*
X33540000Y-98432428D01*
X33468571Y-98361000D01*
X33611428Y-98361000D01*
X33968571Y-98861000D02*
X33968571Y-99432428D01*
X33468571Y-99075285D02*
X34754285Y-99075285D01*
X34897142Y-99146714D01*
X34968571Y-99289571D01*
X34968571Y-99432428D01*
X34968571Y-99932428D02*
X33468571Y-99932428D01*
X34968571Y-100575285D02*
X34182857Y-100575285D01*
X34040000Y-100503857D01*
X33968571Y-100361000D01*
X33968571Y-100146714D01*
X34040000Y-100003857D01*
X34111428Y-99932428D01*
X33968571Y-101932428D02*
X34968571Y-101932428D01*
X33968571Y-101289571D02*
X34754285Y-101289571D01*
X34897142Y-101361000D01*
X34968571Y-101503857D01*
X34968571Y-101718142D01*
X34897142Y-101861000D01*
X34825714Y-101932428D01*
X34968571Y-102646714D02*
X33468571Y-102646714D01*
X34040000Y-102646714D02*
X33968571Y-102789571D01*
X33968571Y-103075285D01*
X34040000Y-103218142D01*
X34111428Y-103289571D01*
X34254285Y-103361000D01*
X34682857Y-103361000D01*
X34825714Y-103289571D01*
X34897142Y-103218142D01*
X34968571Y-103075285D01*
X34968571Y-102789571D01*
X34897142Y-102646714D01*
X34825714Y-104003857D02*
X34897142Y-104075285D01*
X34968571Y-104003857D01*
X34897142Y-103932428D01*
X34825714Y-104003857D01*
X34968571Y-104003857D01*
X34968571Y-104718142D02*
X33968571Y-104718142D01*
X33468571Y-104718142D02*
X33540000Y-104646714D01*
X33611428Y-104718142D01*
X33540000Y-104789571D01*
X33468571Y-104718142D01*
X33611428Y-104718142D01*
X34968571Y-105646714D02*
X34897142Y-105503857D01*
X34825714Y-105432428D01*
X34682857Y-105361000D01*
X34254285Y-105361000D01*
X34111428Y-105432428D01*
X34040000Y-105503857D01*
X33968571Y-105646714D01*
X33968571Y-105861000D01*
X34040000Y-106003857D01*
X34111428Y-106075285D01*
X34254285Y-106146714D01*
X34682857Y-106146714D01*
X34825714Y-106075285D01*
X34897142Y-106003857D01*
X34968571Y-105861000D01*
X34968571Y-105646714D01*
D11*
%TO.C,J2*%
X43815000Y-27245000D02*
X42485000Y-27245000D01*
X42485000Y-27245000D02*
X42485000Y-28575000D01*
X42485000Y-29845000D02*
X42485000Y-113725000D01*
X45145000Y-113725000D02*
X42485000Y-113725000D01*
X45145000Y-29845000D02*
X45145000Y-113725000D01*
X45145000Y-29845000D02*
X42485000Y-29845000D01*
D12*
X39576333Y-26820880D02*
X39576333Y-27535166D01*
X39623952Y-27678023D01*
X39719190Y-27773261D01*
X39862047Y-27820880D01*
X39957285Y-27820880D01*
X39147761Y-26916119D02*
X39100142Y-26868500D01*
X39004904Y-26820880D01*
X38766809Y-26820880D01*
X38671571Y-26868500D01*
X38623952Y-26916119D01*
X38576333Y-27011357D01*
X38576333Y-27106595D01*
X38623952Y-27249452D01*
X39195380Y-27820880D01*
X38576333Y-27820880D01*
%TD*%
M02*
