%TF.GenerationSoftware,KiCad,Pcbnew,(5.1.6)-1*%
%TF.CreationDate,2021-03-12T09:15:54-05:00*%
%TF.ProjectId,BallySternArduino,42616c6c-7953-4746-9572-6e4172647569,rev?*%
%TF.SameCoordinates,Original*%
%TF.FileFunction,Copper,L1,Top*%
%TF.FilePolarity,Positive*%
%FSLAX46Y46*%
G04 Gerber Fmt 4.6, Leading zero omitted, Abs format (unit mm)*
G04 Created by KiCad (PCBNEW (5.1.6)-1) date 2021-03-12 09:15:54*
%MOMM*%
%LPD*%
G01*
G04 APERTURE LIST*
%TA.AperFunction,ComponentPad*%
%ADD10R,1.700000X1.700000*%
%TD*%
%TA.AperFunction,ComponentPad*%
%ADD11C,1.600000*%
%TD*%
%TA.AperFunction,ComponentPad*%
%ADD12O,1.700000X1.700000*%
%TD*%
%TA.AperFunction,ComponentPad*%
%ADD13O,1.600000X1.600000*%
%TD*%
%TA.AperFunction,ComponentPad*%
%ADD14R,1.600000X1.600000*%
%TD*%
%TA.AperFunction,ComponentPad*%
%ADD15O,2.400000X2.400000*%
%TD*%
%TA.AperFunction,ComponentPad*%
%ADD16C,2.400000*%
%TD*%
%TA.AperFunction,ViaPad*%
%ADD17C,1.143000*%
%TD*%
%TA.AperFunction,Conductor*%
%ADD18C,0.254000*%
%TD*%
%TA.AperFunction,Conductor*%
%ADD19C,0.635000*%
%TD*%
G04 APERTURE END LIST*
D10*
%TO.P,INTR1,1*%
%TO.N,/INTR*%
X37592000Y-107188000D03*
%TD*%
%TO.P,C3,2*%
%TO.N,GND*%
%TA.AperFunction,SMDPad,CuDef*%
G36*
G01*
X27236000Y-71812999D02*
X27236000Y-72713001D01*
G75*
G02*
X26986001Y-72963000I-249999J0D01*
G01*
X26335999Y-72963000D01*
G75*
G02*
X26086000Y-72713001I0J249999D01*
G01*
X26086000Y-71812999D01*
G75*
G02*
X26335999Y-71563000I249999J0D01*
G01*
X26986001Y-71563000D01*
G75*
G02*
X27236000Y-71812999I0J-249999D01*
G01*
G37*
%TD.AperFunction*%
%TO.P,C3,1*%
%TO.N,+5V*%
%TA.AperFunction,SMDPad,CuDef*%
G36*
G01*
X29286000Y-71812999D02*
X29286000Y-72713001D01*
G75*
G02*
X29036001Y-72963000I-249999J0D01*
G01*
X28385999Y-72963000D01*
G75*
G02*
X28136000Y-72713001I0J249999D01*
G01*
X28136000Y-71812999D01*
G75*
G02*
X28385999Y-71563000I249999J0D01*
G01*
X29036001Y-71563000D01*
G75*
G02*
X29286000Y-71812999I0J-249999D01*
G01*
G37*
%TD.AperFunction*%
%TD*%
D11*
%TO.P,C2,2*%
%TO.N,GND*%
X35179000Y-79335000D03*
%TO.P,C2,1*%
%TO.N,+5V*%
X35179000Y-76835000D03*
%TD*%
%TO.P,C1,2*%
%TO.N,GND*%
%TA.AperFunction,SMDPad,CuDef*%
G36*
G01*
X27236000Y-67621999D02*
X27236000Y-68522001D01*
G75*
G02*
X26986001Y-68772000I-249999J0D01*
G01*
X26335999Y-68772000D01*
G75*
G02*
X26086000Y-68522001I0J249999D01*
G01*
X26086000Y-67621999D01*
G75*
G02*
X26335999Y-67372000I249999J0D01*
G01*
X26986001Y-67372000D01*
G75*
G02*
X27236000Y-67621999I0J-249999D01*
G01*
G37*
%TD.AperFunction*%
%TO.P,C1,1*%
%TO.N,+5V*%
%TA.AperFunction,SMDPad,CuDef*%
G36*
G01*
X29286000Y-67621999D02*
X29286000Y-68522001D01*
G75*
G02*
X29036001Y-68772000I-249999J0D01*
G01*
X28385999Y-68772000D01*
G75*
G02*
X28136000Y-68522001I0J249999D01*
G01*
X28136000Y-67621999D01*
G75*
G02*
X28385999Y-67372000I249999J0D01*
G01*
X29036001Y-67372000D01*
G75*
G02*
X29286000Y-67621999I0J-249999D01*
G01*
G37*
%TD.AperFunction*%
%TD*%
D12*
%TO.P,WaveTrigger1,6*%
%TO.N,Net-(WaveTrigger1-Pad6)*%
X36830000Y-112395000D03*
%TO.P,WaveTrigger1,5*%
%TO.N,Net-(WaveTrigger1-Pad5)*%
X34290000Y-112395000D03*
%TO.P,WaveTrigger1,4*%
%TO.N,/WAVE_TX*%
X31750000Y-112395000D03*
%TO.P,WaveTrigger1,3*%
%TO.N,+5V*%
X29210000Y-112395000D03*
%TO.P,WaveTrigger1,2*%
%TO.N,Net-(WaveTrigger1-Pad2)*%
X26670000Y-112395000D03*
D10*
%TO.P,WaveTrigger1,1*%
%TO.N,GND*%
X24130000Y-112395000D03*
%TD*%
D13*
%TO.P,U1,14*%
%TO.N,+5V*%
X31750000Y-76835000D03*
%TO.P,U1,7*%
%TO.N,GND*%
X24130000Y-92075000D03*
%TO.P,U1,13*%
%TO.N,/MPU_SEL*%
X31750000Y-79375000D03*
%TO.P,U1,6*%
%TO.N,/A12*%
X24130000Y-89535000D03*
%TO.P,U1,12*%
%TO.N,GND*%
X31750000Y-81915000D03*
%TO.P,U1,5*%
X24130000Y-86995000D03*
%TO.P,U1,11*%
%TO.N,/~HLT*%
X31750000Y-84455000D03*
%TO.P,U1,4*%
%TO.N,/MPU_SEL*%
X24130000Y-84455000D03*
%TO.P,U1,10*%
X31750000Y-86995000D03*
%TO.P,U1,3*%
%TO.N,/A5*%
X24130000Y-81915000D03*
%TO.P,U1,9*%
%TO.N,GND*%
X31750000Y-89535000D03*
%TO.P,U1,2*%
%TO.N,/MPU_CTRL*%
X24130000Y-79375000D03*
%TO.P,U1,8*%
%TO.N,/A9*%
X31750000Y-92075000D03*
D14*
%TO.P,U1,1*%
%TO.N,/MPU_SEL*%
X24130000Y-76835000D03*
%TD*%
D15*
%TO.P,R1,2*%
%TO.N,/MPU_SEL*%
X37973000Y-80899000D03*
D16*
%TO.P,R1,1*%
%TO.N,+5V*%
X37973000Y-96139000D03*
%TD*%
D12*
%TO.P,MPU_SEL1,2*%
%TO.N,GND*%
X24130000Y-102870000D03*
D10*
%TO.P,MPU_SEL1,1*%
%TO.N,/MPU_SEL*%
X24130000Y-100330000D03*
%TD*%
D12*
%TO.P,J2,34*%
%TO.N,/INTR*%
X43815000Y-112395000D03*
%TO.P,J2,33*%
%TO.N,/A14*%
X43815000Y-109855000D03*
%TO.P,J2,32*%
%TO.N,/CB1*%
X43815000Y-107315000D03*
%TO.P,J2,31*%
%TO.N,GND*%
X43815000Y-104775000D03*
%TO.P,J2,30*%
%TO.N,+5V*%
X43815000Y-102235000D03*
%TO.P,J2,29*%
%TO.N,/KEY*%
X43815000Y-99695000D03*
%TO.P,J2,28*%
%TO.N,/EXT_MEM*%
X43815000Y-97155000D03*
%TO.P,J2,27*%
%TO.N,/02*%
X43815000Y-94615000D03*
%TO.P,J2,26*%
%TO.N,/VMA*%
X43815000Y-92075000D03*
%TO.P,J2,25*%
%TO.N,/~RES*%
X43815000Y-89535000D03*
%TO.P,J2,24*%
%TO.N,/~HLT*%
X43815000Y-86995000D03*
%TO.P,J2,23*%
%TO.N,/R_W*%
X43815000Y-84455000D03*
%TO.P,J2,22*%
%TO.N,/A0*%
X43815000Y-81915000D03*
%TO.P,J2,21*%
%TO.N,/A1*%
X43815000Y-79375000D03*
%TO.P,J2,20*%
%TO.N,/A2*%
X43815000Y-76835000D03*
%TO.P,J2,19*%
%TO.N,/A3*%
X43815000Y-74295000D03*
%TO.P,J2,18*%
%TO.N,/A4*%
X43815000Y-71755000D03*
%TO.P,J2,17*%
%TO.N,/A5*%
X43815000Y-69215000D03*
%TO.P,J2,16*%
%TO.N,/A6*%
X43815000Y-66675000D03*
%TO.P,J2,15*%
%TO.N,/A7*%
X43815000Y-64135000D03*
%TO.P,J2,14*%
%TO.N,/A8*%
X43815000Y-61595000D03*
%TO.P,J2,13*%
%TO.N,/A9*%
X43815000Y-59055000D03*
%TO.P,J2,12*%
%TO.N,/A10*%
X43815000Y-56515000D03*
%TO.P,J2,11*%
%TO.N,/A11*%
X43815000Y-53975000D03*
%TO.P,J2,10*%
%TO.N,/A12*%
X43815000Y-51435000D03*
%TO.P,J2,9*%
%TO.N,/A13*%
X43815000Y-48895000D03*
%TO.P,J2,8*%
%TO.N,/D0*%
X43815000Y-46355000D03*
%TO.P,J2,7*%
%TO.N,/D1*%
X43815000Y-43815000D03*
%TO.P,J2,6*%
%TO.N,/D2*%
X43815000Y-41275000D03*
%TO.P,J2,5*%
%TO.N,/D3*%
X43815000Y-38735000D03*
%TO.P,J2,4*%
%TO.N,/D4*%
X43815000Y-36195000D03*
%TO.P,J2,3*%
%TO.N,/D5*%
X43815000Y-33655000D03*
%TO.P,J2,2*%
%TO.N,/D6*%
X43815000Y-31115000D03*
D10*
%TO.P,J2,1*%
%TO.N,/D7*%
X43815000Y-28575000D03*
%TD*%
D12*
%TO.P,J1,34*%
%TO.N,/INTR*%
X47625000Y-112395000D03*
%TO.P,J1,33*%
%TO.N,/A14*%
X47625000Y-109855000D03*
%TO.P,J1,32*%
%TO.N,/CB1*%
X47625000Y-107315000D03*
%TO.P,J1,31*%
%TO.N,GND*%
X47625000Y-104775000D03*
%TO.P,J1,30*%
%TO.N,+5V*%
X47625000Y-102235000D03*
%TO.P,J1,29*%
%TO.N,/KEY*%
X47625000Y-99695000D03*
%TO.P,J1,28*%
%TO.N,/EXT_MEM*%
X47625000Y-97155000D03*
%TO.P,J1,27*%
%TO.N,/02*%
X47625000Y-94615000D03*
%TO.P,J1,26*%
%TO.N,/VMA*%
X47625000Y-92075000D03*
%TO.P,J1,25*%
%TO.N,/~RES*%
X47625000Y-89535000D03*
%TO.P,J1,24*%
%TO.N,/~HLT*%
X47625000Y-86995000D03*
%TO.P,J1,23*%
%TO.N,/R_W*%
X47625000Y-84455000D03*
%TO.P,J1,22*%
%TO.N,/A0*%
X47625000Y-81915000D03*
%TO.P,J1,21*%
%TO.N,/A1*%
X47625000Y-79375000D03*
%TO.P,J1,20*%
%TO.N,/A2*%
X47625000Y-76835000D03*
%TO.P,J1,19*%
%TO.N,/A3*%
X47625000Y-74295000D03*
%TO.P,J1,18*%
%TO.N,/A4*%
X47625000Y-71755000D03*
%TO.P,J1,17*%
%TO.N,/A5*%
X47625000Y-69215000D03*
%TO.P,J1,16*%
%TO.N,/A6*%
X47625000Y-66675000D03*
%TO.P,J1,15*%
%TO.N,/A7*%
X47625000Y-64135000D03*
%TO.P,J1,14*%
%TO.N,/A8*%
X47625000Y-61595000D03*
%TO.P,J1,13*%
%TO.N,/A9*%
X47625000Y-59055000D03*
%TO.P,J1,12*%
%TO.N,/A10*%
X47625000Y-56515000D03*
%TO.P,J1,11*%
%TO.N,/A11*%
X47625000Y-53975000D03*
%TO.P,J1,10*%
%TO.N,/A12*%
X47625000Y-51435000D03*
%TO.P,J1,9*%
%TO.N,/A13*%
X47625000Y-48895000D03*
%TO.P,J1,8*%
%TO.N,/D0*%
X47625000Y-46355000D03*
%TO.P,J1,7*%
%TO.N,/D1*%
X47625000Y-43815000D03*
%TO.P,J1,6*%
%TO.N,/D2*%
X47625000Y-41275000D03*
%TO.P,J1,5*%
%TO.N,/D3*%
X47625000Y-38735000D03*
%TO.P,J1,4*%
%TO.N,/D4*%
X47625000Y-36195000D03*
%TO.P,J1,3*%
%TO.N,/D5*%
X47625000Y-33655000D03*
%TO.P,J1,2*%
%TO.N,/D6*%
X47625000Y-31115000D03*
D10*
%TO.P,J1,1*%
%TO.N,/D7*%
X47625000Y-28575000D03*
%TD*%
D13*
%TO.P,ArduinoNanoV3,16*%
%TO.N,/MPU_CTRL*%
X23495000Y-33020000D03*
%TO.P,ArduinoNanoV3,15*%
%TO.N,/D7*%
X38735000Y-33020000D03*
%TO.P,ArduinoNanoV3,30*%
%TO.N,Net-(ArduinoNanoV3-Pad30)*%
X23495000Y-68580000D03*
%TO.P,ArduinoNanoV3,14*%
%TO.N,/D6*%
X38735000Y-35560000D03*
%TO.P,ArduinoNanoV3,29*%
%TO.N,GND*%
X23495000Y-66040000D03*
%TO.P,ArduinoNanoV3,13*%
%TO.N,/D5*%
X38735000Y-38100000D03*
%TO.P,ArduinoNanoV3,28*%
%TO.N,Net-(ArduinoNanoV3-Pad28)*%
X23495000Y-63500000D03*
%TO.P,ArduinoNanoV3,12*%
%TO.N,/D4*%
X38735000Y-40640000D03*
%TO.P,ArduinoNanoV3,27*%
%TO.N,+5V*%
X23495000Y-60960000D03*
%TO.P,ArduinoNanoV3,11*%
%TO.N,/D3*%
X38735000Y-43180000D03*
%TO.P,ArduinoNanoV3,26*%
%TO.N,Net-(ArduinoNanoV3-Pad26)*%
X23495000Y-58420000D03*
%TO.P,ArduinoNanoV3,10*%
%TO.N,/D2*%
X38735000Y-45720000D03*
%TO.P,ArduinoNanoV3,25*%
%TO.N,Net-(ArduinoNanoV3-Pad25)*%
X23495000Y-55880000D03*
%TO.P,ArduinoNanoV3,9*%
%TO.N,/D1*%
X38735000Y-48260000D03*
%TO.P,ArduinoNanoV3,24*%
%TO.N,/VMA*%
X23495000Y-53340000D03*
%TO.P,ArduinoNanoV3,8*%
%TO.N,/D0*%
X38735000Y-50800000D03*
%TO.P,ArduinoNanoV3,23*%
%TO.N,/A7*%
X23495000Y-50800000D03*
%TO.P,ArduinoNanoV3,7*%
%TO.N,/02*%
X38735000Y-53340000D03*
%TO.P,ArduinoNanoV3,22*%
%TO.N,/A4*%
X23495000Y-48260000D03*
%TO.P,ArduinoNanoV3,6*%
%TO.N,/R_W*%
X38735000Y-55880000D03*
%TO.P,ArduinoNanoV3,21*%
%TO.N,/A3*%
X23495000Y-45720000D03*
%TO.P,ArduinoNanoV3,5*%
%TO.N,/INTR*%
X38735000Y-58420000D03*
%TO.P,ArduinoNanoV3,20*%
%TO.N,/A1*%
X23495000Y-43180000D03*
%TO.P,ArduinoNanoV3,4*%
%TO.N,GND*%
X38735000Y-60960000D03*
%TO.P,ArduinoNanoV3,19*%
%TO.N,/A0*%
X23495000Y-40640000D03*
%TO.P,ArduinoNanoV3,3*%
%TO.N,Net-(ArduinoNanoV3-Pad3)*%
X38735000Y-63500000D03*
%TO.P,ArduinoNanoV3,18*%
%TO.N,Net-(ArduinoNanoV3-Pad18)*%
X23495000Y-38100000D03*
%TO.P,ArduinoNanoV3,2*%
%TO.N,Net-(ArduinoNanoV3-Pad2)*%
X38735000Y-66040000D03*
%TO.P,ArduinoNanoV3,17*%
%TO.N,Net-(ArduinoNanoV3-Pad17)*%
X23495000Y-35560000D03*
D14*
%TO.P,ArduinoNanoV3,1*%
%TO.N,/WAVE_TX*%
X38735000Y-68580000D03*
%TD*%
D17*
%TO.N,GND*%
X30861000Y-109220000D03*
X32639000Y-105791000D03*
%TO.N,/MPU_CTRL*%
X27051000Y-79375000D03*
%TO.N,GND*%
X36957000Y-57150000D03*
X25019000Y-72263000D03*
X35179000Y-81407000D03*
X36957000Y-54610000D03*
X23241000Y-27559000D03*
X40259000Y-112395000D03*
X24130000Y-107315000D03*
X45847000Y-104775000D03*
X41211500Y-27305000D03*
X26543000Y-83185000D03*
X26035000Y-80899000D03*
X36957000Y-60833000D03*
X36957000Y-67183000D03*
X38608000Y-90551000D03*
X38608000Y-84963000D03*
X42037000Y-103759000D03*
X42037000Y-106045000D03*
X42037000Y-108585000D03*
X45847000Y-106045000D03*
X45847000Y-103632000D03*
X30861000Y-107442000D03*
X30861000Y-105791000D03*
X32639000Y-103886000D03*
X34417000Y-103886000D03*
X36195000Y-103886000D03*
X34417000Y-105791000D03*
X32639000Y-107442000D03*
X25654000Y-107315000D03*
X24130000Y-108966000D03*
X25654000Y-108966000D03*
%TO.N,/VMA*%
X42354510Y-85725000D03*
%TO.N,/A4*%
X32258008Y-48260000D03*
X32385000Y-71628000D03*
%TO.N,/A3*%
X33528000Y-45720000D03*
X33591490Y-72897996D03*
%TO.N,/A1*%
X34798000Y-74168000D03*
X33528000Y-43180000D03*
%TO.N,/A0*%
X33527996Y-40640000D03*
X36575996Y-74168000D03*
%TO.N,/02*%
X40513000Y-57658000D03*
%TO.N,/~HLT*%
X36195000Y-86995000D03*
X38608000Y-86995004D03*
%TO.N,/A5*%
X29972000Y-79248012D03*
X31115000Y-70231000D03*
%TO.N,/A9*%
X31242000Y-59690000D03*
%TO.N,/A12*%
X31115000Y-51943010D03*
%TD*%
D18*
%TO.N,/MPU_CTRL*%
X24130000Y-79375000D02*
X27051000Y-79375000D01*
%TO.N,/D7*%
X43815000Y-28575000D02*
X47625000Y-28575000D01*
X43180000Y-28575000D02*
X43815000Y-28575000D01*
X38735000Y-33020000D02*
X43180000Y-28575000D01*
%TO.N,/D6*%
X43815000Y-31115000D02*
X47625000Y-31115000D01*
X43180000Y-31115000D02*
X43815000Y-31115000D01*
X38735000Y-35560000D02*
X43180000Y-31115000D01*
D19*
%TO.N,GND*%
X43815000Y-104775000D02*
X45847000Y-104775000D01*
X45847000Y-104775000D02*
X47625000Y-104775000D01*
D18*
%TO.N,/D5*%
X43815000Y-33655000D02*
X47625000Y-33655000D01*
X43180000Y-33655000D02*
X43815000Y-33655000D01*
X38735000Y-38100000D02*
X43180000Y-33655000D01*
%TO.N,/D4*%
X43815000Y-36195000D02*
X47625000Y-36195000D01*
X43180000Y-36195000D02*
X43815000Y-36195000D01*
X38735000Y-40640000D02*
X43180000Y-36195000D01*
D19*
%TO.N,+5V*%
X43815000Y-102235000D02*
X47625000Y-102235000D01*
X29210000Y-104775000D02*
X29210000Y-112395000D01*
X31750000Y-102235000D02*
X29210000Y-104775000D01*
X37465000Y-102235000D02*
X31750000Y-102235000D01*
X29083000Y-67058178D02*
X23495000Y-61470178D01*
X23495000Y-61470178D02*
X23495000Y-60960000D01*
X43815000Y-102235000D02*
X37846000Y-102235000D01*
X37846000Y-102235000D02*
X37465000Y-102235000D01*
X28711000Y-68072000D02*
X29083000Y-68072000D01*
X29083000Y-68072000D02*
X29083000Y-67058178D01*
X28711000Y-72263000D02*
X28956000Y-72263000D01*
X28956000Y-72263000D02*
X29083000Y-72136000D01*
X29083000Y-72136000D02*
X29083000Y-68072000D01*
X31750000Y-76835000D02*
X35179000Y-76835000D01*
X37973000Y-102108000D02*
X37846000Y-102235000D01*
X37973000Y-96139000D02*
X37973000Y-102108000D01*
X31750000Y-76835000D02*
X31750000Y-74930000D01*
X29083000Y-72263000D02*
X29083000Y-72136000D01*
X31750000Y-74930000D02*
X29083000Y-72263000D01*
X37338000Y-95504000D02*
X37973000Y-96139000D01*
X36530822Y-76835000D02*
X39878000Y-80182178D01*
X35179000Y-76835000D02*
X36530822Y-76835000D01*
X39878000Y-80182178D02*
X39878000Y-81788000D01*
X37338000Y-84328000D02*
X37338000Y-95504000D01*
X39878000Y-81788000D02*
X37338000Y-84328000D01*
D18*
%TO.N,/D3*%
X43815000Y-38735000D02*
X47625000Y-38735000D01*
X43180000Y-38735000D02*
X43815000Y-38735000D01*
X38735000Y-43180000D02*
X43180000Y-38735000D01*
%TO.N,/D2*%
X43815000Y-41275000D02*
X47625000Y-41275000D01*
X43180000Y-41275000D02*
X43815000Y-41275000D01*
X38735000Y-45720000D02*
X43180000Y-41275000D01*
%TO.N,/D1*%
X43815000Y-43815000D02*
X47625000Y-43815000D01*
X43180000Y-43815000D02*
X43815000Y-43815000D01*
X38735000Y-48260000D02*
X43180000Y-43815000D01*
%TO.N,/VMA*%
X43815000Y-92075000D02*
X47625000Y-92075000D01*
X23495000Y-53340000D02*
X24892000Y-54737000D01*
X24892000Y-61595000D02*
X29972000Y-66675000D01*
X34163000Y-75311000D02*
X36322000Y-75311000D01*
X42354510Y-81343510D02*
X42354510Y-85725000D01*
X29972000Y-71120000D02*
X34163000Y-75311000D01*
X24892000Y-54737000D02*
X24892000Y-61595000D01*
X29972000Y-66675000D02*
X29972000Y-71120000D01*
X36322000Y-75311000D02*
X42354510Y-81343510D01*
%TO.N,/D0*%
X43815000Y-46355000D02*
X47625000Y-46355000D01*
X43180000Y-46355000D02*
X43815000Y-46355000D01*
X38735000Y-50800000D02*
X43180000Y-46355000D01*
%TO.N,/A7*%
X43815000Y-64135000D02*
X47625000Y-64135000D01*
X23622000Y-50800000D02*
X23495000Y-50800000D01*
X41910000Y-62230000D02*
X27559000Y-62230000D01*
X43815000Y-64135000D02*
X41910000Y-62230000D01*
X25527000Y-52705000D02*
X23622000Y-50800000D01*
X27559000Y-62230000D02*
X25527000Y-60198000D01*
X25527000Y-60198000D02*
X25527000Y-52705000D01*
%TO.N,/A4*%
X43815000Y-71755000D02*
X47625000Y-71755000D01*
X30861000Y-48260000D02*
X32258008Y-48260000D01*
X23495000Y-48260000D02*
X30861000Y-48260000D01*
X32385000Y-71247000D02*
X32385000Y-71628000D01*
X43815000Y-71755000D02*
X43307000Y-71247000D01*
X43307000Y-71247000D02*
X32385000Y-71247000D01*
%TO.N,/R_W*%
X43815000Y-84455000D02*
X47625000Y-84455000D01*
%TO.N,/A3*%
X43815000Y-74295000D02*
X47625000Y-74295000D01*
X23495000Y-45720000D02*
X33528000Y-45720000D01*
X34353486Y-72136000D02*
X33591490Y-72897996D01*
X43815000Y-74295000D02*
X41656000Y-72136000D01*
X41656000Y-72136000D02*
X34353486Y-72136000D01*
%TO.N,/INTR*%
X43815000Y-112395000D02*
X47625000Y-112395000D01*
%TO.N,/A1*%
X43815000Y-79375000D02*
X47625000Y-79375000D01*
X23495000Y-43180000D02*
X33528000Y-43180000D01*
X37592000Y-73025000D02*
X35941000Y-73025000D01*
X35941000Y-73025000D02*
X34798000Y-74168000D01*
X43815000Y-79375000D02*
X43815000Y-79248000D01*
X43815000Y-79248000D02*
X37592000Y-73025000D01*
%TO.N,/A0*%
X43815000Y-81915000D02*
X47625000Y-81915000D01*
X24626370Y-40640000D02*
X33527996Y-40640000D01*
X23495000Y-40640000D02*
X24626370Y-40640000D01*
X42291000Y-79502000D02*
X36957000Y-74168000D01*
X42291000Y-80264000D02*
X42291000Y-79502000D01*
X43815000Y-81915000D02*
X43815000Y-81788000D01*
X36957000Y-74168000D02*
X36575996Y-74168000D01*
X43815000Y-81788000D02*
X42291000Y-80264000D01*
%TO.N,/A14*%
X43815000Y-109855000D02*
X47625000Y-109855000D01*
%TO.N,/CB1*%
X43815000Y-107315000D02*
X47625000Y-107315000D01*
%TO.N,/KEY*%
X43815000Y-99695000D02*
X47625000Y-99695000D01*
%TO.N,/EXT_MEM*%
X43815000Y-97155000D02*
X47625000Y-97155000D01*
%TO.N,/02*%
X43815000Y-94615000D02*
X47625000Y-94615000D01*
X40513000Y-55118000D02*
X40513000Y-57658000D01*
X38735000Y-53340000D02*
X40513000Y-55118000D01*
%TO.N,/~RES*%
X43815000Y-89535000D02*
X47625000Y-89535000D01*
%TO.N,/~HLT*%
X43815000Y-86995000D02*
X47625000Y-86995000D01*
X33655000Y-84455000D02*
X36195000Y-86995000D01*
X31750000Y-84455000D02*
X33655000Y-84455000D01*
X43815000Y-86995000D02*
X38608004Y-86995000D01*
X38608004Y-86995000D02*
X38608000Y-86995004D01*
%TO.N,/A2*%
X43815000Y-76835000D02*
X47625000Y-76835000D01*
%TO.N,/A5*%
X43815000Y-69215000D02*
X47625000Y-69215000D01*
X24130000Y-81915000D02*
X27305012Y-81915000D01*
X27305012Y-81915000D02*
X29972000Y-79248012D01*
X42799000Y-70231000D02*
X31115000Y-70231000D01*
X43815000Y-69215000D02*
X42799000Y-70231000D01*
%TO.N,/A6*%
X43815000Y-66675000D02*
X47625000Y-66675000D01*
%TO.N,/A8*%
X43815000Y-61595000D02*
X47625000Y-61595000D01*
%TO.N,/A9*%
X43815000Y-59055000D02*
X47625000Y-59055000D01*
X39847882Y-59055000D02*
X39212882Y-59690000D01*
X39212882Y-59690000D02*
X31242000Y-59690000D01*
X43815000Y-59055000D02*
X39847882Y-59055000D01*
%TO.N,/A10*%
X43815000Y-56515000D02*
X47625000Y-56515000D01*
%TO.N,/A11*%
X43815000Y-53975000D02*
X47625000Y-53975000D01*
%TO.N,/A12*%
X43815000Y-51435000D02*
X47625000Y-51435000D01*
X43815000Y-51435000D02*
X43179998Y-52070002D01*
X31241992Y-52070002D02*
X31115000Y-51943010D01*
X43179998Y-52070002D02*
X31241992Y-52070002D01*
%TO.N,/A13*%
X43815000Y-48895000D02*
X47625000Y-48895000D01*
%TO.N,/MPU_SEL*%
X29210000Y-76835000D02*
X31750000Y-79375000D01*
X24130000Y-76835000D02*
X29210000Y-76835000D01*
X30226000Y-85471000D02*
X31750000Y-86995000D01*
X31750000Y-79375000D02*
X30226000Y-80899000D01*
X24130000Y-84455000D02*
X30226000Y-84455000D01*
X30226000Y-80899000D02*
X30226000Y-84455000D01*
X30226000Y-84455000D02*
X30226000Y-85471000D01*
X37680999Y-80606999D02*
X37973000Y-80899000D01*
X37973000Y-79883000D02*
X37973000Y-80899000D01*
X36195000Y-78105000D02*
X37973000Y-79883000D01*
X31750000Y-79375000D02*
X33020000Y-78105000D01*
X33020000Y-78105000D02*
X36195000Y-78105000D01*
X33274000Y-88519000D02*
X31750000Y-86995000D01*
X33274000Y-92710000D02*
X33274000Y-88519000D01*
X24130000Y-100330000D02*
X25654000Y-100330000D01*
X25654000Y-100330000D02*
X33274000Y-92710000D01*
%TD*%
%TO.N,GND*%
G36*
X49012869Y-26709722D02*
G01*
X49126246Y-26743953D01*
X49230819Y-26799555D01*
X49322596Y-26874407D01*
X49398091Y-26965664D01*
X49454419Y-27069844D01*
X49489440Y-27182976D01*
X49505000Y-27331022D01*
X49505001Y-113632711D01*
X49490278Y-113782869D01*
X49456047Y-113896246D01*
X49400446Y-114000817D01*
X49325594Y-114092595D01*
X49234335Y-114168091D01*
X49130160Y-114224419D01*
X49017024Y-114259440D01*
X48868979Y-114275000D01*
X22892279Y-114275000D01*
X22742131Y-114260278D01*
X22628754Y-114226047D01*
X22524183Y-114170446D01*
X22432405Y-114095594D01*
X22356909Y-114004335D01*
X22300581Y-113900160D01*
X22265560Y-113787024D01*
X22250000Y-113638979D01*
X22250000Y-113245000D01*
X22641928Y-113245000D01*
X22654188Y-113369482D01*
X22690498Y-113489180D01*
X22749463Y-113599494D01*
X22828815Y-113696185D01*
X22925506Y-113775537D01*
X23035820Y-113834502D01*
X23155518Y-113870812D01*
X23280000Y-113883072D01*
X23844250Y-113880000D01*
X24003000Y-113721250D01*
X24003000Y-112522000D01*
X22803750Y-112522000D01*
X22645000Y-112680750D01*
X22641928Y-113245000D01*
X22250000Y-113245000D01*
X22250000Y-111545000D01*
X22641928Y-111545000D01*
X22645000Y-112109250D01*
X22803750Y-112268000D01*
X24003000Y-112268000D01*
X24003000Y-111068750D01*
X23844250Y-110910000D01*
X23280000Y-110906928D01*
X23155518Y-110919188D01*
X23035820Y-110955498D01*
X22925506Y-111014463D01*
X22828815Y-111093815D01*
X22749463Y-111190506D01*
X22690498Y-111300820D01*
X22654188Y-111420518D01*
X22641928Y-111545000D01*
X22250000Y-111545000D01*
X22250000Y-103226890D01*
X22688524Y-103226890D01*
X22733175Y-103374099D01*
X22858359Y-103636920D01*
X23032412Y-103870269D01*
X23248645Y-104065178D01*
X23498748Y-104214157D01*
X23773109Y-104311481D01*
X24003000Y-104190814D01*
X24003000Y-102997000D01*
X24257000Y-102997000D01*
X24257000Y-104190814D01*
X24486891Y-104311481D01*
X24761252Y-104214157D01*
X25011355Y-104065178D01*
X25227588Y-103870269D01*
X25401641Y-103636920D01*
X25526825Y-103374099D01*
X25571476Y-103226890D01*
X25450155Y-102997000D01*
X24257000Y-102997000D01*
X24003000Y-102997000D01*
X22809845Y-102997000D01*
X22688524Y-103226890D01*
X22250000Y-103226890D01*
X22250000Y-92424039D01*
X22738096Y-92424039D01*
X22778754Y-92558087D01*
X22898963Y-92812420D01*
X23066481Y-93038414D01*
X23274869Y-93227385D01*
X23516119Y-93372070D01*
X23780960Y-93466909D01*
X24003000Y-93345624D01*
X24003000Y-92202000D01*
X24257000Y-92202000D01*
X24257000Y-93345624D01*
X24479040Y-93466909D01*
X24743881Y-93372070D01*
X24985131Y-93227385D01*
X25193519Y-93038414D01*
X25361037Y-92812420D01*
X25481246Y-92558087D01*
X25521904Y-92424039D01*
X25399915Y-92202000D01*
X24257000Y-92202000D01*
X24003000Y-92202000D01*
X22860085Y-92202000D01*
X22738096Y-92424039D01*
X22250000Y-92424039D01*
X22250000Y-89393665D01*
X22695000Y-89393665D01*
X22695000Y-89676335D01*
X22750147Y-89953574D01*
X22858320Y-90214727D01*
X23015363Y-90449759D01*
X23215241Y-90649637D01*
X23450273Y-90806680D01*
X23460865Y-90811067D01*
X23274869Y-90922615D01*
X23066481Y-91111586D01*
X22898963Y-91337580D01*
X22778754Y-91591913D01*
X22738096Y-91725961D01*
X22860085Y-91948000D01*
X24003000Y-91948000D01*
X24003000Y-91928000D01*
X24257000Y-91928000D01*
X24257000Y-91948000D01*
X25399915Y-91948000D01*
X25521904Y-91725961D01*
X25481246Y-91591913D01*
X25361037Y-91337580D01*
X25193519Y-91111586D01*
X24985131Y-90922615D01*
X24799135Y-90811067D01*
X24809727Y-90806680D01*
X25044759Y-90649637D01*
X25244637Y-90449759D01*
X25401680Y-90214727D01*
X25509853Y-89953574D01*
X25565000Y-89676335D01*
X25565000Y-89393665D01*
X25509853Y-89116426D01*
X25401680Y-88855273D01*
X25244637Y-88620241D01*
X25044759Y-88420363D01*
X24809727Y-88263320D01*
X24799135Y-88258933D01*
X24985131Y-88147385D01*
X25193519Y-87958414D01*
X25361037Y-87732420D01*
X25481246Y-87478087D01*
X25521904Y-87344039D01*
X25399915Y-87122000D01*
X24257000Y-87122000D01*
X24257000Y-87142000D01*
X24003000Y-87142000D01*
X24003000Y-87122000D01*
X22860085Y-87122000D01*
X22738096Y-87344039D01*
X22778754Y-87478087D01*
X22898963Y-87732420D01*
X23066481Y-87958414D01*
X23274869Y-88147385D01*
X23460865Y-88258933D01*
X23450273Y-88263320D01*
X23215241Y-88420363D01*
X23015363Y-88620241D01*
X22858320Y-88855273D01*
X22750147Y-89116426D01*
X22695000Y-89393665D01*
X22250000Y-89393665D01*
X22250000Y-72963000D01*
X25447928Y-72963000D01*
X25460188Y-73087482D01*
X25496498Y-73207180D01*
X25555463Y-73317494D01*
X25634815Y-73414185D01*
X25731506Y-73493537D01*
X25841820Y-73552502D01*
X25961518Y-73588812D01*
X26086000Y-73601072D01*
X26375250Y-73598000D01*
X26534000Y-73439250D01*
X26534000Y-72390000D01*
X25609750Y-72390000D01*
X25451000Y-72548750D01*
X25447928Y-72963000D01*
X22250000Y-72963000D01*
X22250000Y-71563000D01*
X25447928Y-71563000D01*
X25451000Y-71977250D01*
X25609750Y-72136000D01*
X26534000Y-72136000D01*
X26534000Y-71086750D01*
X26375250Y-70928000D01*
X26086000Y-70924928D01*
X25961518Y-70937188D01*
X25841820Y-70973498D01*
X25731506Y-71032463D01*
X25634815Y-71111815D01*
X25555463Y-71208506D01*
X25496498Y-71318820D01*
X25460188Y-71438518D01*
X25447928Y-71563000D01*
X22250000Y-71563000D01*
X22250000Y-69299657D01*
X22380363Y-69494759D01*
X22580241Y-69694637D01*
X22815273Y-69851680D01*
X23076426Y-69959853D01*
X23353665Y-70015000D01*
X23636335Y-70015000D01*
X23913574Y-69959853D01*
X24174727Y-69851680D01*
X24409759Y-69694637D01*
X24609637Y-69494759D01*
X24766680Y-69259727D01*
X24874853Y-68998574D01*
X24919921Y-68772000D01*
X25447928Y-68772000D01*
X25460188Y-68896482D01*
X25496498Y-69016180D01*
X25555463Y-69126494D01*
X25634815Y-69223185D01*
X25731506Y-69302537D01*
X25841820Y-69361502D01*
X25961518Y-69397812D01*
X26086000Y-69410072D01*
X26375250Y-69407000D01*
X26534000Y-69248250D01*
X26534000Y-68199000D01*
X25609750Y-68199000D01*
X25451000Y-68357750D01*
X25447928Y-68772000D01*
X24919921Y-68772000D01*
X24930000Y-68721335D01*
X24930000Y-68438665D01*
X24874853Y-68161426D01*
X24766680Y-67900273D01*
X24609637Y-67665241D01*
X24409759Y-67465363D01*
X24270032Y-67372000D01*
X25447928Y-67372000D01*
X25451000Y-67786250D01*
X25609750Y-67945000D01*
X26534000Y-67945000D01*
X26534000Y-66895750D01*
X26375250Y-66737000D01*
X26086000Y-66733928D01*
X25961518Y-66746188D01*
X25841820Y-66782498D01*
X25731506Y-66841463D01*
X25634815Y-66920815D01*
X25555463Y-67017506D01*
X25496498Y-67127820D01*
X25460188Y-67247518D01*
X25447928Y-67372000D01*
X24270032Y-67372000D01*
X24174727Y-67308320D01*
X24164135Y-67303933D01*
X24350131Y-67192385D01*
X24558519Y-67003414D01*
X24726037Y-66777420D01*
X24846246Y-66523087D01*
X24886904Y-66389039D01*
X24764915Y-66167000D01*
X23622000Y-66167000D01*
X23622000Y-66187000D01*
X23368000Y-66187000D01*
X23368000Y-66167000D01*
X23348000Y-66167000D01*
X23348000Y-65913000D01*
X23368000Y-65913000D01*
X23368000Y-65893000D01*
X23622000Y-65893000D01*
X23622000Y-65913000D01*
X24764915Y-65913000D01*
X24886904Y-65690961D01*
X24846246Y-65556913D01*
X24726037Y-65302580D01*
X24558519Y-65076586D01*
X24350131Y-64887615D01*
X24164135Y-64776067D01*
X24174727Y-64771680D01*
X24409759Y-64614637D01*
X24609637Y-64414759D01*
X24766680Y-64179727D01*
X24793284Y-64115500D01*
X27451618Y-66773834D01*
X27360482Y-66746188D01*
X27236000Y-66733928D01*
X26946750Y-66737000D01*
X26788000Y-66895750D01*
X26788000Y-67945000D01*
X26808000Y-67945000D01*
X26808000Y-68199000D01*
X26788000Y-68199000D01*
X26788000Y-69248250D01*
X26946750Y-69407000D01*
X27236000Y-69410072D01*
X27360482Y-69397812D01*
X27480180Y-69361502D01*
X27590494Y-69302537D01*
X27687185Y-69223185D01*
X27752658Y-69143406D01*
X27758038Y-69149962D01*
X27892613Y-69260405D01*
X28046149Y-69342472D01*
X28130501Y-69368060D01*
X28130500Y-70966940D01*
X28046149Y-70992528D01*
X27892613Y-71074595D01*
X27758038Y-71185038D01*
X27752658Y-71191594D01*
X27687185Y-71111815D01*
X27590494Y-71032463D01*
X27480180Y-70973498D01*
X27360482Y-70937188D01*
X27236000Y-70924928D01*
X26946750Y-70928000D01*
X26788000Y-71086750D01*
X26788000Y-72136000D01*
X26808000Y-72136000D01*
X26808000Y-72390000D01*
X26788000Y-72390000D01*
X26788000Y-73439250D01*
X26946750Y-73598000D01*
X27236000Y-73601072D01*
X27360482Y-73588812D01*
X27480180Y-73552502D01*
X27590494Y-73493537D01*
X27687185Y-73414185D01*
X27752658Y-73334406D01*
X27758038Y-73340962D01*
X27892613Y-73451405D01*
X28046149Y-73533472D01*
X28212745Y-73584008D01*
X28385999Y-73601072D01*
X29036001Y-73601072D01*
X29070624Y-73597662D01*
X30797501Y-75324539D01*
X30797501Y-75758103D01*
X30635363Y-75920241D01*
X30478320Y-76155273D01*
X30370147Y-76416426D01*
X30315000Y-76693665D01*
X30315000Y-76862370D01*
X29775284Y-76322654D01*
X29751422Y-76293578D01*
X29635392Y-76198355D01*
X29503015Y-76127598D01*
X29359378Y-76084026D01*
X29247426Y-76073000D01*
X29247423Y-76073000D01*
X29210000Y-76069314D01*
X29172577Y-76073000D01*
X25568072Y-76073000D01*
X25568072Y-76035000D01*
X25555812Y-75910518D01*
X25519502Y-75790820D01*
X25460537Y-75680506D01*
X25381185Y-75583815D01*
X25284494Y-75504463D01*
X25174180Y-75445498D01*
X25054482Y-75409188D01*
X24930000Y-75396928D01*
X23330000Y-75396928D01*
X23205518Y-75409188D01*
X23085820Y-75445498D01*
X22975506Y-75504463D01*
X22878815Y-75583815D01*
X22799463Y-75680506D01*
X22740498Y-75790820D01*
X22704188Y-75910518D01*
X22691928Y-76035000D01*
X22691928Y-77635000D01*
X22704188Y-77759482D01*
X22740498Y-77879180D01*
X22799463Y-77989494D01*
X22878815Y-78086185D01*
X22975506Y-78165537D01*
X23085820Y-78224502D01*
X23205518Y-78260812D01*
X23213961Y-78261643D01*
X23015363Y-78460241D01*
X22858320Y-78695273D01*
X22750147Y-78956426D01*
X22695000Y-79233665D01*
X22695000Y-79516335D01*
X22750147Y-79793574D01*
X22858320Y-80054727D01*
X23015363Y-80289759D01*
X23215241Y-80489637D01*
X23447759Y-80645000D01*
X23215241Y-80800363D01*
X23015363Y-81000241D01*
X22858320Y-81235273D01*
X22750147Y-81496426D01*
X22695000Y-81773665D01*
X22695000Y-82056335D01*
X22750147Y-82333574D01*
X22858320Y-82594727D01*
X23015363Y-82829759D01*
X23215241Y-83029637D01*
X23447759Y-83185000D01*
X23215241Y-83340363D01*
X23015363Y-83540241D01*
X22858320Y-83775273D01*
X22750147Y-84036426D01*
X22695000Y-84313665D01*
X22695000Y-84596335D01*
X22750147Y-84873574D01*
X22858320Y-85134727D01*
X23015363Y-85369759D01*
X23215241Y-85569637D01*
X23450273Y-85726680D01*
X23460865Y-85731067D01*
X23274869Y-85842615D01*
X23066481Y-86031586D01*
X22898963Y-86257580D01*
X22778754Y-86511913D01*
X22738096Y-86645961D01*
X22860085Y-86868000D01*
X24003000Y-86868000D01*
X24003000Y-86848000D01*
X24257000Y-86848000D01*
X24257000Y-86868000D01*
X25399915Y-86868000D01*
X25521904Y-86645961D01*
X25481246Y-86511913D01*
X25361037Y-86257580D01*
X25193519Y-86031586D01*
X24985131Y-85842615D01*
X24799135Y-85731067D01*
X24809727Y-85726680D01*
X25044759Y-85569637D01*
X25244637Y-85369759D01*
X25346707Y-85217000D01*
X29464001Y-85217000D01*
X29464001Y-85433567D01*
X29460314Y-85471000D01*
X29475027Y-85620378D01*
X29518599Y-85764015D01*
X29589355Y-85896392D01*
X29660721Y-85983351D01*
X29684579Y-86012422D01*
X29713649Y-86036279D01*
X30350843Y-86673473D01*
X30315000Y-86853665D01*
X30315000Y-87136335D01*
X30370147Y-87413574D01*
X30478320Y-87674727D01*
X30635363Y-87909759D01*
X30835241Y-88109637D01*
X31070273Y-88266680D01*
X31080865Y-88271067D01*
X30894869Y-88382615D01*
X30686481Y-88571586D01*
X30518963Y-88797580D01*
X30398754Y-89051913D01*
X30358096Y-89185961D01*
X30480085Y-89408000D01*
X31623000Y-89408000D01*
X31623000Y-89388000D01*
X31877000Y-89388000D01*
X31877000Y-89408000D01*
X31897000Y-89408000D01*
X31897000Y-89662000D01*
X31877000Y-89662000D01*
X31877000Y-89682000D01*
X31623000Y-89682000D01*
X31623000Y-89662000D01*
X30480085Y-89662000D01*
X30358096Y-89884039D01*
X30398754Y-90018087D01*
X30518963Y-90272420D01*
X30686481Y-90498414D01*
X30894869Y-90687385D01*
X31080865Y-90798933D01*
X31070273Y-90803320D01*
X30835241Y-90960363D01*
X30635363Y-91160241D01*
X30478320Y-91395273D01*
X30370147Y-91656426D01*
X30315000Y-91933665D01*
X30315000Y-92216335D01*
X30370147Y-92493574D01*
X30478320Y-92754727D01*
X30635363Y-92989759D01*
X30835241Y-93189637D01*
X31070273Y-93346680D01*
X31331426Y-93454853D01*
X31431592Y-93474777D01*
X25593020Y-99313350D01*
X25569502Y-99235820D01*
X25510537Y-99125506D01*
X25431185Y-99028815D01*
X25334494Y-98949463D01*
X25224180Y-98890498D01*
X25104482Y-98854188D01*
X24980000Y-98841928D01*
X23280000Y-98841928D01*
X23155518Y-98854188D01*
X23035820Y-98890498D01*
X22925506Y-98949463D01*
X22828815Y-99028815D01*
X22749463Y-99125506D01*
X22690498Y-99235820D01*
X22654188Y-99355518D01*
X22641928Y-99480000D01*
X22641928Y-101180000D01*
X22654188Y-101304482D01*
X22690498Y-101424180D01*
X22749463Y-101534494D01*
X22828815Y-101631185D01*
X22925506Y-101710537D01*
X23035820Y-101769502D01*
X23116466Y-101793966D01*
X23032412Y-101869731D01*
X22858359Y-102103080D01*
X22733175Y-102365901D01*
X22688524Y-102513110D01*
X22809845Y-102743000D01*
X24003000Y-102743000D01*
X24003000Y-102723000D01*
X24257000Y-102723000D01*
X24257000Y-102743000D01*
X25450155Y-102743000D01*
X25571476Y-102513110D01*
X25526825Y-102365901D01*
X25401641Y-102103080D01*
X25227588Y-101869731D01*
X25143534Y-101793966D01*
X25224180Y-101769502D01*
X25334494Y-101710537D01*
X25431185Y-101631185D01*
X25510537Y-101534494D01*
X25569502Y-101424180D01*
X25605812Y-101304482D01*
X25618072Y-101180000D01*
X25618072Y-101092147D01*
X25654000Y-101095686D01*
X25691423Y-101092000D01*
X25691426Y-101092000D01*
X25803378Y-101080974D01*
X25947015Y-101037402D01*
X26079392Y-100966645D01*
X26195422Y-100871422D01*
X26219284Y-100842346D01*
X33786353Y-93275278D01*
X33815422Y-93251422D01*
X33910645Y-93135392D01*
X33981402Y-93003015D01*
X34024974Y-92859378D01*
X34036000Y-92747426D01*
X34036000Y-92747424D01*
X34039686Y-92710001D01*
X34036000Y-92672578D01*
X34036000Y-88556422D01*
X34039686Y-88518999D01*
X34035845Y-88480000D01*
X34024974Y-88369622D01*
X33981402Y-88225985D01*
X33910645Y-88093608D01*
X33815422Y-87977578D01*
X33786352Y-87953721D01*
X33149157Y-87316527D01*
X33185000Y-87136335D01*
X33185000Y-86853665D01*
X33129853Y-86576426D01*
X33021680Y-86315273D01*
X32864637Y-86080241D01*
X32664759Y-85880363D01*
X32432241Y-85725000D01*
X32664759Y-85569637D01*
X32864637Y-85369759D01*
X32966707Y-85217000D01*
X33339370Y-85217000D01*
X34990166Y-86867796D01*
X34988500Y-86876170D01*
X34988500Y-87113830D01*
X35034865Y-87346923D01*
X35125813Y-87566492D01*
X35257850Y-87764099D01*
X35425901Y-87932150D01*
X35623508Y-88064187D01*
X35843077Y-88155135D01*
X36076170Y-88201500D01*
X36313830Y-88201500D01*
X36385500Y-88187244D01*
X36385501Y-95211947D01*
X36346844Y-95269801D01*
X36208518Y-95603750D01*
X36138000Y-95958268D01*
X36138000Y-96319732D01*
X36208518Y-96674250D01*
X36346844Y-97008199D01*
X36547662Y-97308744D01*
X36803256Y-97564338D01*
X37020500Y-97709496D01*
X37020501Y-101282500D01*
X31796784Y-101282500D01*
X31749999Y-101277892D01*
X31563277Y-101296283D01*
X31383731Y-101350748D01*
X31218259Y-101439194D01*
X31073222Y-101558222D01*
X31043393Y-101594569D01*
X28569569Y-104068393D01*
X28533222Y-104098222D01*
X28414194Y-104243259D01*
X28325748Y-104408732D01*
X28271283Y-104588277D01*
X28271283Y-104588278D01*
X28252892Y-104775000D01*
X28257500Y-104821785D01*
X28257501Y-111247392D01*
X28056525Y-111448368D01*
X27940000Y-111622760D01*
X27823475Y-111448368D01*
X27616632Y-111241525D01*
X27373411Y-111079010D01*
X27103158Y-110967068D01*
X26816260Y-110910000D01*
X26523740Y-110910000D01*
X26236842Y-110967068D01*
X25966589Y-111079010D01*
X25723368Y-111241525D01*
X25591513Y-111373380D01*
X25569502Y-111300820D01*
X25510537Y-111190506D01*
X25431185Y-111093815D01*
X25334494Y-111014463D01*
X25224180Y-110955498D01*
X25104482Y-110919188D01*
X24980000Y-110906928D01*
X24415750Y-110910000D01*
X24257000Y-111068750D01*
X24257000Y-112268000D01*
X24277000Y-112268000D01*
X24277000Y-112522000D01*
X24257000Y-112522000D01*
X24257000Y-113721250D01*
X24415750Y-113880000D01*
X24980000Y-113883072D01*
X25104482Y-113870812D01*
X25224180Y-113834502D01*
X25334494Y-113775537D01*
X25431185Y-113696185D01*
X25510537Y-113599494D01*
X25569502Y-113489180D01*
X25591513Y-113416620D01*
X25723368Y-113548475D01*
X25966589Y-113710990D01*
X26236842Y-113822932D01*
X26523740Y-113880000D01*
X26816260Y-113880000D01*
X27103158Y-113822932D01*
X27373411Y-113710990D01*
X27616632Y-113548475D01*
X27823475Y-113341632D01*
X27940000Y-113167240D01*
X28056525Y-113341632D01*
X28263368Y-113548475D01*
X28506589Y-113710990D01*
X28776842Y-113822932D01*
X29063740Y-113880000D01*
X29356260Y-113880000D01*
X29643158Y-113822932D01*
X29913411Y-113710990D01*
X30156632Y-113548475D01*
X30363475Y-113341632D01*
X30480000Y-113167240D01*
X30596525Y-113341632D01*
X30803368Y-113548475D01*
X31046589Y-113710990D01*
X31316842Y-113822932D01*
X31603740Y-113880000D01*
X31896260Y-113880000D01*
X32183158Y-113822932D01*
X32453411Y-113710990D01*
X32696632Y-113548475D01*
X32903475Y-113341632D01*
X33020000Y-113167240D01*
X33136525Y-113341632D01*
X33343368Y-113548475D01*
X33586589Y-113710990D01*
X33856842Y-113822932D01*
X34143740Y-113880000D01*
X34436260Y-113880000D01*
X34723158Y-113822932D01*
X34993411Y-113710990D01*
X35236632Y-113548475D01*
X35443475Y-113341632D01*
X35560000Y-113167240D01*
X35676525Y-113341632D01*
X35883368Y-113548475D01*
X36126589Y-113710990D01*
X36396842Y-113822932D01*
X36683740Y-113880000D01*
X36976260Y-113880000D01*
X37263158Y-113822932D01*
X37533411Y-113710990D01*
X37776632Y-113548475D01*
X37983475Y-113341632D01*
X38145990Y-113098411D01*
X38257932Y-112828158D01*
X38315000Y-112541260D01*
X38315000Y-112248740D01*
X38257932Y-111961842D01*
X38145990Y-111691589D01*
X37983475Y-111448368D01*
X37776632Y-111241525D01*
X37533411Y-111079010D01*
X37263158Y-110967068D01*
X36976260Y-110910000D01*
X36683740Y-110910000D01*
X36396842Y-110967068D01*
X36126589Y-111079010D01*
X35883368Y-111241525D01*
X35676525Y-111448368D01*
X35560000Y-111622760D01*
X35443475Y-111448368D01*
X35236632Y-111241525D01*
X34993411Y-111079010D01*
X34723158Y-110967068D01*
X34436260Y-110910000D01*
X34143740Y-110910000D01*
X33856842Y-110967068D01*
X33586589Y-111079010D01*
X33343368Y-111241525D01*
X33136525Y-111448368D01*
X33020000Y-111622760D01*
X32903475Y-111448368D01*
X32696632Y-111241525D01*
X32453411Y-111079010D01*
X32183158Y-110967068D01*
X31896260Y-110910000D01*
X31603740Y-110910000D01*
X31316842Y-110967068D01*
X31046589Y-111079010D01*
X30803368Y-111241525D01*
X30596525Y-111448368D01*
X30480000Y-111622760D01*
X30363475Y-111448368D01*
X30162500Y-111247393D01*
X30162500Y-106338000D01*
X36103928Y-106338000D01*
X36103928Y-108038000D01*
X36116188Y-108162482D01*
X36152498Y-108282180D01*
X36211463Y-108392494D01*
X36290815Y-108489185D01*
X36387506Y-108568537D01*
X36497820Y-108627502D01*
X36617518Y-108663812D01*
X36742000Y-108676072D01*
X38442000Y-108676072D01*
X38566482Y-108663812D01*
X38686180Y-108627502D01*
X38796494Y-108568537D01*
X38893185Y-108489185D01*
X38972537Y-108392494D01*
X39031502Y-108282180D01*
X39067812Y-108162482D01*
X39080072Y-108038000D01*
X39080072Y-107168740D01*
X42330000Y-107168740D01*
X42330000Y-107461260D01*
X42387068Y-107748158D01*
X42499010Y-108018411D01*
X42661525Y-108261632D01*
X42868368Y-108468475D01*
X43042760Y-108585000D01*
X42868368Y-108701525D01*
X42661525Y-108908368D01*
X42499010Y-109151589D01*
X42387068Y-109421842D01*
X42330000Y-109708740D01*
X42330000Y-110001260D01*
X42387068Y-110288158D01*
X42499010Y-110558411D01*
X42661525Y-110801632D01*
X42868368Y-111008475D01*
X43042760Y-111125000D01*
X42868368Y-111241525D01*
X42661525Y-111448368D01*
X42499010Y-111691589D01*
X42387068Y-111961842D01*
X42330000Y-112248740D01*
X42330000Y-112541260D01*
X42387068Y-112828158D01*
X42499010Y-113098411D01*
X42661525Y-113341632D01*
X42868368Y-113548475D01*
X43111589Y-113710990D01*
X43381842Y-113822932D01*
X43668740Y-113880000D01*
X43961260Y-113880000D01*
X44248158Y-113822932D01*
X44518411Y-113710990D01*
X44761632Y-113548475D01*
X44968475Y-113341632D01*
X45091842Y-113157000D01*
X46348158Y-113157000D01*
X46471525Y-113341632D01*
X46678368Y-113548475D01*
X46921589Y-113710990D01*
X47191842Y-113822932D01*
X47478740Y-113880000D01*
X47771260Y-113880000D01*
X48058158Y-113822932D01*
X48328411Y-113710990D01*
X48571632Y-113548475D01*
X48778475Y-113341632D01*
X48940990Y-113098411D01*
X49052932Y-112828158D01*
X49110000Y-112541260D01*
X49110000Y-112248740D01*
X49052932Y-111961842D01*
X48940990Y-111691589D01*
X48778475Y-111448368D01*
X48571632Y-111241525D01*
X48397240Y-111125000D01*
X48571632Y-111008475D01*
X48778475Y-110801632D01*
X48940990Y-110558411D01*
X49052932Y-110288158D01*
X49110000Y-110001260D01*
X49110000Y-109708740D01*
X49052932Y-109421842D01*
X48940990Y-109151589D01*
X48778475Y-108908368D01*
X48571632Y-108701525D01*
X48397240Y-108585000D01*
X48571632Y-108468475D01*
X48778475Y-108261632D01*
X48940990Y-108018411D01*
X49052932Y-107748158D01*
X49110000Y-107461260D01*
X49110000Y-107168740D01*
X49052932Y-106881842D01*
X48940990Y-106611589D01*
X48778475Y-106368368D01*
X48571632Y-106161525D01*
X48389466Y-106039805D01*
X48506355Y-105970178D01*
X48722588Y-105775269D01*
X48896641Y-105541920D01*
X49021825Y-105279099D01*
X49066476Y-105131890D01*
X48945155Y-104902000D01*
X47752000Y-104902000D01*
X47752000Y-104922000D01*
X47498000Y-104922000D01*
X47498000Y-104902000D01*
X46304845Y-104902000D01*
X46183524Y-105131890D01*
X46228175Y-105279099D01*
X46353359Y-105541920D01*
X46527412Y-105775269D01*
X46743645Y-105970178D01*
X46860534Y-106039805D01*
X46678368Y-106161525D01*
X46471525Y-106368368D01*
X46348158Y-106553000D01*
X45091842Y-106553000D01*
X44968475Y-106368368D01*
X44761632Y-106161525D01*
X44579466Y-106039805D01*
X44696355Y-105970178D01*
X44912588Y-105775269D01*
X45086641Y-105541920D01*
X45211825Y-105279099D01*
X45256476Y-105131890D01*
X45135155Y-104902000D01*
X43942000Y-104902000D01*
X43942000Y-104922000D01*
X43688000Y-104922000D01*
X43688000Y-104902000D01*
X42494845Y-104902000D01*
X42373524Y-105131890D01*
X42418175Y-105279099D01*
X42543359Y-105541920D01*
X42717412Y-105775269D01*
X42933645Y-105970178D01*
X43050534Y-106039805D01*
X42868368Y-106161525D01*
X42661525Y-106368368D01*
X42499010Y-106611589D01*
X42387068Y-106881842D01*
X42330000Y-107168740D01*
X39080072Y-107168740D01*
X39080072Y-106338000D01*
X39067812Y-106213518D01*
X39031502Y-106093820D01*
X38972537Y-105983506D01*
X38893185Y-105886815D01*
X38796494Y-105807463D01*
X38686180Y-105748498D01*
X38566482Y-105712188D01*
X38442000Y-105699928D01*
X36742000Y-105699928D01*
X36617518Y-105712188D01*
X36497820Y-105748498D01*
X36387506Y-105807463D01*
X36290815Y-105886815D01*
X36211463Y-105983506D01*
X36152498Y-106093820D01*
X36116188Y-106213518D01*
X36103928Y-106338000D01*
X30162500Y-106338000D01*
X30162500Y-105169538D01*
X32144538Y-103187500D01*
X37799215Y-103187500D01*
X37846000Y-103192108D01*
X37892785Y-103187500D01*
X42667393Y-103187500D01*
X42868368Y-103388475D01*
X43050534Y-103510195D01*
X42933645Y-103579822D01*
X42717412Y-103774731D01*
X42543359Y-104008080D01*
X42418175Y-104270901D01*
X42373524Y-104418110D01*
X42494845Y-104648000D01*
X43688000Y-104648000D01*
X43688000Y-104628000D01*
X43942000Y-104628000D01*
X43942000Y-104648000D01*
X45135155Y-104648000D01*
X45256476Y-104418110D01*
X45211825Y-104270901D01*
X45086641Y-104008080D01*
X44912588Y-103774731D01*
X44696355Y-103579822D01*
X44579466Y-103510195D01*
X44761632Y-103388475D01*
X44962607Y-103187500D01*
X46477393Y-103187500D01*
X46678368Y-103388475D01*
X46860534Y-103510195D01*
X46743645Y-103579822D01*
X46527412Y-103774731D01*
X46353359Y-104008080D01*
X46228175Y-104270901D01*
X46183524Y-104418110D01*
X46304845Y-104648000D01*
X47498000Y-104648000D01*
X47498000Y-104628000D01*
X47752000Y-104628000D01*
X47752000Y-104648000D01*
X48945155Y-104648000D01*
X49066476Y-104418110D01*
X49021825Y-104270901D01*
X48896641Y-104008080D01*
X48722588Y-103774731D01*
X48506355Y-103579822D01*
X48389466Y-103510195D01*
X48571632Y-103388475D01*
X48778475Y-103181632D01*
X48940990Y-102938411D01*
X49052932Y-102668158D01*
X49110000Y-102381260D01*
X49110000Y-102088740D01*
X49052932Y-101801842D01*
X48940990Y-101531589D01*
X48778475Y-101288368D01*
X48571632Y-101081525D01*
X48397240Y-100965000D01*
X48571632Y-100848475D01*
X48778475Y-100641632D01*
X48940990Y-100398411D01*
X49052932Y-100128158D01*
X49110000Y-99841260D01*
X49110000Y-99548740D01*
X49052932Y-99261842D01*
X48940990Y-98991589D01*
X48778475Y-98748368D01*
X48571632Y-98541525D01*
X48397240Y-98425000D01*
X48571632Y-98308475D01*
X48778475Y-98101632D01*
X48940990Y-97858411D01*
X49052932Y-97588158D01*
X49110000Y-97301260D01*
X49110000Y-97008740D01*
X49052932Y-96721842D01*
X48940990Y-96451589D01*
X48778475Y-96208368D01*
X48571632Y-96001525D01*
X48397240Y-95885000D01*
X48571632Y-95768475D01*
X48778475Y-95561632D01*
X48940990Y-95318411D01*
X49052932Y-95048158D01*
X49110000Y-94761260D01*
X49110000Y-94468740D01*
X49052932Y-94181842D01*
X48940990Y-93911589D01*
X48778475Y-93668368D01*
X48571632Y-93461525D01*
X48397240Y-93345000D01*
X48571632Y-93228475D01*
X48778475Y-93021632D01*
X48940990Y-92778411D01*
X49052932Y-92508158D01*
X49110000Y-92221260D01*
X49110000Y-91928740D01*
X49052932Y-91641842D01*
X48940990Y-91371589D01*
X48778475Y-91128368D01*
X48571632Y-90921525D01*
X48397240Y-90805000D01*
X48571632Y-90688475D01*
X48778475Y-90481632D01*
X48940990Y-90238411D01*
X49052932Y-89968158D01*
X49110000Y-89681260D01*
X49110000Y-89388740D01*
X49052932Y-89101842D01*
X48940990Y-88831589D01*
X48778475Y-88588368D01*
X48571632Y-88381525D01*
X48397240Y-88265000D01*
X48571632Y-88148475D01*
X48778475Y-87941632D01*
X48940990Y-87698411D01*
X49052932Y-87428158D01*
X49110000Y-87141260D01*
X49110000Y-86848740D01*
X49052932Y-86561842D01*
X48940990Y-86291589D01*
X48778475Y-86048368D01*
X48571632Y-85841525D01*
X48397240Y-85725000D01*
X48571632Y-85608475D01*
X48778475Y-85401632D01*
X48940990Y-85158411D01*
X49052932Y-84888158D01*
X49110000Y-84601260D01*
X49110000Y-84308740D01*
X49052932Y-84021842D01*
X48940990Y-83751589D01*
X48778475Y-83508368D01*
X48571632Y-83301525D01*
X48397240Y-83185000D01*
X48571632Y-83068475D01*
X48778475Y-82861632D01*
X48940990Y-82618411D01*
X49052932Y-82348158D01*
X49110000Y-82061260D01*
X49110000Y-81768740D01*
X49052932Y-81481842D01*
X48940990Y-81211589D01*
X48778475Y-80968368D01*
X48571632Y-80761525D01*
X48397240Y-80645000D01*
X48571632Y-80528475D01*
X48778475Y-80321632D01*
X48940990Y-80078411D01*
X49052932Y-79808158D01*
X49110000Y-79521260D01*
X49110000Y-79228740D01*
X49052932Y-78941842D01*
X48940990Y-78671589D01*
X48778475Y-78428368D01*
X48571632Y-78221525D01*
X48397240Y-78105000D01*
X48571632Y-77988475D01*
X48778475Y-77781632D01*
X48940990Y-77538411D01*
X49052932Y-77268158D01*
X49110000Y-76981260D01*
X49110000Y-76688740D01*
X49052932Y-76401842D01*
X48940990Y-76131589D01*
X48778475Y-75888368D01*
X48571632Y-75681525D01*
X48397240Y-75565000D01*
X48571632Y-75448475D01*
X48778475Y-75241632D01*
X48940990Y-74998411D01*
X49052932Y-74728158D01*
X49110000Y-74441260D01*
X49110000Y-74148740D01*
X49052932Y-73861842D01*
X48940990Y-73591589D01*
X48778475Y-73348368D01*
X48571632Y-73141525D01*
X48397240Y-73025000D01*
X48571632Y-72908475D01*
X48778475Y-72701632D01*
X48940990Y-72458411D01*
X49052932Y-72188158D01*
X49110000Y-71901260D01*
X49110000Y-71608740D01*
X49052932Y-71321842D01*
X48940990Y-71051589D01*
X48778475Y-70808368D01*
X48571632Y-70601525D01*
X48397240Y-70485000D01*
X48571632Y-70368475D01*
X48778475Y-70161632D01*
X48940990Y-69918411D01*
X49052932Y-69648158D01*
X49110000Y-69361260D01*
X49110000Y-69068740D01*
X49052932Y-68781842D01*
X48940990Y-68511589D01*
X48778475Y-68268368D01*
X48571632Y-68061525D01*
X48397240Y-67945000D01*
X48571632Y-67828475D01*
X48778475Y-67621632D01*
X48940990Y-67378411D01*
X49052932Y-67108158D01*
X49110000Y-66821260D01*
X49110000Y-66528740D01*
X49052932Y-66241842D01*
X48940990Y-65971589D01*
X48778475Y-65728368D01*
X48571632Y-65521525D01*
X48397240Y-65405000D01*
X48571632Y-65288475D01*
X48778475Y-65081632D01*
X48940990Y-64838411D01*
X49052932Y-64568158D01*
X49110000Y-64281260D01*
X49110000Y-63988740D01*
X49052932Y-63701842D01*
X48940990Y-63431589D01*
X48778475Y-63188368D01*
X48571632Y-62981525D01*
X48397240Y-62865000D01*
X48571632Y-62748475D01*
X48778475Y-62541632D01*
X48940990Y-62298411D01*
X49052932Y-62028158D01*
X49110000Y-61741260D01*
X49110000Y-61448740D01*
X49052932Y-61161842D01*
X48940990Y-60891589D01*
X48778475Y-60648368D01*
X48571632Y-60441525D01*
X48397240Y-60325000D01*
X48571632Y-60208475D01*
X48778475Y-60001632D01*
X48940990Y-59758411D01*
X49052932Y-59488158D01*
X49110000Y-59201260D01*
X49110000Y-58908740D01*
X49052932Y-58621842D01*
X48940990Y-58351589D01*
X48778475Y-58108368D01*
X48571632Y-57901525D01*
X48397240Y-57785000D01*
X48571632Y-57668475D01*
X48778475Y-57461632D01*
X48940990Y-57218411D01*
X49052932Y-56948158D01*
X49110000Y-56661260D01*
X49110000Y-56368740D01*
X49052932Y-56081842D01*
X48940990Y-55811589D01*
X48778475Y-55568368D01*
X48571632Y-55361525D01*
X48397240Y-55245000D01*
X48571632Y-55128475D01*
X48778475Y-54921632D01*
X48940990Y-54678411D01*
X49052932Y-54408158D01*
X49110000Y-54121260D01*
X49110000Y-53828740D01*
X49052932Y-53541842D01*
X48940990Y-53271589D01*
X48778475Y-53028368D01*
X48571632Y-52821525D01*
X48397240Y-52705000D01*
X48571632Y-52588475D01*
X48778475Y-52381632D01*
X48940990Y-52138411D01*
X49052932Y-51868158D01*
X49110000Y-51581260D01*
X49110000Y-51288740D01*
X49052932Y-51001842D01*
X48940990Y-50731589D01*
X48778475Y-50488368D01*
X48571632Y-50281525D01*
X48397240Y-50165000D01*
X48571632Y-50048475D01*
X48778475Y-49841632D01*
X48940990Y-49598411D01*
X49052932Y-49328158D01*
X49110000Y-49041260D01*
X49110000Y-48748740D01*
X49052932Y-48461842D01*
X48940990Y-48191589D01*
X48778475Y-47948368D01*
X48571632Y-47741525D01*
X48397240Y-47625000D01*
X48571632Y-47508475D01*
X48778475Y-47301632D01*
X48940990Y-47058411D01*
X49052932Y-46788158D01*
X49110000Y-46501260D01*
X49110000Y-46208740D01*
X49052932Y-45921842D01*
X48940990Y-45651589D01*
X48778475Y-45408368D01*
X48571632Y-45201525D01*
X48397240Y-45085000D01*
X48571632Y-44968475D01*
X48778475Y-44761632D01*
X48940990Y-44518411D01*
X49052932Y-44248158D01*
X49110000Y-43961260D01*
X49110000Y-43668740D01*
X49052932Y-43381842D01*
X48940990Y-43111589D01*
X48778475Y-42868368D01*
X48571632Y-42661525D01*
X48397240Y-42545000D01*
X48571632Y-42428475D01*
X48778475Y-42221632D01*
X48940990Y-41978411D01*
X49052932Y-41708158D01*
X49110000Y-41421260D01*
X49110000Y-41128740D01*
X49052932Y-40841842D01*
X48940990Y-40571589D01*
X48778475Y-40328368D01*
X48571632Y-40121525D01*
X48397240Y-40005000D01*
X48571632Y-39888475D01*
X48778475Y-39681632D01*
X48940990Y-39438411D01*
X49052932Y-39168158D01*
X49110000Y-38881260D01*
X49110000Y-38588740D01*
X49052932Y-38301842D01*
X48940990Y-38031589D01*
X48778475Y-37788368D01*
X48571632Y-37581525D01*
X48397240Y-37465000D01*
X48571632Y-37348475D01*
X48778475Y-37141632D01*
X48940990Y-36898411D01*
X49052932Y-36628158D01*
X49110000Y-36341260D01*
X49110000Y-36048740D01*
X49052932Y-35761842D01*
X48940990Y-35491589D01*
X48778475Y-35248368D01*
X48571632Y-35041525D01*
X48397240Y-34925000D01*
X48571632Y-34808475D01*
X48778475Y-34601632D01*
X48940990Y-34358411D01*
X49052932Y-34088158D01*
X49110000Y-33801260D01*
X49110000Y-33508740D01*
X49052932Y-33221842D01*
X48940990Y-32951589D01*
X48778475Y-32708368D01*
X48571632Y-32501525D01*
X48397240Y-32385000D01*
X48571632Y-32268475D01*
X48778475Y-32061632D01*
X48940990Y-31818411D01*
X49052932Y-31548158D01*
X49110000Y-31261260D01*
X49110000Y-30968740D01*
X49052932Y-30681842D01*
X48940990Y-30411589D01*
X48778475Y-30168368D01*
X48646620Y-30036513D01*
X48719180Y-30014502D01*
X48829494Y-29955537D01*
X48926185Y-29876185D01*
X49005537Y-29779494D01*
X49064502Y-29669180D01*
X49100812Y-29549482D01*
X49113072Y-29425000D01*
X49113072Y-27725000D01*
X49100812Y-27600518D01*
X49064502Y-27480820D01*
X49005537Y-27370506D01*
X48926185Y-27273815D01*
X48829494Y-27194463D01*
X48719180Y-27135498D01*
X48599482Y-27099188D01*
X48475000Y-27086928D01*
X46775000Y-27086928D01*
X46650518Y-27099188D01*
X46530820Y-27135498D01*
X46420506Y-27194463D01*
X46323815Y-27273815D01*
X46244463Y-27370506D01*
X46185498Y-27480820D01*
X46149188Y-27600518D01*
X46136928Y-27725000D01*
X46136928Y-27813000D01*
X45303072Y-27813000D01*
X45303072Y-27725000D01*
X45290812Y-27600518D01*
X45254502Y-27480820D01*
X45195537Y-27370506D01*
X45116185Y-27273815D01*
X45019494Y-27194463D01*
X44909180Y-27135498D01*
X44789482Y-27099188D01*
X44665000Y-27086928D01*
X42965000Y-27086928D01*
X42840518Y-27099188D01*
X42720820Y-27135498D01*
X42610506Y-27194463D01*
X42513815Y-27273815D01*
X42434463Y-27370506D01*
X42375498Y-27480820D01*
X42339188Y-27600518D01*
X42326928Y-27725000D01*
X42326928Y-28350441D01*
X39056527Y-31620843D01*
X38876335Y-31585000D01*
X38593665Y-31585000D01*
X38316426Y-31640147D01*
X38055273Y-31748320D01*
X37820241Y-31905363D01*
X37620363Y-32105241D01*
X37463320Y-32340273D01*
X37355147Y-32601426D01*
X37300000Y-32878665D01*
X37300000Y-33161335D01*
X37355147Y-33438574D01*
X37463320Y-33699727D01*
X37620363Y-33934759D01*
X37820241Y-34134637D01*
X38052759Y-34290000D01*
X37820241Y-34445363D01*
X37620363Y-34645241D01*
X37463320Y-34880273D01*
X37355147Y-35141426D01*
X37300000Y-35418665D01*
X37300000Y-35701335D01*
X37355147Y-35978574D01*
X37463320Y-36239727D01*
X37620363Y-36474759D01*
X37820241Y-36674637D01*
X38052759Y-36830000D01*
X37820241Y-36985363D01*
X37620363Y-37185241D01*
X37463320Y-37420273D01*
X37355147Y-37681426D01*
X37300000Y-37958665D01*
X37300000Y-38241335D01*
X37355147Y-38518574D01*
X37463320Y-38779727D01*
X37620363Y-39014759D01*
X37820241Y-39214637D01*
X38052759Y-39370000D01*
X37820241Y-39525363D01*
X37620363Y-39725241D01*
X37463320Y-39960273D01*
X37355147Y-40221426D01*
X37300000Y-40498665D01*
X37300000Y-40781335D01*
X37355147Y-41058574D01*
X37463320Y-41319727D01*
X37620363Y-41554759D01*
X37820241Y-41754637D01*
X38052759Y-41910000D01*
X37820241Y-42065363D01*
X37620363Y-42265241D01*
X37463320Y-42500273D01*
X37355147Y-42761426D01*
X37300000Y-43038665D01*
X37300000Y-43321335D01*
X37355147Y-43598574D01*
X37463320Y-43859727D01*
X37620363Y-44094759D01*
X37820241Y-44294637D01*
X38052759Y-44450000D01*
X37820241Y-44605363D01*
X37620363Y-44805241D01*
X37463320Y-45040273D01*
X37355147Y-45301426D01*
X37300000Y-45578665D01*
X37300000Y-45861335D01*
X37355147Y-46138574D01*
X37463320Y-46399727D01*
X37620363Y-46634759D01*
X37820241Y-46834637D01*
X38052759Y-46990000D01*
X37820241Y-47145363D01*
X37620363Y-47345241D01*
X37463320Y-47580273D01*
X37355147Y-47841426D01*
X37300000Y-48118665D01*
X37300000Y-48401335D01*
X37355147Y-48678574D01*
X37463320Y-48939727D01*
X37620363Y-49174759D01*
X37820241Y-49374637D01*
X38052759Y-49530000D01*
X37820241Y-49685363D01*
X37620363Y-49885241D01*
X37463320Y-50120273D01*
X37355147Y-50381426D01*
X37300000Y-50658665D01*
X37300000Y-50941335D01*
X37355147Y-51218574D01*
X37392189Y-51308002D01*
X32141747Y-51308002D01*
X32052150Y-51173911D01*
X31884099Y-51005860D01*
X31686492Y-50873823D01*
X31466923Y-50782875D01*
X31233830Y-50736510D01*
X30996170Y-50736510D01*
X30763077Y-50782875D01*
X30543508Y-50873823D01*
X30345901Y-51005860D01*
X30177850Y-51173911D01*
X30045813Y-51371518D01*
X29954865Y-51591087D01*
X29908500Y-51824180D01*
X29908500Y-52061840D01*
X29954865Y-52294933D01*
X30045813Y-52514502D01*
X30177850Y-52712109D01*
X30345901Y-52880160D01*
X30543508Y-53012197D01*
X30763077Y-53103145D01*
X30996170Y-53149510D01*
X31233830Y-53149510D01*
X31466923Y-53103145D01*
X31686492Y-53012197D01*
X31884099Y-52880160D01*
X31932257Y-52832002D01*
X37392188Y-52832002D01*
X37355147Y-52921426D01*
X37300000Y-53198665D01*
X37300000Y-53481335D01*
X37355147Y-53758574D01*
X37463320Y-54019727D01*
X37620363Y-54254759D01*
X37820241Y-54454637D01*
X38052759Y-54610000D01*
X37820241Y-54765363D01*
X37620363Y-54965241D01*
X37463320Y-55200273D01*
X37355147Y-55461426D01*
X37300000Y-55738665D01*
X37300000Y-56021335D01*
X37355147Y-56298574D01*
X37463320Y-56559727D01*
X37620363Y-56794759D01*
X37820241Y-56994637D01*
X38052759Y-57150000D01*
X37820241Y-57305363D01*
X37620363Y-57505241D01*
X37463320Y-57740273D01*
X37355147Y-58001426D01*
X37300000Y-58278665D01*
X37300000Y-58561335D01*
X37355147Y-58838574D01*
X37392188Y-58928000D01*
X32183893Y-58928000D01*
X32179150Y-58920901D01*
X32011099Y-58752850D01*
X31813492Y-58620813D01*
X31593923Y-58529865D01*
X31360830Y-58483500D01*
X31123170Y-58483500D01*
X30890077Y-58529865D01*
X30670508Y-58620813D01*
X30472901Y-58752850D01*
X30304850Y-58920901D01*
X30172813Y-59118508D01*
X30081865Y-59338077D01*
X30035500Y-59571170D01*
X30035500Y-59808830D01*
X30081865Y-60041923D01*
X30172813Y-60261492D01*
X30304850Y-60459099D01*
X30472901Y-60627150D01*
X30670508Y-60759187D01*
X30890077Y-60850135D01*
X31123170Y-60896500D01*
X31360830Y-60896500D01*
X31593923Y-60850135D01*
X31813492Y-60759187D01*
X32011099Y-60627150D01*
X32179150Y-60459099D01*
X32183893Y-60452000D01*
X37395529Y-60452000D01*
X37383754Y-60476913D01*
X37343096Y-60610961D01*
X37465085Y-60833000D01*
X38608000Y-60833000D01*
X38608000Y-60813000D01*
X38862000Y-60813000D01*
X38862000Y-60833000D01*
X40004915Y-60833000D01*
X40126904Y-60610961D01*
X40086246Y-60476913D01*
X39966037Y-60222580D01*
X39877447Y-60103065D01*
X40163512Y-59817000D01*
X42538158Y-59817000D01*
X42661525Y-60001632D01*
X42868368Y-60208475D01*
X43042760Y-60325000D01*
X42868368Y-60441525D01*
X42661525Y-60648368D01*
X42499010Y-60891589D01*
X42387068Y-61161842D01*
X42330000Y-61448740D01*
X42330000Y-61590473D01*
X42203015Y-61522598D01*
X42059378Y-61479026D01*
X41947426Y-61468000D01*
X41947423Y-61468000D01*
X41910000Y-61464314D01*
X41872577Y-61468000D01*
X40074471Y-61468000D01*
X40086246Y-61443087D01*
X40126904Y-61309039D01*
X40004915Y-61087000D01*
X38862000Y-61087000D01*
X38862000Y-61107000D01*
X38608000Y-61107000D01*
X38608000Y-61087000D01*
X37465085Y-61087000D01*
X37343096Y-61309039D01*
X37383754Y-61443087D01*
X37395529Y-61468000D01*
X27874631Y-61468000D01*
X26289000Y-59882370D01*
X26289000Y-52742423D01*
X26292686Y-52705000D01*
X26288281Y-52660273D01*
X26277974Y-52555622D01*
X26234402Y-52411985D01*
X26201465Y-52350364D01*
X26163645Y-52279607D01*
X26092279Y-52192648D01*
X26068422Y-52163578D01*
X26039352Y-52139721D01*
X24915228Y-51015598D01*
X24930000Y-50941335D01*
X24930000Y-50658665D01*
X24874853Y-50381426D01*
X24766680Y-50120273D01*
X24609637Y-49885241D01*
X24409759Y-49685363D01*
X24177241Y-49530000D01*
X24409759Y-49374637D01*
X24609637Y-49174759D01*
X24711707Y-49022000D01*
X31316115Y-49022000D01*
X31320858Y-49029099D01*
X31488909Y-49197150D01*
X31686516Y-49329187D01*
X31906085Y-49420135D01*
X32139178Y-49466500D01*
X32376838Y-49466500D01*
X32609931Y-49420135D01*
X32829500Y-49329187D01*
X33027107Y-49197150D01*
X33195158Y-49029099D01*
X33327195Y-48831492D01*
X33418143Y-48611923D01*
X33464508Y-48378830D01*
X33464508Y-48141170D01*
X33418143Y-47908077D01*
X33327195Y-47688508D01*
X33195158Y-47490901D01*
X33027107Y-47322850D01*
X32829500Y-47190813D01*
X32609931Y-47099865D01*
X32376838Y-47053500D01*
X32139178Y-47053500D01*
X31906085Y-47099865D01*
X31686516Y-47190813D01*
X31488909Y-47322850D01*
X31320858Y-47490901D01*
X31316115Y-47498000D01*
X24711707Y-47498000D01*
X24609637Y-47345241D01*
X24409759Y-47145363D01*
X24177241Y-46990000D01*
X24409759Y-46834637D01*
X24609637Y-46634759D01*
X24711707Y-46482000D01*
X32586107Y-46482000D01*
X32590850Y-46489099D01*
X32758901Y-46657150D01*
X32956508Y-46789187D01*
X33176077Y-46880135D01*
X33409170Y-46926500D01*
X33646830Y-46926500D01*
X33879923Y-46880135D01*
X34099492Y-46789187D01*
X34297099Y-46657150D01*
X34465150Y-46489099D01*
X34597187Y-46291492D01*
X34688135Y-46071923D01*
X34734500Y-45838830D01*
X34734500Y-45601170D01*
X34688135Y-45368077D01*
X34597187Y-45148508D01*
X34465150Y-44950901D01*
X34297099Y-44782850D01*
X34099492Y-44650813D01*
X33879923Y-44559865D01*
X33646830Y-44513500D01*
X33409170Y-44513500D01*
X33176077Y-44559865D01*
X32956508Y-44650813D01*
X32758901Y-44782850D01*
X32590850Y-44950901D01*
X32586107Y-44958000D01*
X24711707Y-44958000D01*
X24609637Y-44805241D01*
X24409759Y-44605363D01*
X24177241Y-44450000D01*
X24409759Y-44294637D01*
X24609637Y-44094759D01*
X24711707Y-43942000D01*
X32586107Y-43942000D01*
X32590850Y-43949099D01*
X32758901Y-44117150D01*
X32956508Y-44249187D01*
X33176077Y-44340135D01*
X33409170Y-44386500D01*
X33646830Y-44386500D01*
X33879923Y-44340135D01*
X34099492Y-44249187D01*
X34297099Y-44117150D01*
X34465150Y-43949099D01*
X34597187Y-43751492D01*
X34688135Y-43531923D01*
X34734500Y-43298830D01*
X34734500Y-43061170D01*
X34688135Y-42828077D01*
X34597187Y-42608508D01*
X34465150Y-42410901D01*
X34297099Y-42242850D01*
X34099492Y-42110813D01*
X33879923Y-42019865D01*
X33646830Y-41973500D01*
X33409170Y-41973500D01*
X33176077Y-42019865D01*
X32956508Y-42110813D01*
X32758901Y-42242850D01*
X32590850Y-42410901D01*
X32586107Y-42418000D01*
X24711707Y-42418000D01*
X24609637Y-42265241D01*
X24409759Y-42065363D01*
X24177241Y-41910000D01*
X24409759Y-41754637D01*
X24609637Y-41554759D01*
X24711707Y-41402000D01*
X32586103Y-41402000D01*
X32590846Y-41409099D01*
X32758897Y-41577150D01*
X32956504Y-41709187D01*
X33176073Y-41800135D01*
X33409166Y-41846500D01*
X33646826Y-41846500D01*
X33879919Y-41800135D01*
X34099488Y-41709187D01*
X34297095Y-41577150D01*
X34465146Y-41409099D01*
X34597183Y-41211492D01*
X34688131Y-40991923D01*
X34734496Y-40758830D01*
X34734496Y-40521170D01*
X34688131Y-40288077D01*
X34597183Y-40068508D01*
X34465146Y-39870901D01*
X34297095Y-39702850D01*
X34099488Y-39570813D01*
X33879919Y-39479865D01*
X33646826Y-39433500D01*
X33409166Y-39433500D01*
X33176073Y-39479865D01*
X32956504Y-39570813D01*
X32758897Y-39702850D01*
X32590846Y-39870901D01*
X32586103Y-39878000D01*
X24711707Y-39878000D01*
X24609637Y-39725241D01*
X24409759Y-39525363D01*
X24177241Y-39370000D01*
X24409759Y-39214637D01*
X24609637Y-39014759D01*
X24766680Y-38779727D01*
X24874853Y-38518574D01*
X24930000Y-38241335D01*
X24930000Y-37958665D01*
X24874853Y-37681426D01*
X24766680Y-37420273D01*
X24609637Y-37185241D01*
X24409759Y-36985363D01*
X24177241Y-36830000D01*
X24409759Y-36674637D01*
X24609637Y-36474759D01*
X24766680Y-36239727D01*
X24874853Y-35978574D01*
X24930000Y-35701335D01*
X24930000Y-35418665D01*
X24874853Y-35141426D01*
X24766680Y-34880273D01*
X24609637Y-34645241D01*
X24409759Y-34445363D01*
X24177241Y-34290000D01*
X24409759Y-34134637D01*
X24609637Y-33934759D01*
X24766680Y-33699727D01*
X24874853Y-33438574D01*
X24930000Y-33161335D01*
X24930000Y-32878665D01*
X24874853Y-32601426D01*
X24766680Y-32340273D01*
X24609637Y-32105241D01*
X24409759Y-31905363D01*
X24174727Y-31748320D01*
X23913574Y-31640147D01*
X23636335Y-31585000D01*
X23353665Y-31585000D01*
X23076426Y-31640147D01*
X22815273Y-31748320D01*
X22580241Y-31905363D01*
X22380363Y-32105241D01*
X22250000Y-32300343D01*
X22250000Y-27337279D01*
X22264722Y-27187131D01*
X22298953Y-27073754D01*
X22354555Y-26969181D01*
X22429407Y-26877404D01*
X22520664Y-26801909D01*
X22624844Y-26745581D01*
X22737976Y-26710560D01*
X22886022Y-26695000D01*
X48862721Y-26695000D01*
X49012869Y-26709722D01*
G37*
X49012869Y-26709722D02*
X49126246Y-26743953D01*
X49230819Y-26799555D01*
X49322596Y-26874407D01*
X49398091Y-26965664D01*
X49454419Y-27069844D01*
X49489440Y-27182976D01*
X49505000Y-27331022D01*
X49505001Y-113632711D01*
X49490278Y-113782869D01*
X49456047Y-113896246D01*
X49400446Y-114000817D01*
X49325594Y-114092595D01*
X49234335Y-114168091D01*
X49130160Y-114224419D01*
X49017024Y-114259440D01*
X48868979Y-114275000D01*
X22892279Y-114275000D01*
X22742131Y-114260278D01*
X22628754Y-114226047D01*
X22524183Y-114170446D01*
X22432405Y-114095594D01*
X22356909Y-114004335D01*
X22300581Y-113900160D01*
X22265560Y-113787024D01*
X22250000Y-113638979D01*
X22250000Y-113245000D01*
X22641928Y-113245000D01*
X22654188Y-113369482D01*
X22690498Y-113489180D01*
X22749463Y-113599494D01*
X22828815Y-113696185D01*
X22925506Y-113775537D01*
X23035820Y-113834502D01*
X23155518Y-113870812D01*
X23280000Y-113883072D01*
X23844250Y-113880000D01*
X24003000Y-113721250D01*
X24003000Y-112522000D01*
X22803750Y-112522000D01*
X22645000Y-112680750D01*
X22641928Y-113245000D01*
X22250000Y-113245000D01*
X22250000Y-111545000D01*
X22641928Y-111545000D01*
X22645000Y-112109250D01*
X22803750Y-112268000D01*
X24003000Y-112268000D01*
X24003000Y-111068750D01*
X23844250Y-110910000D01*
X23280000Y-110906928D01*
X23155518Y-110919188D01*
X23035820Y-110955498D01*
X22925506Y-111014463D01*
X22828815Y-111093815D01*
X22749463Y-111190506D01*
X22690498Y-111300820D01*
X22654188Y-111420518D01*
X22641928Y-111545000D01*
X22250000Y-111545000D01*
X22250000Y-103226890D01*
X22688524Y-103226890D01*
X22733175Y-103374099D01*
X22858359Y-103636920D01*
X23032412Y-103870269D01*
X23248645Y-104065178D01*
X23498748Y-104214157D01*
X23773109Y-104311481D01*
X24003000Y-104190814D01*
X24003000Y-102997000D01*
X24257000Y-102997000D01*
X24257000Y-104190814D01*
X24486891Y-104311481D01*
X24761252Y-104214157D01*
X25011355Y-104065178D01*
X25227588Y-103870269D01*
X25401641Y-103636920D01*
X25526825Y-103374099D01*
X25571476Y-103226890D01*
X25450155Y-102997000D01*
X24257000Y-102997000D01*
X24003000Y-102997000D01*
X22809845Y-102997000D01*
X22688524Y-103226890D01*
X22250000Y-103226890D01*
X22250000Y-92424039D01*
X22738096Y-92424039D01*
X22778754Y-92558087D01*
X22898963Y-92812420D01*
X23066481Y-93038414D01*
X23274869Y-93227385D01*
X23516119Y-93372070D01*
X23780960Y-93466909D01*
X24003000Y-93345624D01*
X24003000Y-92202000D01*
X24257000Y-92202000D01*
X24257000Y-93345624D01*
X24479040Y-93466909D01*
X24743881Y-93372070D01*
X24985131Y-93227385D01*
X25193519Y-93038414D01*
X25361037Y-92812420D01*
X25481246Y-92558087D01*
X25521904Y-92424039D01*
X25399915Y-92202000D01*
X24257000Y-92202000D01*
X24003000Y-92202000D01*
X22860085Y-92202000D01*
X22738096Y-92424039D01*
X22250000Y-92424039D01*
X22250000Y-89393665D01*
X22695000Y-89393665D01*
X22695000Y-89676335D01*
X22750147Y-89953574D01*
X22858320Y-90214727D01*
X23015363Y-90449759D01*
X23215241Y-90649637D01*
X23450273Y-90806680D01*
X23460865Y-90811067D01*
X23274869Y-90922615D01*
X23066481Y-91111586D01*
X22898963Y-91337580D01*
X22778754Y-91591913D01*
X22738096Y-91725961D01*
X22860085Y-91948000D01*
X24003000Y-91948000D01*
X24003000Y-91928000D01*
X24257000Y-91928000D01*
X24257000Y-91948000D01*
X25399915Y-91948000D01*
X25521904Y-91725961D01*
X25481246Y-91591913D01*
X25361037Y-91337580D01*
X25193519Y-91111586D01*
X24985131Y-90922615D01*
X24799135Y-90811067D01*
X24809727Y-90806680D01*
X25044759Y-90649637D01*
X25244637Y-90449759D01*
X25401680Y-90214727D01*
X25509853Y-89953574D01*
X25565000Y-89676335D01*
X25565000Y-89393665D01*
X25509853Y-89116426D01*
X25401680Y-88855273D01*
X25244637Y-88620241D01*
X25044759Y-88420363D01*
X24809727Y-88263320D01*
X24799135Y-88258933D01*
X24985131Y-88147385D01*
X25193519Y-87958414D01*
X25361037Y-87732420D01*
X25481246Y-87478087D01*
X25521904Y-87344039D01*
X25399915Y-87122000D01*
X24257000Y-87122000D01*
X24257000Y-87142000D01*
X24003000Y-87142000D01*
X24003000Y-87122000D01*
X22860085Y-87122000D01*
X22738096Y-87344039D01*
X22778754Y-87478087D01*
X22898963Y-87732420D01*
X23066481Y-87958414D01*
X23274869Y-88147385D01*
X23460865Y-88258933D01*
X23450273Y-88263320D01*
X23215241Y-88420363D01*
X23015363Y-88620241D01*
X22858320Y-88855273D01*
X22750147Y-89116426D01*
X22695000Y-89393665D01*
X22250000Y-89393665D01*
X22250000Y-72963000D01*
X25447928Y-72963000D01*
X25460188Y-73087482D01*
X25496498Y-73207180D01*
X25555463Y-73317494D01*
X25634815Y-73414185D01*
X25731506Y-73493537D01*
X25841820Y-73552502D01*
X25961518Y-73588812D01*
X26086000Y-73601072D01*
X26375250Y-73598000D01*
X26534000Y-73439250D01*
X26534000Y-72390000D01*
X25609750Y-72390000D01*
X25451000Y-72548750D01*
X25447928Y-72963000D01*
X22250000Y-72963000D01*
X22250000Y-71563000D01*
X25447928Y-71563000D01*
X25451000Y-71977250D01*
X25609750Y-72136000D01*
X26534000Y-72136000D01*
X26534000Y-71086750D01*
X26375250Y-70928000D01*
X26086000Y-70924928D01*
X25961518Y-70937188D01*
X25841820Y-70973498D01*
X25731506Y-71032463D01*
X25634815Y-71111815D01*
X25555463Y-71208506D01*
X25496498Y-71318820D01*
X25460188Y-71438518D01*
X25447928Y-71563000D01*
X22250000Y-71563000D01*
X22250000Y-69299657D01*
X22380363Y-69494759D01*
X22580241Y-69694637D01*
X22815273Y-69851680D01*
X23076426Y-69959853D01*
X23353665Y-70015000D01*
X23636335Y-70015000D01*
X23913574Y-69959853D01*
X24174727Y-69851680D01*
X24409759Y-69694637D01*
X24609637Y-69494759D01*
X24766680Y-69259727D01*
X24874853Y-68998574D01*
X24919921Y-68772000D01*
X25447928Y-68772000D01*
X25460188Y-68896482D01*
X25496498Y-69016180D01*
X25555463Y-69126494D01*
X25634815Y-69223185D01*
X25731506Y-69302537D01*
X25841820Y-69361502D01*
X25961518Y-69397812D01*
X26086000Y-69410072D01*
X26375250Y-69407000D01*
X26534000Y-69248250D01*
X26534000Y-68199000D01*
X25609750Y-68199000D01*
X25451000Y-68357750D01*
X25447928Y-68772000D01*
X24919921Y-68772000D01*
X24930000Y-68721335D01*
X24930000Y-68438665D01*
X24874853Y-68161426D01*
X24766680Y-67900273D01*
X24609637Y-67665241D01*
X24409759Y-67465363D01*
X24270032Y-67372000D01*
X25447928Y-67372000D01*
X25451000Y-67786250D01*
X25609750Y-67945000D01*
X26534000Y-67945000D01*
X26534000Y-66895750D01*
X26375250Y-66737000D01*
X26086000Y-66733928D01*
X25961518Y-66746188D01*
X25841820Y-66782498D01*
X25731506Y-66841463D01*
X25634815Y-66920815D01*
X25555463Y-67017506D01*
X25496498Y-67127820D01*
X25460188Y-67247518D01*
X25447928Y-67372000D01*
X24270032Y-67372000D01*
X24174727Y-67308320D01*
X24164135Y-67303933D01*
X24350131Y-67192385D01*
X24558519Y-67003414D01*
X24726037Y-66777420D01*
X24846246Y-66523087D01*
X24886904Y-66389039D01*
X24764915Y-66167000D01*
X23622000Y-66167000D01*
X23622000Y-66187000D01*
X23368000Y-66187000D01*
X23368000Y-66167000D01*
X23348000Y-66167000D01*
X23348000Y-65913000D01*
X23368000Y-65913000D01*
X23368000Y-65893000D01*
X23622000Y-65893000D01*
X23622000Y-65913000D01*
X24764915Y-65913000D01*
X24886904Y-65690961D01*
X24846246Y-65556913D01*
X24726037Y-65302580D01*
X24558519Y-65076586D01*
X24350131Y-64887615D01*
X24164135Y-64776067D01*
X24174727Y-64771680D01*
X24409759Y-64614637D01*
X24609637Y-64414759D01*
X24766680Y-64179727D01*
X24793284Y-64115500D01*
X27451618Y-66773834D01*
X27360482Y-66746188D01*
X27236000Y-66733928D01*
X26946750Y-66737000D01*
X26788000Y-66895750D01*
X26788000Y-67945000D01*
X26808000Y-67945000D01*
X26808000Y-68199000D01*
X26788000Y-68199000D01*
X26788000Y-69248250D01*
X26946750Y-69407000D01*
X27236000Y-69410072D01*
X27360482Y-69397812D01*
X27480180Y-69361502D01*
X27590494Y-69302537D01*
X27687185Y-69223185D01*
X27752658Y-69143406D01*
X27758038Y-69149962D01*
X27892613Y-69260405D01*
X28046149Y-69342472D01*
X28130501Y-69368060D01*
X28130500Y-70966940D01*
X28046149Y-70992528D01*
X27892613Y-71074595D01*
X27758038Y-71185038D01*
X27752658Y-71191594D01*
X27687185Y-71111815D01*
X27590494Y-71032463D01*
X27480180Y-70973498D01*
X27360482Y-70937188D01*
X27236000Y-70924928D01*
X26946750Y-70928000D01*
X26788000Y-71086750D01*
X26788000Y-72136000D01*
X26808000Y-72136000D01*
X26808000Y-72390000D01*
X26788000Y-72390000D01*
X26788000Y-73439250D01*
X26946750Y-73598000D01*
X27236000Y-73601072D01*
X27360482Y-73588812D01*
X27480180Y-73552502D01*
X27590494Y-73493537D01*
X27687185Y-73414185D01*
X27752658Y-73334406D01*
X27758038Y-73340962D01*
X27892613Y-73451405D01*
X28046149Y-73533472D01*
X28212745Y-73584008D01*
X28385999Y-73601072D01*
X29036001Y-73601072D01*
X29070624Y-73597662D01*
X30797501Y-75324539D01*
X30797501Y-75758103D01*
X30635363Y-75920241D01*
X30478320Y-76155273D01*
X30370147Y-76416426D01*
X30315000Y-76693665D01*
X30315000Y-76862370D01*
X29775284Y-76322654D01*
X29751422Y-76293578D01*
X29635392Y-76198355D01*
X29503015Y-76127598D01*
X29359378Y-76084026D01*
X29247426Y-76073000D01*
X29247423Y-76073000D01*
X29210000Y-76069314D01*
X29172577Y-76073000D01*
X25568072Y-76073000D01*
X25568072Y-76035000D01*
X25555812Y-75910518D01*
X25519502Y-75790820D01*
X25460537Y-75680506D01*
X25381185Y-75583815D01*
X25284494Y-75504463D01*
X25174180Y-75445498D01*
X25054482Y-75409188D01*
X24930000Y-75396928D01*
X23330000Y-75396928D01*
X23205518Y-75409188D01*
X23085820Y-75445498D01*
X22975506Y-75504463D01*
X22878815Y-75583815D01*
X22799463Y-75680506D01*
X22740498Y-75790820D01*
X22704188Y-75910518D01*
X22691928Y-76035000D01*
X22691928Y-77635000D01*
X22704188Y-77759482D01*
X22740498Y-77879180D01*
X22799463Y-77989494D01*
X22878815Y-78086185D01*
X22975506Y-78165537D01*
X23085820Y-78224502D01*
X23205518Y-78260812D01*
X23213961Y-78261643D01*
X23015363Y-78460241D01*
X22858320Y-78695273D01*
X22750147Y-78956426D01*
X22695000Y-79233665D01*
X22695000Y-79516335D01*
X22750147Y-79793574D01*
X22858320Y-80054727D01*
X23015363Y-80289759D01*
X23215241Y-80489637D01*
X23447759Y-80645000D01*
X23215241Y-80800363D01*
X23015363Y-81000241D01*
X22858320Y-81235273D01*
X22750147Y-81496426D01*
X22695000Y-81773665D01*
X22695000Y-82056335D01*
X22750147Y-82333574D01*
X22858320Y-82594727D01*
X23015363Y-82829759D01*
X23215241Y-83029637D01*
X23447759Y-83185000D01*
X23215241Y-83340363D01*
X23015363Y-83540241D01*
X22858320Y-83775273D01*
X22750147Y-84036426D01*
X22695000Y-84313665D01*
X22695000Y-84596335D01*
X22750147Y-84873574D01*
X22858320Y-85134727D01*
X23015363Y-85369759D01*
X23215241Y-85569637D01*
X23450273Y-85726680D01*
X23460865Y-85731067D01*
X23274869Y-85842615D01*
X23066481Y-86031586D01*
X22898963Y-86257580D01*
X22778754Y-86511913D01*
X22738096Y-86645961D01*
X22860085Y-86868000D01*
X24003000Y-86868000D01*
X24003000Y-86848000D01*
X24257000Y-86848000D01*
X24257000Y-86868000D01*
X25399915Y-86868000D01*
X25521904Y-86645961D01*
X25481246Y-86511913D01*
X25361037Y-86257580D01*
X25193519Y-86031586D01*
X24985131Y-85842615D01*
X24799135Y-85731067D01*
X24809727Y-85726680D01*
X25044759Y-85569637D01*
X25244637Y-85369759D01*
X25346707Y-85217000D01*
X29464001Y-85217000D01*
X29464001Y-85433567D01*
X29460314Y-85471000D01*
X29475027Y-85620378D01*
X29518599Y-85764015D01*
X29589355Y-85896392D01*
X29660721Y-85983351D01*
X29684579Y-86012422D01*
X29713649Y-86036279D01*
X30350843Y-86673473D01*
X30315000Y-86853665D01*
X30315000Y-87136335D01*
X30370147Y-87413574D01*
X30478320Y-87674727D01*
X30635363Y-87909759D01*
X30835241Y-88109637D01*
X31070273Y-88266680D01*
X31080865Y-88271067D01*
X30894869Y-88382615D01*
X30686481Y-88571586D01*
X30518963Y-88797580D01*
X30398754Y-89051913D01*
X30358096Y-89185961D01*
X30480085Y-89408000D01*
X31623000Y-89408000D01*
X31623000Y-89388000D01*
X31877000Y-89388000D01*
X31877000Y-89408000D01*
X31897000Y-89408000D01*
X31897000Y-89662000D01*
X31877000Y-89662000D01*
X31877000Y-89682000D01*
X31623000Y-89682000D01*
X31623000Y-89662000D01*
X30480085Y-89662000D01*
X30358096Y-89884039D01*
X30398754Y-90018087D01*
X30518963Y-90272420D01*
X30686481Y-90498414D01*
X30894869Y-90687385D01*
X31080865Y-90798933D01*
X31070273Y-90803320D01*
X30835241Y-90960363D01*
X30635363Y-91160241D01*
X30478320Y-91395273D01*
X30370147Y-91656426D01*
X30315000Y-91933665D01*
X30315000Y-92216335D01*
X30370147Y-92493574D01*
X30478320Y-92754727D01*
X30635363Y-92989759D01*
X30835241Y-93189637D01*
X31070273Y-93346680D01*
X31331426Y-93454853D01*
X31431592Y-93474777D01*
X25593020Y-99313350D01*
X25569502Y-99235820D01*
X25510537Y-99125506D01*
X25431185Y-99028815D01*
X25334494Y-98949463D01*
X25224180Y-98890498D01*
X25104482Y-98854188D01*
X24980000Y-98841928D01*
X23280000Y-98841928D01*
X23155518Y-98854188D01*
X23035820Y-98890498D01*
X22925506Y-98949463D01*
X22828815Y-99028815D01*
X22749463Y-99125506D01*
X22690498Y-99235820D01*
X22654188Y-99355518D01*
X22641928Y-99480000D01*
X22641928Y-101180000D01*
X22654188Y-101304482D01*
X22690498Y-101424180D01*
X22749463Y-101534494D01*
X22828815Y-101631185D01*
X22925506Y-101710537D01*
X23035820Y-101769502D01*
X23116466Y-101793966D01*
X23032412Y-101869731D01*
X22858359Y-102103080D01*
X22733175Y-102365901D01*
X22688524Y-102513110D01*
X22809845Y-102743000D01*
X24003000Y-102743000D01*
X24003000Y-102723000D01*
X24257000Y-102723000D01*
X24257000Y-102743000D01*
X25450155Y-102743000D01*
X25571476Y-102513110D01*
X25526825Y-102365901D01*
X25401641Y-102103080D01*
X25227588Y-101869731D01*
X25143534Y-101793966D01*
X25224180Y-101769502D01*
X25334494Y-101710537D01*
X25431185Y-101631185D01*
X25510537Y-101534494D01*
X25569502Y-101424180D01*
X25605812Y-101304482D01*
X25618072Y-101180000D01*
X25618072Y-101092147D01*
X25654000Y-101095686D01*
X25691423Y-101092000D01*
X25691426Y-101092000D01*
X25803378Y-101080974D01*
X25947015Y-101037402D01*
X26079392Y-100966645D01*
X26195422Y-100871422D01*
X26219284Y-100842346D01*
X33786353Y-93275278D01*
X33815422Y-93251422D01*
X33910645Y-93135392D01*
X33981402Y-93003015D01*
X34024974Y-92859378D01*
X34036000Y-92747426D01*
X34036000Y-92747424D01*
X34039686Y-92710001D01*
X34036000Y-92672578D01*
X34036000Y-88556422D01*
X34039686Y-88518999D01*
X34035845Y-88480000D01*
X34024974Y-88369622D01*
X33981402Y-88225985D01*
X33910645Y-88093608D01*
X33815422Y-87977578D01*
X33786352Y-87953721D01*
X33149157Y-87316527D01*
X33185000Y-87136335D01*
X33185000Y-86853665D01*
X33129853Y-86576426D01*
X33021680Y-86315273D01*
X32864637Y-86080241D01*
X32664759Y-85880363D01*
X32432241Y-85725000D01*
X32664759Y-85569637D01*
X32864637Y-85369759D01*
X32966707Y-85217000D01*
X33339370Y-85217000D01*
X34990166Y-86867796D01*
X34988500Y-86876170D01*
X34988500Y-87113830D01*
X35034865Y-87346923D01*
X35125813Y-87566492D01*
X35257850Y-87764099D01*
X35425901Y-87932150D01*
X35623508Y-88064187D01*
X35843077Y-88155135D01*
X36076170Y-88201500D01*
X36313830Y-88201500D01*
X36385500Y-88187244D01*
X36385501Y-95211947D01*
X36346844Y-95269801D01*
X36208518Y-95603750D01*
X36138000Y-95958268D01*
X36138000Y-96319732D01*
X36208518Y-96674250D01*
X36346844Y-97008199D01*
X36547662Y-97308744D01*
X36803256Y-97564338D01*
X37020500Y-97709496D01*
X37020501Y-101282500D01*
X31796784Y-101282500D01*
X31749999Y-101277892D01*
X31563277Y-101296283D01*
X31383731Y-101350748D01*
X31218259Y-101439194D01*
X31073222Y-101558222D01*
X31043393Y-101594569D01*
X28569569Y-104068393D01*
X28533222Y-104098222D01*
X28414194Y-104243259D01*
X28325748Y-104408732D01*
X28271283Y-104588277D01*
X28271283Y-104588278D01*
X28252892Y-104775000D01*
X28257500Y-104821785D01*
X28257501Y-111247392D01*
X28056525Y-111448368D01*
X27940000Y-111622760D01*
X27823475Y-111448368D01*
X27616632Y-111241525D01*
X27373411Y-111079010D01*
X27103158Y-110967068D01*
X26816260Y-110910000D01*
X26523740Y-110910000D01*
X26236842Y-110967068D01*
X25966589Y-111079010D01*
X25723368Y-111241525D01*
X25591513Y-111373380D01*
X25569502Y-111300820D01*
X25510537Y-111190506D01*
X25431185Y-111093815D01*
X25334494Y-111014463D01*
X25224180Y-110955498D01*
X25104482Y-110919188D01*
X24980000Y-110906928D01*
X24415750Y-110910000D01*
X24257000Y-111068750D01*
X24257000Y-112268000D01*
X24277000Y-112268000D01*
X24277000Y-112522000D01*
X24257000Y-112522000D01*
X24257000Y-113721250D01*
X24415750Y-113880000D01*
X24980000Y-113883072D01*
X25104482Y-113870812D01*
X25224180Y-113834502D01*
X25334494Y-113775537D01*
X25431185Y-113696185D01*
X25510537Y-113599494D01*
X25569502Y-113489180D01*
X25591513Y-113416620D01*
X25723368Y-113548475D01*
X25966589Y-113710990D01*
X26236842Y-113822932D01*
X26523740Y-113880000D01*
X26816260Y-113880000D01*
X27103158Y-113822932D01*
X27373411Y-113710990D01*
X27616632Y-113548475D01*
X27823475Y-113341632D01*
X27940000Y-113167240D01*
X28056525Y-113341632D01*
X28263368Y-113548475D01*
X28506589Y-113710990D01*
X28776842Y-113822932D01*
X29063740Y-113880000D01*
X29356260Y-113880000D01*
X29643158Y-113822932D01*
X29913411Y-113710990D01*
X30156632Y-113548475D01*
X30363475Y-113341632D01*
X30480000Y-113167240D01*
X30596525Y-113341632D01*
X30803368Y-113548475D01*
X31046589Y-113710990D01*
X31316842Y-113822932D01*
X31603740Y-113880000D01*
X31896260Y-113880000D01*
X32183158Y-113822932D01*
X32453411Y-113710990D01*
X32696632Y-113548475D01*
X32903475Y-113341632D01*
X33020000Y-113167240D01*
X33136525Y-113341632D01*
X33343368Y-113548475D01*
X33586589Y-113710990D01*
X33856842Y-113822932D01*
X34143740Y-113880000D01*
X34436260Y-113880000D01*
X34723158Y-113822932D01*
X34993411Y-113710990D01*
X35236632Y-113548475D01*
X35443475Y-113341632D01*
X35560000Y-113167240D01*
X35676525Y-113341632D01*
X35883368Y-113548475D01*
X36126589Y-113710990D01*
X36396842Y-113822932D01*
X36683740Y-113880000D01*
X36976260Y-113880000D01*
X37263158Y-113822932D01*
X37533411Y-113710990D01*
X37776632Y-113548475D01*
X37983475Y-113341632D01*
X38145990Y-113098411D01*
X38257932Y-112828158D01*
X38315000Y-112541260D01*
X38315000Y-112248740D01*
X38257932Y-111961842D01*
X38145990Y-111691589D01*
X37983475Y-111448368D01*
X37776632Y-111241525D01*
X37533411Y-111079010D01*
X37263158Y-110967068D01*
X36976260Y-110910000D01*
X36683740Y-110910000D01*
X36396842Y-110967068D01*
X36126589Y-111079010D01*
X35883368Y-111241525D01*
X35676525Y-111448368D01*
X35560000Y-111622760D01*
X35443475Y-111448368D01*
X35236632Y-111241525D01*
X34993411Y-111079010D01*
X34723158Y-110967068D01*
X34436260Y-110910000D01*
X34143740Y-110910000D01*
X33856842Y-110967068D01*
X33586589Y-111079010D01*
X33343368Y-111241525D01*
X33136525Y-111448368D01*
X33020000Y-111622760D01*
X32903475Y-111448368D01*
X32696632Y-111241525D01*
X32453411Y-111079010D01*
X32183158Y-110967068D01*
X31896260Y-110910000D01*
X31603740Y-110910000D01*
X31316842Y-110967068D01*
X31046589Y-111079010D01*
X30803368Y-111241525D01*
X30596525Y-111448368D01*
X30480000Y-111622760D01*
X30363475Y-111448368D01*
X30162500Y-111247393D01*
X30162500Y-106338000D01*
X36103928Y-106338000D01*
X36103928Y-108038000D01*
X36116188Y-108162482D01*
X36152498Y-108282180D01*
X36211463Y-108392494D01*
X36290815Y-108489185D01*
X36387506Y-108568537D01*
X36497820Y-108627502D01*
X36617518Y-108663812D01*
X36742000Y-108676072D01*
X38442000Y-108676072D01*
X38566482Y-108663812D01*
X38686180Y-108627502D01*
X38796494Y-108568537D01*
X38893185Y-108489185D01*
X38972537Y-108392494D01*
X39031502Y-108282180D01*
X39067812Y-108162482D01*
X39080072Y-108038000D01*
X39080072Y-107168740D01*
X42330000Y-107168740D01*
X42330000Y-107461260D01*
X42387068Y-107748158D01*
X42499010Y-108018411D01*
X42661525Y-108261632D01*
X42868368Y-108468475D01*
X43042760Y-108585000D01*
X42868368Y-108701525D01*
X42661525Y-108908368D01*
X42499010Y-109151589D01*
X42387068Y-109421842D01*
X42330000Y-109708740D01*
X42330000Y-110001260D01*
X42387068Y-110288158D01*
X42499010Y-110558411D01*
X42661525Y-110801632D01*
X42868368Y-111008475D01*
X43042760Y-111125000D01*
X42868368Y-111241525D01*
X42661525Y-111448368D01*
X42499010Y-111691589D01*
X42387068Y-111961842D01*
X42330000Y-112248740D01*
X42330000Y-112541260D01*
X42387068Y-112828158D01*
X42499010Y-113098411D01*
X42661525Y-113341632D01*
X42868368Y-113548475D01*
X43111589Y-113710990D01*
X43381842Y-113822932D01*
X43668740Y-113880000D01*
X43961260Y-113880000D01*
X44248158Y-113822932D01*
X44518411Y-113710990D01*
X44761632Y-113548475D01*
X44968475Y-113341632D01*
X45091842Y-113157000D01*
X46348158Y-113157000D01*
X46471525Y-113341632D01*
X46678368Y-113548475D01*
X46921589Y-113710990D01*
X47191842Y-113822932D01*
X47478740Y-113880000D01*
X47771260Y-113880000D01*
X48058158Y-113822932D01*
X48328411Y-113710990D01*
X48571632Y-113548475D01*
X48778475Y-113341632D01*
X48940990Y-113098411D01*
X49052932Y-112828158D01*
X49110000Y-112541260D01*
X49110000Y-112248740D01*
X49052932Y-111961842D01*
X48940990Y-111691589D01*
X48778475Y-111448368D01*
X48571632Y-111241525D01*
X48397240Y-111125000D01*
X48571632Y-111008475D01*
X48778475Y-110801632D01*
X48940990Y-110558411D01*
X49052932Y-110288158D01*
X49110000Y-110001260D01*
X49110000Y-109708740D01*
X49052932Y-109421842D01*
X48940990Y-109151589D01*
X48778475Y-108908368D01*
X48571632Y-108701525D01*
X48397240Y-108585000D01*
X48571632Y-108468475D01*
X48778475Y-108261632D01*
X48940990Y-108018411D01*
X49052932Y-107748158D01*
X49110000Y-107461260D01*
X49110000Y-107168740D01*
X49052932Y-106881842D01*
X48940990Y-106611589D01*
X48778475Y-106368368D01*
X48571632Y-106161525D01*
X48389466Y-106039805D01*
X48506355Y-105970178D01*
X48722588Y-105775269D01*
X48896641Y-105541920D01*
X49021825Y-105279099D01*
X49066476Y-105131890D01*
X48945155Y-104902000D01*
X47752000Y-104902000D01*
X47752000Y-104922000D01*
X47498000Y-104922000D01*
X47498000Y-104902000D01*
X46304845Y-104902000D01*
X46183524Y-105131890D01*
X46228175Y-105279099D01*
X46353359Y-105541920D01*
X46527412Y-105775269D01*
X46743645Y-105970178D01*
X46860534Y-106039805D01*
X46678368Y-106161525D01*
X46471525Y-106368368D01*
X46348158Y-106553000D01*
X45091842Y-106553000D01*
X44968475Y-106368368D01*
X44761632Y-106161525D01*
X44579466Y-106039805D01*
X44696355Y-105970178D01*
X44912588Y-105775269D01*
X45086641Y-105541920D01*
X45211825Y-105279099D01*
X45256476Y-105131890D01*
X45135155Y-104902000D01*
X43942000Y-104902000D01*
X43942000Y-104922000D01*
X43688000Y-104922000D01*
X43688000Y-104902000D01*
X42494845Y-104902000D01*
X42373524Y-105131890D01*
X42418175Y-105279099D01*
X42543359Y-105541920D01*
X42717412Y-105775269D01*
X42933645Y-105970178D01*
X43050534Y-106039805D01*
X42868368Y-106161525D01*
X42661525Y-106368368D01*
X42499010Y-106611589D01*
X42387068Y-106881842D01*
X42330000Y-107168740D01*
X39080072Y-107168740D01*
X39080072Y-106338000D01*
X39067812Y-106213518D01*
X39031502Y-106093820D01*
X38972537Y-105983506D01*
X38893185Y-105886815D01*
X38796494Y-105807463D01*
X38686180Y-105748498D01*
X38566482Y-105712188D01*
X38442000Y-105699928D01*
X36742000Y-105699928D01*
X36617518Y-105712188D01*
X36497820Y-105748498D01*
X36387506Y-105807463D01*
X36290815Y-105886815D01*
X36211463Y-105983506D01*
X36152498Y-106093820D01*
X36116188Y-106213518D01*
X36103928Y-106338000D01*
X30162500Y-106338000D01*
X30162500Y-105169538D01*
X32144538Y-103187500D01*
X37799215Y-103187500D01*
X37846000Y-103192108D01*
X37892785Y-103187500D01*
X42667393Y-103187500D01*
X42868368Y-103388475D01*
X43050534Y-103510195D01*
X42933645Y-103579822D01*
X42717412Y-103774731D01*
X42543359Y-104008080D01*
X42418175Y-104270901D01*
X42373524Y-104418110D01*
X42494845Y-104648000D01*
X43688000Y-104648000D01*
X43688000Y-104628000D01*
X43942000Y-104628000D01*
X43942000Y-104648000D01*
X45135155Y-104648000D01*
X45256476Y-104418110D01*
X45211825Y-104270901D01*
X45086641Y-104008080D01*
X44912588Y-103774731D01*
X44696355Y-103579822D01*
X44579466Y-103510195D01*
X44761632Y-103388475D01*
X44962607Y-103187500D01*
X46477393Y-103187500D01*
X46678368Y-103388475D01*
X46860534Y-103510195D01*
X46743645Y-103579822D01*
X46527412Y-103774731D01*
X46353359Y-104008080D01*
X46228175Y-104270901D01*
X46183524Y-104418110D01*
X46304845Y-104648000D01*
X47498000Y-104648000D01*
X47498000Y-104628000D01*
X47752000Y-104628000D01*
X47752000Y-104648000D01*
X48945155Y-104648000D01*
X49066476Y-104418110D01*
X49021825Y-104270901D01*
X48896641Y-104008080D01*
X48722588Y-103774731D01*
X48506355Y-103579822D01*
X48389466Y-103510195D01*
X48571632Y-103388475D01*
X48778475Y-103181632D01*
X48940990Y-102938411D01*
X49052932Y-102668158D01*
X49110000Y-102381260D01*
X49110000Y-102088740D01*
X49052932Y-101801842D01*
X48940990Y-101531589D01*
X48778475Y-101288368D01*
X48571632Y-101081525D01*
X48397240Y-100965000D01*
X48571632Y-100848475D01*
X48778475Y-100641632D01*
X48940990Y-100398411D01*
X49052932Y-100128158D01*
X49110000Y-99841260D01*
X49110000Y-99548740D01*
X49052932Y-99261842D01*
X48940990Y-98991589D01*
X48778475Y-98748368D01*
X48571632Y-98541525D01*
X48397240Y-98425000D01*
X48571632Y-98308475D01*
X48778475Y-98101632D01*
X48940990Y-97858411D01*
X49052932Y-97588158D01*
X49110000Y-97301260D01*
X49110000Y-97008740D01*
X49052932Y-96721842D01*
X48940990Y-96451589D01*
X48778475Y-96208368D01*
X48571632Y-96001525D01*
X48397240Y-95885000D01*
X48571632Y-95768475D01*
X48778475Y-95561632D01*
X48940990Y-95318411D01*
X49052932Y-95048158D01*
X49110000Y-94761260D01*
X49110000Y-94468740D01*
X49052932Y-94181842D01*
X48940990Y-93911589D01*
X48778475Y-93668368D01*
X48571632Y-93461525D01*
X48397240Y-93345000D01*
X48571632Y-93228475D01*
X48778475Y-93021632D01*
X48940990Y-92778411D01*
X49052932Y-92508158D01*
X49110000Y-92221260D01*
X49110000Y-91928740D01*
X49052932Y-91641842D01*
X48940990Y-91371589D01*
X48778475Y-91128368D01*
X48571632Y-90921525D01*
X48397240Y-90805000D01*
X48571632Y-90688475D01*
X48778475Y-90481632D01*
X48940990Y-90238411D01*
X49052932Y-89968158D01*
X49110000Y-89681260D01*
X49110000Y-89388740D01*
X49052932Y-89101842D01*
X48940990Y-88831589D01*
X48778475Y-88588368D01*
X48571632Y-88381525D01*
X48397240Y-88265000D01*
X48571632Y-88148475D01*
X48778475Y-87941632D01*
X48940990Y-87698411D01*
X49052932Y-87428158D01*
X49110000Y-87141260D01*
X49110000Y-86848740D01*
X49052932Y-86561842D01*
X48940990Y-86291589D01*
X48778475Y-86048368D01*
X48571632Y-85841525D01*
X48397240Y-85725000D01*
X48571632Y-85608475D01*
X48778475Y-85401632D01*
X48940990Y-85158411D01*
X49052932Y-84888158D01*
X49110000Y-84601260D01*
X49110000Y-84308740D01*
X49052932Y-84021842D01*
X48940990Y-83751589D01*
X48778475Y-83508368D01*
X48571632Y-83301525D01*
X48397240Y-83185000D01*
X48571632Y-83068475D01*
X48778475Y-82861632D01*
X48940990Y-82618411D01*
X49052932Y-82348158D01*
X49110000Y-82061260D01*
X49110000Y-81768740D01*
X49052932Y-81481842D01*
X48940990Y-81211589D01*
X48778475Y-80968368D01*
X48571632Y-80761525D01*
X48397240Y-80645000D01*
X48571632Y-80528475D01*
X48778475Y-80321632D01*
X48940990Y-80078411D01*
X49052932Y-79808158D01*
X49110000Y-79521260D01*
X49110000Y-79228740D01*
X49052932Y-78941842D01*
X48940990Y-78671589D01*
X48778475Y-78428368D01*
X48571632Y-78221525D01*
X48397240Y-78105000D01*
X48571632Y-77988475D01*
X48778475Y-77781632D01*
X48940990Y-77538411D01*
X49052932Y-77268158D01*
X49110000Y-76981260D01*
X49110000Y-76688740D01*
X49052932Y-76401842D01*
X48940990Y-76131589D01*
X48778475Y-75888368D01*
X48571632Y-75681525D01*
X48397240Y-75565000D01*
X48571632Y-75448475D01*
X48778475Y-75241632D01*
X48940990Y-74998411D01*
X49052932Y-74728158D01*
X49110000Y-74441260D01*
X49110000Y-74148740D01*
X49052932Y-73861842D01*
X48940990Y-73591589D01*
X48778475Y-73348368D01*
X48571632Y-73141525D01*
X48397240Y-73025000D01*
X48571632Y-72908475D01*
X48778475Y-72701632D01*
X48940990Y-72458411D01*
X49052932Y-72188158D01*
X49110000Y-71901260D01*
X49110000Y-71608740D01*
X49052932Y-71321842D01*
X48940990Y-71051589D01*
X48778475Y-70808368D01*
X48571632Y-70601525D01*
X48397240Y-70485000D01*
X48571632Y-70368475D01*
X48778475Y-70161632D01*
X48940990Y-69918411D01*
X49052932Y-69648158D01*
X49110000Y-69361260D01*
X49110000Y-69068740D01*
X49052932Y-68781842D01*
X48940990Y-68511589D01*
X48778475Y-68268368D01*
X48571632Y-68061525D01*
X48397240Y-67945000D01*
X48571632Y-67828475D01*
X48778475Y-67621632D01*
X48940990Y-67378411D01*
X49052932Y-67108158D01*
X49110000Y-66821260D01*
X49110000Y-66528740D01*
X49052932Y-66241842D01*
X48940990Y-65971589D01*
X48778475Y-65728368D01*
X48571632Y-65521525D01*
X48397240Y-65405000D01*
X48571632Y-65288475D01*
X48778475Y-65081632D01*
X48940990Y-64838411D01*
X49052932Y-64568158D01*
X49110000Y-64281260D01*
X49110000Y-63988740D01*
X49052932Y-63701842D01*
X48940990Y-63431589D01*
X48778475Y-63188368D01*
X48571632Y-62981525D01*
X48397240Y-62865000D01*
X48571632Y-62748475D01*
X48778475Y-62541632D01*
X48940990Y-62298411D01*
X49052932Y-62028158D01*
X49110000Y-61741260D01*
X49110000Y-61448740D01*
X49052932Y-61161842D01*
X48940990Y-60891589D01*
X48778475Y-60648368D01*
X48571632Y-60441525D01*
X48397240Y-60325000D01*
X48571632Y-60208475D01*
X48778475Y-60001632D01*
X48940990Y-59758411D01*
X49052932Y-59488158D01*
X49110000Y-59201260D01*
X49110000Y-58908740D01*
X49052932Y-58621842D01*
X48940990Y-58351589D01*
X48778475Y-58108368D01*
X48571632Y-57901525D01*
X48397240Y-57785000D01*
X48571632Y-57668475D01*
X48778475Y-57461632D01*
X48940990Y-57218411D01*
X49052932Y-56948158D01*
X49110000Y-56661260D01*
X49110000Y-56368740D01*
X49052932Y-56081842D01*
X48940990Y-55811589D01*
X48778475Y-55568368D01*
X48571632Y-55361525D01*
X48397240Y-55245000D01*
X48571632Y-55128475D01*
X48778475Y-54921632D01*
X48940990Y-54678411D01*
X49052932Y-54408158D01*
X49110000Y-54121260D01*
X49110000Y-53828740D01*
X49052932Y-53541842D01*
X48940990Y-53271589D01*
X48778475Y-53028368D01*
X48571632Y-52821525D01*
X48397240Y-52705000D01*
X48571632Y-52588475D01*
X48778475Y-52381632D01*
X48940990Y-52138411D01*
X49052932Y-51868158D01*
X49110000Y-51581260D01*
X49110000Y-51288740D01*
X49052932Y-51001842D01*
X48940990Y-50731589D01*
X48778475Y-50488368D01*
X48571632Y-50281525D01*
X48397240Y-50165000D01*
X48571632Y-50048475D01*
X48778475Y-49841632D01*
X48940990Y-49598411D01*
X49052932Y-49328158D01*
X49110000Y-49041260D01*
X49110000Y-48748740D01*
X49052932Y-48461842D01*
X48940990Y-48191589D01*
X48778475Y-47948368D01*
X48571632Y-47741525D01*
X48397240Y-47625000D01*
X48571632Y-47508475D01*
X48778475Y-47301632D01*
X48940990Y-47058411D01*
X49052932Y-46788158D01*
X49110000Y-46501260D01*
X49110000Y-46208740D01*
X49052932Y-45921842D01*
X48940990Y-45651589D01*
X48778475Y-45408368D01*
X48571632Y-45201525D01*
X48397240Y-45085000D01*
X48571632Y-44968475D01*
X48778475Y-44761632D01*
X48940990Y-44518411D01*
X49052932Y-44248158D01*
X49110000Y-43961260D01*
X49110000Y-43668740D01*
X49052932Y-43381842D01*
X48940990Y-43111589D01*
X48778475Y-42868368D01*
X48571632Y-42661525D01*
X48397240Y-42545000D01*
X48571632Y-42428475D01*
X48778475Y-42221632D01*
X48940990Y-41978411D01*
X49052932Y-41708158D01*
X49110000Y-41421260D01*
X49110000Y-41128740D01*
X49052932Y-40841842D01*
X48940990Y-40571589D01*
X48778475Y-40328368D01*
X48571632Y-40121525D01*
X48397240Y-40005000D01*
X48571632Y-39888475D01*
X48778475Y-39681632D01*
X48940990Y-39438411D01*
X49052932Y-39168158D01*
X49110000Y-38881260D01*
X49110000Y-38588740D01*
X49052932Y-38301842D01*
X48940990Y-38031589D01*
X48778475Y-37788368D01*
X48571632Y-37581525D01*
X48397240Y-37465000D01*
X48571632Y-37348475D01*
X48778475Y-37141632D01*
X48940990Y-36898411D01*
X49052932Y-36628158D01*
X49110000Y-36341260D01*
X49110000Y-36048740D01*
X49052932Y-35761842D01*
X48940990Y-35491589D01*
X48778475Y-35248368D01*
X48571632Y-35041525D01*
X48397240Y-34925000D01*
X48571632Y-34808475D01*
X48778475Y-34601632D01*
X48940990Y-34358411D01*
X49052932Y-34088158D01*
X49110000Y-33801260D01*
X49110000Y-33508740D01*
X49052932Y-33221842D01*
X48940990Y-32951589D01*
X48778475Y-32708368D01*
X48571632Y-32501525D01*
X48397240Y-32385000D01*
X48571632Y-32268475D01*
X48778475Y-32061632D01*
X48940990Y-31818411D01*
X49052932Y-31548158D01*
X49110000Y-31261260D01*
X49110000Y-30968740D01*
X49052932Y-30681842D01*
X48940990Y-30411589D01*
X48778475Y-30168368D01*
X48646620Y-30036513D01*
X48719180Y-30014502D01*
X48829494Y-29955537D01*
X48926185Y-29876185D01*
X49005537Y-29779494D01*
X49064502Y-29669180D01*
X49100812Y-29549482D01*
X49113072Y-29425000D01*
X49113072Y-27725000D01*
X49100812Y-27600518D01*
X49064502Y-27480820D01*
X49005537Y-27370506D01*
X48926185Y-27273815D01*
X48829494Y-27194463D01*
X48719180Y-27135498D01*
X48599482Y-27099188D01*
X48475000Y-27086928D01*
X46775000Y-27086928D01*
X46650518Y-27099188D01*
X46530820Y-27135498D01*
X46420506Y-27194463D01*
X46323815Y-27273815D01*
X46244463Y-27370506D01*
X46185498Y-27480820D01*
X46149188Y-27600518D01*
X46136928Y-27725000D01*
X46136928Y-27813000D01*
X45303072Y-27813000D01*
X45303072Y-27725000D01*
X45290812Y-27600518D01*
X45254502Y-27480820D01*
X45195537Y-27370506D01*
X45116185Y-27273815D01*
X45019494Y-27194463D01*
X44909180Y-27135498D01*
X44789482Y-27099188D01*
X44665000Y-27086928D01*
X42965000Y-27086928D01*
X42840518Y-27099188D01*
X42720820Y-27135498D01*
X42610506Y-27194463D01*
X42513815Y-27273815D01*
X42434463Y-27370506D01*
X42375498Y-27480820D01*
X42339188Y-27600518D01*
X42326928Y-27725000D01*
X42326928Y-28350441D01*
X39056527Y-31620843D01*
X38876335Y-31585000D01*
X38593665Y-31585000D01*
X38316426Y-31640147D01*
X38055273Y-31748320D01*
X37820241Y-31905363D01*
X37620363Y-32105241D01*
X37463320Y-32340273D01*
X37355147Y-32601426D01*
X37300000Y-32878665D01*
X37300000Y-33161335D01*
X37355147Y-33438574D01*
X37463320Y-33699727D01*
X37620363Y-33934759D01*
X37820241Y-34134637D01*
X38052759Y-34290000D01*
X37820241Y-34445363D01*
X37620363Y-34645241D01*
X37463320Y-34880273D01*
X37355147Y-35141426D01*
X37300000Y-35418665D01*
X37300000Y-35701335D01*
X37355147Y-35978574D01*
X37463320Y-36239727D01*
X37620363Y-36474759D01*
X37820241Y-36674637D01*
X38052759Y-36830000D01*
X37820241Y-36985363D01*
X37620363Y-37185241D01*
X37463320Y-37420273D01*
X37355147Y-37681426D01*
X37300000Y-37958665D01*
X37300000Y-38241335D01*
X37355147Y-38518574D01*
X37463320Y-38779727D01*
X37620363Y-39014759D01*
X37820241Y-39214637D01*
X38052759Y-39370000D01*
X37820241Y-39525363D01*
X37620363Y-39725241D01*
X37463320Y-39960273D01*
X37355147Y-40221426D01*
X37300000Y-40498665D01*
X37300000Y-40781335D01*
X37355147Y-41058574D01*
X37463320Y-41319727D01*
X37620363Y-41554759D01*
X37820241Y-41754637D01*
X38052759Y-41910000D01*
X37820241Y-42065363D01*
X37620363Y-42265241D01*
X37463320Y-42500273D01*
X37355147Y-42761426D01*
X37300000Y-43038665D01*
X37300000Y-43321335D01*
X37355147Y-43598574D01*
X37463320Y-43859727D01*
X37620363Y-44094759D01*
X37820241Y-44294637D01*
X38052759Y-44450000D01*
X37820241Y-44605363D01*
X37620363Y-44805241D01*
X37463320Y-45040273D01*
X37355147Y-45301426D01*
X37300000Y-45578665D01*
X37300000Y-45861335D01*
X37355147Y-46138574D01*
X37463320Y-46399727D01*
X37620363Y-46634759D01*
X37820241Y-46834637D01*
X38052759Y-46990000D01*
X37820241Y-47145363D01*
X37620363Y-47345241D01*
X37463320Y-47580273D01*
X37355147Y-47841426D01*
X37300000Y-48118665D01*
X37300000Y-48401335D01*
X37355147Y-48678574D01*
X37463320Y-48939727D01*
X37620363Y-49174759D01*
X37820241Y-49374637D01*
X38052759Y-49530000D01*
X37820241Y-49685363D01*
X37620363Y-49885241D01*
X37463320Y-50120273D01*
X37355147Y-50381426D01*
X37300000Y-50658665D01*
X37300000Y-50941335D01*
X37355147Y-51218574D01*
X37392189Y-51308002D01*
X32141747Y-51308002D01*
X32052150Y-51173911D01*
X31884099Y-51005860D01*
X31686492Y-50873823D01*
X31466923Y-50782875D01*
X31233830Y-50736510D01*
X30996170Y-50736510D01*
X30763077Y-50782875D01*
X30543508Y-50873823D01*
X30345901Y-51005860D01*
X30177850Y-51173911D01*
X30045813Y-51371518D01*
X29954865Y-51591087D01*
X29908500Y-51824180D01*
X29908500Y-52061840D01*
X29954865Y-52294933D01*
X30045813Y-52514502D01*
X30177850Y-52712109D01*
X30345901Y-52880160D01*
X30543508Y-53012197D01*
X30763077Y-53103145D01*
X30996170Y-53149510D01*
X31233830Y-53149510D01*
X31466923Y-53103145D01*
X31686492Y-53012197D01*
X31884099Y-52880160D01*
X31932257Y-52832002D01*
X37392188Y-52832002D01*
X37355147Y-52921426D01*
X37300000Y-53198665D01*
X37300000Y-53481335D01*
X37355147Y-53758574D01*
X37463320Y-54019727D01*
X37620363Y-54254759D01*
X37820241Y-54454637D01*
X38052759Y-54610000D01*
X37820241Y-54765363D01*
X37620363Y-54965241D01*
X37463320Y-55200273D01*
X37355147Y-55461426D01*
X37300000Y-55738665D01*
X37300000Y-56021335D01*
X37355147Y-56298574D01*
X37463320Y-56559727D01*
X37620363Y-56794759D01*
X37820241Y-56994637D01*
X38052759Y-57150000D01*
X37820241Y-57305363D01*
X37620363Y-57505241D01*
X37463320Y-57740273D01*
X37355147Y-58001426D01*
X37300000Y-58278665D01*
X37300000Y-58561335D01*
X37355147Y-58838574D01*
X37392188Y-58928000D01*
X32183893Y-58928000D01*
X32179150Y-58920901D01*
X32011099Y-58752850D01*
X31813492Y-58620813D01*
X31593923Y-58529865D01*
X31360830Y-58483500D01*
X31123170Y-58483500D01*
X30890077Y-58529865D01*
X30670508Y-58620813D01*
X30472901Y-58752850D01*
X30304850Y-58920901D01*
X30172813Y-59118508D01*
X30081865Y-59338077D01*
X30035500Y-59571170D01*
X30035500Y-59808830D01*
X30081865Y-60041923D01*
X30172813Y-60261492D01*
X30304850Y-60459099D01*
X30472901Y-60627150D01*
X30670508Y-60759187D01*
X30890077Y-60850135D01*
X31123170Y-60896500D01*
X31360830Y-60896500D01*
X31593923Y-60850135D01*
X31813492Y-60759187D01*
X32011099Y-60627150D01*
X32179150Y-60459099D01*
X32183893Y-60452000D01*
X37395529Y-60452000D01*
X37383754Y-60476913D01*
X37343096Y-60610961D01*
X37465085Y-60833000D01*
X38608000Y-60833000D01*
X38608000Y-60813000D01*
X38862000Y-60813000D01*
X38862000Y-60833000D01*
X40004915Y-60833000D01*
X40126904Y-60610961D01*
X40086246Y-60476913D01*
X39966037Y-60222580D01*
X39877447Y-60103065D01*
X40163512Y-59817000D01*
X42538158Y-59817000D01*
X42661525Y-60001632D01*
X42868368Y-60208475D01*
X43042760Y-60325000D01*
X42868368Y-60441525D01*
X42661525Y-60648368D01*
X42499010Y-60891589D01*
X42387068Y-61161842D01*
X42330000Y-61448740D01*
X42330000Y-61590473D01*
X42203015Y-61522598D01*
X42059378Y-61479026D01*
X41947426Y-61468000D01*
X41947423Y-61468000D01*
X41910000Y-61464314D01*
X41872577Y-61468000D01*
X40074471Y-61468000D01*
X40086246Y-61443087D01*
X40126904Y-61309039D01*
X40004915Y-61087000D01*
X38862000Y-61087000D01*
X38862000Y-61107000D01*
X38608000Y-61107000D01*
X38608000Y-61087000D01*
X37465085Y-61087000D01*
X37343096Y-61309039D01*
X37383754Y-61443087D01*
X37395529Y-61468000D01*
X27874631Y-61468000D01*
X26289000Y-59882370D01*
X26289000Y-52742423D01*
X26292686Y-52705000D01*
X26288281Y-52660273D01*
X26277974Y-52555622D01*
X26234402Y-52411985D01*
X26201465Y-52350364D01*
X26163645Y-52279607D01*
X26092279Y-52192648D01*
X26068422Y-52163578D01*
X26039352Y-52139721D01*
X24915228Y-51015598D01*
X24930000Y-50941335D01*
X24930000Y-50658665D01*
X24874853Y-50381426D01*
X24766680Y-50120273D01*
X24609637Y-49885241D01*
X24409759Y-49685363D01*
X24177241Y-49530000D01*
X24409759Y-49374637D01*
X24609637Y-49174759D01*
X24711707Y-49022000D01*
X31316115Y-49022000D01*
X31320858Y-49029099D01*
X31488909Y-49197150D01*
X31686516Y-49329187D01*
X31906085Y-49420135D01*
X32139178Y-49466500D01*
X32376838Y-49466500D01*
X32609931Y-49420135D01*
X32829500Y-49329187D01*
X33027107Y-49197150D01*
X33195158Y-49029099D01*
X33327195Y-48831492D01*
X33418143Y-48611923D01*
X33464508Y-48378830D01*
X33464508Y-48141170D01*
X33418143Y-47908077D01*
X33327195Y-47688508D01*
X33195158Y-47490901D01*
X33027107Y-47322850D01*
X32829500Y-47190813D01*
X32609931Y-47099865D01*
X32376838Y-47053500D01*
X32139178Y-47053500D01*
X31906085Y-47099865D01*
X31686516Y-47190813D01*
X31488909Y-47322850D01*
X31320858Y-47490901D01*
X31316115Y-47498000D01*
X24711707Y-47498000D01*
X24609637Y-47345241D01*
X24409759Y-47145363D01*
X24177241Y-46990000D01*
X24409759Y-46834637D01*
X24609637Y-46634759D01*
X24711707Y-46482000D01*
X32586107Y-46482000D01*
X32590850Y-46489099D01*
X32758901Y-46657150D01*
X32956508Y-46789187D01*
X33176077Y-46880135D01*
X33409170Y-46926500D01*
X33646830Y-46926500D01*
X33879923Y-46880135D01*
X34099492Y-46789187D01*
X34297099Y-46657150D01*
X34465150Y-46489099D01*
X34597187Y-46291492D01*
X34688135Y-46071923D01*
X34734500Y-45838830D01*
X34734500Y-45601170D01*
X34688135Y-45368077D01*
X34597187Y-45148508D01*
X34465150Y-44950901D01*
X34297099Y-44782850D01*
X34099492Y-44650813D01*
X33879923Y-44559865D01*
X33646830Y-44513500D01*
X33409170Y-44513500D01*
X33176077Y-44559865D01*
X32956508Y-44650813D01*
X32758901Y-44782850D01*
X32590850Y-44950901D01*
X32586107Y-44958000D01*
X24711707Y-44958000D01*
X24609637Y-44805241D01*
X24409759Y-44605363D01*
X24177241Y-44450000D01*
X24409759Y-44294637D01*
X24609637Y-44094759D01*
X24711707Y-43942000D01*
X32586107Y-43942000D01*
X32590850Y-43949099D01*
X32758901Y-44117150D01*
X32956508Y-44249187D01*
X33176077Y-44340135D01*
X33409170Y-44386500D01*
X33646830Y-44386500D01*
X33879923Y-44340135D01*
X34099492Y-44249187D01*
X34297099Y-44117150D01*
X34465150Y-43949099D01*
X34597187Y-43751492D01*
X34688135Y-43531923D01*
X34734500Y-43298830D01*
X34734500Y-43061170D01*
X34688135Y-42828077D01*
X34597187Y-42608508D01*
X34465150Y-42410901D01*
X34297099Y-42242850D01*
X34099492Y-42110813D01*
X33879923Y-42019865D01*
X33646830Y-41973500D01*
X33409170Y-41973500D01*
X33176077Y-42019865D01*
X32956508Y-42110813D01*
X32758901Y-42242850D01*
X32590850Y-42410901D01*
X32586107Y-42418000D01*
X24711707Y-42418000D01*
X24609637Y-42265241D01*
X24409759Y-42065363D01*
X24177241Y-41910000D01*
X24409759Y-41754637D01*
X24609637Y-41554759D01*
X24711707Y-41402000D01*
X32586103Y-41402000D01*
X32590846Y-41409099D01*
X32758897Y-41577150D01*
X32956504Y-41709187D01*
X33176073Y-41800135D01*
X33409166Y-41846500D01*
X33646826Y-41846500D01*
X33879919Y-41800135D01*
X34099488Y-41709187D01*
X34297095Y-41577150D01*
X34465146Y-41409099D01*
X34597183Y-41211492D01*
X34688131Y-40991923D01*
X34734496Y-40758830D01*
X34734496Y-40521170D01*
X34688131Y-40288077D01*
X34597183Y-40068508D01*
X34465146Y-39870901D01*
X34297095Y-39702850D01*
X34099488Y-39570813D01*
X33879919Y-39479865D01*
X33646826Y-39433500D01*
X33409166Y-39433500D01*
X33176073Y-39479865D01*
X32956504Y-39570813D01*
X32758897Y-39702850D01*
X32590846Y-39870901D01*
X32586103Y-39878000D01*
X24711707Y-39878000D01*
X24609637Y-39725241D01*
X24409759Y-39525363D01*
X24177241Y-39370000D01*
X24409759Y-39214637D01*
X24609637Y-39014759D01*
X24766680Y-38779727D01*
X24874853Y-38518574D01*
X24930000Y-38241335D01*
X24930000Y-37958665D01*
X24874853Y-37681426D01*
X24766680Y-37420273D01*
X24609637Y-37185241D01*
X24409759Y-36985363D01*
X24177241Y-36830000D01*
X24409759Y-36674637D01*
X24609637Y-36474759D01*
X24766680Y-36239727D01*
X24874853Y-35978574D01*
X24930000Y-35701335D01*
X24930000Y-35418665D01*
X24874853Y-35141426D01*
X24766680Y-34880273D01*
X24609637Y-34645241D01*
X24409759Y-34445363D01*
X24177241Y-34290000D01*
X24409759Y-34134637D01*
X24609637Y-33934759D01*
X24766680Y-33699727D01*
X24874853Y-33438574D01*
X24930000Y-33161335D01*
X24930000Y-32878665D01*
X24874853Y-32601426D01*
X24766680Y-32340273D01*
X24609637Y-32105241D01*
X24409759Y-31905363D01*
X24174727Y-31748320D01*
X23913574Y-31640147D01*
X23636335Y-31585000D01*
X23353665Y-31585000D01*
X23076426Y-31640147D01*
X22815273Y-31748320D01*
X22580241Y-31905363D01*
X22380363Y-32105241D01*
X22250000Y-32300343D01*
X22250000Y-27337279D01*
X22264722Y-27187131D01*
X22298953Y-27073754D01*
X22354555Y-26969181D01*
X22429407Y-26877404D01*
X22520664Y-26801909D01*
X22624844Y-26745581D01*
X22737976Y-26710560D01*
X22886022Y-26695000D01*
X48862721Y-26695000D01*
X49012869Y-26709722D01*
G36*
X42661525Y-87941632D02*
G01*
X42868368Y-88148475D01*
X43042760Y-88265000D01*
X42868368Y-88381525D01*
X42661525Y-88588368D01*
X42499010Y-88831589D01*
X42387068Y-89101842D01*
X42330000Y-89388740D01*
X42330000Y-89681260D01*
X42387068Y-89968158D01*
X42499010Y-90238411D01*
X42661525Y-90481632D01*
X42868368Y-90688475D01*
X43042760Y-90805000D01*
X42868368Y-90921525D01*
X42661525Y-91128368D01*
X42499010Y-91371589D01*
X42387068Y-91641842D01*
X42330000Y-91928740D01*
X42330000Y-92221260D01*
X42387068Y-92508158D01*
X42499010Y-92778411D01*
X42661525Y-93021632D01*
X42868368Y-93228475D01*
X43042760Y-93345000D01*
X42868368Y-93461525D01*
X42661525Y-93668368D01*
X42499010Y-93911589D01*
X42387068Y-94181842D01*
X42330000Y-94468740D01*
X42330000Y-94761260D01*
X42387068Y-95048158D01*
X42499010Y-95318411D01*
X42661525Y-95561632D01*
X42868368Y-95768475D01*
X43042760Y-95885000D01*
X42868368Y-96001525D01*
X42661525Y-96208368D01*
X42499010Y-96451589D01*
X42387068Y-96721842D01*
X42330000Y-97008740D01*
X42330000Y-97301260D01*
X42387068Y-97588158D01*
X42499010Y-97858411D01*
X42661525Y-98101632D01*
X42868368Y-98308475D01*
X43042760Y-98425000D01*
X42868368Y-98541525D01*
X42661525Y-98748368D01*
X42499010Y-98991589D01*
X42387068Y-99261842D01*
X42330000Y-99548740D01*
X42330000Y-99841260D01*
X42387068Y-100128158D01*
X42499010Y-100398411D01*
X42661525Y-100641632D01*
X42868368Y-100848475D01*
X43042760Y-100965000D01*
X42868368Y-101081525D01*
X42667393Y-101282500D01*
X38925500Y-101282500D01*
X38925500Y-97709496D01*
X39142744Y-97564338D01*
X39398338Y-97308744D01*
X39599156Y-97008199D01*
X39737482Y-96674250D01*
X39808000Y-96319732D01*
X39808000Y-95958268D01*
X39737482Y-95603750D01*
X39599156Y-95269801D01*
X39398338Y-94969256D01*
X39142744Y-94713662D01*
X38842199Y-94512844D01*
X38508250Y-94374518D01*
X38290500Y-94331205D01*
X38290500Y-88161986D01*
X38489170Y-88201504D01*
X38726830Y-88201504D01*
X38959923Y-88155139D01*
X39179492Y-88064191D01*
X39377099Y-87932154D01*
X39545150Y-87764103D01*
X39549896Y-87757000D01*
X42538158Y-87757000D01*
X42661525Y-87941632D01*
G37*
X42661525Y-87941632D02*
X42868368Y-88148475D01*
X43042760Y-88265000D01*
X42868368Y-88381525D01*
X42661525Y-88588368D01*
X42499010Y-88831589D01*
X42387068Y-89101842D01*
X42330000Y-89388740D01*
X42330000Y-89681260D01*
X42387068Y-89968158D01*
X42499010Y-90238411D01*
X42661525Y-90481632D01*
X42868368Y-90688475D01*
X43042760Y-90805000D01*
X42868368Y-90921525D01*
X42661525Y-91128368D01*
X42499010Y-91371589D01*
X42387068Y-91641842D01*
X42330000Y-91928740D01*
X42330000Y-92221260D01*
X42387068Y-92508158D01*
X42499010Y-92778411D01*
X42661525Y-93021632D01*
X42868368Y-93228475D01*
X43042760Y-93345000D01*
X42868368Y-93461525D01*
X42661525Y-93668368D01*
X42499010Y-93911589D01*
X42387068Y-94181842D01*
X42330000Y-94468740D01*
X42330000Y-94761260D01*
X42387068Y-95048158D01*
X42499010Y-95318411D01*
X42661525Y-95561632D01*
X42868368Y-95768475D01*
X43042760Y-95885000D01*
X42868368Y-96001525D01*
X42661525Y-96208368D01*
X42499010Y-96451589D01*
X42387068Y-96721842D01*
X42330000Y-97008740D01*
X42330000Y-97301260D01*
X42387068Y-97588158D01*
X42499010Y-97858411D01*
X42661525Y-98101632D01*
X42868368Y-98308475D01*
X43042760Y-98425000D01*
X42868368Y-98541525D01*
X42661525Y-98748368D01*
X42499010Y-98991589D01*
X42387068Y-99261842D01*
X42330000Y-99548740D01*
X42330000Y-99841260D01*
X42387068Y-100128158D01*
X42499010Y-100398411D01*
X42661525Y-100641632D01*
X42868368Y-100848475D01*
X43042760Y-100965000D01*
X42868368Y-101081525D01*
X42667393Y-101282500D01*
X38925500Y-101282500D01*
X38925500Y-97709496D01*
X39142744Y-97564338D01*
X39398338Y-97308744D01*
X39599156Y-97008199D01*
X39737482Y-96674250D01*
X39808000Y-96319732D01*
X39808000Y-95958268D01*
X39737482Y-95603750D01*
X39599156Y-95269801D01*
X39398338Y-94969256D01*
X39142744Y-94713662D01*
X38842199Y-94512844D01*
X38508250Y-94374518D01*
X38290500Y-94331205D01*
X38290500Y-88161986D01*
X38489170Y-88201504D01*
X38726830Y-88201504D01*
X38959923Y-88155139D01*
X39179492Y-88064191D01*
X39377099Y-87932154D01*
X39545150Y-87764103D01*
X39549896Y-87757000D01*
X42538158Y-87757000D01*
X42661525Y-87941632D01*
G36*
X41592510Y-81659141D02*
G01*
X41592511Y-84783106D01*
X41585411Y-84787850D01*
X41417360Y-84955901D01*
X41285323Y-85153508D01*
X41194375Y-85373077D01*
X41148010Y-85606170D01*
X41148010Y-85843830D01*
X41194375Y-86076923D01*
X41259024Y-86233000D01*
X39549891Y-86233000D01*
X39545150Y-86225905D01*
X39377099Y-86057854D01*
X39179492Y-85925817D01*
X38959923Y-85834869D01*
X38726830Y-85788504D01*
X38489170Y-85788504D01*
X38290500Y-85828022D01*
X38290500Y-84722538D01*
X40518431Y-82494607D01*
X40554778Y-82464778D01*
X40673806Y-82319741D01*
X40762252Y-82154269D01*
X40816717Y-81974723D01*
X40830500Y-81834785D01*
X40835108Y-81788001D01*
X40830500Y-81741216D01*
X40830500Y-80897131D01*
X41592510Y-81659141D01*
G37*
X41592510Y-81659141D02*
X41592511Y-84783106D01*
X41585411Y-84787850D01*
X41417360Y-84955901D01*
X41285323Y-85153508D01*
X41194375Y-85373077D01*
X41148010Y-85606170D01*
X41148010Y-85843830D01*
X41194375Y-86076923D01*
X41259024Y-86233000D01*
X39549891Y-86233000D01*
X39545150Y-86225905D01*
X39377099Y-86057854D01*
X39179492Y-85925817D01*
X38959923Y-85834869D01*
X38726830Y-85788504D01*
X38489170Y-85788504D01*
X38290500Y-85828022D01*
X38290500Y-84722538D01*
X40518431Y-82494607D01*
X40554778Y-82464778D01*
X40673806Y-82319741D01*
X40762252Y-82154269D01*
X40816717Y-81974723D01*
X40830500Y-81834785D01*
X40835108Y-81788001D01*
X40830500Y-81741216D01*
X40830500Y-80897131D01*
X41592510Y-81659141D01*
G36*
X33752700Y-79123184D02*
G01*
X33738783Y-79405512D01*
X33780213Y-79685130D01*
X33875397Y-79951292D01*
X33942329Y-80076514D01*
X34186298Y-80148097D01*
X34999395Y-79335000D01*
X34985253Y-79320858D01*
X35164858Y-79141253D01*
X35179000Y-79155395D01*
X35193143Y-79141253D01*
X35372748Y-79320858D01*
X35358605Y-79335000D01*
X36171702Y-80148097D01*
X36315296Y-80105965D01*
X36208518Y-80363750D01*
X36138000Y-80718268D01*
X36138000Y-81079732D01*
X36208518Y-81434250D01*
X36346844Y-81768199D01*
X36547662Y-82068744D01*
X36803256Y-82324338D01*
X37103801Y-82525156D01*
X37437750Y-82663482D01*
X37619356Y-82699606D01*
X36697569Y-83621393D01*
X36661222Y-83651222D01*
X36542194Y-83796259D01*
X36453748Y-83961732D01*
X36435514Y-84021842D01*
X36399283Y-84141278D01*
X36380892Y-84328000D01*
X36385500Y-84374785D01*
X36385500Y-85802756D01*
X36313830Y-85788500D01*
X36076170Y-85788500D01*
X36067796Y-85790166D01*
X34220284Y-83942654D01*
X34196422Y-83913578D01*
X34080392Y-83818355D01*
X33948015Y-83747598D01*
X33804378Y-83704026D01*
X33692426Y-83693000D01*
X33692423Y-83693000D01*
X33655000Y-83689314D01*
X33617577Y-83693000D01*
X32966707Y-83693000D01*
X32864637Y-83540241D01*
X32664759Y-83340363D01*
X32429727Y-83183320D01*
X32419135Y-83178933D01*
X32605131Y-83067385D01*
X32813519Y-82878414D01*
X32981037Y-82652420D01*
X33101246Y-82398087D01*
X33141904Y-82264039D01*
X33019915Y-82042000D01*
X31877000Y-82042000D01*
X31877000Y-82062000D01*
X31623000Y-82062000D01*
X31623000Y-82042000D01*
X31603000Y-82042000D01*
X31603000Y-81788000D01*
X31623000Y-81788000D01*
X31623000Y-81768000D01*
X31877000Y-81768000D01*
X31877000Y-81788000D01*
X33019915Y-81788000D01*
X33141904Y-81565961D01*
X33101246Y-81431913D01*
X32981037Y-81177580D01*
X32813519Y-80951586D01*
X32605131Y-80762615D01*
X32419135Y-80651067D01*
X32429727Y-80646680D01*
X32664759Y-80489637D01*
X32826694Y-80327702D01*
X34365903Y-80327702D01*
X34437486Y-80571671D01*
X34692996Y-80692571D01*
X34967184Y-80761300D01*
X35249512Y-80775217D01*
X35529130Y-80733787D01*
X35795292Y-80638603D01*
X35920514Y-80571671D01*
X35992097Y-80327702D01*
X35179000Y-79514605D01*
X34365903Y-80327702D01*
X32826694Y-80327702D01*
X32864637Y-80289759D01*
X33021680Y-80054727D01*
X33129853Y-79793574D01*
X33185000Y-79516335D01*
X33185000Y-79233665D01*
X33149157Y-79053473D01*
X33335631Y-78867000D01*
X33816916Y-78867000D01*
X33752700Y-79123184D01*
G37*
X33752700Y-79123184D02*
X33738783Y-79405512D01*
X33780213Y-79685130D01*
X33875397Y-79951292D01*
X33942329Y-80076514D01*
X34186298Y-80148097D01*
X34999395Y-79335000D01*
X34985253Y-79320858D01*
X35164858Y-79141253D01*
X35179000Y-79155395D01*
X35193143Y-79141253D01*
X35372748Y-79320858D01*
X35358605Y-79335000D01*
X36171702Y-80148097D01*
X36315296Y-80105965D01*
X36208518Y-80363750D01*
X36138000Y-80718268D01*
X36138000Y-81079732D01*
X36208518Y-81434250D01*
X36346844Y-81768199D01*
X36547662Y-82068744D01*
X36803256Y-82324338D01*
X37103801Y-82525156D01*
X37437750Y-82663482D01*
X37619356Y-82699606D01*
X36697569Y-83621393D01*
X36661222Y-83651222D01*
X36542194Y-83796259D01*
X36453748Y-83961732D01*
X36435514Y-84021842D01*
X36399283Y-84141278D01*
X36380892Y-84328000D01*
X36385500Y-84374785D01*
X36385500Y-85802756D01*
X36313830Y-85788500D01*
X36076170Y-85788500D01*
X36067796Y-85790166D01*
X34220284Y-83942654D01*
X34196422Y-83913578D01*
X34080392Y-83818355D01*
X33948015Y-83747598D01*
X33804378Y-83704026D01*
X33692426Y-83693000D01*
X33692423Y-83693000D01*
X33655000Y-83689314D01*
X33617577Y-83693000D01*
X32966707Y-83693000D01*
X32864637Y-83540241D01*
X32664759Y-83340363D01*
X32429727Y-83183320D01*
X32419135Y-83178933D01*
X32605131Y-83067385D01*
X32813519Y-82878414D01*
X32981037Y-82652420D01*
X33101246Y-82398087D01*
X33141904Y-82264039D01*
X33019915Y-82042000D01*
X31877000Y-82042000D01*
X31877000Y-82062000D01*
X31623000Y-82062000D01*
X31623000Y-82042000D01*
X31603000Y-82042000D01*
X31603000Y-81788000D01*
X31623000Y-81788000D01*
X31623000Y-81768000D01*
X31877000Y-81768000D01*
X31877000Y-81788000D01*
X33019915Y-81788000D01*
X33141904Y-81565961D01*
X33101246Y-81431913D01*
X32981037Y-81177580D01*
X32813519Y-80951586D01*
X32605131Y-80762615D01*
X32419135Y-80651067D01*
X32429727Y-80646680D01*
X32664759Y-80489637D01*
X32826694Y-80327702D01*
X34365903Y-80327702D01*
X34437486Y-80571671D01*
X34692996Y-80692571D01*
X34967184Y-80761300D01*
X35249512Y-80775217D01*
X35529130Y-80733787D01*
X35795292Y-80638603D01*
X35920514Y-80571671D01*
X35992097Y-80327702D01*
X35179000Y-79514605D01*
X34365903Y-80327702D01*
X32826694Y-80327702D01*
X32864637Y-80289759D01*
X33021680Y-80054727D01*
X33129853Y-79793574D01*
X33185000Y-79516335D01*
X33185000Y-79233665D01*
X33149157Y-79053473D01*
X33335631Y-78867000D01*
X33816916Y-78867000D01*
X33752700Y-79123184D01*
G36*
X29460314Y-80899000D02*
G01*
X29464000Y-80936423D01*
X29464001Y-83693000D01*
X25346707Y-83693000D01*
X25244637Y-83540241D01*
X25044759Y-83340363D01*
X24812241Y-83185000D01*
X25044759Y-83029637D01*
X25244637Y-82829759D01*
X25346707Y-82677000D01*
X27267589Y-82677000D01*
X27305012Y-82680686D01*
X27342435Y-82677000D01*
X27342438Y-82677000D01*
X27454390Y-82665974D01*
X27598027Y-82622402D01*
X27730404Y-82551645D01*
X27846434Y-82456422D01*
X27870296Y-82427346D01*
X29467052Y-80830590D01*
X29460314Y-80899000D01*
G37*
X29460314Y-80899000D02*
X29464000Y-80936423D01*
X29464001Y-83693000D01*
X25346707Y-83693000D01*
X25244637Y-83540241D01*
X25044759Y-83340363D01*
X24812241Y-83185000D01*
X25044759Y-83029637D01*
X25244637Y-82829759D01*
X25346707Y-82677000D01*
X27267589Y-82677000D01*
X27305012Y-82680686D01*
X27342435Y-82677000D01*
X27342438Y-82677000D01*
X27454390Y-82665974D01*
X27598027Y-82622402D01*
X27730404Y-82551645D01*
X27846434Y-82456422D01*
X27870296Y-82427346D01*
X29467052Y-80830590D01*
X29460314Y-80899000D01*
G36*
X29454027Y-78156657D02*
G01*
X29400508Y-78178825D01*
X29202901Y-78310862D01*
X29034850Y-78478913D01*
X28902813Y-78676520D01*
X28811865Y-78896089D01*
X28765500Y-79129182D01*
X28765500Y-79366842D01*
X28767166Y-79375216D01*
X26989382Y-81153000D01*
X25346707Y-81153000D01*
X25244637Y-81000241D01*
X25044759Y-80800363D01*
X24812241Y-80645000D01*
X25044759Y-80489637D01*
X25244637Y-80289759D01*
X25346707Y-80137000D01*
X26109107Y-80137000D01*
X26113850Y-80144099D01*
X26281901Y-80312150D01*
X26479508Y-80444187D01*
X26699077Y-80535135D01*
X26932170Y-80581500D01*
X27169830Y-80581500D01*
X27402923Y-80535135D01*
X27622492Y-80444187D01*
X27820099Y-80312150D01*
X27988150Y-80144099D01*
X28120187Y-79946492D01*
X28211135Y-79726923D01*
X28257500Y-79493830D01*
X28257500Y-79256170D01*
X28211135Y-79023077D01*
X28120187Y-78803508D01*
X27988150Y-78605901D01*
X27820099Y-78437850D01*
X27622492Y-78305813D01*
X27402923Y-78214865D01*
X27169830Y-78168500D01*
X26932170Y-78168500D01*
X26699077Y-78214865D01*
X26479508Y-78305813D01*
X26281901Y-78437850D01*
X26113850Y-78605901D01*
X26109107Y-78613000D01*
X25346707Y-78613000D01*
X25244637Y-78460241D01*
X25046039Y-78261643D01*
X25054482Y-78260812D01*
X25174180Y-78224502D01*
X25284494Y-78165537D01*
X25381185Y-78086185D01*
X25460537Y-77989494D01*
X25519502Y-77879180D01*
X25555812Y-77759482D01*
X25568072Y-77635000D01*
X25568072Y-77597000D01*
X28894370Y-77597000D01*
X29454027Y-78156657D01*
G37*
X29454027Y-78156657D02*
X29400508Y-78178825D01*
X29202901Y-78310862D01*
X29034850Y-78478913D01*
X28902813Y-78676520D01*
X28811865Y-78896089D01*
X28765500Y-79129182D01*
X28765500Y-79366842D01*
X28767166Y-79375216D01*
X26989382Y-81153000D01*
X25346707Y-81153000D01*
X25244637Y-81000241D01*
X25044759Y-80800363D01*
X24812241Y-80645000D01*
X25044759Y-80489637D01*
X25244637Y-80289759D01*
X25346707Y-80137000D01*
X26109107Y-80137000D01*
X26113850Y-80144099D01*
X26281901Y-80312150D01*
X26479508Y-80444187D01*
X26699077Y-80535135D01*
X26932170Y-80581500D01*
X27169830Y-80581500D01*
X27402923Y-80535135D01*
X27622492Y-80444187D01*
X27820099Y-80312150D01*
X27988150Y-80144099D01*
X28120187Y-79946492D01*
X28211135Y-79726923D01*
X28257500Y-79493830D01*
X28257500Y-79256170D01*
X28211135Y-79023077D01*
X28120187Y-78803508D01*
X27988150Y-78605901D01*
X27820099Y-78437850D01*
X27622492Y-78305813D01*
X27402923Y-78214865D01*
X27169830Y-78168500D01*
X26932170Y-78168500D01*
X26699077Y-78214865D01*
X26479508Y-78305813D01*
X26281901Y-78437850D01*
X26113850Y-78605901D01*
X26109107Y-78613000D01*
X25346707Y-78613000D01*
X25244637Y-78460241D01*
X25046039Y-78261643D01*
X25054482Y-78260812D01*
X25174180Y-78224502D01*
X25284494Y-78165537D01*
X25381185Y-78086185D01*
X25460537Y-77989494D01*
X25519502Y-77879180D01*
X25555812Y-77759482D01*
X25568072Y-77635000D01*
X25568072Y-77597000D01*
X28894370Y-77597000D01*
X29454027Y-78156657D01*
G36*
X27409622Y-62980974D02*
G01*
X27521574Y-62992000D01*
X27521577Y-62992000D01*
X27559000Y-62995686D01*
X27596423Y-62992000D01*
X37392188Y-62992000D01*
X37355147Y-63081426D01*
X37300000Y-63358665D01*
X37300000Y-63641335D01*
X37355147Y-63918574D01*
X37463320Y-64179727D01*
X37620363Y-64414759D01*
X37820241Y-64614637D01*
X38052759Y-64770000D01*
X37820241Y-64925363D01*
X37620363Y-65125241D01*
X37463320Y-65360273D01*
X37355147Y-65621426D01*
X37300000Y-65898665D01*
X37300000Y-66181335D01*
X37355147Y-66458574D01*
X37463320Y-66719727D01*
X37620363Y-66954759D01*
X37818961Y-67153357D01*
X37810518Y-67154188D01*
X37690820Y-67190498D01*
X37580506Y-67249463D01*
X37483815Y-67328815D01*
X37404463Y-67425506D01*
X37345498Y-67535820D01*
X37309188Y-67655518D01*
X37296928Y-67780000D01*
X37296928Y-69380000D01*
X37305693Y-69469000D01*
X32056893Y-69469000D01*
X32052150Y-69461901D01*
X31884099Y-69293850D01*
X31686492Y-69161813D01*
X31466923Y-69070865D01*
X31233830Y-69024500D01*
X30996170Y-69024500D01*
X30763077Y-69070865D01*
X30734000Y-69082909D01*
X30734000Y-66712423D01*
X30737686Y-66675000D01*
X30734000Y-66637574D01*
X30722974Y-66525622D01*
X30679402Y-66381985D01*
X30608646Y-66249609D01*
X30608645Y-66249607D01*
X30537279Y-66162648D01*
X30513422Y-66133578D01*
X30484353Y-66109722D01*
X27332083Y-62957453D01*
X27409622Y-62980974D01*
G37*
X27409622Y-62980974D02*
X27521574Y-62992000D01*
X27521577Y-62992000D01*
X27559000Y-62995686D01*
X27596423Y-62992000D01*
X37392188Y-62992000D01*
X37355147Y-63081426D01*
X37300000Y-63358665D01*
X37300000Y-63641335D01*
X37355147Y-63918574D01*
X37463320Y-64179727D01*
X37620363Y-64414759D01*
X37820241Y-64614637D01*
X38052759Y-64770000D01*
X37820241Y-64925363D01*
X37620363Y-65125241D01*
X37463320Y-65360273D01*
X37355147Y-65621426D01*
X37300000Y-65898665D01*
X37300000Y-66181335D01*
X37355147Y-66458574D01*
X37463320Y-66719727D01*
X37620363Y-66954759D01*
X37818961Y-67153357D01*
X37810518Y-67154188D01*
X37690820Y-67190498D01*
X37580506Y-67249463D01*
X37483815Y-67328815D01*
X37404463Y-67425506D01*
X37345498Y-67535820D01*
X37309188Y-67655518D01*
X37296928Y-67780000D01*
X37296928Y-69380000D01*
X37305693Y-69469000D01*
X32056893Y-69469000D01*
X32052150Y-69461901D01*
X31884099Y-69293850D01*
X31686492Y-69161813D01*
X31466923Y-69070865D01*
X31233830Y-69024500D01*
X30996170Y-69024500D01*
X30763077Y-69070865D01*
X30734000Y-69082909D01*
X30734000Y-66712423D01*
X30737686Y-66675000D01*
X30734000Y-66637574D01*
X30722974Y-66525622D01*
X30679402Y-66381985D01*
X30608646Y-66249609D01*
X30608645Y-66249607D01*
X30537279Y-66162648D01*
X30513422Y-66133578D01*
X30484353Y-66109722D01*
X27332083Y-62957453D01*
X27409622Y-62980974D01*
%TD*%
M02*
