%TF.GenerationSoftware,KiCad,Pcbnew,(5.1.6)-1*%
%TF.CreationDate,2021-03-12T09:15:54-05:00*%
%TF.ProjectId,BallySternArduino,42616c6c-7953-4746-9572-6e4172647569,rev?*%
%TF.SameCoordinates,Original*%
%TF.FileFunction,Legend,Top*%
%TF.FilePolarity,Positive*%
%FSLAX46Y46*%
G04 Gerber Fmt 4.6, Leading zero omitted, Abs format (unit mm)*
G04 Created by KiCad (PCBNEW (5.1.6)-1) date 2021-03-12 09:15:54*
%MOMM*%
%LPD*%
G01*
G04 APERTURE LIST*
%ADD10C,0.300000*%
%ADD11C,0.150000*%
%ADD12C,0.120000*%
G04 APERTURE END LIST*
D10*
X35095571Y-106075285D02*
X33595571Y-106075285D01*
X34167000Y-106075285D02*
X34095571Y-105932428D01*
X34095571Y-105646714D01*
X34167000Y-105503857D01*
X34238428Y-105432428D01*
X34381285Y-105361000D01*
X34809857Y-105361000D01*
X34952714Y-105432428D01*
X35024142Y-105503857D01*
X35095571Y-105646714D01*
X35095571Y-105932428D01*
X35024142Y-106075285D01*
X35095571Y-104075285D02*
X34309857Y-104075285D01*
X34167000Y-104146714D01*
X34095571Y-104289571D01*
X34095571Y-104575285D01*
X34167000Y-104718142D01*
X35024142Y-104075285D02*
X35095571Y-104218142D01*
X35095571Y-104575285D01*
X35024142Y-104718142D01*
X34881285Y-104789571D01*
X34738428Y-104789571D01*
X34595571Y-104718142D01*
X34524142Y-104575285D01*
X34524142Y-104218142D01*
X34452714Y-104075285D01*
X35095571Y-103146714D02*
X35024142Y-103289571D01*
X34881285Y-103361000D01*
X33595571Y-103361000D01*
X35095571Y-102361000D02*
X35024142Y-102503857D01*
X34881285Y-102575285D01*
X33595571Y-102575285D01*
X34095571Y-101932428D02*
X35095571Y-101575285D01*
X34095571Y-101218142D02*
X35095571Y-101575285D01*
X35452714Y-101718142D01*
X35524142Y-101789571D01*
X35595571Y-101932428D01*
X35024142Y-100718142D02*
X35095571Y-100575285D01*
X35095571Y-100289571D01*
X35024142Y-100146714D01*
X34881285Y-100075285D01*
X34809857Y-100075285D01*
X34667000Y-100146714D01*
X34595571Y-100289571D01*
X34595571Y-100503857D01*
X34524142Y-100646714D01*
X34381285Y-100718142D01*
X34309857Y-100718142D01*
X34167000Y-100646714D01*
X34095571Y-100503857D01*
X34095571Y-100289571D01*
X34167000Y-100146714D01*
X34095571Y-99646714D02*
X34095571Y-99075285D01*
X33595571Y-99432428D02*
X34881285Y-99432428D01*
X35024142Y-99361000D01*
X35095571Y-99218142D01*
X35095571Y-99075285D01*
X35024142Y-98003857D02*
X35095571Y-98146714D01*
X35095571Y-98432428D01*
X35024142Y-98575285D01*
X34881285Y-98646714D01*
X34309857Y-98646714D01*
X34167000Y-98575285D01*
X34095571Y-98432428D01*
X34095571Y-98146714D01*
X34167000Y-98003857D01*
X34309857Y-97932428D01*
X34452714Y-97932428D01*
X34595571Y-98646714D01*
X35095571Y-97289571D02*
X34095571Y-97289571D01*
X34381285Y-97289571D02*
X34238428Y-97218142D01*
X34167000Y-97146714D01*
X34095571Y-97003857D01*
X34095571Y-96861000D01*
X34095571Y-96361000D02*
X35095571Y-96361000D01*
X34238428Y-96361000D02*
X34167000Y-96289571D01*
X34095571Y-96146714D01*
X34095571Y-95932428D01*
X34167000Y-95789571D01*
X34309857Y-95718142D01*
X35095571Y-95718142D01*
X35095571Y-94789571D02*
X35024142Y-94932428D01*
X34952714Y-95003857D01*
X34809857Y-95075285D01*
X34381285Y-95075285D01*
X34238428Y-95003857D01*
X34167000Y-94932428D01*
X34095571Y-94789571D01*
X34095571Y-94575285D01*
X34167000Y-94432428D01*
X34238428Y-94361000D01*
X34381285Y-94289571D01*
X34809857Y-94289571D01*
X34952714Y-94361000D01*
X35024142Y-94432428D01*
X35095571Y-94575285D01*
X35095571Y-94789571D01*
X35024142Y-93718142D02*
X35095571Y-93575285D01*
X35095571Y-93289571D01*
X35024142Y-93146714D01*
X34881285Y-93075285D01*
X34809857Y-93075285D01*
X34667000Y-93146714D01*
X34595571Y-93289571D01*
X34595571Y-93503857D01*
X34524142Y-93646714D01*
X34381285Y-93718142D01*
X34309857Y-93718142D01*
X34167000Y-93646714D01*
X34095571Y-93503857D01*
X34095571Y-93289571D01*
X34167000Y-93146714D01*
X34952714Y-92432428D02*
X35024142Y-92361000D01*
X35095571Y-92432428D01*
X35024142Y-92503857D01*
X34952714Y-92432428D01*
X35095571Y-92432428D01*
X34095571Y-91075285D02*
X35309857Y-91075285D01*
X35452714Y-91146714D01*
X35524142Y-91218142D01*
X35595571Y-91361000D01*
X35595571Y-91575285D01*
X35524142Y-91718142D01*
X35024142Y-91075285D02*
X35095571Y-91218142D01*
X35095571Y-91503857D01*
X35024142Y-91646714D01*
X34952714Y-91718142D01*
X34809857Y-91789571D01*
X34381285Y-91789571D01*
X34238428Y-91718142D01*
X34167000Y-91646714D01*
X34095571Y-91503857D01*
X34095571Y-91218142D01*
X34167000Y-91075285D01*
X35095571Y-90361000D02*
X34095571Y-90361000D01*
X33595571Y-90361000D02*
X33667000Y-90432428D01*
X33738428Y-90361000D01*
X33667000Y-90289571D01*
X33595571Y-90361000D01*
X33738428Y-90361000D01*
X34095571Y-89861000D02*
X34095571Y-89289571D01*
X33595571Y-89646714D02*
X34881285Y-89646714D01*
X35024142Y-89575285D01*
X35095571Y-89432428D01*
X35095571Y-89289571D01*
X35095571Y-88789571D02*
X33595571Y-88789571D01*
X35095571Y-88146714D02*
X34309857Y-88146714D01*
X34167000Y-88218142D01*
X34095571Y-88361000D01*
X34095571Y-88575285D01*
X34167000Y-88718142D01*
X34238428Y-88789571D01*
X34095571Y-86789571D02*
X35095571Y-86789571D01*
X34095571Y-87432428D02*
X34881285Y-87432428D01*
X35024142Y-87361000D01*
X35095571Y-87218142D01*
X35095571Y-87003857D01*
X35024142Y-86861000D01*
X34952714Y-86789571D01*
X35095571Y-86075285D02*
X33595571Y-86075285D01*
X34167000Y-86075285D02*
X34095571Y-85932428D01*
X34095571Y-85646714D01*
X34167000Y-85503857D01*
X34238428Y-85432428D01*
X34381285Y-85361000D01*
X34809857Y-85361000D01*
X34952714Y-85432428D01*
X35024142Y-85503857D01*
X35095571Y-85646714D01*
X35095571Y-85932428D01*
X35024142Y-86075285D01*
X34952714Y-84718142D02*
X35024142Y-84646714D01*
X35095571Y-84718142D01*
X35024142Y-84789571D01*
X34952714Y-84718142D01*
X35095571Y-84718142D01*
X35095571Y-84003857D02*
X34095571Y-84003857D01*
X33595571Y-84003857D02*
X33667000Y-84075285D01*
X33738428Y-84003857D01*
X33667000Y-83932428D01*
X33595571Y-84003857D01*
X33738428Y-84003857D01*
X35095571Y-83075285D02*
X35024142Y-83218142D01*
X34952714Y-83289571D01*
X34809857Y-83361000D01*
X34381285Y-83361000D01*
X34238428Y-83289571D01*
X34167000Y-83218142D01*
X34095571Y-83075285D01*
X34095571Y-82861000D01*
X34167000Y-82718142D01*
X34238428Y-82646714D01*
X34381285Y-82575285D01*
X34809857Y-82575285D01*
X34952714Y-82646714D01*
X35024142Y-82718142D01*
X35095571Y-82861000D01*
X35095571Y-83075285D01*
D11*
X39235238Y-112847380D02*
X39235238Y-111847380D01*
X39711428Y-112847380D02*
X39711428Y-111847380D01*
X40282857Y-112847380D01*
X40282857Y-111847380D01*
X40616190Y-111847380D02*
X41187619Y-111847380D01*
X40901904Y-112847380D02*
X40901904Y-111847380D01*
X42092380Y-112847380D02*
X41759047Y-112371190D01*
X41520952Y-112847380D02*
X41520952Y-111847380D01*
X41901904Y-111847380D01*
X41997142Y-111895000D01*
X42044761Y-111942619D01*
X42092380Y-112037857D01*
X42092380Y-112180714D01*
X42044761Y-112275952D01*
X41997142Y-112323571D01*
X41901904Y-112371190D01*
X41520952Y-112371190D01*
X40084523Y-110021666D02*
X40560714Y-110021666D01*
X39989285Y-110307380D02*
X40322619Y-109307380D01*
X40655952Y-110307380D01*
X41513095Y-110307380D02*
X40941666Y-110307380D01*
X41227380Y-110307380D02*
X41227380Y-109307380D01*
X41132142Y-109450238D01*
X41036904Y-109545476D01*
X40941666Y-109593095D01*
X42370238Y-109640714D02*
X42370238Y-110307380D01*
X42132142Y-109259761D02*
X41894047Y-109974047D01*
X42513095Y-109974047D01*
X40608333Y-107672142D02*
X40560714Y-107719761D01*
X40417857Y-107767380D01*
X40322619Y-107767380D01*
X40179761Y-107719761D01*
X40084523Y-107624523D01*
X40036904Y-107529285D01*
X39989285Y-107338809D01*
X39989285Y-107195952D01*
X40036904Y-107005476D01*
X40084523Y-106910238D01*
X40179761Y-106815000D01*
X40322619Y-106767380D01*
X40417857Y-106767380D01*
X40560714Y-106815000D01*
X40608333Y-106862619D01*
X41370238Y-107243571D02*
X41513095Y-107291190D01*
X41560714Y-107338809D01*
X41608333Y-107434047D01*
X41608333Y-107576904D01*
X41560714Y-107672142D01*
X41513095Y-107719761D01*
X41417857Y-107767380D01*
X41036904Y-107767380D01*
X41036904Y-106767380D01*
X41370238Y-106767380D01*
X41465476Y-106815000D01*
X41513095Y-106862619D01*
X41560714Y-106957857D01*
X41560714Y-107053095D01*
X41513095Y-107148333D01*
X41465476Y-107195952D01*
X41370238Y-107243571D01*
X41036904Y-107243571D01*
X42560714Y-107767380D02*
X41989285Y-107767380D01*
X42275000Y-107767380D02*
X42275000Y-106767380D01*
X42179761Y-106910238D01*
X42084523Y-107005476D01*
X41989285Y-107053095D01*
X40513095Y-104275000D02*
X40417857Y-104227380D01*
X40275000Y-104227380D01*
X40132142Y-104275000D01*
X40036904Y-104370238D01*
X39989285Y-104465476D01*
X39941666Y-104655952D01*
X39941666Y-104798809D01*
X39989285Y-104989285D01*
X40036904Y-105084523D01*
X40132142Y-105179761D01*
X40275000Y-105227380D01*
X40370238Y-105227380D01*
X40513095Y-105179761D01*
X40560714Y-105132142D01*
X40560714Y-104798809D01*
X40370238Y-104798809D01*
X40989285Y-105227380D02*
X40989285Y-104227380D01*
X41560714Y-105227380D01*
X41560714Y-104227380D01*
X42036904Y-105227380D02*
X42036904Y-104227380D01*
X42275000Y-104227380D01*
X42417857Y-104275000D01*
X42513095Y-104370238D01*
X42560714Y-104465476D01*
X42608333Y-104655952D01*
X42608333Y-104798809D01*
X42560714Y-104989285D01*
X42513095Y-105084523D01*
X42417857Y-105179761D01*
X42275000Y-105227380D01*
X42036904Y-105227380D01*
X39989285Y-102306428D02*
X40751190Y-102306428D01*
X40370238Y-102687380D02*
X40370238Y-101925476D01*
X41703571Y-101687380D02*
X41227380Y-101687380D01*
X41179761Y-102163571D01*
X41227380Y-102115952D01*
X41322619Y-102068333D01*
X41560714Y-102068333D01*
X41655952Y-102115952D01*
X41703571Y-102163571D01*
X41751190Y-102258809D01*
X41751190Y-102496904D01*
X41703571Y-102592142D01*
X41655952Y-102639761D01*
X41560714Y-102687380D01*
X41322619Y-102687380D01*
X41227380Y-102639761D01*
X41179761Y-102592142D01*
X42036904Y-101687380D02*
X42370238Y-102687380D01*
X42703571Y-101687380D01*
X40132142Y-100147380D02*
X40132142Y-99147380D01*
X40703571Y-100147380D02*
X40275000Y-99575952D01*
X40703571Y-99147380D02*
X40132142Y-99718809D01*
X41132142Y-99623571D02*
X41465476Y-99623571D01*
X41608333Y-100147380D02*
X41132142Y-100147380D01*
X41132142Y-99147380D01*
X41608333Y-99147380D01*
X42227380Y-99671190D02*
X42227380Y-100147380D01*
X41894047Y-99147380D02*
X42227380Y-99671190D01*
X42560714Y-99147380D01*
X40203571Y-96258571D02*
X40536904Y-96258571D01*
X40679761Y-96782380D02*
X40203571Y-96782380D01*
X40203571Y-95782380D01*
X40679761Y-95782380D01*
X41013095Y-95782380D02*
X41679761Y-96782380D01*
X41679761Y-95782380D02*
X41013095Y-96782380D01*
X41917857Y-95782380D02*
X42489285Y-95782380D01*
X42203571Y-96782380D02*
X42203571Y-95782380D01*
X39917857Y-98432380D02*
X39917857Y-97432380D01*
X40251190Y-98146666D01*
X40584523Y-97432380D01*
X40584523Y-98432380D01*
X41060714Y-97908571D02*
X41394047Y-97908571D01*
X41536904Y-98432380D02*
X41060714Y-98432380D01*
X41060714Y-97432380D01*
X41536904Y-97432380D01*
X41965476Y-98432380D02*
X41965476Y-97432380D01*
X42298809Y-98146666D01*
X42632142Y-97432380D01*
X42632142Y-98432380D01*
X40751190Y-94067380D02*
X40846428Y-94067380D01*
X40941666Y-94115000D01*
X40989285Y-94162619D01*
X41036904Y-94257857D01*
X41084523Y-94448333D01*
X41084523Y-94686428D01*
X41036904Y-94876904D01*
X40989285Y-94972142D01*
X40941666Y-95019761D01*
X40846428Y-95067380D01*
X40751190Y-95067380D01*
X40655952Y-95019761D01*
X40608333Y-94972142D01*
X40560714Y-94876904D01*
X40513095Y-94686428D01*
X40513095Y-94448333D01*
X40560714Y-94257857D01*
X40608333Y-94162619D01*
X40655952Y-94115000D01*
X40751190Y-94067380D01*
X41465476Y-94162619D02*
X41513095Y-94115000D01*
X41608333Y-94067380D01*
X41846428Y-94067380D01*
X41941666Y-94115000D01*
X41989285Y-94162619D01*
X42036904Y-94257857D01*
X42036904Y-94353095D01*
X41989285Y-94495952D01*
X41417857Y-95067380D01*
X42036904Y-95067380D01*
X40655952Y-89987380D02*
X40322619Y-89511190D01*
X40084523Y-89987380D02*
X40084523Y-88987380D01*
X40465476Y-88987380D01*
X40560714Y-89035000D01*
X40608333Y-89082619D01*
X40655952Y-89177857D01*
X40655952Y-89320714D01*
X40608333Y-89415952D01*
X40560714Y-89463571D01*
X40465476Y-89511190D01*
X40084523Y-89511190D01*
X41084523Y-89463571D02*
X41417857Y-89463571D01*
X41560714Y-89987380D02*
X41084523Y-89987380D01*
X41084523Y-88987380D01*
X41560714Y-88987380D01*
X41941666Y-89939761D02*
X42084523Y-89987380D01*
X42322619Y-89987380D01*
X42417857Y-89939761D01*
X42465476Y-89892142D01*
X42513095Y-89796904D01*
X42513095Y-89701666D01*
X42465476Y-89606428D01*
X42417857Y-89558809D01*
X42322619Y-89511190D01*
X42132142Y-89463571D01*
X42036904Y-89415952D01*
X41989285Y-89368333D01*
X41941666Y-89273095D01*
X41941666Y-89177857D01*
X41989285Y-89082619D01*
X42036904Y-89035000D01*
X42132142Y-88987380D01*
X42370238Y-88987380D01*
X42513095Y-89035000D01*
X40203571Y-87447380D02*
X40203571Y-86447380D01*
X40203571Y-86923571D02*
X40775000Y-86923571D01*
X40775000Y-87447380D02*
X40775000Y-86447380D01*
X41727380Y-87447380D02*
X41251190Y-87447380D01*
X41251190Y-86447380D01*
X41917857Y-86447380D02*
X42489285Y-86447380D01*
X42203571Y-87447380D02*
X42203571Y-86447380D01*
X39941666Y-91527380D02*
X40275000Y-92527380D01*
X40608333Y-91527380D01*
X40941666Y-92527380D02*
X40941666Y-91527380D01*
X41275000Y-92241666D01*
X41608333Y-91527380D01*
X41608333Y-92527380D01*
X42036904Y-92241666D02*
X42513095Y-92241666D01*
X41941666Y-92527380D02*
X42275000Y-91527380D01*
X42608333Y-92527380D01*
X41013095Y-84907380D02*
X40679761Y-84431190D01*
X40441666Y-84907380D02*
X40441666Y-83907380D01*
X40822619Y-83907380D01*
X40917857Y-83955000D01*
X40965476Y-84002619D01*
X41013095Y-84097857D01*
X41013095Y-84240714D01*
X40965476Y-84335952D01*
X40917857Y-84383571D01*
X40822619Y-84431190D01*
X40441666Y-84431190D01*
X41346428Y-83907380D02*
X41584523Y-84907380D01*
X41775000Y-84193095D01*
X41965476Y-84907380D01*
X42203571Y-83907380D01*
X40560714Y-82081666D02*
X41036904Y-82081666D01*
X40465476Y-82367380D02*
X40798809Y-81367380D01*
X41132142Y-82367380D01*
X41655952Y-81367380D02*
X41751190Y-81367380D01*
X41846428Y-81415000D01*
X41894047Y-81462619D01*
X41941666Y-81557857D01*
X41989285Y-81748333D01*
X41989285Y-81986428D01*
X41941666Y-82176904D01*
X41894047Y-82272142D01*
X41846428Y-82319761D01*
X41751190Y-82367380D01*
X41655952Y-82367380D01*
X41560714Y-82319761D01*
X41513095Y-82272142D01*
X41465476Y-82176904D01*
X41417857Y-81986428D01*
X41417857Y-81748333D01*
X41465476Y-81557857D01*
X41513095Y-81462619D01*
X41560714Y-81415000D01*
X41655952Y-81367380D01*
X40560714Y-79541666D02*
X41036904Y-79541666D01*
X40465476Y-79827380D02*
X40798809Y-78827380D01*
X41132142Y-79827380D01*
X41989285Y-79827380D02*
X41417857Y-79827380D01*
X41703571Y-79827380D02*
X41703571Y-78827380D01*
X41608333Y-78970238D01*
X41513095Y-79065476D01*
X41417857Y-79113095D01*
X40560714Y-77001666D02*
X41036904Y-77001666D01*
X40465476Y-77287380D02*
X40798809Y-76287380D01*
X41132142Y-77287380D01*
X41417857Y-76382619D02*
X41465476Y-76335000D01*
X41560714Y-76287380D01*
X41798809Y-76287380D01*
X41894047Y-76335000D01*
X41941666Y-76382619D01*
X41989285Y-76477857D01*
X41989285Y-76573095D01*
X41941666Y-76715952D01*
X41370238Y-77287380D01*
X41989285Y-77287380D01*
X40560714Y-74461666D02*
X41036904Y-74461666D01*
X40465476Y-74747380D02*
X40798809Y-73747380D01*
X41132142Y-74747380D01*
X41370238Y-73747380D02*
X41989285Y-73747380D01*
X41655952Y-74128333D01*
X41798809Y-74128333D01*
X41894047Y-74175952D01*
X41941666Y-74223571D01*
X41989285Y-74318809D01*
X41989285Y-74556904D01*
X41941666Y-74652142D01*
X41894047Y-74699761D01*
X41798809Y-74747380D01*
X41513095Y-74747380D01*
X41417857Y-74699761D01*
X41370238Y-74652142D01*
X40560714Y-71921666D02*
X41036904Y-71921666D01*
X40465476Y-72207380D02*
X40798809Y-71207380D01*
X41132142Y-72207380D01*
X41894047Y-71540714D02*
X41894047Y-72207380D01*
X41655952Y-71159761D02*
X41417857Y-71874047D01*
X42036904Y-71874047D01*
X40560714Y-69381666D02*
X41036904Y-69381666D01*
X40465476Y-69667380D02*
X40798809Y-68667380D01*
X41132142Y-69667380D01*
X41941666Y-68667380D02*
X41465476Y-68667380D01*
X41417857Y-69143571D01*
X41465476Y-69095952D01*
X41560714Y-69048333D01*
X41798809Y-69048333D01*
X41894047Y-69095952D01*
X41941666Y-69143571D01*
X41989285Y-69238809D01*
X41989285Y-69476904D01*
X41941666Y-69572142D01*
X41894047Y-69619761D01*
X41798809Y-69667380D01*
X41560714Y-69667380D01*
X41465476Y-69619761D01*
X41417857Y-69572142D01*
X40560714Y-66841666D02*
X41036904Y-66841666D01*
X40465476Y-67127380D02*
X40798809Y-66127380D01*
X41132142Y-67127380D01*
X41894047Y-66127380D02*
X41703571Y-66127380D01*
X41608333Y-66175000D01*
X41560714Y-66222619D01*
X41465476Y-66365476D01*
X41417857Y-66555952D01*
X41417857Y-66936904D01*
X41465476Y-67032142D01*
X41513095Y-67079761D01*
X41608333Y-67127380D01*
X41798809Y-67127380D01*
X41894047Y-67079761D01*
X41941666Y-67032142D01*
X41989285Y-66936904D01*
X41989285Y-66698809D01*
X41941666Y-66603571D01*
X41894047Y-66555952D01*
X41798809Y-66508333D01*
X41608333Y-66508333D01*
X41513095Y-66555952D01*
X41465476Y-66603571D01*
X41417857Y-66698809D01*
X40560714Y-64301666D02*
X41036904Y-64301666D01*
X40465476Y-64587380D02*
X40798809Y-63587380D01*
X41132142Y-64587380D01*
X41370238Y-63587380D02*
X42036904Y-63587380D01*
X41608333Y-64587380D01*
X40560714Y-61761666D02*
X41036904Y-61761666D01*
X40465476Y-62047380D02*
X40798809Y-61047380D01*
X41132142Y-62047380D01*
X41608333Y-61475952D02*
X41513095Y-61428333D01*
X41465476Y-61380714D01*
X41417857Y-61285476D01*
X41417857Y-61237857D01*
X41465476Y-61142619D01*
X41513095Y-61095000D01*
X41608333Y-61047380D01*
X41798809Y-61047380D01*
X41894047Y-61095000D01*
X41941666Y-61142619D01*
X41989285Y-61237857D01*
X41989285Y-61285476D01*
X41941666Y-61380714D01*
X41894047Y-61428333D01*
X41798809Y-61475952D01*
X41608333Y-61475952D01*
X41513095Y-61523571D01*
X41465476Y-61571190D01*
X41417857Y-61666428D01*
X41417857Y-61856904D01*
X41465476Y-61952142D01*
X41513095Y-61999761D01*
X41608333Y-62047380D01*
X41798809Y-62047380D01*
X41894047Y-61999761D01*
X41941666Y-61952142D01*
X41989285Y-61856904D01*
X41989285Y-61666428D01*
X41941666Y-61571190D01*
X41894047Y-61523571D01*
X41798809Y-61475952D01*
X40560714Y-59221666D02*
X41036904Y-59221666D01*
X40465476Y-59507380D02*
X40798809Y-58507380D01*
X41132142Y-59507380D01*
X41513095Y-59507380D02*
X41703571Y-59507380D01*
X41798809Y-59459761D01*
X41846428Y-59412142D01*
X41941666Y-59269285D01*
X41989285Y-59078809D01*
X41989285Y-58697857D01*
X41941666Y-58602619D01*
X41894047Y-58555000D01*
X41798809Y-58507380D01*
X41608333Y-58507380D01*
X41513095Y-58555000D01*
X41465476Y-58602619D01*
X41417857Y-58697857D01*
X41417857Y-58935952D01*
X41465476Y-59031190D01*
X41513095Y-59078809D01*
X41608333Y-59126428D01*
X41798809Y-59126428D01*
X41894047Y-59078809D01*
X41941666Y-59031190D01*
X41989285Y-58935952D01*
X40084523Y-56681666D02*
X40560714Y-56681666D01*
X39989285Y-56967380D02*
X40322619Y-55967380D01*
X40655952Y-56967380D01*
X41513095Y-56967380D02*
X40941666Y-56967380D01*
X41227380Y-56967380D02*
X41227380Y-55967380D01*
X41132142Y-56110238D01*
X41036904Y-56205476D01*
X40941666Y-56253095D01*
X42132142Y-55967380D02*
X42227380Y-55967380D01*
X42322619Y-56015000D01*
X42370238Y-56062619D01*
X42417857Y-56157857D01*
X42465476Y-56348333D01*
X42465476Y-56586428D01*
X42417857Y-56776904D01*
X42370238Y-56872142D01*
X42322619Y-56919761D01*
X42227380Y-56967380D01*
X42132142Y-56967380D01*
X42036904Y-56919761D01*
X41989285Y-56872142D01*
X41941666Y-56776904D01*
X41894047Y-56586428D01*
X41894047Y-56348333D01*
X41941666Y-56157857D01*
X41989285Y-56062619D01*
X42036904Y-56015000D01*
X42132142Y-55967380D01*
X40084523Y-54141666D02*
X40560714Y-54141666D01*
X39989285Y-54427380D02*
X40322619Y-53427380D01*
X40655952Y-54427380D01*
X41513095Y-54427380D02*
X40941666Y-54427380D01*
X41227380Y-54427380D02*
X41227380Y-53427380D01*
X41132142Y-53570238D01*
X41036904Y-53665476D01*
X40941666Y-53713095D01*
X42465476Y-54427380D02*
X41894047Y-54427380D01*
X42179761Y-54427380D02*
X42179761Y-53427380D01*
X42084523Y-53570238D01*
X41989285Y-53665476D01*
X41894047Y-53713095D01*
X40084523Y-51601666D02*
X40560714Y-51601666D01*
X39989285Y-51887380D02*
X40322619Y-50887380D01*
X40655952Y-51887380D01*
X41513095Y-51887380D02*
X40941666Y-51887380D01*
X41227380Y-51887380D02*
X41227380Y-50887380D01*
X41132142Y-51030238D01*
X41036904Y-51125476D01*
X40941666Y-51173095D01*
X41894047Y-50982619D02*
X41941666Y-50935000D01*
X42036904Y-50887380D01*
X42275000Y-50887380D01*
X42370238Y-50935000D01*
X42417857Y-50982619D01*
X42465476Y-51077857D01*
X42465476Y-51173095D01*
X42417857Y-51315952D01*
X41846428Y-51887380D01*
X42465476Y-51887380D01*
X40084523Y-49061666D02*
X40560714Y-49061666D01*
X39989285Y-49347380D02*
X40322619Y-48347380D01*
X40655952Y-49347380D01*
X41513095Y-49347380D02*
X40941666Y-49347380D01*
X41227380Y-49347380D02*
X41227380Y-48347380D01*
X41132142Y-48490238D01*
X41036904Y-48585476D01*
X40941666Y-48633095D01*
X41846428Y-48347380D02*
X42465476Y-48347380D01*
X42132142Y-48728333D01*
X42275000Y-48728333D01*
X42370238Y-48775952D01*
X42417857Y-48823571D01*
X42465476Y-48918809D01*
X42465476Y-49156904D01*
X42417857Y-49252142D01*
X42370238Y-49299761D01*
X42275000Y-49347380D01*
X41989285Y-49347380D01*
X41894047Y-49299761D01*
X41846428Y-49252142D01*
X40536904Y-46807380D02*
X40536904Y-45807380D01*
X40775000Y-45807380D01*
X40917857Y-45855000D01*
X41013095Y-45950238D01*
X41060714Y-46045476D01*
X41108333Y-46235952D01*
X41108333Y-46378809D01*
X41060714Y-46569285D01*
X41013095Y-46664523D01*
X40917857Y-46759761D01*
X40775000Y-46807380D01*
X40536904Y-46807380D01*
X41727380Y-45807380D02*
X41822619Y-45807380D01*
X41917857Y-45855000D01*
X41965476Y-45902619D01*
X42013095Y-45997857D01*
X42060714Y-46188333D01*
X42060714Y-46426428D01*
X42013095Y-46616904D01*
X41965476Y-46712142D01*
X41917857Y-46759761D01*
X41822619Y-46807380D01*
X41727380Y-46807380D01*
X41632142Y-46759761D01*
X41584523Y-46712142D01*
X41536904Y-46616904D01*
X41489285Y-46426428D01*
X41489285Y-46188333D01*
X41536904Y-45997857D01*
X41584523Y-45902619D01*
X41632142Y-45855000D01*
X41727380Y-45807380D01*
X40536904Y-44267380D02*
X40536904Y-43267380D01*
X40775000Y-43267380D01*
X40917857Y-43315000D01*
X41013095Y-43410238D01*
X41060714Y-43505476D01*
X41108333Y-43695952D01*
X41108333Y-43838809D01*
X41060714Y-44029285D01*
X41013095Y-44124523D01*
X40917857Y-44219761D01*
X40775000Y-44267380D01*
X40536904Y-44267380D01*
X42060714Y-44267380D02*
X41489285Y-44267380D01*
X41775000Y-44267380D02*
X41775000Y-43267380D01*
X41679761Y-43410238D01*
X41584523Y-43505476D01*
X41489285Y-43553095D01*
X40536904Y-41727380D02*
X40536904Y-40727380D01*
X40775000Y-40727380D01*
X40917857Y-40775000D01*
X41013095Y-40870238D01*
X41060714Y-40965476D01*
X41108333Y-41155952D01*
X41108333Y-41298809D01*
X41060714Y-41489285D01*
X41013095Y-41584523D01*
X40917857Y-41679761D01*
X40775000Y-41727380D01*
X40536904Y-41727380D01*
X41489285Y-40822619D02*
X41536904Y-40775000D01*
X41632142Y-40727380D01*
X41870238Y-40727380D01*
X41965476Y-40775000D01*
X42013095Y-40822619D01*
X42060714Y-40917857D01*
X42060714Y-41013095D01*
X42013095Y-41155952D01*
X41441666Y-41727380D01*
X42060714Y-41727380D01*
X40536904Y-39187380D02*
X40536904Y-38187380D01*
X40775000Y-38187380D01*
X40917857Y-38235000D01*
X41013095Y-38330238D01*
X41060714Y-38425476D01*
X41108333Y-38615952D01*
X41108333Y-38758809D01*
X41060714Y-38949285D01*
X41013095Y-39044523D01*
X40917857Y-39139761D01*
X40775000Y-39187380D01*
X40536904Y-39187380D01*
X41441666Y-38187380D02*
X42060714Y-38187380D01*
X41727380Y-38568333D01*
X41870238Y-38568333D01*
X41965476Y-38615952D01*
X42013095Y-38663571D01*
X42060714Y-38758809D01*
X42060714Y-38996904D01*
X42013095Y-39092142D01*
X41965476Y-39139761D01*
X41870238Y-39187380D01*
X41584523Y-39187380D01*
X41489285Y-39139761D01*
X41441666Y-39092142D01*
X40536904Y-36647380D02*
X40536904Y-35647380D01*
X40775000Y-35647380D01*
X40917857Y-35695000D01*
X41013095Y-35790238D01*
X41060714Y-35885476D01*
X41108333Y-36075952D01*
X41108333Y-36218809D01*
X41060714Y-36409285D01*
X41013095Y-36504523D01*
X40917857Y-36599761D01*
X40775000Y-36647380D01*
X40536904Y-36647380D01*
X41965476Y-35980714D02*
X41965476Y-36647380D01*
X41727380Y-35599761D02*
X41489285Y-36314047D01*
X42108333Y-36314047D01*
X40536904Y-34107380D02*
X40536904Y-33107380D01*
X40775000Y-33107380D01*
X40917857Y-33155000D01*
X41013095Y-33250238D01*
X41060714Y-33345476D01*
X41108333Y-33535952D01*
X41108333Y-33678809D01*
X41060714Y-33869285D01*
X41013095Y-33964523D01*
X40917857Y-34059761D01*
X40775000Y-34107380D01*
X40536904Y-34107380D01*
X42013095Y-33107380D02*
X41536904Y-33107380D01*
X41489285Y-33583571D01*
X41536904Y-33535952D01*
X41632142Y-33488333D01*
X41870238Y-33488333D01*
X41965476Y-33535952D01*
X42013095Y-33583571D01*
X42060714Y-33678809D01*
X42060714Y-33916904D01*
X42013095Y-34012142D01*
X41965476Y-34059761D01*
X41870238Y-34107380D01*
X41632142Y-34107380D01*
X41536904Y-34059761D01*
X41489285Y-34012142D01*
X40536904Y-31567380D02*
X40536904Y-30567380D01*
X40775000Y-30567380D01*
X40917857Y-30615000D01*
X41013095Y-30710238D01*
X41060714Y-30805476D01*
X41108333Y-30995952D01*
X41108333Y-31138809D01*
X41060714Y-31329285D01*
X41013095Y-31424523D01*
X40917857Y-31519761D01*
X40775000Y-31567380D01*
X40536904Y-31567380D01*
X41965476Y-30567380D02*
X41775000Y-30567380D01*
X41679761Y-30615000D01*
X41632142Y-30662619D01*
X41536904Y-30805476D01*
X41489285Y-30995952D01*
X41489285Y-31376904D01*
X41536904Y-31472142D01*
X41584523Y-31519761D01*
X41679761Y-31567380D01*
X41870238Y-31567380D01*
X41965476Y-31519761D01*
X42013095Y-31472142D01*
X42060714Y-31376904D01*
X42060714Y-31138809D01*
X42013095Y-31043571D01*
X41965476Y-30995952D01*
X41870238Y-30948333D01*
X41679761Y-30948333D01*
X41584523Y-30995952D01*
X41536904Y-31043571D01*
X41489285Y-31138809D01*
X40536904Y-29027380D02*
X40536904Y-28027380D01*
X40775000Y-28027380D01*
X40917857Y-28075000D01*
X41013095Y-28170238D01*
X41060714Y-28265476D01*
X41108333Y-28455952D01*
X41108333Y-28598809D01*
X41060714Y-28789285D01*
X41013095Y-28884523D01*
X40917857Y-28979761D01*
X40775000Y-29027380D01*
X40536904Y-29027380D01*
X41441666Y-28027380D02*
X42108333Y-28027380D01*
X41679761Y-29027380D01*
X31075380Y-108767190D02*
X32075380Y-108529095D01*
X31361095Y-108338619D01*
X32075380Y-108148142D01*
X31075380Y-107910047D01*
X31789666Y-107576714D02*
X31789666Y-107100523D01*
X32075380Y-107671952D02*
X31075380Y-107338619D01*
X32075380Y-107005285D01*
X31075380Y-106814809D02*
X32075380Y-106481476D01*
X31075380Y-106148142D01*
X31551571Y-105814809D02*
X31551571Y-105481476D01*
X32075380Y-105338619D02*
X32075380Y-105814809D01*
X31075380Y-105814809D01*
X31075380Y-105338619D01*
X32170619Y-105148142D02*
X32170619Y-104386238D01*
X31075380Y-104291000D02*
X31075380Y-103719571D01*
X32075380Y-104005285D02*
X31075380Y-104005285D01*
X31075380Y-103481476D02*
X32075380Y-102814809D01*
X31075380Y-102814809D02*
X32075380Y-103481476D01*
X29281428Y-108727714D02*
X29281428Y-107965809D01*
X29662380Y-108346761D02*
X28900476Y-108346761D01*
X28662380Y-107013428D02*
X28662380Y-107489619D01*
X29138571Y-107537238D01*
X29090952Y-107489619D01*
X29043333Y-107394380D01*
X29043333Y-107156285D01*
X29090952Y-107061047D01*
X29138571Y-107013428D01*
X29233809Y-106965809D01*
X29471904Y-106965809D01*
X29567142Y-107013428D01*
X29614761Y-107061047D01*
X29662380Y-107156285D01*
X29662380Y-107394380D01*
X29614761Y-107489619D01*
X29567142Y-107537238D01*
X28662380Y-106680095D02*
X29662380Y-106346761D01*
X28662380Y-106013428D01*
X23630000Y-109346904D02*
X23582380Y-109442142D01*
X23582380Y-109585000D01*
X23630000Y-109727857D01*
X23725238Y-109823095D01*
X23820476Y-109870714D01*
X24010952Y-109918333D01*
X24153809Y-109918333D01*
X24344285Y-109870714D01*
X24439523Y-109823095D01*
X24534761Y-109727857D01*
X24582380Y-109585000D01*
X24582380Y-109489761D01*
X24534761Y-109346904D01*
X24487142Y-109299285D01*
X24153809Y-109299285D01*
X24153809Y-109489761D01*
X24582380Y-108870714D02*
X23582380Y-108870714D01*
X24582380Y-108299285D01*
X23582380Y-108299285D01*
X24582380Y-107823095D02*
X23582380Y-107823095D01*
X23582380Y-107585000D01*
X23630000Y-107442142D01*
X23725238Y-107346904D01*
X23820476Y-107299285D01*
X24010952Y-107251666D01*
X24153809Y-107251666D01*
X24344285Y-107299285D01*
X24439523Y-107346904D01*
X24534761Y-107442142D01*
X24582380Y-107585000D01*
X24582380Y-107823095D01*
D12*
%TO.C,INTR1*%
X36262000Y-105858000D02*
X37592000Y-105858000D01*
X36262000Y-107188000D02*
X36262000Y-105858000D01*
X36262000Y-108458000D02*
X38922000Y-108458000D01*
X38922000Y-108458000D02*
X38922000Y-108518000D01*
X36262000Y-108458000D02*
X36262000Y-108518000D01*
X36262000Y-108518000D02*
X38922000Y-108518000D01*
%TO.C,C3*%
X27947252Y-71553000D02*
X27424748Y-71553000D01*
X27947252Y-72973000D02*
X27424748Y-72973000D01*
%TO.C,C2*%
X34124000Y-79705000D02*
X34059000Y-79705000D01*
X36299000Y-79705000D02*
X36234000Y-79705000D01*
X34124000Y-76465000D02*
X34059000Y-76465000D01*
X36299000Y-76465000D02*
X36234000Y-76465000D01*
X34059000Y-76465000D02*
X34059000Y-79705000D01*
X36299000Y-76465000D02*
X36299000Y-79705000D01*
%TO.C,C1*%
X27947252Y-67362000D02*
X27424748Y-67362000D01*
X27947252Y-68782000D02*
X27424748Y-68782000D01*
%TO.C,WaveTrigger1*%
X22800000Y-113725000D02*
X22800000Y-112395000D01*
X24130000Y-113725000D02*
X22800000Y-113725000D01*
X25400000Y-113725000D02*
X25400000Y-111065000D01*
X25400000Y-111065000D02*
X38160000Y-111065000D01*
X25400000Y-113725000D02*
X38160000Y-113725000D01*
X38160000Y-113725000D02*
X38160000Y-111065000D01*
%TO.C,U1*%
X30590000Y-75505000D02*
X28940000Y-75505000D01*
X30590000Y-93405000D02*
X30590000Y-75505000D01*
X25290000Y-93405000D02*
X30590000Y-93405000D01*
X25290000Y-75505000D02*
X25290000Y-93405000D01*
X26940000Y-75505000D02*
X25290000Y-75505000D01*
X28940000Y-75505000D02*
G75*
G02*
X26940000Y-75505000I-1000000J0D01*
G01*
%TO.C,R1*%
X37973000Y-82339000D02*
X37973000Y-83449000D01*
X37973000Y-94699000D02*
X37973000Y-93589000D01*
X36053000Y-83449000D02*
X36053000Y-93589000D01*
X39893000Y-83449000D02*
X36053000Y-83449000D01*
X39893000Y-93589000D02*
X39893000Y-83449000D01*
X36053000Y-93589000D02*
X39893000Y-93589000D01*
%TO.C,MPU_SEL1*%
X22800000Y-99000000D02*
X24130000Y-99000000D01*
X22800000Y-100330000D02*
X22800000Y-99000000D01*
X22800000Y-101600000D02*
X25460000Y-101600000D01*
X25460000Y-101600000D02*
X25460000Y-104200000D01*
X22800000Y-101600000D02*
X22800000Y-104200000D01*
X22800000Y-104200000D02*
X25460000Y-104200000D01*
%TO.C,J1*%
X46295000Y-27245000D02*
X47625000Y-27245000D01*
X46295000Y-28575000D02*
X46295000Y-27245000D01*
X46295000Y-29845000D02*
X48955000Y-29845000D01*
X48955000Y-29845000D02*
X48955000Y-113725000D01*
X46295000Y-29845000D02*
X46295000Y-113725000D01*
X46295000Y-113725000D02*
X48955000Y-113725000D01*
%TO.C,ArduinoNanoV3*%
X22095000Y-72520000D02*
X40135000Y-72520000D01*
X22095000Y-29080000D02*
X22095000Y-72520000D01*
X40135000Y-29080000D02*
X22095000Y-29080000D01*
X37465000Y-31750000D02*
X40135000Y-31750000D01*
X37465000Y-67310000D02*
X37465000Y-31750000D01*
X37465000Y-67310000D02*
X40135000Y-67310000D01*
X24765000Y-31750000D02*
X22095000Y-31750000D01*
X24765000Y-69850000D02*
X24765000Y-31750000D01*
X24765000Y-69850000D02*
X22095000Y-69850000D01*
X40135000Y-72520000D02*
X40135000Y-69850000D01*
X40135000Y-67310000D02*
X40135000Y-29080000D01*
X37465000Y-69850000D02*
X40135000Y-69850000D01*
X37465000Y-67310000D02*
X37465000Y-69850000D01*
%TO.C,INTR1*%
D11*
X35711047Y-105310380D02*
X35711047Y-104310380D01*
X36187238Y-105310380D02*
X36187238Y-104310380D01*
X36758666Y-105310380D01*
X36758666Y-104310380D01*
X37092000Y-104310380D02*
X37663428Y-104310380D01*
X37377714Y-105310380D02*
X37377714Y-104310380D01*
X38568190Y-105310380D02*
X38234857Y-104834190D01*
X37996761Y-105310380D02*
X37996761Y-104310380D01*
X38377714Y-104310380D01*
X38472952Y-104358000D01*
X38520571Y-104405619D01*
X38568190Y-104500857D01*
X38568190Y-104643714D01*
X38520571Y-104738952D01*
X38472952Y-104786571D01*
X38377714Y-104834190D01*
X37996761Y-104834190D01*
X39520571Y-105310380D02*
X38949142Y-105310380D01*
X39234857Y-105310380D02*
X39234857Y-104310380D01*
X39139619Y-104453238D01*
X39044380Y-104548476D01*
X38949142Y-104596095D01*
%TO.C,C3*%
X27392333Y-70715142D02*
X27344714Y-70762761D01*
X27201857Y-70810380D01*
X27106619Y-70810380D01*
X26963761Y-70762761D01*
X26868523Y-70667523D01*
X26820904Y-70572285D01*
X26773285Y-70381809D01*
X26773285Y-70238952D01*
X26820904Y-70048476D01*
X26868523Y-69953238D01*
X26963761Y-69858000D01*
X27106619Y-69810380D01*
X27201857Y-69810380D01*
X27344714Y-69858000D01*
X27392333Y-69905619D01*
X27725666Y-69810380D02*
X28344714Y-69810380D01*
X28011380Y-70191333D01*
X28154238Y-70191333D01*
X28249476Y-70238952D01*
X28297095Y-70286571D01*
X28344714Y-70381809D01*
X28344714Y-70619904D01*
X28297095Y-70715142D01*
X28249476Y-70762761D01*
X28154238Y-70810380D01*
X27868523Y-70810380D01*
X27773285Y-70762761D01*
X27725666Y-70715142D01*
%TO.C,C2*%
X37786142Y-78251666D02*
X37833761Y-78299285D01*
X37881380Y-78442142D01*
X37881380Y-78537380D01*
X37833761Y-78680238D01*
X37738523Y-78775476D01*
X37643285Y-78823095D01*
X37452809Y-78870714D01*
X37309952Y-78870714D01*
X37119476Y-78823095D01*
X37024238Y-78775476D01*
X36929000Y-78680238D01*
X36881380Y-78537380D01*
X36881380Y-78442142D01*
X36929000Y-78299285D01*
X36976619Y-78251666D01*
X36976619Y-77870714D02*
X36929000Y-77823095D01*
X36881380Y-77727857D01*
X36881380Y-77489761D01*
X36929000Y-77394523D01*
X36976619Y-77346904D01*
X37071857Y-77299285D01*
X37167095Y-77299285D01*
X37309952Y-77346904D01*
X37881380Y-77918333D01*
X37881380Y-77299285D01*
%TO.C,C1*%
X27392333Y-66524142D02*
X27344714Y-66571761D01*
X27201857Y-66619380D01*
X27106619Y-66619380D01*
X26963761Y-66571761D01*
X26868523Y-66476523D01*
X26820904Y-66381285D01*
X26773285Y-66190809D01*
X26773285Y-66047952D01*
X26820904Y-65857476D01*
X26868523Y-65762238D01*
X26963761Y-65667000D01*
X27106619Y-65619380D01*
X27201857Y-65619380D01*
X27344714Y-65667000D01*
X27392333Y-65714619D01*
X28344714Y-66619380D02*
X27773285Y-66619380D01*
X28059000Y-66619380D02*
X28059000Y-65619380D01*
X27963761Y-65762238D01*
X27868523Y-65857476D01*
X27773285Y-65905095D01*
%TO.C,WaveTrigger1*%
X26503904Y-109180380D02*
X26742000Y-110180380D01*
X26932476Y-109466095D01*
X27122952Y-110180380D01*
X27361047Y-109180380D01*
X28170571Y-110180380D02*
X28170571Y-109656571D01*
X28122952Y-109561333D01*
X28027714Y-109513714D01*
X27837238Y-109513714D01*
X27742000Y-109561333D01*
X28170571Y-110132761D02*
X28075333Y-110180380D01*
X27837238Y-110180380D01*
X27742000Y-110132761D01*
X27694380Y-110037523D01*
X27694380Y-109942285D01*
X27742000Y-109847047D01*
X27837238Y-109799428D01*
X28075333Y-109799428D01*
X28170571Y-109751809D01*
X28551523Y-109513714D02*
X28789619Y-110180380D01*
X29027714Y-109513714D01*
X29789619Y-110132761D02*
X29694380Y-110180380D01*
X29503904Y-110180380D01*
X29408666Y-110132761D01*
X29361047Y-110037523D01*
X29361047Y-109656571D01*
X29408666Y-109561333D01*
X29503904Y-109513714D01*
X29694380Y-109513714D01*
X29789619Y-109561333D01*
X29837238Y-109656571D01*
X29837238Y-109751809D01*
X29361047Y-109847047D01*
X30122952Y-109180380D02*
X30694380Y-109180380D01*
X30408666Y-110180380D02*
X30408666Y-109180380D01*
X31027714Y-110180380D02*
X31027714Y-109513714D01*
X31027714Y-109704190D02*
X31075333Y-109608952D01*
X31122952Y-109561333D01*
X31218190Y-109513714D01*
X31313428Y-109513714D01*
X31646761Y-110180380D02*
X31646761Y-109513714D01*
X31646761Y-109180380D02*
X31599142Y-109228000D01*
X31646761Y-109275619D01*
X31694380Y-109228000D01*
X31646761Y-109180380D01*
X31646761Y-109275619D01*
X32551523Y-109513714D02*
X32551523Y-110323238D01*
X32503904Y-110418476D01*
X32456285Y-110466095D01*
X32361047Y-110513714D01*
X32218190Y-110513714D01*
X32122952Y-110466095D01*
X32551523Y-110132761D02*
X32456285Y-110180380D01*
X32265809Y-110180380D01*
X32170571Y-110132761D01*
X32122952Y-110085142D01*
X32075333Y-109989904D01*
X32075333Y-109704190D01*
X32122952Y-109608952D01*
X32170571Y-109561333D01*
X32265809Y-109513714D01*
X32456285Y-109513714D01*
X32551523Y-109561333D01*
X33456285Y-109513714D02*
X33456285Y-110323238D01*
X33408666Y-110418476D01*
X33361047Y-110466095D01*
X33265809Y-110513714D01*
X33122952Y-110513714D01*
X33027714Y-110466095D01*
X33456285Y-110132761D02*
X33361047Y-110180380D01*
X33170571Y-110180380D01*
X33075333Y-110132761D01*
X33027714Y-110085142D01*
X32980095Y-109989904D01*
X32980095Y-109704190D01*
X33027714Y-109608952D01*
X33075333Y-109561333D01*
X33170571Y-109513714D01*
X33361047Y-109513714D01*
X33456285Y-109561333D01*
X34313428Y-110132761D02*
X34218190Y-110180380D01*
X34027714Y-110180380D01*
X33932476Y-110132761D01*
X33884857Y-110037523D01*
X33884857Y-109656571D01*
X33932476Y-109561333D01*
X34027714Y-109513714D01*
X34218190Y-109513714D01*
X34313428Y-109561333D01*
X34361047Y-109656571D01*
X34361047Y-109751809D01*
X33884857Y-109847047D01*
X34789619Y-110180380D02*
X34789619Y-109513714D01*
X34789619Y-109704190D02*
X34837238Y-109608952D01*
X34884857Y-109561333D01*
X34980095Y-109513714D01*
X35075333Y-109513714D01*
X35932476Y-110180380D02*
X35361047Y-110180380D01*
X35646761Y-110180380D02*
X35646761Y-109180380D01*
X35551523Y-109323238D01*
X35456285Y-109418476D01*
X35361047Y-109466095D01*
%TO.C,U1*%
X27178095Y-73957380D02*
X27178095Y-74766904D01*
X27225714Y-74862142D01*
X27273333Y-74909761D01*
X27368571Y-74957380D01*
X27559047Y-74957380D01*
X27654285Y-74909761D01*
X27701904Y-74862142D01*
X27749523Y-74766904D01*
X27749523Y-73957380D01*
X28749523Y-74957380D02*
X28178095Y-74957380D01*
X28463809Y-74957380D02*
X28463809Y-73957380D01*
X28368571Y-74100238D01*
X28273333Y-74195476D01*
X28178095Y-74243095D01*
%TO.C,R1*%
X38425380Y-98845666D02*
X37949190Y-99179000D01*
X38425380Y-99417095D02*
X37425380Y-99417095D01*
X37425380Y-99036142D01*
X37473000Y-98940904D01*
X37520619Y-98893285D01*
X37615857Y-98845666D01*
X37758714Y-98845666D01*
X37853952Y-98893285D01*
X37901571Y-98940904D01*
X37949190Y-99036142D01*
X37949190Y-99417095D01*
X38425380Y-97893285D02*
X38425380Y-98464714D01*
X38425380Y-98179000D02*
X37425380Y-98179000D01*
X37568238Y-98274238D01*
X37663476Y-98369476D01*
X37711095Y-98464714D01*
%TO.C,MPU_SEL1*%
X27884380Y-105147619D02*
X26884380Y-105147619D01*
X27598666Y-104814285D01*
X26884380Y-104480952D01*
X27884380Y-104480952D01*
X27884380Y-104004761D02*
X26884380Y-104004761D01*
X26884380Y-103623809D01*
X26932000Y-103528571D01*
X26979619Y-103480952D01*
X27074857Y-103433333D01*
X27217714Y-103433333D01*
X27312952Y-103480952D01*
X27360571Y-103528571D01*
X27408190Y-103623809D01*
X27408190Y-104004761D01*
X26884380Y-103004761D02*
X27693904Y-103004761D01*
X27789142Y-102957142D01*
X27836761Y-102909523D01*
X27884380Y-102814285D01*
X27884380Y-102623809D01*
X27836761Y-102528571D01*
X27789142Y-102480952D01*
X27693904Y-102433333D01*
X26884380Y-102433333D01*
X27979619Y-102195238D02*
X27979619Y-101433333D01*
X27836761Y-101242857D02*
X27884380Y-101100000D01*
X27884380Y-100861904D01*
X27836761Y-100766666D01*
X27789142Y-100719047D01*
X27693904Y-100671428D01*
X27598666Y-100671428D01*
X27503428Y-100719047D01*
X27455809Y-100766666D01*
X27408190Y-100861904D01*
X27360571Y-101052380D01*
X27312952Y-101147619D01*
X27265333Y-101195238D01*
X27170095Y-101242857D01*
X27074857Y-101242857D01*
X26979619Y-101195238D01*
X26932000Y-101147619D01*
X26884380Y-101052380D01*
X26884380Y-100814285D01*
X26932000Y-100671428D01*
X27360571Y-100242857D02*
X27360571Y-99909523D01*
X27884380Y-99766666D02*
X27884380Y-100242857D01*
X26884380Y-100242857D01*
X26884380Y-99766666D01*
X27884380Y-98861904D02*
X27884380Y-99338095D01*
X26884380Y-99338095D01*
X27884380Y-98004761D02*
X27884380Y-98576190D01*
X27884380Y-98290476D02*
X26884380Y-98290476D01*
X27027238Y-98385714D01*
X27122476Y-98480952D01*
X27170095Y-98576190D01*
%TO.C,J1*%
X38846166Y-26820880D02*
X38846166Y-27535166D01*
X38798547Y-27678023D01*
X38703309Y-27773261D01*
X38560452Y-27820880D01*
X38465214Y-27820880D01*
X39846166Y-27820880D02*
X39274738Y-27820880D01*
X39560452Y-27820880D02*
X39560452Y-26820880D01*
X39465214Y-26963738D01*
X39369976Y-27058976D01*
X39274738Y-27106595D01*
%TO.C,ArduinoNanoV3*%
X25861047Y-27725666D02*
X26337238Y-27725666D01*
X25765809Y-28011380D02*
X26099142Y-27011380D01*
X26432476Y-28011380D01*
X26765809Y-28011380D02*
X26765809Y-27344714D01*
X26765809Y-27535190D02*
X26813428Y-27439952D01*
X26861047Y-27392333D01*
X26956285Y-27344714D01*
X27051523Y-27344714D01*
X27813428Y-28011380D02*
X27813428Y-27011380D01*
X27813428Y-27963761D02*
X27718190Y-28011380D01*
X27527714Y-28011380D01*
X27432476Y-27963761D01*
X27384857Y-27916142D01*
X27337238Y-27820904D01*
X27337238Y-27535190D01*
X27384857Y-27439952D01*
X27432476Y-27392333D01*
X27527714Y-27344714D01*
X27718190Y-27344714D01*
X27813428Y-27392333D01*
X28718190Y-27344714D02*
X28718190Y-28011380D01*
X28289619Y-27344714D02*
X28289619Y-27868523D01*
X28337238Y-27963761D01*
X28432476Y-28011380D01*
X28575333Y-28011380D01*
X28670571Y-27963761D01*
X28718190Y-27916142D01*
X29194380Y-28011380D02*
X29194380Y-27344714D01*
X29194380Y-27011380D02*
X29146761Y-27059000D01*
X29194380Y-27106619D01*
X29242000Y-27059000D01*
X29194380Y-27011380D01*
X29194380Y-27106619D01*
X29670571Y-27344714D02*
X29670571Y-28011380D01*
X29670571Y-27439952D02*
X29718190Y-27392333D01*
X29813428Y-27344714D01*
X29956285Y-27344714D01*
X30051523Y-27392333D01*
X30099142Y-27487571D01*
X30099142Y-28011380D01*
X30718190Y-28011380D02*
X30622952Y-27963761D01*
X30575333Y-27916142D01*
X30527714Y-27820904D01*
X30527714Y-27535190D01*
X30575333Y-27439952D01*
X30622952Y-27392333D01*
X30718190Y-27344714D01*
X30861047Y-27344714D01*
X30956285Y-27392333D01*
X31003904Y-27439952D01*
X31051523Y-27535190D01*
X31051523Y-27820904D01*
X31003904Y-27916142D01*
X30956285Y-27963761D01*
X30861047Y-28011380D01*
X30718190Y-28011380D01*
X31480095Y-28011380D02*
X31480095Y-27011380D01*
X32051523Y-28011380D01*
X32051523Y-27011380D01*
X32956285Y-28011380D02*
X32956285Y-27487571D01*
X32908666Y-27392333D01*
X32813428Y-27344714D01*
X32622952Y-27344714D01*
X32527714Y-27392333D01*
X32956285Y-27963761D02*
X32861047Y-28011380D01*
X32622952Y-28011380D01*
X32527714Y-27963761D01*
X32480095Y-27868523D01*
X32480095Y-27773285D01*
X32527714Y-27678047D01*
X32622952Y-27630428D01*
X32861047Y-27630428D01*
X32956285Y-27582809D01*
X33432476Y-27344714D02*
X33432476Y-28011380D01*
X33432476Y-27439952D02*
X33480095Y-27392333D01*
X33575333Y-27344714D01*
X33718190Y-27344714D01*
X33813428Y-27392333D01*
X33861047Y-27487571D01*
X33861047Y-28011380D01*
X34480095Y-28011380D02*
X34384857Y-27963761D01*
X34337238Y-27916142D01*
X34289619Y-27820904D01*
X34289619Y-27535190D01*
X34337238Y-27439952D01*
X34384857Y-27392333D01*
X34480095Y-27344714D01*
X34622952Y-27344714D01*
X34718190Y-27392333D01*
X34765809Y-27439952D01*
X34813428Y-27535190D01*
X34813428Y-27820904D01*
X34765809Y-27916142D01*
X34718190Y-27963761D01*
X34622952Y-28011380D01*
X34480095Y-28011380D01*
X35099142Y-27011380D02*
X35432476Y-28011380D01*
X35765809Y-27011380D01*
X36003904Y-27011380D02*
X36622952Y-27011380D01*
X36289619Y-27392333D01*
X36432476Y-27392333D01*
X36527714Y-27439952D01*
X36575333Y-27487571D01*
X36622952Y-27582809D01*
X36622952Y-27820904D01*
X36575333Y-27916142D01*
X36527714Y-27963761D01*
X36432476Y-28011380D01*
X36146761Y-28011380D01*
X36051523Y-27963761D01*
X36003904Y-27916142D01*
%TD*%
M02*
