M48
; DRILL file {KiCad (5.1.6)-1} date 03/12/21 09:15:58
; FORMAT={-:-/ absolute / inch / decimal}
; #@! TF.CreationDate,2021-03-12T09:15:58-05:00
; #@! TF.GenerationSoftware,Kicad,Pcbnew,(5.1.6)-1
; #@! TF.FileFunction,Plated,1,2,PTH
FMAT,2
INCH
T1C0.0240
T2C0.0315
T3C0.0394
T4C0.0472
%
G90
G05
T1
X0.915Y-1.085
X0.95Y-4.225
X0.95Y-4.29
X0.985Y-2.845
X1.01Y-4.225
X1.01Y-4.29
X1.025Y-3.185
X1.045Y-3.275
X1.065Y-3.125
X1.18Y-3.12
X1.215Y-4.165
X1.215Y-4.23
X1.215Y-4.3
X1.225Y-2.045
X1.225Y-2.765
X1.23Y-2.35
X1.27Y-1.9
X1.275Y-2.82
X1.285Y-4.09
X1.285Y-4.165
X1.285Y-4.23
X1.32Y-1.6
X1.32Y-1.7
X1.32Y-1.8
X1.3225Y-2.87
X1.355Y-4.09
X1.355Y-4.165
X1.37Y-2.92
X1.385Y-3.205
X1.425Y-3.425
X1.425Y-4.09
X1.44Y-2.92
X1.455Y-2.15
X1.455Y-2.25
X1.455Y-2.395
X1.455Y-2.645
X1.52Y-3.345
X1.52Y-3.425
X1.52Y-3.565
X1.585Y-4.425
X1.595Y-2.27
X1.6225Y-1.075
X1.655Y-4.085
X1.655Y-4.175
X1.655Y-4.275
X1.6675Y-3.375
X1.805Y-4.08
X1.805Y-4.125
X1.805Y-4.175
T2
X1.385Y-3.025
X1.385Y-3.1234
X0.95Y-3.025
X0.95Y-3.125
X0.95Y-3.225
X0.95Y-3.325
X0.95Y-3.425
X0.95Y-3.525
X0.95Y-3.625
X1.25Y-3.025
X1.25Y-3.125
X1.25Y-3.225
X1.25Y-3.325
X1.25Y-3.425
X1.25Y-3.525
X1.25Y-3.625
T3
X0.95Y-4.425
X1.05Y-4.425
X1.15Y-4.425
X1.25Y-4.425
X1.35Y-4.425
X1.45Y-4.425
X1.48Y-4.22
X1.725Y-1.125
X1.725Y-1.225
X1.725Y-1.325
X1.725Y-1.425
X1.725Y-1.525
X1.725Y-1.625
X1.725Y-1.725
X1.725Y-1.825
X1.725Y-1.925
X1.725Y-2.025
X1.725Y-2.125
X1.725Y-2.225
X1.725Y-2.325
X1.725Y-2.425
X1.725Y-2.525
X1.725Y-2.625
X1.725Y-2.725
X1.725Y-2.825
X1.725Y-2.925
X1.725Y-3.025
X1.725Y-3.125
X1.725Y-3.225
X1.725Y-3.325
X1.725Y-3.425
X1.725Y-3.525
X1.725Y-3.625
X1.725Y-3.725
X1.725Y-3.825
X1.725Y-3.925
X1.725Y-4.025
X1.725Y-4.125
X1.725Y-4.225
X1.725Y-4.325
X1.725Y-4.425
X0.95Y-3.95
X0.95Y-4.05
X0.925Y-1.3
X0.925Y-1.4
X0.925Y-1.5
X0.925Y-1.6
X0.925Y-1.7
X0.925Y-1.8
X0.925Y-1.9
X0.925Y-2.0
X0.925Y-2.1
X0.925Y-2.2
X0.925Y-2.3
X0.925Y-2.4
X0.925Y-2.5
X0.925Y-2.6
X0.925Y-2.7
X1.525Y-1.3
X1.525Y-1.4
X1.525Y-1.5
X1.525Y-1.6
X1.525Y-1.7
X1.525Y-1.8
X1.525Y-1.9
X1.525Y-2.0
X1.525Y-2.1
X1.525Y-2.2
X1.525Y-2.3
X1.525Y-2.4
X1.525Y-2.5
X1.525Y-2.6
X1.525Y-2.7
X1.875Y-1.125
X1.875Y-1.225
X1.875Y-1.325
X1.875Y-1.425
X1.875Y-1.525
X1.875Y-1.625
X1.875Y-1.725
X1.875Y-1.825
X1.875Y-1.925
X1.875Y-2.025
X1.875Y-2.125
X1.875Y-2.225
X1.875Y-2.325
X1.875Y-2.425
X1.875Y-2.525
X1.875Y-2.625
X1.875Y-2.725
X1.875Y-2.825
X1.875Y-2.925
X1.875Y-3.025
X1.875Y-3.125
X1.875Y-3.225
X1.875Y-3.325
X1.875Y-3.425
X1.875Y-3.525
X1.875Y-3.625
X1.875Y-3.725
X1.875Y-3.825
X1.875Y-3.925
X1.875Y-4.025
X1.875Y-4.125
X1.875Y-4.225
X1.875Y-4.325
X1.875Y-4.425
T4
X1.495Y-3.185
X1.495Y-3.785
T0
M30
